<svg width="190" height="245" viewBox="0 0 190 245" fill="none" xmlns="http://www.w3.org/2000/svg">
    <g filter="url(#filter0_d_0_3487)">
    <g filter="url(#filter1_b_0_3487)">
    <path d="M4 21.3486C4 12.0288 11.5552 4.47363 20.875 4.47363H162.625C171.945 4.47363 179.5 12.0288 179.5 21.3486V98.9736H4V21.3486Z" fill="#D9D9D9" fill-opacity="0.1"/>
    </g>
    <g filter="url(#filter2_b_0_3487)">
    <path d="M179.5 178.286C179.5 187.606 171.945 195.161 162.625 195.161H20.875C11.5552 195.161 4 187.606 4 178.286V100.661H179.5V178.286Z" fill="#D9D9D9" fill-opacity="0.1"/>
    </g>
    </g>
    <path d="M44.8965 95.8159C44.8965 84.3492 47.0965 75.3159 51.4965 68.7159C55.9632 62.1159 63.1298 58.8159 72.9965 58.8159C82.8632 58.8159 89.9965 62.1159 94.3965 68.7159C98.8632 75.3159 101.096 84.3492 101.096 95.8159C101.096 107.416 98.8632 116.516 94.3965 123.116C89.9965 129.716 82.8632 133.016 72.9965 133.016C63.1298 133.016 55.9632 129.716 51.4965 123.116C47.0965 116.516 44.8965 107.416 44.8965 95.8159ZM84.2965 95.8159C84.2965 89.0826 83.5632 83.9159 82.0965 80.3159C80.6298 76.6492 77.5965 74.8159 72.9965 74.8159C68.3965 74.8159 65.3632 76.6492 63.8965 80.3159C62.4298 83.9159 61.6965 89.0826 61.6965 95.8159C61.6965 100.349 61.9632 104.116 62.4965 107.116C63.0298 110.049 64.0965 112.449 65.6965 114.316C67.3632 116.116 69.7965 117.016 72.9965 117.016C76.1965 117.016 78.5965 116.116 80.1965 114.316C81.8632 112.449 82.9632 110.049 83.4965 107.116C84.0298 104.116 84.2965 100.349 84.2965 95.8159ZM108.331 76.2159V60.3159H136.031V133.316H118.231V76.2159H108.331Z" fill="white"/>
    <path d="M63.6012 215.738C65.8813 215.738 67.8513 216.168 69.5113 217.028C71.1913 217.868 72.4713 219.078 73.3513 220.658C74.2513 222.238 74.7013 224.098 74.7013 226.238C74.7013 228.378 74.2513 230.238 73.3513 231.818C72.4713 233.378 71.1913 234.578 69.5113 235.418C67.8513 236.238 65.8813 236.648 63.6012 236.648H57.0913V215.738H63.6012ZM63.6012 234.398C66.3013 234.398 68.3613 233.688 69.7812 232.268C71.2013 230.828 71.9113 228.818 71.9113 226.238C71.9113 223.638 71.1913 221.608 69.7513 220.148C68.3313 218.688 66.2813 217.958 63.6012 217.958H59.8213V234.398H63.6012ZM77.2822 228.368C77.2822 226.688 77.6222 225.218 78.3022 223.958C78.9822 222.678 79.9122 221.688 81.0922 220.988C82.2922 220.288 83.6222 219.938 85.0822 219.938C86.5222 219.938 87.7722 220.248 88.8322 220.868C89.8922 221.488 90.6822 222.268 91.2022 223.208V220.208H93.9622V236.648H91.2022V233.588C90.6622 234.548 89.8522 235.348 88.7722 235.988C87.7122 236.608 86.4722 236.918 85.0522 236.918C83.5922 236.918 82.2722 236.558 81.0922 235.838C79.9122 235.118 78.9822 234.108 78.3022 232.808C77.6222 231.508 77.2822 230.028 77.2822 228.368ZM91.2022 228.398C91.2022 227.158 90.9522 226.078 90.4522 225.158C89.9522 224.238 89.2722 223.538 88.4122 223.058C87.5722 222.558 86.6422 222.308 85.6222 222.308C84.6022 222.308 83.6722 222.548 82.8322 223.028C81.9922 223.508 81.3222 224.208 80.8222 225.128C80.3222 226.048 80.0722 227.128 80.0722 228.368C80.0722 229.628 80.3222 230.728 80.8222 231.668C81.3222 232.588 81.9922 233.298 82.8322 233.798C83.6722 234.278 84.6022 234.518 85.6222 234.518C86.6422 234.518 87.5722 234.278 88.4122 233.798C89.2722 233.298 89.9522 232.588 90.4522 231.668C90.9522 230.728 91.2022 229.638 91.2022 228.398ZM112.736 220.208L102.836 244.388H100.016L103.256 236.468L96.6256 220.208H99.6556L104.816 233.528L109.916 220.208H112.736ZM121.3 236.918C120.04 236.918 118.91 236.708 117.91 236.288C116.91 235.848 116.12 235.248 115.54 234.488C114.96 233.708 114.64 232.818 114.58 231.818H117.4C117.48 232.638 117.86 233.308 118.54 233.828C119.24 234.348 120.15 234.608 121.27 234.608C122.31 234.608 123.13 234.378 123.73 233.918C124.33 233.458 124.63 232.878 124.63 232.178C124.63 231.458 124.31 230.928 123.67 230.588C123.03 230.228 122.04 229.878 120.7 229.538C119.48 229.218 118.48 228.898 117.7 228.578C116.94 228.238 116.28 227.748 115.72 227.108C115.18 226.448 114.91 225.588 114.91 224.528C114.91 223.688 115.16 222.918 115.66 222.218C116.16 221.518 116.87 220.968 117.79 220.568C118.71 220.148 119.76 219.938 120.94 219.938C122.76 219.938 124.23 220.398 125.35 221.318C126.47 222.238 127.07 223.498 127.15 225.098H124.42C124.36 224.238 124.01 223.548 123.37 223.028C122.75 222.508 121.91 222.248 120.85 222.248C119.87 222.248 119.09 222.458 118.51 222.878C117.93 223.298 117.64 223.848 117.64 224.528C117.64 225.068 117.81 225.518 118.15 225.878C118.51 226.218 118.95 226.498 119.47 226.718C120.01 226.918 120.75 227.148 121.69 227.408C122.87 227.728 123.83 228.048 124.57 228.368C125.31 228.668 125.94 229.128 126.46 229.748C127 230.368 127.28 231.178 127.3 232.178C127.3 233.078 127.05 233.888 126.55 234.608C126.05 235.328 125.34 235.898 124.42 236.318C123.52 236.718 122.48 236.918 121.3 236.918Z" fill="white"/>
    <defs>
    <filter id="filter0_d_0_3487" x="0.250002" y="0.723635" width="189" height="204.187" filterUnits="userSpaceOnUse" color-interpolation-filters="sRGB">
    <feFlood flood-opacity="0" result="BackgroundImageFix"/>
    <feColorMatrix in="SourceAlpha" type="matrix" values="0 0 0 0 0 0 0 0 0 0 0 0 0 0 0 0 0 0 127 0" result="hardAlpha"/>
    <feOffset dx="3" dy="3"/>
    <feGaussianBlur stdDeviation="3.375"/>
    <feComposite in2="hardAlpha" operator="out"/>
    <feColorMatrix type="matrix" values="0 0 0 0 0 0 0 0 0 0 0 0 0 0 0 0 0 0 0.1 0"/>
    <feBlend mode="normal" in2="BackgroundImageFix" result="effect1_dropShadow_0_3487"/>
    <feBlend mode="normal" in="SourceGraphic" in2="effect1_dropShadow_0_3487" result="shape"/>
    </filter>
    <filter id="filter1_b_0_3487" x="-96" y="-95.5264" width="375.5" height="294.5" filterUnits="userSpaceOnUse" color-interpolation-filters="sRGB">
    <feFlood flood-opacity="0" result="BackgroundImageFix"/>
    <feGaussianBlur in="BackgroundImageFix" stdDeviation="50"/>
    <feComposite in2="SourceAlpha" operator="in" result="effect1_backgroundBlur_0_3487"/>
    <feBlend mode="normal" in="SourceGraphic" in2="effect1_backgroundBlur_0_3487" result="shape"/>
    </filter>
    <filter id="filter2_b_0_3487" x="-96" y="0.661133" width="375.5" height="294.5" filterUnits="userSpaceOnUse" color-interpolation-filters="sRGB">
    <feFlood flood-opacity="0" result="BackgroundImageFix"/>
    <feGaussianBlur in="BackgroundImageFix" stdDeviation="50"/>
    <feComposite in2="SourceAlpha" operator="in" result="effect1_backgroundBlur_0_3487"/>
    <feBlend mode="normal" in="SourceGraphic" in2="effect1_backgroundBlur_0_3487" result="shape"/>
    </filter>
    </defs>
    </svg>
    