<svg width="1920" height="1240" viewBox="0 0 1920 1240" fill="none" xmlns="http://www.w3.org/2000/svg">
    <mask id="mask0_0_3161" style="mask-type:luminance" maskUnits="userSpaceOnUse" x="0" y="0" width="1920" height="1240">
    <path d="M1920 0.0683594H0V1239.56H1920V0.0683594Z" fill="white"/>
    </mask>
    <g mask="url(#mask0_0_3161)">
    <path d="M1920 0.0661621H0.00195312V1239.56H1920V0.0661621Z" fill="url(#paint0_linear_0_3161)"/>
    <g opacity="0.5">
    <path d="M993.716 71.1157C993.716 73.3964 991.795 75.2556 989.44 75.2556C987.085 75.2556 985.165 73.3964 985.165 71.1157C985.165 68.8351 987.085 66.9758 989.44 66.9758C991.795 66.9758 993.716 68.8351 993.716 71.1157Z" fill="#5A9CD4"/>
    <path d="M322.996 79.8174C325.357 79.8174 327.271 77.9639 327.271 75.6775C327.271 73.3911 325.357 71.5376 322.996 71.5376C320.635 71.5376 318.721 73.3911 318.721 75.6775C318.721 77.9639 320.635 79.8174 322.996 79.8174Z" fill="#5A9CD4"/>
    <path d="M1076.48 285.152C1076.48 287.433 1074.56 289.292 1072.2 289.292C1069.85 289.292 1067.93 287.433 1067.93 285.152C1067.93 282.871 1069.85 281.012 1072.2 281.012C1074.56 281.012 1076.48 282.871 1076.48 285.152Z" fill="#5A9CD4"/>
    <path d="M889.166 227.293C889.166 229.573 887.246 231.433 884.89 231.433C882.535 231.433 880.615 229.573 880.615 227.293C880.615 225.012 882.535 223.153 884.89 223.153C887.246 223.153 889.166 225.012 889.166 227.293Z" fill="#5A9CD4"/>
    <path d="M1065.81 466.936C1065.81 469.216 1063.89 471.076 1061.53 471.076C1059.17 471.076 1057.25 469.216 1057.25 466.936C1057.25 464.655 1059.17 462.796 1061.53 462.796C1063.89 462.796 1065.81 464.655 1065.81 466.936Z" fill="#5A9CD4"/>
    <path d="M1480.53 56.2424C1480.53 58.5231 1478.6 60.3823 1476.25 60.3823C1473.89 60.3823 1471.97 58.5231 1471.97 56.2424C1471.97 53.9618 1473.89 52.1025 1476.25 52.1025C1478.6 52.1025 1480.53 53.9618 1480.53 56.2424Z" fill="#5A9CD4"/>
    <path d="M868.48 140.551C870.841 140.551 872.756 138.698 872.756 136.411C872.756 134.125 870.841 132.271 868.48 132.271C866.119 132.271 864.205 134.125 864.205 136.411C864.205 138.698 866.119 140.551 868.48 140.551Z" fill="#5A9CD4"/>
    <path d="M915.201 398.366C917.562 398.366 919.476 396.512 919.476 394.226C919.476 391.939 917.562 390.086 915.201 390.086C912.84 390.086 910.926 391.939 910.926 394.226C910.926 396.512 912.84 398.366 915.201 398.366Z" fill="#5A9CD4"/>
    <path d="M654.515 1081.72C654.515 1084 652.595 1085.86 650.24 1085.86C647.885 1085.86 645.965 1084 645.965 1081.72C645.965 1079.44 647.885 1077.58 650.24 1077.58C652.595 1077.58 654.515 1079.44 654.515 1081.72Z" fill="#5A9CD4"/>
    <path d="M1367.89 797.458C1367.89 799.739 1365.97 801.598 1363.61 801.598C1361.25 801.598 1359.33 799.739 1359.33 797.458C1359.33 795.178 1361.25 793.318 1363.61 793.318C1365.97 793.318 1367.89 795.178 1367.89 797.458Z" fill="#5A9CD4"/>
    <path d="M1611.96 709.875C1611.96 712.156 1610.04 714.015 1607.68 714.015C1605.33 714.015 1603.41 712.156 1603.41 709.875C1603.41 707.595 1605.33 705.735 1607.68 705.735C1610.04 705.735 1611.96 707.595 1611.96 709.875Z" fill="#5A9CD4"/>
    <path d="M1406.29 491.725C1406.29 494.006 1404.37 495.865 1402.01 495.865C1399.66 495.865 1397.74 494.006 1397.74 491.725C1397.74 489.445 1399.66 487.585 1402.01 487.585C1404.37 487.585 1406.29 489.445 1406.29 491.725Z" fill="#5A9CD4"/>
    <path d="M1478.84 214.078C1478.84 216.359 1476.92 218.218 1474.56 218.218C1472.21 218.218 1470.29 216.359 1470.29 214.078C1470.29 211.798 1472.21 209.938 1474.56 209.938C1476.92 209.938 1478.84 211.798 1478.84 214.078Z" fill="#5A9CD4"/>
    <path d="M1029.97 782.585C1029.97 784.865 1028.05 786.725 1025.69 786.725C1023.34 786.725 1021.42 784.865 1021.42 782.585C1021.42 780.304 1023.34 778.445 1025.69 778.445C1028.05 778.445 1029.97 780.304 1029.97 782.585Z" fill="#5A9CD4"/>
    <path d="M1152.85 1068.51C1152.85 1070.79 1150.93 1072.65 1148.57 1072.65C1146.21 1072.65 1144.29 1070.79 1144.29 1068.51C1144.29 1066.23 1146.21 1064.37 1148.57 1064.37C1150.93 1064.37 1152.85 1066.23 1152.85 1068.51Z" fill="#5A9CD4"/>
    <path d="M1000.96 1160.23C1000.96 1162.51 999.041 1164.37 996.685 1164.37C994.33 1164.37 992.41 1162.51 992.41 1160.23C992.41 1157.95 994.33 1156.09 996.685 1156.09C999.041 1156.09 1000.96 1157.95 1000.96 1160.23Z" fill="#5A9CD4"/>
    <path d="M555.521 961.914C555.521 964.194 553.601 966.054 551.246 966.054C548.891 966.054 546.971 964.194 546.971 961.914C546.971 959.633 548.891 957.774 551.246 957.774C553.601 957.774 555.521 959.633 555.521 961.914Z" fill="#5A9CD4"/>
    <path d="M512.64 102.128C516.415 102.128 519.475 99.165 519.475 95.5095C519.475 91.854 516.415 88.8906 512.64 88.8906C508.865 88.8906 505.805 91.854 505.805 95.5095C505.805 99.165 508.865 102.128 512.64 102.128Z" fill="#F9FAFD"/>
    <path d="M781.645 316.536C781.645 320.18 778.599 323.155 774.81 323.155C771.021 323.155 767.975 320.205 767.975 316.536C767.975 312.867 771.021 309.917 774.81 309.917C778.599 309.917 781.645 312.867 781.645 316.536Z" fill="#F9FAFD"/>
    <path d="M1146.04 920.59C1146.04 924.234 1142.99 927.208 1139.2 927.208C1135.41 927.208 1132.37 924.259 1132.37 920.59C1132.37 916.921 1135.41 913.971 1139.2 913.971C1142.99 913.971 1146.04 916.921 1146.04 920.59Z" fill="#F9FAFD"/>
    <path d="M1579.52 525.614C1579.52 529.258 1576.47 532.232 1572.68 532.232C1568.9 532.232 1565.85 529.282 1565.85 525.614C1565.85 521.945 1568.9 518.995 1572.68 518.995C1576.47 518.995 1579.52 521.945 1579.52 525.614Z" fill="#F9FAFD"/>
    <path d="M520.526 1086.68C520.526 1090.33 517.479 1093.3 513.691 1093.3C509.902 1093.3 506.855 1090.35 506.855 1086.68C506.855 1083.01 509.902 1080.06 513.691 1080.06C517.479 1080.06 520.526 1083.01 520.526 1086.68Z" fill="#F9FAFD"/>
    <path d="M1853.44 775.991C1853.44 779.635 1850.39 782.61 1846.61 782.61C1842.82 782.61 1839.77 779.66 1839.77 775.991C1839.77 772.322 1842.82 769.372 1846.61 769.372C1850.39 769.372 1853.44 772.322 1853.44 775.991Z" fill="#F9FAFD"/>
    <path d="M208.206 1190.8C208.206 1194.44 205.159 1197.42 201.37 1197.42C197.582 1197.42 194.535 1194.47 194.535 1190.8C194.535 1187.13 197.582 1184.18 201.37 1184.18C205.159 1184.18 208.206 1187.13 208.206 1190.8Z" fill="#F9FAFD"/>
    <path d="M522.239 336.392C526.014 336.392 529.075 333.429 529.075 329.773C529.075 326.118 526.014 323.154 522.239 323.154C518.465 323.154 515.404 326.118 515.404 329.773C515.404 333.429 518.465 336.392 522.239 336.392Z" fill="#F9FAFD"/>
    <path d="M1286.84 205.402C1286.84 209.046 1283.79 212.021 1280 212.021C1276.21 212.021 1273.17 209.071 1273.17 205.402C1273.17 201.733 1276.21 198.783 1280 198.783C1283.79 198.783 1286.84 201.733 1286.84 205.402Z" fill="#F9FAFD"/>
    <path d="M1863.68 182.671C1863.68 186.315 1860.63 189.29 1856.85 189.29C1853.06 189.29 1850.01 186.34 1850.01 182.671C1850.01 179.002 1853.06 176.052 1856.85 176.052C1860.63 176.052 1863.68 179.002 1863.68 182.671Z" fill="#F9FAFD"/>
    </g>
    </g>
    <defs>
    <linearGradient id="paint0_linear_0_3161" x1="706.562" y1="619.812" x2="2165.79" y2="619.812" gradientUnits="userSpaceOnUse">
    <stop offset="0.01" stop-color="#380060"/>
    <stop offset="0.54" stop-color="#260042"/>
    <stop offset="1" stop-color="#1C0030"/>
    </linearGradient>
    </defs>
    </svg>
    