<svg width="682" height="681" viewBox="0 0 682 681" fill="none" xmlns="http://www.w3.org/2000/svg">
    <path d="M306.566 434.929C323.206 418.289 323.206 391.309 306.566 374.669C289.925 358.028 262.946 358.028 246.306 374.669C229.665 391.309 229.665 418.289 246.306 434.929C262.946 451.569 289.925 451.569 306.566 434.929Z" fill="white"/>
    <path d="M435.694 305.8C452.335 289.16 452.335 262.18 435.694 245.54C419.054 228.899 392.075 228.899 375.434 245.54C358.794 262.18 358.794 289.16 375.434 305.8C392.075 322.44 419.054 322.44 435.694 305.8Z" fill="#FADC00"/>
    <path d="M257.759 327.889L257.871 327.861L258.09 327.797C274.306 323.095 289.6 314.347 302.356 301.59C315.113 288.834 323.861 273.54 328.563 257.324L328.626 257.106L328.654 256.994C329.007 255.775 329.338 254.539 329.644 253.292C333.249 241.013 339.895 229.428 349.609 219.714C380.511 188.812 430.618 188.812 461.52 219.714C492.423 250.617 492.423 300.723 461.52 331.626C451.523 341.623 439.55 348.367 426.872 351.894C426.829 351.905 426.784 351.917 426.738 351.929C426.287 352.046 425.675 352.206 425.067 352.379C408.432 356.997 392.726 365.848 379.67 378.904C366.614 391.96 357.763 407.666 353.145 424.302C352.971 424.909 352.812 425.521 352.695 425.971C352.683 426.018 352.671 426.063 352.66 426.107C349.132 438.785 342.388 450.758 332.391 460.755C301.489 491.657 251.382 491.657 220.48 460.755C189.577 429.852 189.577 379.745 220.48 348.843C230.194 339.129 241.778 332.483 254.058 328.878C255.305 328.573 256.54 328.241 257.759 327.889Z" stroke="white" stroke-width="24.3488"/>
    <path d="M340.391 340.663C375.763 376.034 375.763 433.383 340.391 468.754C305.02 504.126 247.671 504.126 212.299 468.754C176.928 433.383 176.928 376.034 212.299 340.663C247.671 305.291 305.02 305.291 340.391 340.663Z" stroke="white" stroke-opacity="0.3" stroke-width="1.46679"/>
    <path d="M323.871 452.234C350.302 425.803 350.504 383.135 324.301 356.933C298.099 330.73 255.431 330.932 229 357.363C202.569 383.794 202.367 426.462 228.57 452.664C254.772 478.867 297.44 478.665 323.871 452.234Z" stroke="white" stroke-opacity="0.3" stroke-width="1.46679"/>
    <path d="M307.084 435.447C324.011 418.521 324.011 391.077 307.084 374.15C290.157 357.223 262.714 357.223 245.787 374.15C228.86 391.077 228.86 418.521 245.787 435.447C262.714 452.374 290.157 452.374 307.084 435.447Z" stroke="white" stroke-opacity="0.3" stroke-width="1.46679"/>
    <path d="M436.213 306.319C453.14 289.392 453.14 261.948 436.213 245.021C419.286 228.094 391.843 228.094 374.916 245.021C357.989 261.948 357.989 289.392 374.916 306.319C391.843 323.245 419.286 323.245 436.213 306.319Z" stroke="white" stroke-opacity="0.3" stroke-width="1.46679"/>
    <path d="M453 323.105C479.431 296.674 479.632 254.006 453.43 227.804C427.228 201.602 384.56 201.803 358.129 228.234C331.698 254.665 331.496 297.333 357.699 323.535C383.901 349.738 426.569 349.536 453 323.105Z" stroke="white" stroke-opacity="0.3" stroke-width="1.46679"/>
    <path d="M469.52 211.534C504.891 246.905 504.891 304.254 469.52 339.625C434.148 374.997 376.8 374.997 341.428 339.625C306.057 304.254 306.057 246.905 341.428 211.534C376.8 176.162 434.148 176.162 469.52 211.534Z" stroke="white" stroke-opacity="0.3" stroke-width="1.46679"/>
    <path d="M293.565 164.707C328.936 200.079 328.936 257.427 293.565 292.799C258.193 328.17 200.844 328.17 165.473 292.799C130.101 257.427 130.101 200.079 165.473 164.707C200.844 129.336 258.193 129.336 293.565 164.707Z" stroke="white" stroke-opacity="0.3" stroke-width="1.46679"/>
    <path d="M310.351 147.06C355.232 191.94 355.232 264.705 310.351 309.586C265.471 354.466 192.706 354.466 147.825 309.586C102.945 264.705 102.945 191.94 147.825 147.06C192.706 102.179 265.471 102.179 310.351 147.06Z" stroke="white" stroke-opacity="0.3" stroke-width="1.46679"/>
    <path d="M327.568 129.843C381.958 184.232 381.958 272.414 327.568 326.803C273.179 381.192 184.997 381.192 130.608 326.803C76.2191 272.414 76.2191 184.232 130.608 129.843C184.997 75.4535 273.179 75.4535 327.568 129.843Z" stroke="white" stroke-opacity="0.3" stroke-width="1.46679"/>
    <path d="M551.392 353.666C605.781 408.055 605.781 496.237 551.392 550.626C497.003 605.015 408.821 605.015 354.431 550.626C300.042 496.237 300.042 408.055 354.431 353.666C408.821 299.277 497.003 299.277 551.392 353.666Z" stroke="white" stroke-opacity="0.3" stroke-width="1.46679"/>
    <path d="M534.175 370.883C579.055 415.763 579.055 488.529 534.175 533.409C489.294 578.289 416.529 578.289 371.649 533.409C326.768 488.529 326.768 415.763 371.649 370.883C416.529 326.003 489.294 326.003 534.175 370.883Z" stroke="white" stroke-opacity="0.3" stroke-width="1.46679"/>
    <path d="M516.794 387.937C552.165 423.308 552.165 480.657 516.794 516.028C481.422 551.4 424.074 551.4 388.702 516.028C353.331 480.657 353.331 423.308 388.702 387.937C424.074 352.565 481.422 352.565 516.794 387.937Z" stroke="white" stroke-opacity="0.3" stroke-width="1.46679"/>
    </svg>
    