<svg width="190" height="244" viewBox="0 0 190 244" fill="none" xmlns="http://www.w3.org/2000/svg">
    <g filter="url(#filter0_d_0_3493)">
    <g filter="url(#filter1_b_0_3493)">
    <path d="M4.5 21.3486C4.5 12.0288 12.0552 4.47363 21.375 4.47363H163.125C172.445 4.47363 180 12.0288 180 21.3486V98.9736H4.5V21.3486Z" fill="#D9D9D9" fill-opacity="0.1"/>
    </g>
    <g filter="url(#filter2_b_0_3493)">
    <path d="M180 178.286C180 187.606 172.445 195.161 163.125 195.161H21.375C12.0552 195.161 4.5 187.606 4.5 178.286V100.661H180V178.286Z" fill="#D9D9D9" fill-opacity="0.1"/>
    </g>
    </g>
    <path d="M48.8492 119.616C51.1159 117.816 52.1492 116.983 51.9492 117.116C58.4826 111.716 63.6159 107.283 67.3492 103.816C71.1492 100.349 74.3492 96.7159 76.9492 92.9159C79.5492 89.1159 80.8492 85.4159 80.8492 81.8159C80.8492 79.0826 80.2159 76.9492 78.9492 75.4159C77.6826 73.8826 75.7826 73.1159 73.2492 73.1159C70.7159 73.1159 68.7159 74.0826 67.2492 76.0159C65.8492 77.8826 65.1492 80.5492 65.1492 84.0159H48.6492C48.7826 78.3492 49.9826 73.6159 52.2492 69.8159C54.5826 66.0159 57.6159 63.2159 61.3492 61.4159C65.1492 59.6159 69.3492 58.7159 73.9492 58.7159C81.8826 58.7159 87.8492 60.7492 91.8492 64.8159C95.9159 68.8826 97.9492 74.1826 97.9492 80.7159C97.9492 87.8492 95.5159 94.4826 90.6492 100.616C85.7826 106.683 79.5826 112.616 72.0492 118.416H99.0492V132.316H48.8492V119.616ZM104.778 76.2159V60.3159H132.478V133.316H114.678V76.2159H104.778Z" fill="white"/>
    <path d="M68.6622 215.738V236.648H65.9322V227.168H55.2822V236.648H52.5522V215.738H55.2822V224.918H65.9322V215.738H68.6622ZM80.4937 236.918C78.9537 236.918 77.5537 236.568 76.2937 235.868C75.0537 235.168 74.0737 234.178 73.3537 232.898C72.6537 231.598 72.3037 230.098 72.3037 228.398C72.3037 226.718 72.6637 225.238 73.3837 223.958C74.1237 222.658 75.1237 221.668 76.3837 220.988C77.6437 220.288 79.0537 219.938 80.6137 219.938C82.1737 219.938 83.5837 220.288 84.8437 220.988C86.1037 221.668 87.0937 222.648 87.8137 223.928C88.5537 225.208 88.9237 226.698 88.9237 228.398C88.9237 230.098 88.5437 231.598 87.7837 232.898C87.0437 234.178 86.0337 235.168 84.7537 235.868C83.4737 236.568 82.0537 236.918 80.4937 236.918ZM80.4937 234.518C81.4737 234.518 82.3937 234.288 83.2537 233.828C84.1137 233.368 84.8037 232.678 85.3237 231.758C85.8637 230.838 86.1337 229.718 86.1337 228.398C86.1337 227.078 85.8737 225.958 85.3537 225.038C84.8337 224.118 84.1537 223.438 83.3137 222.998C82.4737 222.538 81.5637 222.308 80.5837 222.308C79.5837 222.308 78.6637 222.538 77.8237 222.998C77.0037 223.438 76.3437 224.118 75.8437 225.038C75.3437 225.958 75.0937 227.078 75.0937 228.398C75.0937 229.738 75.3337 230.868 75.8137 231.788C76.3137 232.708 76.9737 233.398 77.7937 233.858C78.6137 234.298 79.5137 234.518 80.4937 234.518ZM107.093 220.208V236.648H104.363V234.218C103.843 235.058 103.113 235.718 102.173 236.198C101.253 236.658 100.233 236.888 99.1131 236.888C97.8331 236.888 96.6831 236.628 95.6631 236.108C94.6431 235.568 93.8331 234.768 93.2331 233.708C92.6531 232.648 92.3631 231.358 92.3631 229.838V220.208H95.0631V229.478C95.0631 231.098 95.4731 232.348 96.2931 233.228C97.1131 234.088 98.2331 234.518 99.6531 234.518C101.113 234.518 102.263 234.068 103.103 233.168C103.943 232.268 104.363 230.958 104.363 229.238V220.208H107.093ZM114.433 222.878C114.913 221.938 115.593 221.208 116.473 220.688C117.373 220.168 118.463 219.908 119.743 219.908V222.728H119.023C115.963 222.728 114.433 224.388 114.433 227.708V236.648H111.703V220.208H114.433V222.878ZM128.714 236.918C127.454 236.918 126.324 236.708 125.324 236.288C124.324 235.848 123.534 235.248 122.954 234.488C122.374 233.708 122.054 232.818 121.994 231.818H124.814C124.894 232.638 125.274 233.308 125.954 233.828C126.654 234.348 127.564 234.608 128.684 234.608C129.724 234.608 130.544 234.378 131.144 233.918C131.744 233.458 132.044 232.878 132.044 232.178C132.044 231.458 131.724 230.928 131.084 230.588C130.444 230.228 129.454 229.878 128.114 229.538C126.894 229.218 125.894 228.898 125.114 228.578C124.354 228.238 123.694 227.748 123.134 227.108C122.594 226.448 122.324 225.588 122.324 224.528C122.324 223.688 122.574 222.918 123.074 222.218C123.574 221.518 124.284 220.968 125.204 220.568C126.124 220.148 127.174 219.938 128.354 219.938C130.174 219.938 131.644 220.398 132.764 221.318C133.884 222.238 134.484 223.498 134.564 225.098H131.834C131.774 224.238 131.424 223.548 130.784 223.028C130.164 222.508 129.324 222.248 128.264 222.248C127.284 222.248 126.504 222.458 125.924 222.878C125.344 223.298 125.054 223.848 125.054 224.528C125.054 225.068 125.224 225.518 125.564 225.878C125.924 226.218 126.364 226.498 126.884 226.718C127.424 226.918 128.164 227.148 129.104 227.408C130.284 227.728 131.244 228.048 131.984 228.368C132.724 228.668 133.354 229.128 133.874 229.748C134.414 230.368 134.694 231.178 134.714 232.178C134.714 233.078 134.464 233.888 133.964 234.608C133.464 235.328 132.754 235.898 131.834 236.318C130.934 236.718 129.894 236.918 128.714 236.918Z" fill="white"/>
    <defs>
    <filter id="filter0_d_0_3493" x="0.750002" y="0.723635" width="189" height="204.187" filterUnits="userSpaceOnUse" color-interpolation-filters="sRGB">
    <feFlood flood-opacity="0" result="BackgroundImageFix"/>
    <feColorMatrix in="SourceAlpha" type="matrix" values="0 0 0 0 0 0 0 0 0 0 0 0 0 0 0 0 0 0 127 0" result="hardAlpha"/>
    <feOffset dx="3" dy="3"/>
    <feGaussianBlur stdDeviation="3.375"/>
    <feComposite in2="hardAlpha" operator="out"/>
    <feColorMatrix type="matrix" values="0 0 0 0 0 0 0 0 0 0 0 0 0 0 0 0 0 0 0.1 0"/>
    <feBlend mode="normal" in2="BackgroundImageFix" result="effect1_dropShadow_0_3493"/>
    <feBlend mode="normal" in="SourceGraphic" in2="effect1_dropShadow_0_3493" result="shape"/>
    </filter>
    <filter id="filter1_b_0_3493" x="-95.5" y="-95.5264" width="375.5" height="294.5" filterUnits="userSpaceOnUse" color-interpolation-filters="sRGB">
    <feFlood flood-opacity="0" result="BackgroundImageFix"/>
    <feGaussianBlur in="BackgroundImageFix" stdDeviation="50"/>
    <feComposite in2="SourceAlpha" operator="in" result="effect1_backgroundBlur_0_3493"/>
    <feBlend mode="normal" in="SourceGraphic" in2="effect1_backgroundBlur_0_3493" result="shape"/>
    </filter>
    <filter id="filter2_b_0_3493" x="-95.5" y="0.661133" width="375.5" height="294.5" filterUnits="userSpaceOnUse" color-interpolation-filters="sRGB">
    <feFlood flood-opacity="0" result="BackgroundImageFix"/>
    <feGaussianBlur in="BackgroundImageFix" stdDeviation="50"/>
    <feComposite in2="SourceAlpha" operator="in" result="effect1_backgroundBlur_0_3493"/>
    <feBlend mode="normal" in="SourceGraphic" in2="effect1_backgroundBlur_0_3493" result="shape"/>
    </filter>
    </defs>
    </svg>
    