<svg width="392" height="226" viewBox="0 0 392 226" fill="none" xmlns="http://www.w3.org/2000/svg">
    <g filter="url(#filter0_d_0_450)">
    <rect y="0.0112305" width="372" height="205" rx="45" fill="white" shape-rendering="crispEdges"/>
    <rect x="5" y="5.01123" width="362" height="195" rx="40" stroke="black" stroke-width="10" shape-rendering="crispEdges"/>
    <path d="M56.762 59.9802C58.51 59.9802 60.0203 60.3099 61.293 60.9692C62.581 61.6132 63.5623 62.5409 64.237 63.7522C64.927 64.9636 65.272 66.3896 65.272 68.0302C65.272 69.6709 64.927 71.0969 64.237 72.3082C63.5623 73.5042 62.581 74.4242 61.293 75.0682C60.0203 75.6969 58.51 76.0112 56.762 76.0112H51.771V59.9802H56.762ZM56.762 74.2862C58.832 74.2862 60.4113 73.7419 61.5 72.6532C62.5887 71.5492 63.133 70.0082 63.133 68.0302C63.133 66.0369 62.581 64.4806 61.477 63.3612C60.3883 62.2419 58.8167 61.6822 56.762 61.6822H53.864V74.2862H56.762ZM73.5297 76.2182C72.3491 76.2182 71.2757 75.9499 70.3097 75.4132C69.3591 74.8766 68.6077 74.1176 68.0557 73.1362C67.5191 72.1396 67.2507 70.9896 67.2507 69.6862C67.2507 68.3982 67.5267 67.2636 68.0787 66.2822C68.6461 65.2856 69.4127 64.5266 70.3787 64.0052C71.3447 63.4686 72.4257 63.2002 73.6217 63.2002C74.8177 63.2002 75.8987 63.4686 76.8647 64.0052C77.8307 64.5266 78.5897 65.2779 79.1417 66.2592C79.7091 67.2406 79.9927 68.3829 79.9927 69.6862C79.9927 70.9896 79.7014 72.1396 79.1187 73.1362C78.5514 74.1176 77.7771 74.8766 76.7957 75.4132C75.8144 75.9499 74.7257 76.2182 73.5297 76.2182ZM73.5297 74.3782C74.2811 74.3782 74.9864 74.2019 75.6457 73.8492C76.3051 73.4966 76.8341 72.9676 77.2327 72.2622C77.6467 71.5569 77.8537 70.6982 77.8537 69.6862C77.8537 68.6742 77.6544 67.8156 77.2557 67.1102C76.8571 66.4049 76.3357 65.8836 75.6917 65.5462C75.0477 65.1936 74.3501 65.0172 73.5987 65.0172C72.8321 65.0172 72.1267 65.1936 71.4827 65.5462C70.8541 65.8836 70.3481 66.4049 69.9647 67.1102C69.5814 67.8156 69.3897 68.6742 69.3897 69.6862C69.3897 70.7136 69.5737 71.5799 69.9417 72.2852C70.3251 72.9906 70.8311 73.5196 71.4597 73.8722C72.0884 74.2096 72.7784 74.3782 73.5297 74.3782ZM99.5346 63.4072L95.6016 76.0112H93.4396L90.4036 66.0062L87.3676 76.0112H85.2056L81.2496 63.4072H83.3886L86.2866 73.9872L89.4146 63.4072H91.5536L94.6126 74.0102L97.4646 63.4072H99.5346ZM107.753 63.1772C109.286 63.1772 110.528 63.6449 111.479 64.5802C112.429 65.5002 112.905 66.8342 112.905 68.5822V76.0112H110.835V68.8812C110.835 67.6239 110.52 66.6656 109.892 66.0062C109.263 65.3316 108.404 64.9942 107.316 64.9942C106.212 64.9942 105.33 65.3392 104.671 66.0292C104.027 66.7192 103.705 67.7236 103.705 69.0422V76.0112H101.612V63.4072H103.705V65.2012C104.119 64.5572 104.678 64.0589 105.384 63.7062C106.104 63.3536 106.894 63.1772 107.753 63.1772ZM118.417 58.9912V76.0112H116.324V58.9912H118.417ZM127.481 76.2182C126.3 76.2182 125.227 75.9499 124.261 75.4132C123.31 74.8766 122.559 74.1176 122.007 73.1362C121.47 72.1396 121.202 70.9896 121.202 69.6862C121.202 68.3982 121.478 67.2636 122.03 66.2822C122.597 65.2856 123.364 64.5266 124.33 64.0052C125.296 63.4686 126.377 63.2002 127.573 63.2002C128.769 63.2002 129.85 63.4686 130.816 64.0052C131.782 64.5266 132.541 65.2779 133.093 66.2592C133.66 67.2406 133.944 68.3829 133.944 69.6862C133.944 70.9896 133.653 72.1396 133.07 73.1362C132.503 74.1176 131.728 74.8766 130.747 75.4132C129.766 75.9499 128.677 76.2182 127.481 76.2182ZM127.481 74.3782C128.232 74.3782 128.938 74.2019 129.597 73.8492C130.256 73.4966 130.785 72.9676 131.184 72.2622C131.598 71.5569 131.805 70.6982 131.805 69.6862C131.805 68.6742 131.606 67.8156 131.207 67.1102C130.808 66.4049 130.287 65.8836 129.643 65.5462C128.999 65.1936 128.301 65.0172 127.55 65.0172C126.783 65.0172 126.078 65.1936 125.434 65.5462C124.805 65.8836 124.299 66.4049 123.916 67.1102C123.533 67.8156 123.341 68.6742 123.341 69.6862C123.341 70.7136 123.525 71.5799 123.893 72.2852C124.276 72.9906 124.782 73.5196 125.411 73.8722C126.04 74.2096 126.73 74.3782 127.481 74.3782ZM135.914 69.6632C135.914 68.3752 136.174 67.2482 136.696 66.2822C137.217 65.3009 137.93 64.5419 138.835 64.0052C139.755 63.4686 140.774 63.2002 141.894 63.2002C142.998 63.2002 143.956 63.4379 144.769 63.9132C145.581 64.3886 146.187 64.9866 146.586 65.7072V63.4072H148.702V76.0112H146.586V73.6652C146.172 74.4012 145.551 75.0146 144.723 75.5052C143.91 75.9806 142.959 76.2182 141.871 76.2182C140.751 76.2182 139.739 75.9422 138.835 75.3902C137.93 74.8382 137.217 74.0639 136.696 73.0672C136.174 72.0706 135.914 70.9359 135.914 69.6632ZM146.586 69.6862C146.586 68.7356 146.394 67.9076 146.011 67.2022C145.627 66.4969 145.106 65.9602 144.447 65.5922C143.803 65.2089 143.09 65.0172 142.308 65.0172C141.526 65.0172 140.813 65.2012 140.169 65.5692C139.525 65.9372 139.011 66.4739 138.628 67.1792C138.244 67.8846 138.053 68.7126 138.053 69.6632C138.053 70.6292 138.244 71.4726 138.628 72.1932C139.011 72.8986 139.525 73.4429 140.169 73.8262C140.813 74.1942 141.526 74.3782 142.308 74.3782C143.09 74.3782 143.803 74.1942 144.447 73.8262C145.106 73.4429 145.627 72.8986 146.011 72.1932C146.394 71.4726 146.586 70.6369 146.586 69.6862ZM151.457 69.6632C151.457 68.3752 151.717 67.2482 152.239 66.2822C152.76 65.3009 153.473 64.5419 154.378 64.0052C155.298 63.4686 156.325 63.2002 157.46 63.2002C158.441 63.2002 159.353 63.4302 160.197 63.8902C161.04 64.3349 161.684 64.9252 162.129 65.6612V58.9912H164.245V76.0112H162.129V73.6422C161.715 74.3936 161.101 75.0146 160.289 75.5052C159.476 75.9806 158.525 76.2182 157.437 76.2182C156.317 76.2182 155.298 75.9422 154.378 75.3902C153.473 74.8382 152.76 74.0639 152.239 73.0672C151.717 72.0706 151.457 70.9359 151.457 69.6632ZM162.129 69.6862C162.129 68.7356 161.937 67.9076 161.554 67.2022C161.17 66.4969 160.649 65.9602 159.99 65.5922C159.346 65.2089 158.633 65.0172 157.851 65.0172C157.069 65.0172 156.356 65.2012 155.712 65.5692C155.068 65.9372 154.554 66.4739 154.171 67.1792C153.787 67.8846 153.596 68.7126 153.596 69.6632C153.596 70.6292 153.787 71.4726 154.171 72.1932C154.554 72.8986 155.068 73.4429 155.712 73.8262C156.356 74.1942 157.069 74.3782 157.851 74.3782C158.633 74.3782 159.346 74.1942 159.99 73.8262C160.649 73.4429 161.17 72.8986 161.554 72.1932C161.937 71.4726 162.129 70.6369 162.129 69.6862ZM176.467 65.1322V72.5612C176.467 73.1746 176.597 73.6116 176.858 73.8722C177.118 74.1176 177.571 74.2402 178.215 74.2402H179.756V76.0112H177.87C176.704 76.0112 175.83 75.7429 175.248 75.2062C174.665 74.6696 174.374 73.7879 174.374 72.5612V65.1322H172.741V63.4072H174.374V60.2332H176.467V63.4072H179.756V65.1322H176.467ZM188.548 63.1772C189.498 63.1772 190.357 63.3842 191.124 63.7982C191.89 64.1969 192.488 64.8026 192.918 65.6152C193.362 66.4279 193.585 67.4169 193.585 68.5822V76.0112H191.515V68.8812C191.515 67.6239 191.2 66.6656 190.572 66.0062C189.943 65.3316 189.084 64.9942 187.996 64.9942C186.892 64.9942 186.01 65.3392 185.351 66.0292C184.707 66.7192 184.385 67.7236 184.385 69.0422V76.0112H182.292V58.9912H184.385V65.2012C184.799 64.5572 185.366 64.0589 186.087 63.7062C186.823 63.3536 187.643 63.1772 188.548 63.1772ZM208.503 69.2262C208.503 69.6249 208.48 70.0466 208.434 70.4912H198.36C198.437 71.7332 198.859 72.7069 199.625 73.4122C200.407 74.1022 201.35 74.4472 202.454 74.4472C203.359 74.4472 204.11 74.2402 204.708 73.8262C205.322 73.3969 205.751 72.8296 205.996 72.1242H208.25C207.913 73.3356 207.238 74.3246 206.226 75.0912C205.214 75.8426 203.957 76.2182 202.454 76.2182C201.258 76.2182 200.185 75.9499 199.234 75.4132C198.299 74.8766 197.563 74.1176 197.026 73.1362C196.49 72.1396 196.221 70.9896 196.221 69.6862C196.221 68.3829 196.482 67.2406 197.003 66.2592C197.525 65.2779 198.253 64.5266 199.188 64.0052C200.139 63.4686 201.228 63.2002 202.454 63.2002C203.65 63.2002 204.708 63.4609 205.628 63.9822C206.548 64.5036 207.254 65.2242 207.744 66.1442C208.25 67.0489 208.503 68.0762 208.503 69.2262ZM206.341 68.7892C206.341 67.9919 206.165 67.3096 205.812 66.7422C205.46 66.1596 204.977 65.7226 204.363 65.4312C203.765 65.1246 203.098 64.9712 202.362 64.9712C201.304 64.9712 200.4 65.3086 199.648 65.9832C198.912 66.6579 198.491 67.5932 198.383 68.7892H206.341ZM216.616 69.6632C216.616 68.3752 216.877 67.2482 217.398 66.2822C217.919 65.3009 218.632 64.5419 219.537 64.0052C220.457 63.4686 221.477 63.2002 222.596 63.2002C223.7 63.2002 224.658 63.4379 225.471 63.9132C226.284 64.3886 226.889 64.9866 227.288 65.7072V63.4072H229.404V76.0112H227.288V73.6652C226.874 74.4012 226.253 75.0146 225.425 75.5052C224.612 75.9806 223.662 76.2182 222.573 76.2182C221.454 76.2182 220.442 75.9422 219.537 75.3902C218.632 74.8382 217.919 74.0639 217.398 73.0672C216.877 72.0706 216.616 70.9359 216.616 69.6632ZM227.288 69.6862C227.288 68.7356 227.096 67.9076 226.713 67.2022C226.33 66.4969 225.808 65.9602 225.149 65.5922C224.505 65.2089 223.792 65.0172 223.01 65.0172C222.228 65.0172 221.515 65.2012 220.871 65.5692C220.227 65.9372 219.713 66.4739 219.33 67.1792C218.947 67.8846 218.755 68.7126 218.755 69.6632C218.755 70.6292 218.947 71.4726 219.33 72.1932C219.713 72.8986 220.227 73.4429 220.871 73.8262C221.515 74.1942 222.228 74.3782 223.01 74.3782C223.792 74.3782 224.505 74.1942 225.149 73.8262C225.808 73.4429 226.33 72.8986 226.713 72.1932C227.096 71.4726 227.288 70.6369 227.288 69.6862ZM235.034 65.7302C235.448 65.0096 236.061 64.4116 236.874 63.9362C237.702 63.4456 238.66 63.2002 239.749 63.2002C240.868 63.2002 241.88 63.4686 242.785 64.0052C243.705 64.5419 244.426 65.3009 244.947 66.2822C245.468 67.2482 245.729 68.3752 245.729 69.6632C245.729 70.9359 245.468 72.0706 244.947 73.0672C244.426 74.0639 243.705 74.8382 242.785 75.3902C241.88 75.9422 240.868 76.2182 239.749 76.2182C238.676 76.2182 237.725 75.9806 236.897 75.5052C236.084 75.0146 235.463 74.4089 235.034 73.6882V81.9912H232.941V63.4072H235.034V65.7302ZM243.59 69.6632C243.59 68.7126 243.398 67.8846 243.015 67.1792C242.632 66.4739 242.11 65.9372 241.451 65.5692C240.807 65.2012 240.094 65.0172 239.312 65.0172C238.545 65.0172 237.832 65.2089 237.173 65.5922C236.529 65.9602 236.008 66.5046 235.609 67.2252C235.226 67.9306 235.034 68.7509 235.034 69.6862C235.034 70.6369 235.226 71.4726 235.609 72.1932C236.008 72.8986 236.529 73.4429 237.173 73.8262C237.832 74.1942 238.545 74.3782 239.312 74.3782C240.094 74.3782 240.807 74.1942 241.451 73.8262C242.11 73.4429 242.632 72.8986 243.015 72.1932C243.398 71.4726 243.59 70.6292 243.59 69.6632ZM250.577 65.7302C250.991 65.0096 251.604 64.4116 252.417 63.9362C253.245 63.4456 254.203 63.2002 255.292 63.2002C256.411 63.2002 257.423 63.4686 258.328 64.0052C259.248 64.5419 259.969 65.3009 260.49 66.2822C261.011 67.2482 261.272 68.3752 261.272 69.6632C261.272 70.9359 261.011 72.0706 260.49 73.0672C259.969 74.0639 259.248 74.8382 258.328 75.3902C257.423 75.9422 256.411 76.2182 255.292 76.2182C254.219 76.2182 253.268 75.9806 252.44 75.5052C251.627 75.0146 251.006 74.4089 250.577 73.6882V81.9912H248.484V63.4072H250.577V65.7302ZM259.133 69.6632C259.133 68.7126 258.941 67.8846 258.558 67.1792C258.175 66.4739 257.653 65.9372 256.994 65.5692C256.35 65.2012 255.637 65.0172 254.855 65.0172C254.088 65.0172 253.375 65.2089 252.716 65.5922C252.072 65.9602 251.551 66.5046 251.152 67.2252C250.769 67.9306 250.577 68.7509 250.577 69.6862C250.577 70.6369 250.769 71.4726 251.152 72.1932C251.551 72.8986 252.072 73.4429 252.716 73.8262C253.375 74.1942 254.088 74.3782 254.855 74.3782C255.637 74.3782 256.35 74.1942 256.994 73.8262C257.653 73.4429 258.175 72.8986 258.558 72.1932C258.941 71.4726 259.133 70.6292 259.133 69.6632ZM276.3 63.1772C277.833 63.1772 279.075 63.6449 280.026 64.5802C280.976 65.5002 281.452 66.8342 281.452 68.5822V76.0112H279.382V68.8812C279.382 67.6239 279.067 66.6656 278.439 66.0062C277.81 65.3316 276.951 64.9942 275.863 64.9942C274.759 64.9942 273.877 65.3392 273.218 66.0292C272.574 66.7192 272.252 67.7236 272.252 69.0422V76.0112H270.159V63.4072H272.252V65.2012C272.666 64.5572 273.225 64.0589 273.931 63.7062C274.651 63.3536 275.441 63.1772 276.3 63.1772ZM290.368 76.2182C289.187 76.2182 288.114 75.9499 287.148 75.4132C286.197 74.8766 285.446 74.1176 284.894 73.1362C284.357 72.1396 284.089 70.9896 284.089 69.6862C284.089 68.3982 284.365 67.2636 284.917 66.2822C285.484 65.2856 286.251 64.5266 287.217 64.0052C288.183 63.4686 289.264 63.2002 290.46 63.2002C291.656 63.2002 292.737 63.4686 293.703 64.0052C294.669 64.5266 295.428 65.2779 295.98 66.2592C296.547 67.2406 296.831 68.3829 296.831 69.6862C296.831 70.9896 296.539 72.1396 295.957 73.1362C295.389 74.1176 294.615 74.8766 293.634 75.4132C292.652 75.9499 291.564 76.2182 290.368 76.2182ZM290.368 74.3782C291.119 74.3782 291.824 74.2019 292.484 73.8492C293.143 73.4966 293.672 72.9676 294.071 72.2622C294.485 71.5569 294.692 70.6982 294.692 69.6862C294.692 68.6742 294.492 67.8156 294.094 67.1102C293.695 66.4049 293.174 65.8836 292.53 65.5462C291.886 65.1936 291.188 65.0172 290.437 65.0172C289.67 65.0172 288.965 65.1936 288.321 65.5462C287.692 65.8836 287.186 66.4049 286.803 67.1102C286.419 67.8156 286.228 68.6742 286.228 69.6862C286.228 70.7136 286.412 71.5799 286.78 72.2852C287.163 72.9906 287.669 73.5196 288.298 73.8722C288.926 74.2096 289.616 74.3782 290.368 74.3782ZM316.373 63.4072L312.44 76.0112H310.278L307.242 66.0062L304.206 76.0112H302.044L298.088 63.4072H300.227L303.125 73.9872L306.253 63.4072H308.392L311.451 74.0102L314.303 63.4072H316.373ZM319.117 76.1492C318.718 76.1492 318.381 76.0112 318.105 75.7352C317.829 75.4592 317.691 75.1219 317.691 74.7232C317.691 74.3246 317.829 73.9872 318.105 73.7112C318.381 73.4352 318.718 73.2972 319.117 73.2972C319.5 73.2972 319.822 73.4352 320.083 73.7112C320.359 73.9872 320.497 74.3246 320.497 74.7232C320.497 75.1219 320.359 75.4592 320.083 75.7352C319.822 76.0112 319.5 76.1492 319.117 76.1492ZM59.798 102.754C60.3807 102.846 60.9097 103.084 61.385 103.467C61.8757 103.851 62.259 104.326 62.535 104.893C62.8263 105.461 62.972 106.066 62.972 106.71C62.972 107.523 62.765 108.259 62.351 108.918C61.937 109.562 61.3313 110.076 60.534 110.459C59.752 110.827 58.8243 111.011 57.751 111.011H51.771V94.9802H57.521C58.6097 94.9802 59.5373 95.1642 60.304 95.5322C61.0707 95.8849 61.6457 96.3679 62.029 96.9812C62.4123 97.5946 62.604 98.2846 62.604 99.0512C62.604 100.002 62.3433 100.792 61.822 101.42C61.316 102.034 60.6413 102.478 59.798 102.754ZM53.864 101.903H57.383C58.3643 101.903 59.1233 101.673 59.66 101.213C60.1967 100.753 60.465 100.117 60.465 99.3042C60.465 98.4916 60.1967 97.8552 59.66 97.3952C59.1233 96.9352 58.349 96.7052 57.337 96.7052H53.864V101.903ZM57.567 109.286C58.6097 109.286 59.4223 109.041 60.005 108.55C60.5877 108.06 60.879 107.377 60.879 106.503C60.879 105.614 60.5723 104.916 59.959 104.41C59.3457 103.889 58.5253 103.628 57.498 103.628H53.864V109.286H57.567ZM77.3765 104.226C77.3765 104.625 77.3535 105.047 77.3075 105.491H67.2335C67.3101 106.733 67.7318 107.707 68.4985 108.412C69.2805 109.102 70.2235 109.447 71.3275 109.447C72.2321 109.447 72.9835 109.24 73.5815 108.826C74.1948 108.397 74.6241 107.83 74.8695 107.124H77.1235C76.7861 108.336 76.1115 109.325 75.0995 110.091C74.0875 110.843 72.8301 111.218 71.3275 111.218C70.1315 111.218 69.0581 110.95 68.1075 110.413C67.1721 109.877 66.4361 109.118 65.8995 108.136C65.3628 107.14 65.0945 105.99 65.0945 104.686C65.0945 103.383 65.3551 102.241 65.8765 101.259C66.3978 100.278 67.1261 99.5266 68.0615 99.0052C69.0121 98.4686 70.1008 98.2002 71.3275 98.2002C72.5235 98.2002 73.5815 98.4609 74.5015 98.9822C75.4215 99.5036 76.1268 100.224 76.6175 101.144C77.1235 102.049 77.3765 103.076 77.3765 104.226ZM75.2145 103.789C75.2145 102.992 75.0381 102.31 74.6855 101.742C74.3328 101.16 73.8498 100.723 73.2365 100.431C72.6385 100.125 71.9715 99.9712 71.2355 99.9712C70.1775 99.9712 69.2728 100.309 68.5215 100.983C67.7855 101.658 67.3638 102.593 67.2565 103.789H75.2145ZM85.3372 98.2002C86.4258 98.2002 87.3765 98.4379 88.1892 98.9132C89.0172 99.3886 89.6305 99.9866 90.0292 100.707V98.4072H92.1452V111.287C92.1452 112.437 91.8998 113.457 91.4092 114.346C90.9185 115.251 90.2132 115.956 89.2932 116.462C88.3885 116.968 87.3305 117.221 86.1192 117.221C84.4632 117.221 83.0832 116.83 81.9792 116.048C80.8752 115.266 80.2235 114.201 80.0242 112.851H82.0942C82.3242 113.618 82.7995 114.231 83.5202 114.691C84.2408 115.167 85.1072 115.404 86.1192 115.404C87.2692 115.404 88.2045 115.044 88.9252 114.323C89.6612 113.603 90.0292 112.591 90.0292 111.287V108.642C89.6152 109.378 89.0018 109.992 88.1892 110.482C87.3765 110.973 86.4258 111.218 85.3372 111.218C84.2178 111.218 83.1982 110.942 82.2782 110.39C81.3735 109.838 80.6605 109.064 80.1392 108.067C79.6178 107.071 79.3572 105.936 79.3572 104.663C79.3572 103.375 79.6178 102.248 80.1392 101.282C80.6605 100.301 81.3735 99.5419 82.2782 99.0052C83.1982 98.4686 84.2178 98.2002 85.3372 98.2002ZM90.0292 104.686C90.0292 103.736 89.8375 102.908 89.4542 102.202C89.0708 101.497 88.5495 100.96 87.8902 100.592C87.2462 100.209 86.5332 100.017 85.7512 100.017C84.9692 100.017 84.2562 100.201 83.6122 100.569C82.9682 100.937 82.4545 101.474 82.0712 102.179C81.6878 102.885 81.4962 103.713 81.4962 104.663C81.4962 105.629 81.6878 106.473 82.0712 107.193C82.4545 107.899 82.9682 108.443 83.6122 108.826C84.2562 109.194 84.9692 109.378 85.7512 109.378C86.5332 109.378 87.2462 109.194 87.8902 108.826C88.5495 108.443 89.0708 107.899 89.4542 107.193C89.8375 106.473 90.0292 105.637 90.0292 104.686ZM96.7631 96.3602C96.3645 96.3602 96.0271 96.2222 95.7511 95.9462C95.4751 95.6702 95.3371 95.3329 95.3371 94.9342C95.3371 94.5356 95.4751 94.1982 95.7511 93.9222C96.0271 93.6462 96.3645 93.5082 96.7631 93.5082C97.1465 93.5082 97.4685 93.6462 97.7291 93.9222C98.0051 94.1982 98.1431 94.5356 98.1431 94.9342C98.1431 95.3329 98.0051 95.6702 97.7291 95.9462C97.4685 96.2222 97.1465 96.3602 96.7631 96.3602ZM97.7751 98.4072V111.011H95.6821V98.4072H97.7751ZM107.483 98.1772C109.017 98.1772 110.259 98.6449 111.209 99.5802C112.16 100.5 112.635 101.834 112.635 103.582V111.011H110.565V103.881C110.565 102.624 110.251 101.666 109.622 101.006C108.994 100.332 108.135 99.9942 107.046 99.9942C105.942 99.9942 105.061 100.339 104.401 101.029C103.757 101.719 103.435 102.724 103.435 104.042V111.011H101.342V98.4072H103.435V100.201C103.849 99.5572 104.409 99.0589 105.114 98.7062C105.835 98.3536 106.625 98.1772 107.483 98.1772ZM121.404 104.663C121.404 103.375 121.665 102.248 122.186 101.282C122.707 100.301 123.42 99.5419 124.325 99.0052C125.245 98.4686 126.265 98.2002 127.384 98.2002C128.488 98.2002 129.446 98.4379 130.259 98.9132C131.072 99.3886 131.677 99.9866 132.076 100.707V98.4072H134.192V111.011H132.076V108.665C131.662 109.401 131.041 110.015 130.213 110.505C129.4 110.981 128.45 111.218 127.361 111.218C126.242 111.218 125.23 110.942 124.325 110.39C123.42 109.838 122.707 109.064 122.186 108.067C121.665 107.071 121.404 105.936 121.404 104.663ZM132.076 104.686C132.076 103.736 131.884 102.908 131.501 102.202C131.118 101.497 130.596 100.96 129.937 100.592C129.293 100.209 128.58 100.017 127.798 100.017C127.016 100.017 126.303 100.201 125.659 100.569C125.015 100.937 124.501 101.474 124.118 102.179C123.735 102.885 123.543 103.713 123.543 104.663C123.543 105.629 123.735 106.473 124.118 107.193C124.501 107.899 125.015 108.443 125.659 108.826C126.303 109.194 127.016 109.378 127.798 109.378C128.58 109.378 129.293 109.194 129.937 108.826C130.596 108.443 131.118 107.899 131.501 107.193C131.884 106.473 132.076 105.637 132.076 104.686ZM136.947 104.686C136.947 103.383 137.208 102.248 137.729 101.282C138.25 100.301 138.971 99.5419 139.891 99.0052C140.826 98.4686 141.892 98.2002 143.088 98.2002C144.637 98.2002 145.909 98.5759 146.906 99.3272C147.918 100.079 148.585 101.121 148.907 102.455H146.653C146.438 101.689 146.017 101.083 145.388 100.638C144.775 100.194 144.008 99.9712 143.088 99.9712C141.892 99.9712 140.926 100.385 140.19 101.213C139.454 102.026 139.086 103.184 139.086 104.686C139.086 106.204 139.454 107.377 140.19 108.205C140.926 109.033 141.892 109.447 143.088 109.447C144.008 109.447 144.775 109.233 145.388 108.803C146.001 108.374 146.423 107.761 146.653 106.963H148.907C148.57 108.251 147.895 109.286 146.883 110.068C145.871 110.835 144.606 111.218 143.088 111.218C141.892 111.218 140.826 110.95 139.891 110.413C138.971 109.877 138.25 109.118 137.729 108.136C137.208 107.155 136.947 106.005 136.947 104.686ZM154.253 100.132V107.561C154.253 108.175 154.383 108.612 154.644 108.872C154.904 109.118 155.357 109.24 156.001 109.24H157.542V111.011H155.656C154.49 111.011 153.616 110.743 153.034 110.206C152.451 109.67 152.16 108.788 152.16 107.561V100.132H150.527V98.4072H152.16V95.2332H154.253V98.4072H157.542V100.132H154.253ZM161.159 96.3602C160.76 96.3602 160.423 96.2222 160.147 95.9462C159.871 95.6702 159.733 95.3329 159.733 94.9342C159.733 94.5356 159.871 94.1982 160.147 93.9222C160.423 93.6462 160.76 93.5082 161.159 93.5082C161.542 93.5082 161.864 93.6462 162.125 93.9222C162.401 94.1982 162.539 94.5356 162.539 94.9342C162.539 95.3329 162.401 95.6702 162.125 95.9462C161.864 96.2222 161.542 96.3602 161.159 96.3602ZM162.171 98.4072V111.011H160.078V98.4072H162.171ZM171.235 111.218C170.054 111.218 168.981 110.95 168.015 110.413C167.064 109.877 166.313 109.118 165.761 108.136C165.224 107.14 164.956 105.99 164.956 104.686C164.956 103.398 165.232 102.264 165.784 101.282C166.351 100.286 167.118 99.5266 168.084 99.0052C169.05 98.4686 170.131 98.2002 171.327 98.2002C172.523 98.2002 173.604 98.4686 174.57 99.0052C175.536 99.5266 176.295 100.278 176.847 101.259C177.414 102.241 177.698 103.383 177.698 104.686C177.698 105.99 177.406 107.14 176.824 108.136C176.256 109.118 175.482 109.877 174.501 110.413C173.519 110.95 172.431 111.218 171.235 111.218ZM171.235 109.378C171.986 109.378 172.691 109.202 173.351 108.849C174.01 108.497 174.539 107.968 174.938 107.262C175.352 106.557 175.559 105.698 175.559 104.686C175.559 103.674 175.359 102.816 174.961 102.11C174.562 101.405 174.041 100.884 173.397 100.546C172.753 100.194 172.055 100.017 171.304 100.017C170.537 100.017 169.832 100.194 169.188 100.546C168.559 100.884 168.053 101.405 167.67 102.11C167.286 102.816 167.095 103.674 167.095 104.686C167.095 105.714 167.279 106.58 167.647 107.285C168.03 107.991 168.536 108.52 169.165 108.872C169.793 109.21 170.483 109.378 171.235 109.378ZM186.591 98.1772C188.124 98.1772 189.366 98.6449 190.317 99.5802C191.267 100.5 191.743 101.834 191.743 103.582V111.011H189.673V103.881C189.673 102.624 189.358 101.666 188.73 101.006C188.101 100.332 187.242 99.9942 186.154 99.9942C185.05 99.9942 184.168 100.339 183.509 101.029C182.865 101.719 182.543 102.724 182.543 104.042V111.011H180.45V98.4072H182.543V100.201C182.957 99.5572 183.516 99.0589 184.222 98.7062C184.942 98.3536 185.732 98.1772 186.591 98.1772ZM199.624 111.218C198.658 111.218 197.791 111.057 197.025 110.735C196.258 110.398 195.652 109.938 195.208 109.355C194.763 108.757 194.518 108.075 194.472 107.308H196.634C196.695 107.937 196.986 108.451 197.508 108.849C198.044 109.248 198.742 109.447 199.601 109.447C200.398 109.447 201.027 109.271 201.487 108.918C201.947 108.566 202.177 108.121 202.177 107.584C202.177 107.032 201.931 106.626 201.441 106.365C200.95 106.089 200.191 105.821 199.164 105.56C198.228 105.315 197.462 105.07 196.864 104.824C196.281 104.564 195.775 104.188 195.346 103.697C194.932 103.191 194.725 102.532 194.725 101.719C194.725 101.075 194.916 100.485 195.3 99.9482C195.683 99.4116 196.227 98.9899 196.933 98.6832C197.638 98.3612 198.443 98.2002 199.348 98.2002C200.743 98.2002 201.87 98.5529 202.729 99.2582C203.587 99.9636 204.047 100.93 204.109 102.156H202.016C201.97 101.497 201.701 100.968 201.211 100.569C200.735 100.171 200.091 99.9712 199.279 99.9712C198.527 99.9712 197.929 100.132 197.485 100.454C197.04 100.776 196.818 101.198 196.818 101.719C196.818 102.133 196.948 102.478 197.209 102.754C197.485 103.015 197.822 103.23 198.221 103.398C198.635 103.552 199.202 103.728 199.923 103.927C200.827 104.173 201.563 104.418 202.131 104.663C202.698 104.893 203.181 105.246 203.58 105.721C203.994 106.197 204.208 106.818 204.224 107.584C204.224 108.274 204.032 108.895 203.649 109.447C203.265 109.999 202.721 110.436 202.016 110.758C201.326 111.065 200.528 111.218 199.624 111.218ZM215.863 100.132V107.561C215.863 108.175 215.993 108.612 216.254 108.872C216.515 109.118 216.967 109.24 217.611 109.24H219.152V111.011H217.266C216.101 111.011 215.227 110.743 214.644 110.206C214.061 109.67 213.77 108.788 213.77 107.561V100.132H212.137V98.4072H213.77V95.2332H215.863V98.4072H219.152V100.132H215.863ZM227.185 111.218C226.004 111.218 224.931 110.95 223.965 110.413C223.014 109.877 222.263 109.118 221.711 108.136C221.174 107.14 220.906 105.99 220.906 104.686C220.906 103.398 221.182 102.264 221.734 101.282C222.301 100.286 223.068 99.5266 224.034 99.0052C225 98.4686 226.081 98.2002 227.277 98.2002C228.473 98.2002 229.554 98.4686 230.52 99.0052C231.486 99.5266 232.245 100.278 232.797 101.259C233.364 102.241 233.648 103.383 233.648 104.686C233.648 105.99 233.357 107.14 232.774 108.136C232.207 109.118 231.432 109.877 230.451 110.413C229.47 110.95 228.381 111.218 227.185 111.218ZM227.185 109.378C227.936 109.378 228.642 109.202 229.301 108.849C229.96 108.497 230.489 107.968 230.888 107.262C231.302 106.557 231.509 105.698 231.509 104.686C231.509 103.674 231.31 102.816 230.911 102.11C230.512 101.405 229.991 100.884 229.347 100.546C228.703 100.194 228.005 100.017 227.254 100.017C226.487 100.017 225.782 100.194 225.138 100.546C224.509 100.884 224.003 101.405 223.62 102.11C223.237 102.816 223.045 103.674 223.045 104.686C223.045 105.714 223.229 106.58 223.597 107.285C223.98 107.991 224.486 108.52 225.115 108.872C225.744 109.21 226.434 109.378 227.185 109.378ZM244.625 100.753C245.054 100.002 245.683 99.3886 246.511 98.9132C247.339 98.4379 248.282 98.2002 249.34 98.2002C250.474 98.2002 251.494 98.4686 252.399 99.0052C253.303 99.5419 254.016 100.301 254.538 101.282C255.059 102.248 255.32 103.375 255.32 104.663C255.32 105.936 255.059 107.071 254.538 108.067C254.016 109.064 253.296 109.838 252.376 110.39C251.471 110.942 250.459 111.218 249.34 111.218C248.251 111.218 247.293 110.981 246.465 110.505C245.652 110.03 245.039 109.424 244.625 108.688V111.011H242.532V93.9912H244.625V100.753ZM253.181 104.663C253.181 103.713 252.989 102.885 252.606 102.179C252.222 101.474 251.701 100.937 251.042 100.569C250.398 100.201 249.685 100.017 248.903 100.017C248.136 100.017 247.423 100.209 246.764 100.592C246.12 100.96 245.598 101.505 245.2 102.225C244.816 102.931 244.625 103.751 244.625 104.686C244.625 105.637 244.816 106.473 245.2 107.193C245.598 107.899 246.12 108.443 246.764 108.826C247.423 109.194 248.136 109.378 248.903 109.378C249.685 109.378 250.398 109.194 251.042 108.826C251.701 108.443 252.222 107.899 252.606 107.193C252.989 106.473 253.181 105.629 253.181 104.663ZM269.253 98.4072V111.011H267.16V109.148C266.761 109.792 266.201 110.298 265.481 110.666C264.775 111.019 263.993 111.195 263.135 111.195C262.153 111.195 261.272 110.996 260.49 110.597C259.708 110.183 259.087 109.57 258.627 108.757C258.182 107.945 257.96 106.956 257.96 105.79V98.4072H260.03V105.514C260.03 106.756 260.344 107.715 260.973 108.389C261.601 109.049 262.46 109.378 263.549 109.378C264.668 109.378 265.55 109.033 266.194 108.343C266.838 107.653 267.16 106.649 267.16 105.33V98.4072H269.253ZM273.868 96.3602C273.469 96.3602 273.132 96.2222 272.856 95.9462C272.58 95.6702 272.442 95.3329 272.442 94.9342C272.442 94.5356 272.58 94.1982 272.856 93.9222C273.132 93.6462 273.469 93.5082 273.868 93.5082C274.251 93.5082 274.573 93.6462 274.834 93.9222C275.11 94.1982 275.248 94.5356 275.248 94.9342C275.248 95.3329 275.11 95.6702 274.834 95.9462C274.573 96.2222 274.251 96.3602 273.868 96.3602ZM274.88 98.4072V111.011H272.787V98.4072H274.88ZM280.54 93.9912V111.011H278.447V93.9912H280.54ZM283.325 104.663C283.325 103.375 283.586 102.248 284.107 101.282C284.628 100.301 285.341 99.5419 286.246 99.0052C287.166 98.4686 288.193 98.2002 289.328 98.2002C290.309 98.2002 291.222 98.4302 292.065 98.8902C292.908 99.3349 293.552 99.9252 293.997 100.661V93.9912H296.113V111.011H293.997V108.642C293.583 109.394 292.97 110.015 292.157 110.505C291.344 110.981 290.394 111.218 289.305 111.218C288.186 111.218 287.166 110.942 286.246 110.39C285.341 109.838 284.628 109.064 284.107 108.067C283.586 107.071 283.325 105.936 283.325 104.663ZM293.997 104.686C293.997 103.736 293.805 102.908 293.422 102.202C293.039 101.497 292.517 100.96 291.858 100.592C291.214 100.209 290.501 100.017 289.719 100.017C288.937 100.017 288.224 100.201 287.58 100.569C286.936 100.937 286.422 101.474 286.039 102.179C285.656 102.885 285.464 103.713 285.464 104.663C285.464 105.629 285.656 106.473 286.039 107.193C286.422 107.899 286.936 108.443 287.58 108.826C288.224 109.194 288.937 109.378 289.719 109.378C290.501 109.378 291.214 109.194 291.858 108.826C292.517 108.443 293.039 107.899 293.422 107.193C293.805 106.473 293.997 105.637 293.997 104.686ZM62.627 133.407L55.037 151.945H52.875L55.359 145.873L50.276 133.407H52.599L56.555 143.619L60.465 133.407H62.627ZM70.228 146.218C69.0473 146.218 67.974 145.95 67.008 145.413C66.0573 144.877 65.306 144.118 64.754 143.136C64.2173 142.14 63.949 140.99 63.949 139.686C63.949 138.398 64.225 137.264 64.777 136.282C65.3443 135.286 66.111 134.527 67.077 134.005C68.043 133.469 69.124 133.2 70.32 133.2C71.516 133.2 72.597 133.469 73.563 134.005C74.529 134.527 75.288 135.278 75.84 136.259C76.4073 137.241 76.691 138.383 76.691 139.686C76.691 140.99 76.3996 142.14 75.817 143.136C75.2496 144.118 74.4753 144.877 73.494 145.413C72.5126 145.95 71.424 146.218 70.228 146.218ZM70.228 144.378C70.9793 144.378 71.6846 144.202 72.344 143.849C73.0033 143.497 73.5323 142.968 73.931 142.262C74.345 141.557 74.552 140.698 74.552 139.686C74.552 138.674 74.3526 137.816 73.954 137.11C73.5553 136.405 73.034 135.884 72.39 135.546C71.746 135.194 71.0483 135.017 70.297 135.017C69.5303 135.017 68.825 135.194 68.181 135.546C67.5523 135.884 67.0463 136.405 66.663 137.11C66.2796 137.816 66.088 138.674 66.088 139.686C66.088 140.714 66.272 141.58 66.64 142.285C67.0233 142.991 67.5293 143.52 68.158 143.872C68.7866 144.21 69.4766 144.378 70.228 144.378ZM90.6209 133.407V146.011H88.5279V144.148C88.1292 144.792 87.5695 145.298 86.8489 145.666C86.1435 146.019 85.3615 146.195 84.5029 146.195C83.5215 146.195 82.6399 145.996 81.8579 145.597C81.0759 145.183 80.4549 144.57 79.9949 143.757C79.5502 142.945 79.3279 141.956 79.3279 140.79V133.407H81.3979V140.514C81.3979 141.756 81.7122 142.715 82.3409 143.389C82.9695 144.049 83.8282 144.378 84.9169 144.378C86.0362 144.378 86.9179 144.033 87.5619 143.343C88.2059 142.653 88.5279 141.649 88.5279 140.33V133.407H90.6209ZM96.2478 135.454C96.6158 134.734 97.1371 134.174 97.8118 133.775C98.5018 133.377 99.3375 133.177 100.319 133.177V135.339H99.7668C97.4208 135.339 96.2478 136.612 96.2478 139.157V146.011H94.1548V133.407H96.2478V135.454ZM109.948 131.36C109.549 131.36 109.212 131.222 108.936 130.946C108.66 130.67 108.522 130.333 108.522 129.934C108.522 129.536 108.66 129.198 108.936 128.922C109.212 128.646 109.549 128.508 109.948 128.508C110.331 128.508 110.653 128.646 110.914 128.922C111.19 129.198 111.328 129.536 111.328 129.934C111.328 130.333 111.19 130.67 110.914 130.946C110.653 131.222 110.331 131.36 109.948 131.36ZM110.96 133.407V146.011H108.867V133.407H110.96ZM113.745 139.663C113.745 138.375 114.006 137.248 114.527 136.282C115.048 135.301 115.761 134.542 116.666 134.005C117.586 133.469 118.613 133.2 119.748 133.2C120.729 133.2 121.642 133.43 122.485 133.89C123.328 134.335 123.972 134.925 124.417 135.661V128.991H126.533V146.011H124.417V143.642C124.003 144.394 123.39 145.015 122.577 145.505C121.764 145.981 120.814 146.218 119.725 146.218C118.606 146.218 117.586 145.942 116.666 145.39C115.761 144.838 115.048 144.064 114.527 143.067C114.006 142.071 113.745 140.936 113.745 139.663ZM124.417 139.686C124.417 138.736 124.225 137.908 123.842 137.202C123.459 136.497 122.937 135.96 122.278 135.592C121.634 135.209 120.921 135.017 120.139 135.017C119.357 135.017 118.644 135.201 118 135.569C117.356 135.937 116.842 136.474 116.459 137.179C116.076 137.885 115.884 138.713 115.884 139.663C115.884 140.629 116.076 141.473 116.459 142.193C116.842 142.899 117.356 143.443 118 143.826C118.644 144.194 119.357 144.378 120.139 144.378C120.921 144.378 121.634 144.194 122.278 143.826C122.937 143.443 123.459 142.899 123.842 142.193C124.225 141.473 124.417 140.637 124.417 139.686ZM141.57 139.226C141.57 139.625 141.547 140.047 141.501 140.491H131.427C131.503 141.733 131.925 142.707 132.692 143.412C133.474 144.102 134.417 144.447 135.521 144.447C136.425 144.447 137.177 144.24 137.775 143.826C138.388 143.397 138.817 142.83 139.063 142.124H141.317C140.979 143.336 140.305 144.325 139.293 145.091C138.281 145.843 137.023 146.218 135.521 146.218C134.325 146.218 133.251 145.95 132.301 145.413C131.365 144.877 130.629 144.118 130.093 143.136C129.556 142.14 129.288 140.99 129.288 139.686C129.288 138.383 129.548 137.241 130.07 136.259C130.591 135.278 131.319 134.527 132.255 134.005C133.205 133.469 134.294 133.2 135.521 133.2C136.717 133.2 137.775 133.461 138.695 133.982C139.615 134.504 140.32 135.224 140.811 136.144C141.317 137.049 141.57 138.076 141.57 139.226ZM139.408 138.789C139.408 137.992 139.231 137.31 138.879 136.742C138.526 136.16 138.043 135.723 137.43 135.431C136.832 135.125 136.165 134.971 135.429 134.971C134.371 134.971 133.466 135.309 132.715 135.983C131.979 136.658 131.557 137.593 131.45 138.789H139.408ZM150.474 133.177C152.007 133.177 153.249 133.645 154.2 134.58C155.15 135.5 155.626 136.834 155.626 138.582V146.011H153.556V138.881C153.556 137.624 153.241 136.666 152.613 136.006C151.984 135.332 151.125 134.994 150.037 134.994C148.933 134.994 148.051 135.339 147.392 136.029C146.748 136.719 146.426 137.724 146.426 139.042V146.011H144.333V133.407H146.426V135.201C146.84 134.557 147.399 134.059 148.105 133.706C148.825 133.354 149.615 133.177 150.474 133.177ZM161.597 135.132V142.561C161.597 143.175 161.728 143.612 161.988 143.872C162.249 144.118 162.701 144.24 163.345 144.24H164.886V146.011H163C161.835 146.011 160.961 145.743 160.378 145.206C159.796 144.67 159.504 143.788 159.504 142.561V135.132H157.871V133.407H159.504V130.233H161.597V133.407H164.886V135.132H161.597ZM168.503 131.36C168.105 131.36 167.767 131.222 167.491 130.946C167.215 130.67 167.077 130.333 167.077 129.934C167.077 129.536 167.215 129.198 167.491 128.922C167.767 128.646 168.105 128.508 168.503 128.508C168.887 128.508 169.209 128.646 169.469 128.922C169.745 129.198 169.883 129.536 169.883 129.934C169.883 130.333 169.745 130.67 169.469 130.946C169.209 131.222 168.887 131.36 168.503 131.36ZM169.515 133.407V146.011H167.422V133.407H169.515ZM175.636 135.132V142.561C175.636 143.175 175.766 143.612 176.027 143.872C176.287 144.118 176.74 144.24 177.384 144.24H178.925V146.011H177.039C175.873 146.011 174.999 145.743 174.417 145.206C173.834 144.67 173.543 143.788 173.543 142.561V135.132H171.91V133.407H173.543V130.233H175.636V133.407H178.925V135.132H175.636ZM192.316 133.407L184.726 151.945H182.564L185.048 145.873L179.965 133.407H182.288L186.244 143.619L190.154 133.407H192.316ZM197.134 129.98L196.881 141.48H195.133L194.88 129.98H197.134ZM196.099 146.149C195.701 146.149 195.363 146.011 195.087 145.735C194.811 145.459 194.673 145.122 194.673 144.723C194.673 144.325 194.811 143.987 195.087 143.711C195.363 143.435 195.701 143.297 196.099 143.297C196.483 143.297 196.805 143.435 197.065 143.711C197.341 143.987 197.479 144.325 197.479 144.723C197.479 145.122 197.341 145.459 197.065 145.735C196.805 146.011 196.483 146.149 196.099 146.149Z" fill="black"/>
    </g>
    <defs>
    <filter id="filter0_d_0_450" x="0" y="0.0112305" width="392" height="225" filterUnits="userSpaceOnUse" color-interpolation-filters="sRGB">
    <feFlood flood-opacity="0" result="BackgroundImageFix"/>
    <feColorMatrix in="SourceAlpha" type="matrix" values="0 0 0 0 0 0 0 0 0 0 0 0 0 0 0 0 0 0 127 0" result="hardAlpha"/>
    <feOffset dx="20" dy="20"/>
    <feComposite in2="hardAlpha" operator="out"/>
    <feColorMatrix type="matrix" values="0 0 0 0 0 0 0 0 0 0 0 0 0 0 0 0 0 0 0.26 0"/>
    <feBlend mode="normal" in2="BackgroundImageFix" result="effect1_dropShadow_0_450"/>
    <feBlend mode="normal" in="SourceGraphic" in2="effect1_dropShadow_0_450" result="shape"/>
    </filter>
    </defs>
    </svg>
    