<svg width="135" height="136" viewBox="0 0 135 136" fill="none" xmlns="http://www.w3.org/2000/svg">
    <g filter="url(#filter0_d_0_452)">
    <rect y="0.0112305" width="130" height="130" rx="65" fill="#6BFFA6" shape-rendering="crispEdges"/>
    <rect x="5" y="5.01123" width="120" height="120" rx="60" stroke="black" stroke-width="10" shape-rendering="crispEdges"/>
    <g clip-path="url(#clip0_0_452)">
    <path d="M98.3005 74.5934C97.7529 76.3777 96.903 78.1757 95.7747 79.8818C96.5977 78.3731 97.1443 76.8095 97.4069 75.2748C98.2461 70.3946 96.2248 65.8059 91.1281 64.1833C91.1218 64.1813 91.1152 64.179 91.1111 64.178C91.0994 64.1737 91.0928 64.1717 91.0928 64.1717C82.539 62.8194 74.2082 57.5896 66.0286 49.7571C62.5897 46.4641 59.1788 42.7123 55.7869 38.594C55.6658 38.4602 55.5436 38.3294 55.4194 38.2029C50.0591 32.7011 42.4387 34.0117 37.34 39.1653C38.9915 37.3477 40.7918 35.6695 42.8215 34.2037C47.3916 30.9041 53.7367 31.4121 57.6086 35.509C57.6825 35.5872 57.7544 35.6655 57.8273 35.7457C58.2098 36.2098 58.5913 36.6695 58.9738 37.1239C61.653 40.3055 64.3448 43.2536 67.0516 45.9198C75.5582 54.3009 84.2245 59.9142 93.1329 61.3234C93.4629 61.4272 93.7791 61.5451 94.0803 61.6782C98.8085 63.7422 99.9883 69.0971 98.3005 74.5934Z" fill="#F7AF48"/>
    <path d="M66.0283 49.7575C62.5895 46.4645 59.1785 42.7127 55.7867 38.5944C55.6655 38.4605 55.5434 38.3297 55.4192 38.2033C56.5604 38.4293 57.9771 38.3823 58.9738 37.124C61.653 40.3056 64.3448 43.2537 67.0516 45.9199C66.3979 46.803 65.755 48.134 66.0283 49.7575Z" fill="#EA8826"/>
    <path d="M98.3005 74.5934C97.844 75.0275 97.7925 75.3048 97.4067 75.2749C98.2459 70.3946 96.2246 65.8059 91.1279 64.1834C91.4429 64.2776 93.7984 64.8811 94.0654 61.8022C94.0687 61.7593 94.074 61.7176 94.0803 61.678C98.8085 63.7419 99.9883 69.0969 98.3005 74.5932V74.5934Z" fill="#EA8826"/>
    <path d="M95.7747 79.8821C95.7747 79.8821 95.7727 79.8854 95.7714 79.8864C92.9412 85.073 86.8481 89.6167 77.7606 90.1366C76.6867 90.1989 75.6088 90.173 74.5372 90.0757C58.6396 88.6162 44.4201 79.0294 35.4772 64.8346C33.7914 62.1588 32.6192 59.183 32.1465 56.0558C31.0932 49.093 33.5034 43.0415 37.3397 39.1653C42.5566 33.8929 50.4114 32.6435 55.7867 38.5941C67.2457 52.5092 78.9435 62.2502 91.0926 64.1717C97.8225 66.2903 99.2199 73.5634 95.7745 79.8818L95.7747 79.8821Z" fill="#46BAF9"/>
    <g opacity="0.4">
    <path d="M95.8979 79.6923C99.7709 72.7021 99.0881 64.7142 92.3679 62.5987C80.2188 60.6772 68.521 50.9362 57.062 37.021C56.9891 36.9408 56.9172 36.8626 56.8433 36.7843C52.9717 32.6874 46.6266 32.1794 42.0559 35.479C41.5599 35.8369 41.0776 36.2078 40.6082 36.5913C39.4454 37.2847 38.3438 38.1506 37.3398 39.1653C38.9912 37.3477 40.7916 35.6695 42.8212 34.2037C47.3916 30.9041 53.7367 31.4121 57.6086 35.509C57.6825 35.5872 57.7544 35.6655 57.8273 35.7457C69.2863 49.6609 80.9841 59.4019 93.1332 61.3234C100.266 63.5694 100.597 72.4298 95.8979 79.6921V79.6923Z" fill="white"/>
    </g>
    <path d="M76.5836 90.7056C75.8948 90.7056 75.1937 90.6733 74.4881 90.6083C66.5746 89.8821 59.0439 87.2141 52.1058 82.6785C45.4102 78.3017 39.5035 72.2299 35.0243 65.1193C33.2357 62.2796 32.0891 59.2571 31.617 56.1355C30.9309 51.6006 31.6391 47.1641 33.6649 43.3059C35.5105 39.7908 38.342 36.9951 41.6379 35.4338C46.9072 32.9375 52.3453 33.9848 56.1844 38.2346L56.2004 38.2532C68.8512 53.6158 80.2919 61.9207 91.1762 63.6421L91.2534 63.6603C96.094 65.1846 98.6898 69.4316 98.0279 74.7442C97.557 78.5239 95.4273 82.3219 92.1848 85.1649C88.4465 88.4422 83.4689 90.3461 77.7913 90.6715C77.3941 90.6944 76.991 90.7056 76.5836 90.7056ZM47.2674 35.1808C45.574 35.1808 43.826 35.5831 42.0966 36.4023C36.5323 39.0383 31.2111 46.2875 32.6764 55.9754C33.1262 58.9502 34.2212 61.8344 35.9308 64.5483C45.0432 79.0134 59.1323 88.1229 74.5859 89.5412C75.6563 89.6393 76.7141 89.6599 77.7301 89.6017C89.2135 88.9443 96.0986 81.5632 96.9645 74.6119C97.5565 69.8599 95.2599 66.0634 90.9686 64.6944C85.0323 63.7475 79.1078 61.0041 72.8587 56.3087C67.2505 52.0949 61.5333 46.4148 55.3808 38.944C53.1352 36.4627 50.2887 35.1808 47.2672 35.1808H47.2674Z" fill="#2F313D"/>
    <path d="M96.2187 80.1823L95.3249 79.591C98.2301 75.2009 99.2314 70.2061 97.9375 66.5552C97.1179 64.2423 95.4141 62.6147 93.0087 61.8461C87.0723 60.8992 81.1479 58.1558 74.8991 53.4604C69.2909 49.2467 63.5737 43.5665 57.4212 36.0958C57.3544 36.0219 57.287 35.9492 57.2192 35.8773C53.566 32.0118 47.5108 31.4791 43.1344 34.6388C41.2584 35.9934 39.4924 37.5918 37.7357 39.526L36.9425 38.8054C38.7499 36.8156 40.5701 35.1687 42.507 33.7699C47.3175 30.297 53.977 30.8866 57.9982 35.1415C58.0742 35.222 58.1496 35.3036 58.2245 35.3866L58.2405 35.4052C70.8913 50.7678 82.332 59.0727 93.2165 60.7941L93.2937 60.8123C96.0521 61.681 98.0074 63.5431 98.9479 66.1973C100.352 70.1589 99.3061 75.5174 96.2187 80.1823Z" fill="#2F313D"/>
    <path d="M95.6889 74.6387C95.2924 77.756 93.4611 80.9185 90.6671 83.3137C87.3451 86.161 82.8817 87.8178 77.7573 88.1051C77.4068 88.1244 77.0469 88.134 76.689 88.134C76.0792 88.134 75.4513 88.1061 74.8201 88.0495C69.7577 87.5951 64.8561 86.3198 60.1772 84.2441C57.9172 83.2411 55.7097 82.0516 53.5609 80.6777C47.16 76.5874 41.5083 70.9035 37.2163 64.2412C36.5143 63.1523 35.923 62.0337 35.4449 60.8912C34.8277 59.4208 34.398 57.9131 34.1612 56.3808C33.3523 51.1546 34.7764 46.0106 38.0674 42.2695C40.6704 39.3107 44.0729 37.6133 47.4023 37.6133C49.7149 37.6133 51.8625 38.4598 53.6724 40.0758C53.9338 40.3084 54.1878 40.5581 54.4344 40.8228C63.7972 51.9346 72.5867 59.3919 81.0547 63.372C84.082 64.7951 87.0688 65.7725 90.0253 66.3148C91.0016 66.4939 91.9414 66.8517 92.7654 67.4047C95.0168 68.919 96.0907 71.4897 95.6889 74.6393V74.6387Z" fill="#279AE0"/>
    <path d="M45.9459 71.2417L45.9469 71.2427C45.0886 73.4568 43.1263 75.7595 41.2863 76.8258C41.1502 76.9286 40.997 77.0102 40.8266 77.0691C40.8233 77.0701 40.8213 77.0711 40.819 77.0724L40.818 77.0714C39.4624 77.5364 37.0995 76.6546 34.8961 74.8103C34.895 74.8093 34.894 74.8093 34.894 74.8093C34.6969 74.6442 34.4996 74.4707 34.3058 74.2896C31.9053 72.0562 30.6193 69.4147 31.0843 67.9166V67.9156C31.5527 66.1955 33.606 63.4511 35.8488 62.1362C35.927 62.0816 36.0129 62.0343 36.1028 61.9937C36.1071 61.9904 36.1114 61.9884 36.1168 61.9851V61.9861C37.5582 61.3432 40.3389 62.4351 42.7824 64.7079C44.0374 65.875 44.9868 67.1534 45.5418 68.3215C46.0884 69.4713 46.2512 70.515 45.9459 71.2417Z" fill="#55F1F9"/>
    <path d="M35.3032 64.5925C35.3032 64.5925 32.7506 67.3702 31.6028 69.8251L32.4318 71.6104L33.1971 72.7572C33.1971 72.7572 36.1518 69.7845 37.3446 68.1467" fill="#94FAFF"/>
    <path d="M45.9459 71.2415L45.9469 71.2425C45.0886 73.4566 43.1263 75.7593 41.2863 76.8256C41.1502 76.9284 40.997 77.01 40.8266 77.0689C40.8233 77.0699 40.8213 77.0709 40.819 77.0722L40.818 77.0712C39.4624 77.5363 37.0995 76.6544 34.8961 74.8101C34.9796 74.8411 36.9943 75.5838 38.6811 74.8091C40.4022 74.0182 42.06 70.6865 42.06 70.6865C42.06 70.6865 43.9462 69.0693 45.5418 68.3213C46.0884 69.4711 46.2512 70.5148 45.9459 71.2415Z" fill="#34C9E2"/>
    <path d="M45.656 71.6967C46.8435 70.4205 45.5567 67.2927 42.7819 64.7105C40.007 62.1284 36.7948 61.0696 35.6073 62.3458C34.4197 63.622 35.7065 66.7498 38.4814 69.3319C41.2562 71.9141 44.4684 72.9728 45.656 71.6967Z" fill="#92FFF7"/>
    <path d="M38.7062 67.2968C37.9681 66.3052 37.7116 65.32 38.1467 64.8524C38.7169 64.2395 40.2597 64.7477 41.5924 65.9878C42.9251 67.2278 43.5431 68.7299 42.9729 69.3428C42.5451 69.8025 41.5706 69.6313 40.5477 68.994" fill="#34C9E2"/>
    <path d="M42.4862 66.8196C43.2751 67.2684 43.8253 68.3276 43.458 69.2181C43.3008 69.5684 42.9302 69.7969 42.5576 69.8409C41.3353 69.9493 40.2401 69.1785 39.3694 68.4251C38.7408 67.8295 38.1703 67.1343 37.8536 66.3103C37.3994 65.2174 37.7936 64.029 39.1624 64.2449C39.7547 64.3597 40.2754 64.6548 40.6447 65.1222C40.3783 65.0333 40.1202 64.9461 39.8624 64.8788C37.0507 64.1798 38.8289 66.9834 39.8779 67.8737C40.2599 68.2227 40.6765 68.5389 41.1248 68.7764C41.5324 68.9913 42.0249 69.2107 42.4715 69.1767C43.4872 69.0771 42.7387 67.37 42.4862 66.8194V66.8196Z" fill="#2F313D"/>
    <path d="M41.914 69.5625C41.8228 68.8866 41.2564 67.9931 40.4362 67.2301C39.6168 66.4681 38.6844 65.9677 38.0029 65.9246L38.0436 65.283C38.8787 65.3358 39.9369 65.8877 40.8741 66.7594C41.8124 67.6319 42.4392 68.6476 42.5512 69.4767L41.914 69.5628V69.5625Z" fill="#2F313D"/>
    <path d="M40.0064 77.7492C38.2948 77.7492 35.9951 76.6192 33.9278 74.6959C31.5662 72.4986 30.1999 69.8591 30.4735 68.1042L30.4613 68.0928L30.523 67.8629C30.5271 67.8467 30.5316 67.8304 30.536 67.8144L30.5482 67.7694C31.0427 65.9524 33.1691 63.071 35.5506 61.6667C35.6428 61.604 35.7421 61.5481 35.8526 61.4968L35.8577 61.494L36.2021 61.3124L36.2468 61.353C37.9758 60.8874 40.7405 62.049 43.1613 64.3014C45.6487 66.6158 46.9954 69.329 46.5776 71.0876L46.5946 71.1047L46.4648 71.443C45.5791 73.7277 43.5789 76.1272 41.5932 77.2902C41.427 77.4114 41.2409 77.5094 41.0387 77.5826L40.7184 77.7304L40.6694 77.6859C40.4608 77.7284 40.2394 77.7492 40.007 77.7492H40.0064ZM31.7016 67.7992L31.6152 68.0806C31.271 69.189 32.2299 71.5992 34.6842 73.8829C37.0972 76.1279 39.4916 76.9227 40.6219 76.5519L40.6442 76.544C40.7601 76.5038 40.8637 76.4495 40.9521 76.3827L41.008 76.3456C42.6808 75.3753 44.4354 73.3259 45.2918 71.3729L45.2898 71.3709L45.4338 71.0259C45.8938 69.9335 44.8862 67.4235 42.4044 65.1144C39.8995 62.7838 37.4218 62.0238 36.3532 62.4884L36.3329 62.4978C36.2689 62.527 36.2128 62.5585 36.1658 62.591L36.1295 62.6144C34.1204 63.7924 32.2588 66.2069 31.7013 67.7992H31.7016Z" fill="#2F313D"/>
    <path d="M49.627 65.7941C48.641 65.6739 47.5267 65.344 46.337 64.7621C46.337 64.7621 46.2705 64.8383 46.1569 64.9701L42.9678 68.6736C40.8632 69.6294 37.5345 66.1553 39.0992 64.3367L47.9839 53.3696L50.0822 54.4778L53.9711 56.5311L51.5759 59.2552C55.6277 63.1485 53.7278 66.2904 49.6265 65.7943L49.627 65.7941Z" fill="#C7D2EA"/>
    <g opacity="0.55">
    <path d="M46.1978 57.1L39.1152 65.804L39.4339 66.856L47.5323 56.9403L47.1651 56.749" fill="white"/>
    </g>
    <path d="M49.627 65.7946C49.627 65.7946 49.6291 65.7935 49.6303 65.7935C53.8322 64.6031 51.677 60.847 51.1038 60.7665C50.5295 60.6872 49.5468 61.9839 49.9722 62.407C50.3967 62.8304 50.418 64.1141 49.0025 63.5236C47.587 62.933 46.3373 64.7623 46.3373 64.7623C46.3373 64.7623 46.2707 64.8385 46.1572 64.9703C45.6076 65.6005 43.9411 67.4887 43.1641 68.1316C42.2254 68.9075 40.3585 66.9518 40.3585 66.9518C40.8203 67.255 49.4609 60.1447 49.3494 58.8214C49.2379 57.4991 46.1978 57.1003 46.1978 57.1003C46.1978 57.1003 47.5158 55.3309 47.5963 55.2184L50.0825 54.478L53.9714 56.5313L51.5762 59.2554C55.6279 63.1487 53.7281 66.2906 49.6268 65.7946H49.627Z" fill="#A7BFE8"/>
    <path d="M42.1969 69.3905C40.9694 69.3905 39.6849 68.546 38.9234 67.5308C37.9765 66.2682 37.8808 64.9093 38.6725 63.982L47.5524 53.02L48.4152 53.719L39.5201 64.6995C38.8599 65.4668 39.5764 66.5504 39.8119 66.8643C40.5089 67.7939 41.7334 68.5249 42.6346 68.2095L46.1956 64.0754L46.5804 64.2636C49.7162 65.7963 52.1647 65.4422 52.9628 64.3002C53.7217 63.2144 53.0428 61.4349 51.1912 59.6562L50.8081 59.2881L53.5543 56.1642L54.3885 56.8975L52.3367 59.2315C54.3445 61.3277 54.9216 63.4361 53.8731 64.9365C52.6567 66.6769 49.6558 66.8686 46.4823 65.4442L43.3087 69.1287L43.1974 69.1792C42.8766 69.325 42.5388 69.3905 42.1967 69.3905H42.1969Z" fill="#2F313D"/>
    <path d="M60.6799 53.3032L60.681 53.3042C59.8227 55.5183 57.8603 57.821 56.0204 58.8873C55.8842 58.9902 55.7311 59.0717 55.5607 59.1306C55.5574 59.1316 55.5553 59.1327 55.553 59.1339L55.552 59.1329C54.1964 59.598 51.8335 58.7161 49.6301 56.8718C49.6291 56.8708 49.6281 56.8708 49.6281 56.8708C49.431 56.7057 49.2336 56.5322 49.0398 56.3511C46.6393 54.1178 45.3533 51.4762 45.8184 49.9781V49.9771C46.2868 48.2571 48.3401 45.5126 50.5828 44.1977C50.6611 44.1431 50.7469 44.0959 50.8368 44.0552C50.8412 44.0519 50.8455 44.0499 50.8508 44.0466V44.0476C52.2922 43.4047 55.073 44.4967 57.5164 46.7694C58.7714 47.9365 59.7208 49.2149 60.2758 50.383C60.8224 51.5328 60.9852 52.5765 60.6799 53.3032Z" fill="#55F1F9"/>
    <path d="M50.0373 46.6543C50.0373 46.6543 47.4846 49.432 46.3368 51.8869L47.1658 53.6722L47.9311 54.819C47.9311 54.819 50.8859 51.8462 52.0786 50.2085" fill="#94FAFF"/>
    <path d="M60.6799 53.3035L60.6809 53.3045C59.8227 55.5186 57.8603 57.8213 56.0204 58.8876C55.8842 58.9905 55.7311 59.072 55.5606 59.1309C55.5573 59.1319 55.5553 59.1329 55.553 59.1342L55.552 59.1332C54.1964 59.5983 51.8335 58.7164 49.6301 56.8721C49.7137 56.9031 51.7284 57.6458 53.4151 56.8711C55.1362 56.0802 56.794 52.7485 56.794 52.7485C56.794 52.7485 58.6802 51.1313 60.2758 50.3833C60.8224 51.5331 60.9852 52.5768 60.6799 53.3035Z" fill="#34C9E2"/>
    <path d="M60.3915 53.7584C61.5791 52.4823 60.2923 49.3545 57.5175 46.7723C54.7426 44.1901 51.5304 43.1314 50.3429 44.4076C49.1553 45.6837 50.4421 48.8115 53.217 51.3937C55.9918 53.9759 59.204 55.0346 60.3915 53.7584Z" fill="#92FFF7"/>
    <path d="M53.4403 49.3586C52.7022 48.367 52.4456 47.3818 52.8807 46.9142C53.451 46.3013 54.9937 46.8095 56.3264 48.0495C57.6592 49.2895 58.2771 50.7917 57.7069 51.4046C57.2792 51.8643 56.3046 51.6931 55.2818 51.0558" fill="#34C9E2"/>
    <path d="M57.2202 48.8817C58.0092 49.3305 58.5593 50.3896 58.192 51.2802C58.0348 51.6304 57.6642 51.8588 57.2916 51.903C56.0691 52.0114 54.9742 51.2405 54.1035 50.4872C53.4748 49.8916 52.9044 49.1964 52.5876 48.3724C52.1332 47.2795 52.5279 46.0908 53.8965 46.3069C54.4888 46.4217 55.0095 46.7169 55.3788 47.1842C55.1123 47.0953 54.8543 47.0082 54.5965 46.9409C51.7847 46.2416 53.5627 49.0455 54.6117 49.9358C54.9937 50.2847 55.4103 50.601 55.8586 50.8385C56.2662 51.0533 56.7587 51.2728 57.2053 51.2388C58.2207 51.1392 57.4725 49.4321 57.22 48.8814L57.2202 48.8817Z" fill="#2F313D"/>
    <path d="M56.648 51.6243C56.5568 50.9487 55.9907 50.0549 55.1702 49.2919C54.3509 48.5299 53.4184 48.0295 52.737 47.9863L52.7776 47.3447C53.6127 47.3976 54.6709 47.9495 55.6081 48.8212C56.5464 49.6939 57.1733 50.7097 57.2853 51.5384L56.648 51.6243Z" fill="#2F313D"/>
    <path d="M54.7402 59.8112C53.0286 59.8112 50.7289 58.6812 48.6616 56.7579C46.3 54.5606 44.934 51.9213 45.2075 50.1662L45.1953 50.1548L45.2571 49.9247C45.2611 49.9087 45.2654 49.8927 45.27 49.8769L45.2822 49.8317C45.777 48.0146 47.9032 45.133 50.2846 43.7289C50.3768 43.6665 50.4759 43.6106 50.5866 43.559L50.5917 43.5562L50.9539 43.3655L50.9991 43.4107C52.7294 42.9581 55.4832 44.1193 57.8954 46.3639C60.3706 48.6669 61.7162 51.3648 61.3175 53.124L61.338 53.142L61.1983 53.5055C60.3126 55.7902 58.3124 58.1897 56.3267 59.3527C56.1601 59.4741 55.9734 59.5724 55.7704 59.6458L55.4314 59.7985L55.3849 59.752C55.1814 59.7921 54.966 59.8117 54.7402 59.8117V59.8112ZM46.4353 49.8612L46.349 50.1426C46.0048 51.251 46.9637 53.6612 49.418 55.9446C51.83 58.1889 54.2236 58.9842 55.3544 58.6141L55.378 58.606C55.4938 58.5658 55.5972 58.5115 55.6859 58.4447L55.7417 58.4076C57.4072 57.4417 59.1542 55.4051 60.0147 53.4598L60.0129 53.4582L60.1674 53.0879C60.6274 51.9955 59.6195 49.4855 57.1382 47.1764C54.6336 44.846 52.1561 44.0856 51.0873 44.5501L51.067 44.5598C51.0017 44.5895 50.9468 44.6202 50.8993 44.6532L50.863 44.6763C48.8536 45.8544 46.9924 48.2689 46.4348 49.8612H46.4353Z" fill="#2F313D"/>
    <path d="M45.396 59.2716C45.6805 58.5647 46.6586 58.8192 47.0114 59.3462C47.8199 60.4948 46.5059 62.1323 45.2068 61.781C44.8857 61.701 44.5807 61.4773 44.4455 61.1735C44.317 60.8722 44.333 60.5187 44.5829 60.3086C44.7851 61.2288 45.7252 61.3853 46.2989 60.6873C46.8933 59.8839 46.2961 59.2225 45.396 59.2716Z" fill="#2F313D"/>
    <path d="M46.4173 61.3949C46.1844 61.9143 45.461 61.6949 45.2131 61.2915C44.9261 60.8673 45.051 60.3065 45.3602 59.9453C45.8019 59.3843 46.8526 59.2634 47.1836 60.0027C47.2707 60.2313 47.2484 60.4952 47.0553 60.6446C46.9824 60.306 46.8097 60.0782 46.5039 60.017C46.0017 59.9215 45.4082 60.542 45.6398 61.0243C45.7828 61.293 46.0843 61.3873 46.4173 61.3949Z" fill="#2F313D"/>
    <path d="M49.2075 61.7547C49.6763 61.6912 50.0649 61.9503 50.3324 62.312C50.8061 62.9487 50.4721 63.7846 49.6809 63.8723C49.2679 63.9236 48.9189 63.7872 48.5476 63.6615C48.3558 63.5748 48.2212 63.4501 48.1859 63.2106C48.5471 63.1725 48.8272 63.1824 49.1655 63.2048C49.3497 63.2027 49.6453 63.1951 49.7586 63.06C49.8021 63.012 49.8084 62.9691 49.7995 62.8987C49.7627 62.6414 49.5874 62.4695 49.4609 62.2261C49.3868 62.0778 49.2844 61.9467 49.2075 61.7545V61.7547Z" fill="#2F313D"/>
    <path d="M95.6889 74.6386C95.2924 77.7559 93.4611 80.9184 90.6671 83.3135C87.3451 86.1608 82.8817 87.8176 77.7573 88.1049C77.4068 88.1242 77.0469 88.1339 76.689 88.1339C76.0792 88.1339 75.4513 88.1059 74.8201 88.0493C69.7577 87.5949 64.8561 86.3196 60.1772 84.2439V84.2429C60.1772 84.2429 70.7061 84.7423 81.0547 63.3718C84.0821 64.795 87.0688 65.7723 90.0253 66.3146C91.0017 66.4937 91.9414 66.8516 92.7654 67.4045C95.0168 68.9188 96.0907 71.4895 95.6889 74.6391V74.6386Z" fill="#288CDD"/>
    <path d="M77.2 90.4197L77.2013 90.4205C76.9938 92.7859 75.7507 95.5443 74.2806 97.081C74.1785 97.2176 74.054 97.3385 73.9067 97.4427C73.9039 97.4447 73.9021 97.4462 73.9004 97.4477L73.8991 97.447C72.7267 98.2712 70.2116 98.0825 67.5817 96.925C67.5804 96.9243 67.5794 96.9245 67.5794 96.9245C67.344 96.8209 67.1062 96.7091 66.8695 96.5892C63.942 95.113 61.971 92.9342 62.0004 91.3658V91.3648C61.9707 89.5825 63.1782 86.3748 64.9661 84.4871C65.026 84.4129 65.0951 84.3436 65.1703 84.2796C65.1736 84.2753 65.1771 84.272 65.1812 84.2674V84.2684C66.3867 83.2494 69.3617 83.5235 72.3413 85.0258C73.8717 85.797 75.1396 86.7604 75.9981 87.7276C76.8434 88.6796 77.2904 89.6369 77.1995 90.4197H77.2Z" fill="#55F1F9"/>
    <path d="M65.1263 86.9985C65.1263 86.9985 63.4485 90.3772 63.0301 93.0548L64.3237 94.5386L65.3781 95.4269C65.3781 95.4269 67.3877 91.7488 68.077 89.8435" fill="#94FAFF"/>
    <path d="M77.2 90.4196L77.2013 90.4204C76.9938 92.7859 75.7507 95.5443 74.2806 97.0809C74.1785 97.2176 74.054 97.3385 73.9067 97.4426C73.9039 97.4447 73.9022 97.4462 73.9004 97.4477L73.8991 97.4469C72.7267 98.2712 70.2116 98.0824 67.5817 96.925C67.6706 96.9316 69.8126 97.0835 71.2167 95.8696C72.6492 94.6306 73.3134 90.969 73.3134 90.969C73.3134 90.969 74.6743 88.8906 75.9984 87.7275C76.8437 88.6795 77.2907 89.6368 77.1998 90.4196H77.2Z" fill="#34C9E2"/>
    <path d="M77.0488 90.9331C77.8337 89.3765 75.7263 86.7312 72.3418 85.0245C68.9574 83.3179 65.5774 83.1962 64.7925 84.7527C64.0076 86.3092 66.115 88.9546 69.4995 90.6612C72.884 92.3679 76.2639 92.4896 77.0488 90.9331Z" fill="#92FFF7"/>
    <path d="M69.1481 88.6477C68.1631 87.9009 67.6419 87.0262 67.9297 86.4559C68.3066 85.7084 69.9299 85.7668 71.5552 86.5865C73.1806 87.4061 74.1927 88.6766 73.8158 89.4241C73.5331 89.9847 72.5494 90.0921 71.3894 89.7647" fill="#34C9E2"/>
    <path d="M72.6456 87.1363C73.5285 87.3474 74.3517 88.2115 74.2471 89.1691C74.1937 89.5493 73.9014 89.8721 73.556 90.0182C72.4074 90.4629 71.1499 90.0283 70.0996 89.5465C69.33 89.1498 68.5883 88.641 68.0547 87.938C67.3138 87.0147 67.3615 85.7635 68.7361 85.5898C69.3368 85.5349 69.9192 85.6733 70.4044 86.0195C70.1237 86.0083 69.8514 85.9967 69.5852 86.0038C66.6899 86.1155 69.1789 88.3131 70.4344 88.876C71.2515 89.2684 72.4861 89.7134 73.3566 89.3771C74.1739 88.9313 73.0317 87.5933 72.6456 87.1368V87.1363Z" fill="#2F313D"/>
    <path d="M72.86 89.9301C72.5842 89.3065 71.7912 88.606 70.791 88.1018C69.7915 87.5982 68.7567 87.3777 68.0902 87.5258L67.9505 86.8981C68.7674 86.7158 69.9373 86.9515 71.0803 87.5275C72.2245 88.1044 73.1097 88.905 73.448 89.67L72.86 89.9301Z" fill="#2F313D"/>
    <path d="M71.8496 98.5111C70.3411 98.5111 68.4799 98.0232 66.6198 97.0852C63.7411 95.6333 61.6944 93.4805 61.4665 91.7193L61.4513 91.7116L61.4465 91.4688C61.446 91.4536 61.4457 91.4381 61.4454 91.4228L61.4444 91.3741C61.4132 89.491 62.6527 86.1316 64.5488 84.1197C64.6196 84.0341 64.6994 83.9528 64.7913 83.8721L65.0684 83.6041L65.1223 83.629C66.6508 82.6945 69.6345 83.0384 72.592 84.5297C75.6217 86.0574 77.6694 88.2842 77.7631 90.0884L77.785 90.0998L77.7537 90.4683C77.5396 92.9092 76.2869 95.771 74.7038 97.4413C74.578 97.6038 74.4267 97.7499 74.2532 97.8764L73.9946 98.1027L73.9342 98.0747C73.3804 98.3673 72.6665 98.5109 71.8491 98.5109L71.8496 98.5111ZM62.5607 91.0812L62.5562 91.3761C62.5346 92.5364 64.1266 94.5841 67.12 96.0936C70.0625 97.5772 72.5829 97.6739 73.5656 97.0034L73.5854 96.9894C73.6852 96.9185 73.7696 96.8375 73.8361 96.7486L73.8795 96.6973C75.2143 95.3011 76.3276 92.848 76.6077 90.7355L76.6054 90.7345L76.6484 90.3556C76.7858 89.1783 75.119 87.0483 72.0922 85.522C69.0325 83.9787 66.4375 83.9411 65.5447 84.6892L65.5322 84.7003C65.4779 84.7471 65.4339 84.7915 65.3979 84.8362L65.3692 84.869C63.7677 86.5598 62.6527 89.397 62.5607 91.0815V91.0812Z" fill="#2F313D"/>
    <path d="M79.218 84.1625C78.2376 84.3218 77.0753 84.3154 75.7708 84.0878C75.7708 84.0878 75.7281 84.1795 75.6557 84.3378L73.6245 88.7832C71.8694 90.2876 67.7049 87.878 68.7011 85.6956L74.1792 72.6877L76.503 73.1675L80.8101 74.0563L79.2686 77.3397C84.2446 79.95 83.2949 83.497 79.218 84.163V84.1625Z" fill="#C7D2EA"/>
    <g opacity="0.55">
    <path d="M73.5026 76.7679L69.125 87.1002L69.7244 88.022L74.7398 76.2429L74.3339 76.1614" fill="white"/>
    </g>
    <path d="M79.218 84.1625C79.218 84.1625 79.2198 84.1609 79.2208 84.1604C82.9246 81.8465 79.8085 78.8395 79.2355 78.922C78.6618 79.0058 78.0793 80.525 78.6056 80.813C79.1311 81.1013 79.5093 82.3284 77.9854 82.1556C76.4614 81.9829 75.7708 84.0878 75.7708 84.0878C75.7708 84.0878 75.7281 84.1795 75.6557 84.3377C75.3032 85.0961 74.2288 87.3737 73.6619 88.2076C72.9763 89.2142 70.6388 87.8561 70.6388 87.8561C71.1669 88.0186 77.4847 78.7828 77.009 77.5428C76.5335 76.3038 73.5026 76.7679 73.5026 76.7679C73.5026 76.7679 74.2758 74.7014 74.3215 74.5711L76.503 73.1672L80.8101 74.056L79.2685 77.3394C84.2446 79.9497 83.2949 83.4967 79.218 84.1627V84.1625Z" fill="#A7BFE8"/>
    <path d="M72.2283 89.8018C71.2497 89.8018 70.2014 89.3984 69.4219 88.812C68.1608 87.863 67.6904 86.5847 68.1923 85.4735L73.6672 72.4719L74.6908 72.903L69.2063 85.9268C68.7859 86.8476 69.776 87.6888 70.0894 87.9245C71.0178 88.623 72.397 88.9842 73.175 88.4302L75.4434 83.4679L75.8655 83.5413C79.3041 84.1397 81.5571 83.1176 82.0056 81.7986C82.4321 80.5444 81.2843 79.0243 79.0105 77.8317L78.5401 77.5849L80.3072 73.8199L81.3125 74.2915L79.9922 77.1048C82.5045 78.5589 83.6462 80.423 83.0572 82.156C82.3739 84.1664 79.5449 85.1869 76.1005 84.7023L74.0787 89.1251L73.986 89.2046C73.4965 89.6242 72.8778 89.802 72.2283 89.802V89.8018Z" fill="#2F313D"/>
    <path d="M86.3538 69.0869L86.355 69.0877C86.1475 71.4532 84.9045 74.2115 83.4343 75.7482C83.3322 75.8849 83.2078 76.0058 83.0605 76.1099C83.0577 76.1119 83.0559 76.1135 83.0541 76.115L83.0528 76.1142C81.8804 76.9384 79.3653 76.7497 76.7355 75.5923C76.7342 75.5915 76.7332 75.5918 76.7332 75.5918C76.4977 75.4881 76.26 75.3764 76.0233 75.2565C73.0957 73.7803 71.1247 71.6015 71.1542 70.0331V70.032C71.1244 68.2498 72.3319 65.042 74.1198 63.1543C74.1798 63.0802 74.2488 63.0108 74.324 62.9468C74.3273 62.9425 74.3309 62.9392 74.3349 62.9346V62.9357C75.5404 61.9166 78.5155 62.1907 81.4951 63.6931C83.0254 64.4642 84.2934 65.4276 85.1519 66.3948C85.9972 67.3468 86.4442 68.3041 86.3533 69.0869H86.3538Z" fill="#55F1F9"/>
    <path d="M74.2801 65.666C74.2801 65.666 72.6022 69.0447 72.1839 71.7223L73.4775 73.2061L74.5318 74.0944C74.5318 74.0944 76.5414 70.4162 77.2308 68.511" fill="#94FAFF"/>
    <path d="M86.3538 69.0871L86.355 69.0879C86.1475 71.4533 84.9045 74.2117 83.4344 75.7484C83.3322 75.8851 83.2078 76.006 83.0605 76.1101C83.0577 76.1121 83.0559 76.1137 83.0541 76.1152L83.0529 76.1144C81.8804 76.9386 79.3653 76.7499 76.7355 75.5925C76.8244 75.5991 78.9663 75.7509 80.3704 74.5371C81.8029 73.2981 82.4671 69.6365 82.4671 69.6365C82.4671 69.6365 83.828 67.5581 85.1521 66.395C85.9974 67.347 86.4445 68.3043 86.3535 69.0871H86.3538Z" fill="#34C9E2"/>
    <path d="M86.2025 69.601C86.9874 68.0445 84.88 65.3992 81.4955 63.6925C78.111 61.9858 74.7311 61.8641 73.9462 63.4207C73.1613 64.9772 75.2687 67.6225 78.6532 69.3292C82.0377 71.0359 85.4176 71.1576 86.2025 69.601Z" fill="#92FFF7"/>
    <path d="M78.3019 67.3154C77.3169 66.5686 76.7957 65.6939 77.0834 65.1237C77.4604 64.3762 79.0837 64.4346 80.709 65.2542C82.3343 66.0739 83.3465 67.3443 82.9695 68.0919C82.6868 68.6524 81.7031 68.7599 80.5431 68.4325" fill="#34C9E2"/>
    <path d="M81.7994 65.8041C82.6823 66.0151 83.5055 66.8792 83.4008 67.8368C83.3475 68.217 83.0549 68.5396 82.7097 68.6859C81.5611 69.1304 80.3033 68.6961 79.2533 68.2142C78.4837 67.8172 77.7423 67.3085 77.2084 66.6054C76.4677 65.6824 76.5152 64.4307 77.8899 64.2572C78.4906 64.2024 79.073 64.3408 79.5581 64.687C79.2774 64.6758 79.0052 64.6641 78.739 64.6713C75.8439 64.783 78.3326 66.9806 79.5881 67.5434C80.4052 67.9359 81.6401 68.3809 82.5103 68.0446C83.3277 67.5991 82.1854 66.2605 81.7994 65.8043V65.8041Z" fill="#2F313D"/>
    <path d="M82.014 68.5975C81.7382 67.9739 80.9454 67.2734 79.945 66.7692C78.9455 66.2655 77.9107 66.0448 77.2442 66.1932L77.1045 65.5655C77.9216 65.3839 79.0915 65.6191 80.2343 66.1949C81.3785 66.7718 82.2637 67.5726 82.602 68.3374L82.014 68.5975Z" fill="#2F313D"/>
    <path d="M81.0034 77.1785C79.4949 77.1785 77.6336 76.6906 75.7736 75.7526C72.8948 74.301 70.8481 72.1479 70.6203 70.3867L70.605 70.3791L70.6002 70.136C70.5997 70.1208 70.5994 70.1058 70.5992 70.0908L70.5982 70.0418C70.5669 68.1586 71.8064 64.799 73.7025 62.7871C73.7734 62.7015 73.8529 62.6205 73.9443 62.5405L73.9453 62.5395L74.2283 62.2614L74.2864 62.2906C75.8178 61.364 78.7951 61.7099 81.7458 63.1976C84.7658 64.7206 86.8102 66.9382 86.9159 68.7393L86.9403 68.7507L86.9077 69.1363C86.6936 71.5772 85.4409 74.4389 83.8578 76.1092C83.7313 76.2725 83.5794 76.4191 83.4049 76.5458L83.143 76.7681L83.0882 76.7427C82.5344 77.0353 81.8205 77.1788 81.0031 77.1788L81.0034 77.1785ZM71.7145 69.7492L71.7099 70.0435C71.6883 71.2038 73.2804 73.2515 76.2737 74.761C79.2157 76.2446 81.7359 76.3416 82.7188 75.6711L82.7392 75.6569C82.839 75.5862 82.9233 75.505 82.9899 75.4161L83.0333 75.3648C84.3642 73.9726 85.4752 71.5287 85.7592 69.42L85.7571 69.419L85.8021 69.0227C85.9395 67.8455 84.2728 65.7155 81.2459 64.1892C78.1893 62.6477 75.5971 62.6086 74.7015 63.3538L74.686 63.3675C74.6319 63.414 74.5879 63.4587 74.5511 63.5039L74.5227 63.5364C72.9212 65.2273 71.8059 68.0647 71.7142 69.7494L71.7145 69.7492Z" fill="#2F313D"/>
    <path d="M73.3375 79.0767C73.4137 78.3185 74.4241 78.2906 74.9097 78.6982C76.006 79.576 75.2003 81.5148 73.8546 81.5394C73.5239 81.5521 73.1686 81.4221 72.9542 81.1681C72.7467 80.9146 72.6636 80.5704 72.8453 80.2991C73.2956 81.1267 74.242 81.0149 74.5988 80.1848C74.9458 79.2476 74.1881 78.779 73.3375 79.0767Z" fill="#2F313D"/>
    <path d="M74.91 80.8316C74.831 81.3952 74.0751 81.3863 73.7248 81.0675C73.3312 80.7401 73.2948 80.1669 73.4912 79.7335C73.7591 79.0716 74.7345 78.6629 75.2582 79.2807C75.4055 79.476 75.4576 79.7356 75.3138 79.9329C75.1495 79.6281 74.9202 79.4572 74.6093 79.4839C74.1003 79.5321 73.703 80.2933 74.0599 80.6921C74.272 80.9103 74.5879 80.9172 74.91 80.8316Z" fill="#2F313D"/>
    <path d="M77.69 80.3998C78.17 80.1872 78.6895 80.3838 79.0461 80.731C79.5657 81.225 79.3864 82.0447 78.7347 82.3015C78.3521 82.4661 77.979 82.432 77.5876 82.4148C77.3793 82.3848 77.2153 82.3027 77.1147 82.0825C77.451 81.9454 77.7228 81.8768 78.054 81.8042C78.2302 81.7508 78.5122 81.6612 78.5833 81.4999C78.6115 81.442 78.6056 81.3988 78.5777 81.3338C78.4708 81.0968 78.2546 80.9804 78.0651 80.7821C77.9526 80.6602 77.818 80.5629 77.6902 80.3998H77.69Z" fill="#2F313D"/>
    <g opacity="0.4">
    <path d="M52.5239 41.0451C45.953 46.748 39.9612 54.5531 36.8071 58.9533C36.2077 59.7894 34.9103 59.5537 34.6337 58.5626C34.4325 57.8415 34.2748 57.1136 34.1615 56.3798C33.3525 51.1536 34.7767 46.0097 38.0677 42.2686C40.6706 39.3098 44.0732 37.6123 47.4025 37.6123C49.1879 37.6123 50.8749 38.117 52.3842 39.0906C53.0707 39.5335 53.1411 40.5094 52.5241 41.0448L52.5239 41.0451Z" fill="white"/>
    </g>
    </g>
    </g>
    <defs>
    <filter id="filter0_d_0_452" x="0" y="0.0112305" width="135" height="135" filterUnits="userSpaceOnUse" color-interpolation-filters="sRGB">
    <feFlood flood-opacity="0" result="BackgroundImageFix"/>
    <feColorMatrix in="SourceAlpha" type="matrix" values="0 0 0 0 0 0 0 0 0 0 0 0 0 0 0 0 0 0 127 0" result="hardAlpha"/>
    <feOffset dx="5" dy="5"/>
    <feComposite in2="hardAlpha" operator="out"/>
    <feColorMatrix type="matrix" values="0 0 0 0 0 0 0 0 0 0 0 0 0 0 0 0 0 0 0.26 0"/>
    <feBlend mode="normal" in2="BackgroundImageFix" result="effect1_dropShadow_0_452"/>
    <feBlend mode="normal" in="SourceGraphic" in2="effect1_dropShadow_0_452" result="shape"/>
    </filter>
    <clipPath id="clip0_0_452">
    <rect width="69.1221" height="67" fill="white" transform="translate(30.4389 31.5112)"/>
    </clipPath>
    </defs>
    </svg>
    