<svg width="414" height="226" viewBox="0 0 414 226" fill="none" xmlns="http://www.w3.org/2000/svg">
    <g filter="url(#filter0_d_0_702)">
    <rect y="0.890137" width="394" height="205" rx="45" fill="white" shape-rendering="crispEdges"/>
    <rect x="5" y="5.89014" width="384" height="195" rx="40" stroke="black" stroke-width="10" shape-rendering="crispEdges"/>
    <path d="M109.621 62.5611V67.9201H115.463V69.6451H109.621V75.1651H116.153V76.8901H107.528V60.8361H116.153V62.5611H109.621ZM118.538 70.5421C118.538 69.2541 118.798 68.1271 119.32 67.1611C119.841 66.1798 120.554 65.4208 121.459 64.8841C122.379 64.3475 123.398 64.0791 124.518 64.0791C125.622 64.0791 126.58 64.3168 127.393 64.7921C128.205 65.2675 128.811 65.8655 129.21 66.5861V64.2861H131.326V76.8901H129.21V74.5441C128.796 75.2801 128.175 75.8935 127.347 76.3841C126.534 76.8595 125.583 77.0971 124.495 77.0971C123.375 77.0971 122.363 76.8211 121.459 76.2691C120.554 75.7171 119.841 74.9428 119.32 73.9461C118.798 72.9495 118.538 71.8148 118.538 70.5421ZM129.21 70.5651C129.21 69.6145 129.018 68.7865 128.635 68.0811C128.251 67.3758 127.73 66.8391 127.071 66.4711C126.427 66.0878 125.714 65.8961 124.932 65.8961C124.15 65.8961 123.437 66.0801 122.793 66.4481C122.149 66.8161 121.635 67.3528 121.252 68.0581C120.868 68.7635 120.677 69.5915 120.677 70.5421C120.677 71.5081 120.868 72.3515 121.252 73.0721C121.635 73.7775 122.149 74.3218 122.793 74.7051C123.437 75.0731 124.15 75.2571 124.932 75.2571C125.714 75.2571 126.427 75.0731 127.071 74.7051C127.73 74.3218 128.251 73.7775 128.635 73.0721C129.018 72.3515 129.21 71.5158 129.21 70.5651ZM136.956 66.3331C137.324 65.6125 137.845 65.0528 138.52 64.6541C139.21 64.2555 140.045 64.0561 141.027 64.0561V66.2181H140.475C138.129 66.2181 136.956 67.4908 136.956 70.0361V76.8901H134.863V64.2861H136.956V66.3331ZM149.584 64.0561C151.117 64.0561 152.359 64.5238 153.31 65.4591C154.261 66.3791 154.736 67.7131 154.736 69.4611V76.8901H152.666V69.7601C152.666 68.5028 152.352 67.5445 151.723 66.8851C151.094 66.2105 150.236 65.8731 149.147 65.8731C148.043 65.8731 147.161 66.2181 146.502 66.9081C145.858 67.5981 145.536 68.6025 145.536 69.9211V76.8901H143.443V64.2861H145.536V66.0801C145.95 65.4361 146.51 64.9378 147.215 64.5851C147.936 64.2325 148.725 64.0561 149.584 64.0561ZM174.637 72.4971C174.637 73.2331 174.453 73.9385 174.085 74.6131C173.717 75.2725 173.172 75.8245 172.452 76.2691C171.746 76.7138 170.895 76.9668 169.899 77.0281V78.8911H168.657V77.0281C167.261 76.9055 166.127 76.4608 165.253 75.6941C164.379 74.9121 163.934 73.9231 163.919 72.7271H166.15C166.211 73.3711 166.449 73.9308 166.863 74.4061C167.292 74.8815 167.89 75.1805 168.657 75.3031V69.5531C167.629 69.2925 166.801 69.0241 166.173 68.7481C165.544 68.4721 165.007 68.0428 164.563 67.4601C164.118 66.8775 163.896 66.0955 163.896 65.1141C163.896 63.8721 164.325 62.8448 165.184 62.0321C166.058 61.2195 167.215 60.7671 168.657 60.6751V58.7661H169.899V60.6751C171.202 60.7825 172.252 61.2041 173.05 61.9401C173.847 62.6608 174.307 63.6038 174.43 64.7691H172.199C172.122 64.2325 171.884 63.7495 171.486 63.3201C171.087 62.8755 170.558 62.5841 169.899 62.4461V68.0581C170.911 68.3188 171.731 68.5871 172.36 68.8631C173.004 69.1238 173.54 69.5455 173.97 70.1281C174.414 70.7108 174.637 71.5005 174.637 72.4971ZM166.035 64.9991C166.035 65.7505 166.257 66.3255 166.702 66.7241C167.146 67.1228 167.798 67.4525 168.657 67.7131V62.4001C167.859 62.4768 167.223 62.7375 166.748 63.1821C166.272 63.6115 166.035 64.2171 166.035 64.9991ZM169.899 75.3261C170.727 75.2341 171.371 74.9351 171.831 74.4291C172.306 73.9231 172.544 73.3175 172.544 72.6121C172.544 71.8608 172.314 71.2858 171.854 70.8871C171.394 70.4731 170.742 70.1435 169.899 69.8981V75.3261ZM177.812 68.8631C177.812 67.2991 178.165 65.8961 178.87 64.6541C179.576 63.3968 180.534 62.4155 181.745 61.7101C182.972 61.0048 184.329 60.6521 185.816 60.6521C187.564 60.6521 189.09 61.0738 190.393 61.9171C191.697 62.7605 192.647 63.9565 193.245 65.5051H190.738C190.294 64.5391 189.65 63.7955 188.806 63.2741C187.978 62.7528 186.982 62.4921 185.816 62.4921C184.697 62.4921 183.693 62.7528 182.803 63.2741C181.914 63.7955 181.216 64.5391 180.71 65.5051C180.204 66.4558 179.951 67.5751 179.951 68.8631C179.951 70.1358 180.204 71.2551 180.71 72.2211C181.216 73.1718 181.914 73.9078 182.803 74.4291C183.693 74.9505 184.697 75.2111 185.816 75.2111C186.982 75.2111 187.978 74.9581 188.806 74.4521C189.65 73.9308 190.294 73.1871 190.738 72.2211H193.245C192.647 73.7545 191.697 74.9428 190.393 75.7861C189.09 76.6141 187.564 77.0281 185.816 77.0281C184.329 77.0281 182.972 76.6831 181.745 75.9931C180.534 75.2878 179.576 74.3141 178.87 73.0721C178.165 71.8301 177.812 70.4271 177.812 68.8631ZM204.802 76.8901L200.984 70.3351H198.454V76.8901H196.361V60.8591H201.536C202.747 60.8591 203.767 61.0661 204.595 61.4801C205.438 61.8941 206.067 62.4538 206.481 63.1591C206.895 63.8645 207.102 64.6695 207.102 65.5741C207.102 66.6781 206.78 67.6518 206.136 68.4951C205.507 69.3385 204.557 69.8981 203.284 70.1741L207.309 76.8901H204.802ZM198.454 68.6561H201.536C202.671 68.6561 203.522 68.3801 204.089 67.8281C204.656 67.2608 204.94 66.5095 204.94 65.5741C204.94 64.6235 204.656 63.8875 204.089 63.3661C203.537 62.8448 202.686 62.5841 201.536 62.5841H198.454V68.6561ZM212.401 60.8591V71.0021C212.401 72.4281 212.746 73.4861 213.436 74.1761C214.141 74.8661 215.115 75.2111 216.357 75.2111C217.584 75.2111 218.542 74.8661 219.232 74.1761C219.937 73.4861 220.29 72.4281 220.29 71.0021V60.8591H222.383V70.9791C222.383 72.3131 222.115 73.4401 221.578 74.3601C221.041 75.2648 220.313 75.9395 219.393 76.3841C218.488 76.8288 217.469 77.0511 216.334 77.0511C215.199 77.0511 214.172 76.8288 213.252 76.3841C212.347 75.9395 211.627 75.2648 211.09 74.3601C210.569 73.4401 210.308 72.3131 210.308 70.9791V60.8591H212.401ZM238.479 76.8901H236.386L227.968 64.1251V76.8901H225.875V60.8361H227.968L236.386 73.5781V60.8361H238.479V76.8901ZM241.264 68.8631C241.264 67.2991 241.617 65.8961 242.322 64.6541C243.028 63.3968 243.986 62.4155 245.197 61.7101C246.424 61.0048 247.781 60.6521 249.268 60.6521C251.016 60.6521 252.542 61.0738 253.845 61.9171C255.149 62.7605 256.099 63.9565 256.697 65.5051H254.19C253.746 64.5391 253.102 63.7955 252.258 63.2741C251.43 62.7528 250.434 62.4921 249.268 62.4921C248.149 62.4921 247.145 62.7528 246.255 63.2741C245.366 63.7955 244.668 64.5391 244.162 65.5051C243.656 66.4558 243.403 67.5751 243.403 68.8631C243.403 70.1358 243.656 71.2551 244.162 72.2211C244.668 73.1718 245.366 73.9078 246.255 74.4291C247.145 74.9505 248.149 75.2111 249.268 75.2111C250.434 75.2111 251.43 74.9581 252.258 74.4521C253.102 73.9308 253.746 73.1871 254.19 72.2211H256.697C256.099 73.7545 255.149 74.9428 253.845 75.7861C252.542 76.6141 251.016 77.0281 249.268 77.0281C247.781 77.0281 246.424 76.6831 245.197 75.9931C243.986 75.2878 243.028 74.3141 242.322 73.0721C241.617 71.8301 241.264 70.4271 241.264 68.8631ZM272.164 60.8591V76.8901H270.071V69.6221H261.906V76.8901H259.813V60.8591H261.906V67.8971H270.071V60.8591H272.164ZM284.423 66.0111V73.4401C284.423 74.0535 284.553 74.4905 284.814 74.7511C285.074 74.9965 285.527 75.1191 286.171 75.1191H287.712V76.8901H285.826C284.66 76.8901 283.786 76.6218 283.204 76.0851C282.621 75.5485 282.33 74.6668 282.33 73.4401V66.0111H280.697V64.2861H282.33V61.1121H284.423V64.2861H287.712V66.0111H284.423ZM295.745 77.0971C294.564 77.0971 293.491 76.8288 292.525 76.2921C291.574 75.7555 290.823 74.9965 290.271 74.0151C289.734 73.0185 289.466 71.8685 289.466 70.5651C289.466 69.2771 289.742 68.1425 290.294 67.1611C290.861 66.1645 291.628 65.4055 292.594 64.8841C293.56 64.3475 294.641 64.0791 295.837 64.0791C297.033 64.0791 298.114 64.3475 299.08 64.8841C300.046 65.4055 300.805 66.1568 301.357 67.1381C301.924 68.1195 302.208 69.2618 302.208 70.5651C302.208 71.8685 301.916 73.0185 301.334 74.0151C300.766 74.9965 299.992 75.7555 299.011 76.2921C298.029 76.8288 296.941 77.0971 295.745 77.0971ZM295.745 75.2571C296.496 75.2571 297.201 75.0808 297.861 74.7281C298.52 74.3755 299.049 73.8465 299.448 73.1411C299.862 72.4358 300.069 71.5771 300.069 70.5651C300.069 69.5531 299.869 68.6945 299.471 67.9891C299.072 67.2838 298.551 66.7625 297.907 66.4251C297.263 66.0725 296.565 65.8961 295.814 65.8961C295.047 65.8961 294.342 66.0725 293.698 66.4251C293.069 66.7625 292.563 67.2838 292.18 67.9891C291.796 68.6945 291.605 69.5531 291.605 70.5651C291.605 71.5925 291.789 72.4588 292.157 73.1641C292.54 73.8695 293.046 74.3985 293.675 74.7511C294.303 75.0885 294.993 75.2571 295.745 75.2571ZM311.997 76.8901L307.052 71.3241V76.8901H304.959V59.8701H307.052V69.8751L311.905 64.2861H314.826L308.892 70.5651L314.849 76.8901H311.997ZM328.296 70.1051C328.296 70.5038 328.273 70.9255 328.227 71.3701H318.153C318.23 72.6121 318.652 73.5858 319.418 74.2911C320.2 74.9811 321.143 75.3261 322.247 75.3261C323.152 75.3261 323.903 75.1191 324.501 74.7051C325.115 74.2758 325.544 73.7085 325.789 73.0031H328.043C327.706 74.2145 327.031 75.2035 326.019 75.9701C325.007 76.7215 323.75 77.0971 322.247 77.0971C321.051 77.0971 319.978 76.8288 319.027 76.2921C318.092 75.7555 317.356 74.9965 316.819 74.0151C316.283 73.0185 316.014 71.8685 316.014 70.5651C316.014 69.2618 316.275 68.1195 316.796 67.1381C317.318 66.1568 318.046 65.4055 318.981 64.8841C319.932 64.3475 321.021 64.0791 322.247 64.0791C323.443 64.0791 324.501 64.3398 325.421 64.8611C326.341 65.3825 327.047 66.1031 327.537 67.0231C328.043 67.9278 328.296 68.9551 328.296 70.1051ZM326.134 69.6681C326.134 68.8708 325.958 68.1885 325.605 67.6211C325.253 67.0385 324.77 66.6015 324.156 66.3101C323.558 66.0035 322.891 65.8501 322.155 65.8501C321.097 65.8501 320.193 66.1875 319.441 66.8621C318.705 67.5368 318.284 68.4721 318.176 69.6681H326.134ZM337.2 64.0561C338.733 64.0561 339.975 64.5238 340.926 65.4591C341.877 66.3791 342.352 67.7131 342.352 69.4611V76.8901H340.282V69.7601C340.282 68.5028 339.968 67.5445 339.339 66.8851C338.71 66.2105 337.852 65.8731 336.763 65.8731C335.659 65.8731 334.777 66.2181 334.118 66.9081C333.474 67.5981 333.152 68.6025 333.152 69.9211V76.8901H331.059V64.2861H333.152V66.0801C333.566 65.4361 334.126 64.9378 334.831 64.5851C335.552 64.2325 336.341 64.0561 337.2 64.0561ZM81.5671 101.333C81.9351 100.612 82.4565 100.053 83.1311 99.6541C83.8211 99.2555 84.6568 99.0561 85.6381 99.0561V101.218H85.0861C82.7401 101.218 81.5671 102.491 81.5671 105.036V111.89H79.4741V99.2861H81.5671V101.333ZM99.5542 105.105C99.5542 105.504 99.5312 105.925 99.4852 106.37H89.4112C89.4879 107.612 89.9095 108.586 90.6762 109.291C91.4582 109.981 92.4012 110.326 93.5052 110.326C94.4099 110.326 95.1612 110.119 95.7592 109.705C96.3725 109.276 96.8019 108.708 97.0472 108.003H99.3012C98.9639 109.214 98.2892 110.203 97.2772 110.97C96.2652 111.721 95.0079 112.097 93.5052 112.097C92.3092 112.097 91.2359 111.829 90.2852 111.292C89.3499 110.755 88.6139 109.996 88.0772 109.015C87.5405 108.018 87.2722 106.868 87.2722 105.565C87.2722 104.262 87.5329 103.119 88.0542 102.138C88.5755 101.157 89.3039 100.405 90.2392 99.8841C91.1899 99.3475 92.2785 99.0791 93.5052 99.0791C94.7012 99.0791 95.7592 99.3398 96.6792 99.8611C97.5992 100.382 98.3045 101.103 98.7952 102.023C99.3012 102.928 99.5542 103.955 99.5542 105.105ZM97.3922 104.668C97.3922 103.871 97.2159 103.188 96.8632 102.621C96.5105 102.038 96.0275 101.601 95.4142 101.31C94.8162 101.003 94.1492 100.85 93.4132 100.85C92.3552 100.85 91.4505 101.187 90.6992 101.862C89.9632 102.537 89.5415 103.472 89.4342 104.668H97.3922ZM119.107 99.2861L115.174 111.89H113.012L109.976 101.885L106.94 111.89H104.778L100.822 99.2861H102.961L105.859 109.866L108.987 99.2861H111.126L114.185 109.889L117.037 99.2861H119.107ZM120.402 105.542C120.402 104.254 120.663 103.127 121.184 102.161C121.705 101.18 122.418 100.421 123.323 99.8841C124.243 99.3475 125.263 99.0791 126.382 99.0791C127.486 99.0791 128.444 99.3168 129.257 99.7921C130.07 100.267 130.675 100.865 131.074 101.586V99.2861H133.19V111.89H131.074V109.544C130.66 110.28 130.039 110.893 129.211 111.384C128.398 111.859 127.448 112.097 126.359 112.097C125.24 112.097 124.228 111.821 123.323 111.269C122.418 110.717 121.705 109.943 121.184 108.946C120.663 107.949 120.402 106.815 120.402 105.542ZM131.074 105.565C131.074 104.614 130.882 103.786 130.499 103.081C130.116 102.376 129.594 101.839 128.935 101.471C128.291 101.088 127.578 100.896 126.796 100.896C126.014 100.896 125.301 101.08 124.657 101.448C124.013 101.816 123.499 102.353 123.116 103.058C122.733 103.763 122.541 104.591 122.541 105.542C122.541 106.508 122.733 107.351 123.116 108.072C123.499 108.777 124.013 109.322 124.657 109.705C125.301 110.073 126.014 110.257 126.796 110.257C127.578 110.257 128.291 110.073 128.935 109.705C129.594 109.322 130.116 108.777 130.499 108.072C130.882 107.351 131.074 106.516 131.074 105.565ZM138.82 101.333C139.188 100.612 139.709 100.053 140.384 99.6541C141.074 99.2555 141.91 99.0561 142.891 99.0561V101.218H142.339C139.993 101.218 138.82 102.491 138.82 105.036V111.89H136.727V99.2861H138.82V101.333ZM144.525 105.542C144.525 104.254 144.786 103.127 145.307 102.161C145.828 101.18 146.541 100.421 147.446 99.8841C148.366 99.3475 149.393 99.0791 150.528 99.0791C151.509 99.0791 152.422 99.3091 153.265 99.7691C154.108 100.214 154.752 100.804 155.197 101.54V94.8701H157.313V111.89H155.197V109.521C154.783 110.272 154.17 110.893 153.357 111.384C152.544 111.859 151.594 112.097 150.505 112.097C149.386 112.097 148.366 111.821 147.446 111.269C146.541 110.717 145.828 109.943 145.307 108.946C144.786 107.949 144.525 106.815 144.525 105.542ZM155.197 105.565C155.197 104.614 155.005 103.786 154.622 103.081C154.239 102.376 153.717 101.839 153.058 101.471C152.414 101.088 151.701 100.896 150.919 100.896C150.137 100.896 149.424 101.08 148.78 101.448C148.136 101.816 147.622 102.353 147.239 103.058C146.856 103.763 146.664 104.591 146.664 105.542C146.664 106.508 146.856 107.351 147.239 108.072C147.622 108.777 148.136 109.322 148.78 109.705C149.424 110.073 150.137 110.257 150.919 110.257C151.701 110.257 152.414 110.073 153.058 109.705C153.717 109.322 154.239 108.777 154.622 108.072C155.005 107.351 155.197 106.516 155.197 105.565ZM165.312 112.097C164.346 112.097 163.48 111.936 162.713 111.614C161.946 111.277 161.341 110.817 160.896 110.234C160.451 109.636 160.206 108.954 160.16 108.187H162.322C162.383 108.816 162.675 109.329 163.196 109.728C163.733 110.127 164.43 110.326 165.289 110.326C166.086 110.326 166.715 110.15 167.175 109.797C167.635 109.444 167.865 109 167.865 108.463C167.865 107.911 167.62 107.505 167.129 107.244C166.638 106.968 165.879 106.7 164.852 106.439C163.917 106.194 163.15 105.948 162.552 105.703C161.969 105.442 161.463 105.067 161.034 104.576C160.62 104.07 160.413 103.411 160.413 102.598C160.413 101.954 160.605 101.364 160.988 100.827C161.371 100.29 161.916 99.8688 162.621 99.5621C163.326 99.2401 164.131 99.0791 165.036 99.0791C166.431 99.0791 167.558 99.4318 168.417 100.137C169.276 100.842 169.736 101.808 169.797 103.035H167.704C167.658 102.376 167.39 101.847 166.899 101.448C166.424 101.049 165.78 100.85 164.967 100.85C164.216 100.85 163.618 101.011 163.173 101.333C162.728 101.655 162.506 102.077 162.506 102.598C162.506 103.012 162.636 103.357 162.897 103.633C163.173 103.894 163.51 104.108 163.909 104.277C164.323 104.43 164.89 104.607 165.611 104.806C166.516 105.051 167.252 105.297 167.819 105.542C168.386 105.772 168.869 106.125 169.268 106.6C169.682 107.075 169.897 107.696 169.912 108.463C169.912 109.153 169.72 109.774 169.337 110.326C168.954 110.878 168.409 111.315 167.704 111.637C167.014 111.944 166.217 112.097 165.312 112.097ZM181.092 101.632C181.521 100.881 182.15 100.267 182.978 99.7921C183.806 99.3168 184.749 99.0791 185.807 99.0791C186.941 99.0791 187.961 99.3475 188.866 99.8841C189.77 100.421 190.483 101.18 191.005 102.161C191.526 103.127 191.787 104.254 191.787 105.542C191.787 106.815 191.526 107.949 191.005 108.946C190.483 109.943 189.763 110.717 188.843 111.269C187.938 111.821 186.926 112.097 185.807 112.097C184.718 112.097 183.76 111.859 182.932 111.384C182.119 110.909 181.506 110.303 181.092 109.567V111.89H178.999V94.8701H181.092V101.632ZM189.648 105.542C189.648 104.591 189.456 103.763 189.073 103.058C188.689 102.353 188.168 101.816 187.509 101.448C186.865 101.08 186.152 100.896 185.37 100.896C184.603 100.896 183.89 101.088 183.231 101.471C182.587 101.839 182.065 102.383 181.667 103.104C181.283 103.809 181.092 104.63 181.092 105.565C181.092 106.516 181.283 107.351 181.667 108.072C182.065 108.777 182.587 109.322 183.231 109.705C183.89 110.073 184.603 110.257 185.37 110.257C186.152 110.257 186.865 110.073 187.509 109.705C188.168 109.322 188.689 108.777 189.073 108.072C189.456 107.351 189.648 106.508 189.648 105.542ZM205.398 99.2861L197.808 117.824H195.646L198.13 111.752L193.047 99.2861H195.37L199.326 109.498L203.236 99.2861H205.398ZM212.851 105.565C212.851 104.262 213.112 103.127 213.633 102.161C214.155 101.18 214.875 100.421 215.795 99.8841C216.731 99.3475 217.796 99.0791 218.992 99.0791C220.541 99.0791 221.814 99.4548 222.81 100.206C223.822 100.957 224.489 102 224.811 103.334H222.557C222.343 102.567 221.921 101.962 221.292 101.517C220.679 101.072 219.912 100.85 218.992 100.85C217.796 100.85 216.83 101.264 216.094 102.092C215.358 102.905 214.99 104.062 214.99 105.565C214.99 107.083 215.358 108.256 216.094 109.084C216.83 109.912 217.796 110.326 218.992 110.326C219.912 110.326 220.679 110.111 221.292 109.682C221.906 109.253 222.327 108.639 222.557 107.842H224.811C224.474 109.13 223.799 110.165 222.787 110.947C221.775 111.714 220.51 112.097 218.992 112.097C217.796 112.097 216.731 111.829 215.795 111.292C214.875 110.755 214.155 109.996 213.633 109.015C213.112 108.034 212.851 106.884 212.851 105.565ZM233.101 112.097C231.92 112.097 230.847 111.829 229.881 111.292C228.93 110.755 228.179 109.996 227.627 109.015C227.09 108.018 226.822 106.868 226.822 105.565C226.822 104.277 227.098 103.142 227.65 102.161C228.217 101.164 228.984 100.405 229.95 99.8841C230.916 99.3475 231.997 99.0791 233.193 99.0791C234.389 99.0791 235.47 99.3475 236.436 99.8841C237.402 100.405 238.161 101.157 238.713 102.138C239.28 103.119 239.564 104.262 239.564 105.565C239.564 106.868 239.273 108.018 238.69 109.015C238.123 109.996 237.348 110.755 236.367 111.292C235.386 111.829 234.297 112.097 233.101 112.097ZM233.101 110.257C233.852 110.257 234.558 110.081 235.217 109.728C235.876 109.375 236.405 108.846 236.804 108.141C237.218 107.436 237.425 106.577 237.425 105.565C237.425 104.553 237.226 103.694 236.827 102.989C236.428 102.284 235.907 101.762 235.263 101.425C234.619 101.072 233.921 100.896 233.17 100.896C232.403 100.896 231.698 101.072 231.054 101.425C230.425 101.762 229.919 102.284 229.536 102.989C229.153 103.694 228.961 104.553 228.961 105.565C228.961 106.592 229.145 107.459 229.513 108.164C229.896 108.869 230.402 109.398 231.031 109.751C231.66 110.088 232.35 110.257 233.101 110.257ZM257.473 99.0561C258.454 99.0561 259.328 99.2631 260.095 99.6771C260.862 100.076 261.467 100.681 261.912 101.494C262.357 102.307 262.579 103.296 262.579 104.461V111.89H260.509V104.76C260.509 103.503 260.195 102.544 259.566 101.885C258.953 101.21 258.117 100.873 257.059 100.873C255.97 100.873 255.104 101.226 254.46 101.931C253.816 102.621 253.494 103.625 253.494 104.944V111.89H251.424V104.76C251.424 103.503 251.11 102.544 250.481 101.885C249.868 101.21 249.032 100.873 247.974 100.873C246.885 100.873 246.019 101.226 245.375 101.931C244.731 102.621 244.409 103.625 244.409 104.944V111.89H242.316V99.2861H244.409V101.103C244.823 100.444 245.375 99.9378 246.065 99.5851C246.77 99.2325 247.545 99.0561 248.388 99.0561C249.446 99.0561 250.381 99.2938 251.194 99.7691C252.007 100.244 252.612 100.942 253.011 101.862C253.364 100.973 253.946 100.283 254.759 99.7921C255.572 99.3015 256.476 99.0561 257.473 99.0561ZM268.105 101.609C268.519 100.888 269.133 100.29 269.945 99.8151C270.773 99.3245 271.732 99.0791 272.82 99.0791C273.94 99.0791 274.952 99.3475 275.856 99.8841C276.776 100.421 277.497 101.18 278.018 102.161C278.54 103.127 278.8 104.254 278.8 105.542C278.8 106.815 278.54 107.949 278.018 108.946C277.497 109.943 276.776 110.717 275.856 111.269C274.952 111.821 273.94 112.097 272.82 112.097C271.747 112.097 270.796 111.859 269.968 111.384C269.156 110.893 268.535 110.288 268.105 109.567V117.87H266.012V99.2861H268.105V101.609ZM276.661 105.542C276.661 104.591 276.47 103.763 276.086 103.058C275.703 102.353 275.182 101.816 274.522 101.448C273.878 101.08 273.165 100.896 272.383 100.896C271.617 100.896 270.904 101.088 270.244 101.471C269.6 101.839 269.079 102.383 268.68 103.104C268.297 103.809 268.105 104.63 268.105 105.565C268.105 106.516 268.297 107.351 268.68 108.072C269.079 108.777 269.6 109.322 270.244 109.705C270.904 110.073 271.617 110.257 272.383 110.257C273.165 110.257 273.878 110.073 274.522 109.705C275.182 109.322 275.703 108.777 276.086 108.072C276.47 107.351 276.661 106.508 276.661 105.542ZM283.648 94.8701V111.89H281.555V94.8701H283.648ZM298.715 105.105C298.715 105.504 298.692 105.925 298.646 106.37H288.572C288.649 107.612 289.071 108.586 289.837 109.291C290.619 109.981 291.562 110.326 292.666 110.326C293.571 110.326 294.322 110.119 294.92 109.705C295.534 109.276 295.963 108.708 296.208 108.003H298.462C298.125 109.214 297.45 110.203 296.438 110.97C295.426 111.721 294.169 112.097 292.666 112.097C291.47 112.097 290.397 111.829 289.446 111.292C288.511 110.755 287.775 109.996 287.238 109.015C286.702 108.018 286.433 106.868 286.433 105.565C286.433 104.262 286.694 103.119 287.215 102.138C287.737 101.157 288.465 100.405 289.4 99.8841C290.351 99.3475 291.44 99.0791 292.666 99.0791C293.862 99.0791 294.92 99.3398 295.84 99.8611C296.76 100.382 297.466 101.103 297.956 102.023C298.462 102.928 298.715 103.955 298.715 105.105ZM296.553 104.668C296.553 103.871 296.377 103.188 296.024 102.621C295.672 102.038 295.189 101.601 294.575 101.31C293.977 101.003 293.31 100.85 292.574 100.85C291.516 100.85 290.612 101.187 289.86 101.862C289.124 102.537 288.703 103.472 288.595 104.668H296.553ZM304.031 101.011V108.44C304.031 109.053 304.161 109.49 304.422 109.751C304.683 109.996 305.135 110.119 305.779 110.119H307.32V111.89H305.434C304.269 111.89 303.395 111.622 302.812 111.085C302.229 110.548 301.938 109.667 301.938 108.44V101.011H300.305V99.2861H301.938V96.1121H304.031V99.2861H307.32V101.011H304.031ZM310.937 97.2391C310.538 97.2391 310.201 97.1011 309.925 96.8251C309.649 96.5491 309.511 96.2118 309.511 95.8131C309.511 95.4145 309.649 95.0771 309.925 94.8011C310.201 94.5251 310.538 94.3871 310.937 94.3871C311.32 94.3871 311.642 94.5251 311.903 94.8011C312.179 95.0771 312.317 95.4145 312.317 95.8131C312.317 96.2118 312.179 96.5491 311.903 96.8251C311.642 97.1011 311.32 97.2391 310.937 97.2391ZM311.949 99.2861V111.89H309.856V99.2861H311.949ZM321.657 99.0561C323.19 99.0561 324.432 99.5238 325.383 100.459C326.334 101.379 326.809 102.713 326.809 104.461V111.89H324.739V104.76C324.739 103.503 324.425 102.544 323.796 101.885C323.167 101.21 322.309 100.873 321.22 100.873C320.116 100.873 319.234 101.218 318.575 101.908C317.931 102.598 317.609 103.602 317.609 104.921V111.89H315.516V99.2861H317.609V101.08C318.023 100.436 318.583 99.9378 319.288 99.5851C320.009 99.2325 320.798 99.0561 321.657 99.0561ZM335.426 99.0791C336.515 99.0791 337.465 99.3168 338.278 99.7921C339.106 100.267 339.719 100.865 340.118 101.586V99.2861H342.234V112.166C342.234 113.316 341.989 114.336 341.498 115.225C341.007 116.13 340.302 116.835 339.382 117.341C338.477 117.847 337.419 118.1 336.208 118.1C334.552 118.1 333.172 117.709 332.068 116.927C330.964 116.145 330.312 115.079 330.113 113.73H332.183C332.413 114.497 332.888 115.11 333.609 115.57C334.33 116.045 335.196 116.283 336.208 116.283C337.358 116.283 338.293 115.923 339.014 115.202C339.75 114.481 340.118 113.469 340.118 112.166V109.521C339.704 110.257 339.091 110.87 338.278 111.361C337.465 111.852 336.515 112.097 335.426 112.097C334.307 112.097 333.287 111.821 332.367 111.269C331.462 110.717 330.749 109.943 330.228 108.946C329.707 107.949 329.446 106.815 329.446 105.542C329.446 104.254 329.707 103.127 330.228 102.161C330.749 101.18 331.462 100.421 332.367 99.8841C333.287 99.3475 334.307 99.0791 335.426 99.0791ZM340.118 105.565C340.118 104.614 339.926 103.786 339.543 103.081C339.16 102.376 338.638 101.839 337.979 101.471C337.335 101.088 336.622 100.896 335.84 100.896C335.058 100.896 334.345 101.08 333.701 101.448C333.057 101.816 332.543 102.353 332.16 103.058C331.777 103.763 331.585 104.591 331.585 105.542C331.585 106.508 331.777 107.351 332.16 108.072C332.543 108.777 333.057 109.322 333.701 109.705C334.345 110.073 335.058 110.257 335.84 110.257C336.622 110.257 337.335 110.073 337.979 109.705C338.638 109.322 339.16 108.777 339.543 108.072C339.926 107.351 340.118 106.516 340.118 105.565ZM51.4695 140.542C51.4695 139.254 51.7301 138.127 52.2515 137.161C52.7728 136.18 53.4858 135.421 54.3905 134.884C55.3105 134.347 56.3378 134.079 57.4725 134.079C58.4538 134.079 59.3661 134.309 60.2095 134.769C61.0528 135.214 61.6968 135.804 62.1415 136.54V129.87H64.2575V146.89H62.1415V144.521C61.7275 145.272 61.1141 145.893 60.3015 146.384C59.4888 146.859 58.5381 147.097 57.4495 147.097C56.3301 147.097 55.3105 146.821 54.3905 146.269C53.4858 145.717 52.7728 144.943 52.2515 143.946C51.7301 142.949 51.4695 141.815 51.4695 140.542ZM62.1415 140.565C62.1415 139.614 61.9498 138.786 61.5665 138.081C61.1831 137.376 60.6618 136.839 60.0025 136.471C59.3585 136.088 58.6455 135.896 57.8635 135.896C57.0815 135.896 56.3685 136.08 55.7245 136.448C55.0805 136.816 54.5668 137.353 54.1835 138.058C53.8001 138.763 53.6085 139.591 53.6085 140.542C53.6085 141.508 53.8001 142.351 54.1835 143.072C54.5668 143.777 55.0805 144.322 55.7245 144.705C56.3685 145.073 57.0815 145.257 57.8635 145.257C58.6455 145.257 59.3585 145.073 60.0025 144.705C60.6618 144.322 61.1831 143.777 61.5665 143.072C61.9498 142.351 62.1415 141.516 62.1415 140.565ZM67.0124 140.542C67.0124 139.254 67.2731 138.127 67.7944 137.161C68.3158 136.18 69.0288 135.421 69.9334 134.884C70.8534 134.347 71.8731 134.079 72.9924 134.079C74.0964 134.079 75.0548 134.317 75.8674 134.792C76.6801 135.267 77.2858 135.865 77.6844 136.586V134.286H79.8004V146.89H77.6844V144.544C77.2704 145.28 76.6494 145.893 75.8214 146.384C75.0088 146.859 74.0581 147.097 72.9694 147.097C71.8501 147.097 70.8381 146.821 69.9334 146.269C69.0288 145.717 68.3158 144.943 67.7944 143.946C67.2731 142.949 67.0124 141.815 67.0124 140.542ZM77.6844 140.565C77.6844 139.614 77.4928 138.786 77.1094 138.081C76.7261 137.376 76.2048 136.839 75.5454 136.471C74.9014 136.088 74.1884 135.896 73.4064 135.896C72.6244 135.896 71.9114 136.08 71.2674 136.448C70.6234 136.816 70.1098 137.353 69.7264 138.058C69.3431 138.763 69.1514 139.591 69.1514 140.542C69.1514 141.508 69.3431 142.351 69.7264 143.072C70.1098 143.777 70.6234 144.322 71.2674 144.705C71.9114 145.073 72.6244 145.257 73.4064 145.257C74.1884 145.257 74.9014 145.073 75.5454 144.705C76.2048 144.322 76.7261 143.777 77.1094 143.072C77.4928 142.351 77.6844 141.516 77.6844 140.565ZM84.4184 132.239C84.0197 132.239 83.6824 132.101 83.4064 131.825C83.1304 131.549 82.9924 131.212 82.9924 130.813C82.9924 130.414 83.1304 130.077 83.4064 129.801C83.6824 129.525 84.0197 129.387 84.4184 129.387C84.8017 129.387 85.1237 129.525 85.3844 129.801C85.6604 130.077 85.7984 130.414 85.7984 130.813C85.7984 131.212 85.6604 131.549 85.3844 131.825C85.1237 132.101 84.8017 132.239 84.4184 132.239ZM85.4304 134.286V146.89H83.3374V134.286H85.4304ZM91.0906 129.87V146.89H88.9976V129.87H91.0906ZM105.514 134.286L97.9237 152.824H95.7617L98.2457 146.752L93.1627 134.286H95.4857L99.4417 144.498L103.352 134.286H105.514ZM112.968 140.542C112.968 139.254 113.228 138.127 113.75 137.161C114.271 136.18 114.984 135.421 115.889 134.884C116.809 134.347 117.828 134.079 118.948 134.079C120.052 134.079 121.01 134.317 121.823 134.792C122.635 135.267 123.241 135.865 123.64 136.586V134.286H125.756V146.89H123.64V144.544C123.226 145.28 122.605 145.893 121.777 146.384C120.964 146.859 120.013 147.097 118.925 147.097C117.805 147.097 116.793 146.821 115.889 146.269C114.984 145.717 114.271 144.943 113.75 143.946C113.228 142.949 112.968 141.815 112.968 140.542ZM123.64 140.565C123.64 139.614 123.448 138.786 123.065 138.081C122.681 137.376 122.16 136.839 121.501 136.471C120.857 136.088 120.144 135.896 119.362 135.896C118.58 135.896 117.867 136.08 117.223 136.448C116.579 136.816 116.065 137.353 115.682 138.058C115.298 138.763 115.107 139.591 115.107 140.542C115.107 141.508 115.298 142.351 115.682 143.072C116.065 143.777 116.579 144.322 117.223 144.705C117.867 145.073 118.58 145.257 119.362 145.257C120.144 145.257 120.857 145.073 121.501 144.705C122.16 144.322 122.681 143.777 123.065 143.072C123.448 142.351 123.64 141.516 123.64 140.565ZM128.51 140.565C128.51 139.262 128.771 138.127 129.292 137.161C129.814 136.18 130.534 135.421 131.454 134.884C132.39 134.347 133.455 134.079 134.651 134.079C136.2 134.079 137.473 134.455 138.469 135.206C139.481 135.957 140.148 137 140.47 138.334H138.216C138.002 137.567 137.58 136.962 136.951 136.517C136.338 136.072 135.571 135.85 134.651 135.85C133.455 135.85 132.489 136.264 131.753 137.092C131.017 137.905 130.649 139.062 130.649 140.565C130.649 142.083 131.017 143.256 131.753 144.084C132.489 144.912 133.455 145.326 134.651 145.326C135.571 145.326 136.338 145.111 136.951 144.682C137.565 144.253 137.986 143.639 138.216 142.842H140.47C140.133 144.13 139.458 145.165 138.446 145.947C137.434 146.714 136.169 147.097 134.651 147.097C133.455 147.097 132.39 146.829 131.454 146.292C130.534 145.755 129.814 144.996 129.292 144.015C128.771 143.034 128.51 141.884 128.51 140.565ZM145.816 136.011V143.44C145.816 144.053 145.947 144.49 146.207 144.751C146.468 144.996 146.92 145.119 147.564 145.119H149.105V146.89H147.219C146.054 146.89 145.18 146.622 144.597 146.085C144.015 145.548 143.723 144.667 143.723 143.44V136.011H142.09V134.286H143.723V131.112H145.816V134.286H149.105V136.011H145.816ZM152.722 132.239C152.323 132.239 151.986 132.101 151.71 131.825C151.434 131.549 151.296 131.212 151.296 130.813C151.296 130.414 151.434 130.077 151.71 129.801C151.986 129.525 152.323 129.387 152.722 129.387C153.105 129.387 153.427 129.525 153.688 129.801C153.964 130.077 154.102 130.414 154.102 130.813C154.102 131.212 153.964 131.549 153.688 131.825C153.427 132.101 153.105 132.239 152.722 132.239ZM153.734 134.286V146.89H151.641V134.286H153.734ZM161.993 144.958L165.903 134.286H168.134L163.189 146.89H160.751L155.806 134.286H158.06L161.993 144.958ZM171.275 132.239C170.876 132.239 170.539 132.101 170.263 131.825C169.987 131.549 169.849 131.212 169.849 130.813C169.849 130.414 169.987 130.077 170.263 129.801C170.539 129.525 170.876 129.387 171.275 129.387C171.658 129.387 171.98 129.525 172.241 129.801C172.517 130.077 172.655 130.414 172.655 130.813C172.655 131.212 172.517 131.549 172.241 131.825C171.98 132.101 171.658 132.239 171.275 132.239ZM172.287 134.286V146.89H170.194V134.286H172.287ZM178.407 136.011V143.44C178.407 144.053 178.537 144.49 178.798 144.751C179.059 144.996 179.511 145.119 180.155 145.119H181.696V146.89H179.81C178.645 146.89 177.771 146.622 177.188 146.085C176.605 145.548 176.314 144.667 176.314 143.44V136.011H174.681V134.286H176.314V131.112H178.407V134.286H181.696V136.011H178.407ZM185.313 132.239C184.914 132.239 184.577 132.101 184.301 131.825C184.025 131.549 183.887 131.212 183.887 130.813C183.887 130.414 184.025 130.077 184.301 129.801C184.577 129.525 184.914 129.387 185.313 129.387C185.696 129.387 186.018 129.525 186.279 129.801C186.555 130.077 186.693 130.414 186.693 130.813C186.693 131.212 186.555 131.549 186.279 131.825C186.018 132.101 185.696 132.239 185.313 132.239ZM186.325 134.286V146.89H184.232V134.286H186.325ZM201.392 140.105C201.392 140.504 201.369 140.925 201.323 141.37H191.249C191.326 142.612 191.747 143.586 192.514 144.291C193.296 144.981 194.239 145.326 195.343 145.326C196.248 145.326 196.999 145.119 197.597 144.705C198.21 144.276 198.64 143.708 198.885 143.003H201.139C200.802 144.214 200.127 145.203 199.115 145.97C198.103 146.721 196.846 147.097 195.343 147.097C194.147 147.097 193.074 146.829 192.123 146.292C191.188 145.755 190.452 144.996 189.915 144.015C189.378 143.018 189.11 141.868 189.11 140.565C189.11 139.262 189.371 138.119 189.892 137.138C190.413 136.157 191.142 135.405 192.077 134.884C193.028 134.347 194.116 134.079 195.343 134.079C196.539 134.079 197.597 134.34 198.517 134.861C199.437 135.382 200.142 136.103 200.633 137.023C201.139 137.928 201.392 138.955 201.392 140.105ZM199.23 139.668C199.23 138.871 199.054 138.188 198.701 137.621C198.348 137.038 197.865 136.601 197.252 136.31C196.654 136.003 195.987 135.85 195.251 135.85C194.193 135.85 193.288 136.187 192.537 136.862C191.801 137.537 191.379 138.472 191.272 139.668H199.23ZM208.617 147.097C207.651 147.097 206.784 146.936 206.018 146.614C205.251 146.277 204.645 145.817 204.201 145.234C203.756 144.636 203.511 143.954 203.465 143.187H205.627C205.688 143.816 205.979 144.329 206.501 144.728C207.037 145.127 207.735 145.326 208.594 145.326C209.391 145.326 210.02 145.15 210.48 144.797C210.94 144.444 211.17 144 211.17 143.463C211.17 142.911 210.924 142.505 210.434 142.244C209.943 141.968 209.184 141.7 208.157 141.439C207.221 141.194 206.455 140.948 205.857 140.703C205.274 140.442 204.768 140.067 204.339 139.576C203.925 139.07 203.718 138.411 203.718 137.598C203.718 136.954 203.909 136.364 204.293 135.827C204.676 135.29 205.22 134.869 205.926 134.562C206.631 134.24 207.436 134.079 208.341 134.079C209.736 134.079 210.863 134.432 211.722 135.137C212.58 135.842 213.04 136.808 213.102 138.035H211.009C210.963 137.376 210.694 136.847 210.204 136.448C209.728 136.049 209.084 135.85 208.272 135.85C207.52 135.85 206.922 136.011 206.478 136.333C206.033 136.655 205.811 137.077 205.811 137.598C205.811 138.012 205.941 138.357 206.202 138.633C206.478 138.894 206.815 139.108 207.214 139.277C207.628 139.43 208.195 139.607 208.916 139.806C209.82 140.051 210.556 140.297 211.124 140.542C211.691 140.772 212.174 141.125 212.573 141.6C212.987 142.075 213.201 142.696 213.217 143.463C213.217 144.153 213.025 144.774 212.642 145.326C212.258 145.878 211.714 146.315 211.009 146.637C210.319 146.944 209.521 147.097 208.617 147.097ZM223.384 132.239C222.986 132.239 222.648 132.101 222.372 131.825C222.096 131.549 221.958 131.212 221.958 130.813C221.958 130.414 222.096 130.077 222.372 129.801C222.648 129.525 222.986 129.387 223.384 129.387C223.768 129.387 224.09 129.525 224.35 129.801C224.626 130.077 224.764 130.414 224.764 130.813C224.764 131.212 224.626 131.549 224.35 131.825C224.09 132.101 223.768 132.239 223.384 132.239ZM224.396 134.286V146.89H222.303V134.286H224.396ZM234.104 134.056C235.638 134.056 236.88 134.524 237.83 135.459C238.781 136.379 239.256 137.713 239.256 139.461V146.89H237.186V139.76C237.186 138.503 236.872 137.544 236.243 136.885C235.615 136.21 234.756 135.873 233.667 135.873C232.563 135.873 231.682 136.218 231.022 136.908C230.378 137.598 230.056 138.602 230.056 139.921V146.89H227.963V134.286H230.056V136.08C230.47 135.436 231.03 134.938 231.735 134.585C232.456 134.232 233.246 134.056 234.104 134.056ZM251.36 136.011V143.44C251.36 144.053 251.49 144.49 251.751 144.751C252.012 144.996 252.464 145.119 253.108 145.119H254.649V146.89H252.763C251.598 146.89 250.724 146.622 250.141 146.085C249.558 145.548 249.267 144.667 249.267 143.44V136.011H247.634V134.286H249.267V131.112H251.36V134.286H254.649V136.011H251.36ZM263.441 134.056C264.392 134.056 265.25 134.263 266.017 134.677C266.784 135.076 267.382 135.681 267.811 136.494C268.256 137.307 268.478 138.296 268.478 139.461V146.89H266.408V139.76C266.408 138.503 266.094 137.544 265.465 136.885C264.836 136.21 263.978 135.873 262.889 135.873C261.785 135.873 260.903 136.218 260.244 136.908C259.6 137.598 259.278 138.602 259.278 139.921V146.89H257.185V129.87H259.278V136.08C259.692 135.436 260.259 134.938 260.98 134.585C261.716 134.232 262.536 134.056 263.441 134.056ZM283.397 140.105C283.397 140.504 283.374 140.925 283.328 141.37H273.254C273.331 142.612 273.752 143.586 274.519 144.291C275.301 144.981 276.244 145.326 277.348 145.326C278.253 145.326 279.004 145.119 279.602 144.705C280.215 144.276 280.645 143.708 280.89 143.003H283.144C282.807 144.214 282.132 145.203 281.12 145.97C280.108 146.721 278.851 147.097 277.348 147.097C276.152 147.097 275.079 146.829 274.128 146.292C273.193 145.755 272.457 144.996 271.92 144.015C271.383 143.018 271.115 141.868 271.115 140.565C271.115 139.262 271.376 138.119 271.897 137.138C272.418 136.157 273.147 135.405 274.082 134.884C275.033 134.347 276.121 134.079 277.348 134.079C278.544 134.079 279.602 134.34 280.522 134.861C281.442 135.382 282.147 136.103 282.638 137.023C283.144 137.928 283.397 138.955 283.397 140.105ZM281.235 139.668C281.235 138.871 281.059 138.188 280.706 137.621C280.353 137.038 279.87 136.601 279.257 136.31C278.659 136.003 277.992 135.85 277.256 135.85C276.198 135.85 275.293 136.187 274.542 136.862C273.806 137.537 273.384 138.472 273.277 139.668H281.235ZM291.51 140.542C291.51 139.254 291.77 138.127 292.292 137.161C292.813 136.18 293.526 135.421 294.431 134.884C295.351 134.347 296.37 134.079 297.49 134.079C298.594 134.079 299.552 134.317 300.365 134.792C301.177 135.267 301.783 135.865 302.182 136.586V134.286H304.298V146.89H302.182V144.544C301.768 145.28 301.147 145.893 300.319 146.384C299.506 146.859 298.555 147.097 297.467 147.097C296.347 147.097 295.335 146.821 294.431 146.269C293.526 145.717 292.813 144.943 292.292 143.946C291.77 142.949 291.51 141.815 291.51 140.542ZM302.182 140.565C302.182 139.614 301.99 138.786 301.607 138.081C301.223 137.376 300.702 136.839 300.043 136.471C299.399 136.088 298.686 135.896 297.904 135.896C297.122 135.896 296.409 136.08 295.765 136.448C295.121 136.816 294.607 137.353 294.224 138.058C293.84 138.763 293.649 139.591 293.649 140.542C293.649 141.508 293.84 142.351 294.224 143.072C294.607 143.777 295.121 144.322 295.765 144.705C296.409 145.073 297.122 145.257 297.904 145.257C298.686 145.257 299.399 145.073 300.043 144.705C300.702 144.322 301.223 143.777 301.607 143.072C301.99 142.351 302.182 141.516 302.182 140.565ZM309.927 136.609C310.341 135.888 310.955 135.29 311.767 134.815C312.595 134.324 313.554 134.079 314.642 134.079C315.762 134.079 316.774 134.347 317.678 134.884C318.598 135.421 319.319 136.18 319.84 137.161C320.362 138.127 320.622 139.254 320.622 140.542C320.622 141.815 320.362 142.949 319.84 143.946C319.319 144.943 318.598 145.717 317.678 146.269C316.774 146.821 315.762 147.097 314.642 147.097C313.569 147.097 312.618 146.859 311.79 146.384C310.978 145.893 310.357 145.288 309.927 144.567V152.87H307.834V134.286H309.927V136.609ZM318.483 140.542C318.483 139.591 318.292 138.763 317.908 138.058C317.525 137.353 317.004 136.816 316.344 136.448C315.7 136.08 314.987 135.896 314.205 135.896C313.439 135.896 312.726 136.088 312.066 136.471C311.422 136.839 310.901 137.383 310.502 138.104C310.119 138.809 309.927 139.63 309.927 140.565C309.927 141.516 310.119 142.351 310.502 143.072C310.901 143.777 311.422 144.322 312.066 144.705C312.726 145.073 313.439 145.257 314.205 145.257C314.987 145.257 315.7 145.073 316.344 144.705C317.004 144.322 317.525 143.777 317.908 143.072C318.292 142.351 318.483 141.508 318.483 140.542ZM325.47 136.609C325.884 135.888 326.498 135.29 327.31 134.815C328.138 134.324 329.097 134.079 330.185 134.079C331.305 134.079 332.317 134.347 333.221 134.884C334.141 135.421 334.862 136.18 335.383 137.161C335.905 138.127 336.165 139.254 336.165 140.542C336.165 141.815 335.905 142.949 335.383 143.946C334.862 144.943 334.141 145.717 333.221 146.269C332.317 146.821 331.305 147.097 330.185 147.097C329.112 147.097 328.161 146.859 327.333 146.384C326.521 145.893 325.9 145.288 325.47 144.567V152.87H323.377V134.286H325.47V136.609ZM334.026 140.542C334.026 139.591 333.835 138.763 333.451 138.058C333.068 137.353 332.547 136.816 331.887 136.448C331.243 136.08 330.53 135.896 329.748 135.896C328.982 135.896 328.269 136.088 327.609 136.471C326.965 136.839 326.444 137.383 326.045 138.104C325.662 138.809 325.47 139.63 325.47 140.565C325.47 141.516 325.662 142.351 326.045 143.072C326.444 143.777 326.965 144.322 327.609 144.705C328.269 145.073 328.982 145.257 329.748 145.257C330.53 145.257 331.243 145.073 331.887 144.705C332.547 144.322 333.068 143.777 333.451 143.072C333.835 142.351 334.026 141.508 334.026 140.542ZM341.634 130.859L341.381 142.359H339.633L339.38 130.859H341.634ZM340.599 147.028C340.201 147.028 339.863 146.89 339.587 146.614C339.311 146.338 339.173 146.001 339.173 145.602C339.173 145.203 339.311 144.866 339.587 144.59C339.863 144.314 340.201 144.176 340.599 144.176C340.983 144.176 341.305 144.314 341.565 144.59C341.841 144.866 341.979 145.203 341.979 145.602C341.979 146.001 341.841 146.338 341.565 146.614C341.305 146.89 340.983 147.028 340.599 147.028Z" fill="black"/>
    </g>
    <defs>
    <filter id="filter0_d_0_702" x="0" y="0.890137" width="414" height="225" filterUnits="userSpaceOnUse" color-interpolation-filters="sRGB">
    <feFlood flood-opacity="0" result="BackgroundImageFix"/>
    <feColorMatrix in="SourceAlpha" type="matrix" values="0 0 0 0 0 0 0 0 0 0 0 0 0 0 0 0 0 0 127 0" result="hardAlpha"/>
    <feOffset dx="20" dy="20"/>
    <feComposite in2="hardAlpha" operator="out"/>
    <feColorMatrix type="matrix" values="0 0 0 0 0 0 0 0 0 0 0 0 0 0 0 0 0 0 0.26 0"/>
    <feBlend mode="normal" in2="BackgroundImageFix" result="effect1_dropShadow_0_702"/>
    <feBlend mode="normal" in="SourceGraphic" in2="effect1_dropShadow_0_702" result="shape"/>
    </filter>
    </defs>
    </svg>
    