<svg width="135" height="135" viewBox="0 0 135 135" fill="none" xmlns="http://www.w3.org/2000/svg">
    <g filter="url(#filter0_d_0_704)">
    <rect width="130" height="130" rx="65" fill="#6BFFA6" shape-rendering="crispEdges"/>
    <rect x="5" y="5" width="120" height="120" rx="60" stroke="black" stroke-width="10" shape-rendering="crispEdges"/>
    <g clip-path="url(#clip0_0_704)">
    <path d="M38.4489 61.4785C38.3954 62.4672 38.2824 64.9788 38.0528 67.7689C38.0349 67.9939 38.0159 68.2199 37.9957 68.4482C37.7517 71.237 37.3912 74.1998 36.8595 76.1426C36.7036 76.7102 36.1719 77.0801 35.5993 77.0183L33.76 76.8185C33.1199 76.7494 32.6523 76.1665 32.7118 75.5109C32.744 75.161 32.7833 74.6542 32.8308 74.0331C33.0568 71.1134 33.4625 65.6817 34.079 62.311C34.186 61.7245 34.299 61.2011 34.4192 60.7644C34.5847 60.1623 35.1689 59.7877 35.7697 59.9017L37.4891 60.229C38.071 60.3397 38.4827 60.8751 38.4492 61.4782L38.4489 61.4785Z" fill="#FEB101"/>
    <g opacity="0.56">
    <path d="M33.6371 67.3597C33.6371 67.3597 33.6547 65.3066 35.0442 65.643C36.4337 65.9793 36.5132 68.0325 35.9027 69.3422C35.292 70.652 33.0178 70.3423 33.3893 69.0768" fill="white"/>
    </g>
    <g style="mix-blend-mode:color-burn" opacity="0.2">
    <path d="M37.7448 68.8994C37.5091 71.1994 37.1878 73.4694 36.7538 75.0579C36.5979 75.6254 36.0662 75.9953 35.4936 75.9335L33.6543 75.7335C33.2283 75.687 32.8786 75.4135 32.7108 75.0423C32.7108 75.034 32.7108 75.0244 32.7121 75.015C32.7443 74.6651 32.7835 74.1583 32.8311 73.5372C34.5086 73.6133 36.5719 72.8221 37.745 68.8994H37.7448Z" fill="#640002"/>
    </g>
    <g style="mix-blend-mode:color-burn" opacity="0.2">
    <path d="M38.4489 61.4785C38.3954 62.4672 38.2824 64.9788 38.0528 67.7689C38.0312 67.6427 38.0112 67.5047 37.9956 67.3535C37.6042 63.6021 35.259 62.5848 34.0787 62.311C34.1857 61.7245 34.2987 61.2011 34.419 60.7644C34.5844 60.1623 35.1686 59.7877 35.7695 59.9017L37.4888 60.229C38.0707 60.3397 38.4824 60.8751 38.4489 61.4782V61.4785Z" fill="#640002"/>
    </g>
    <path d="M35.7269 77.4798C35.6687 77.4798 35.61 77.4767 35.5508 77.4702L33.7111 77.2707C32.8287 77.1751 32.1775 76.367 32.2593 75.4695H32.2596C32.2962 75.0666 32.343 74.4585 32.4022 73.6888C32.6749 70.147 33.1823 63.5542 33.9813 60.6436C34.2109 59.8066 35.0159 59.2957 35.8547 59.4554L37.5743 59.783C38.377 59.9357 38.9482 60.6755 38.903 61.5034C38.8942 61.6626 38.884 61.8611 38.8721 62.0941C38.7258 64.9304 38.3372 72.4651 37.2977 76.2633C37.0984 76.9909 36.454 77.4798 35.7271 77.4798H35.7269ZM35.5523 60.336C35.2341 60.336 34.9484 60.554 34.8577 60.8841C34.0818 63.7108 33.5789 70.2473 33.3085 73.7587C33.249 74.532 33.202 75.143 33.1646 75.5521C33.1274 75.9589 33.4166 76.3247 33.8088 76.367L35.6484 76.5665C35.9999 76.6052 36.3236 76.3761 36.4202 76.0233C37.434 72.3202 37.8188 64.8569 37.9634 62.0473C37.9754 61.8133 37.9858 61.6138 37.9946 61.4538C38.0154 61.0787 37.7613 60.7444 37.4039 60.6763L35.6843 60.3487C35.6401 60.3404 35.5957 60.3363 35.5523 60.3363V60.336Z" fill="#2D2D2D"/>
    <path d="M44.3851 46.6786C42.8156 48.1136 41.162 49.1807 39.6925 49.7877C39.5985 49.827 39.5057 49.8638 39.414 49.8984C37.7056 50.5481 36.2776 50.5444 35.5708 49.7389L35.5695 49.7376C34.6474 48.6822 35.197 46.5298 36.7772 44.2395C36.7785 44.2358 36.7795 44.2348 36.7795 44.2348C37.497 43.195 38.4274 42.1276 39.5281 41.1223C42.4325 38.4678 45.6223 37.0698 47.4069 37.5184C47.7888 37.6134 48.1064 37.7932 48.3434 38.0644C49.6842 39.5993 47.9127 43.4555 44.3848 46.6786H44.3851Z" fill="#FEB101"/>
    <g opacity="0.56">
    <path d="M39.1121 47.6014C41.1346 47.0169 47.7142 41.8523 45.3688 40.0571C45.3688 40.0571 46.9009 40.4177 46.5104 41.7723C46.1203 43.127 42.6519 47.1531 39.1119 47.6014H39.1121Z" fill="white"/>
    </g>
    <path d="M50.2222 45.0856C49.0205 47.7889 46.4863 50.5944 43.5759 52.0994C42.4301 52.6932 41.2271 53.0847 40.0231 53.1894C39.5818 53.2286 39.1392 53.1299 38.75 52.9122C36.8345 51.8342 35.609 49.8021 35.5708 49.739C36.2776 50.5445 37.7053 50.5481 39.414 49.8984C39.5057 49.8639 39.5984 49.827 39.6925 49.7878C41.1619 49.181 42.8156 48.1136 44.3851 46.6787C47.9129 43.4556 49.6845 39.5994 48.3436 38.0645C49.4382 38.9175 50.1949 39.9337 50.5661 40.4963C50.7708 40.8057 50.9004 41.1603 50.9396 41.5302C51.0503 42.5999 50.7791 43.8312 50.2222 45.0853V45.0856Z" fill="#FEB101"/>
    <g opacity="0.56">
    <path d="M44.385 46.6791C44.385 46.6791 43.2159 48.1195 44.2079 49.1115C45.1999 50.1035 46.0686 50.4986 46.7312 49.8474C47.3939 49.1962 48.3636 48.3797 48.3636 47.7898C48.3636 47.1999 48.8288 46.8682 47.7968 46.2344C46.7645 45.6005 46.1582 45.5024 45.2716 46.0905" fill="white"/>
    </g>
    <g style="mix-blend-mode:color-burn" opacity="0.2">
    <path d="M50.2222 45.0854C50.397 43.8529 50.3066 42.0574 48.3636 41.8517C48.3636 41.8517 44.881 48.154 39.6922 49.7877C39.5972 49.8186 39.5018 49.8472 39.4067 49.8734C39.4067 49.8734 39.4091 49.8817 39.414 49.8983C39.4948 50.1838 40.3362 52.8074 43.5759 52.0996C42.4301 52.6934 41.2272 53.0848 40.0232 53.1895C39.5818 53.2287 39.1392 53.13 38.7501 52.9123C36.8346 51.8343 35.609 49.8022 35.5708 49.7391L35.5695 49.7378C34.6474 48.6824 35.197 46.53 36.7772 44.2397C36.7081 44.4015 34.8045 48.9346 37.7778 48.9346C40.751 48.9346 49.3749 42.3777 47.4069 37.5183C47.7888 37.6134 48.1064 37.7931 48.3434 38.0643C49.438 38.9174 50.1947 39.9336 50.5659 40.4962C50.7706 40.8056 50.9002 41.1602 50.9394 41.5301C51.0501 42.5998 50.7789 43.8311 50.222 45.0852L50.2222 45.0854Z" fill="#640002"/>
    </g>
    <path d="M37.2245 50.8208C37.1502 50.8208 37.0774 50.8187 37.0055 50.8148C36.2394 50.7717 35.6412 50.5099 35.2274 50.0363C33.7013 48.2907 35.4557 44.2278 39.2213 40.7867C41.8711 38.3652 44.8846 36.8744 46.9074 36.9866C47.6734 37.0298 48.2716 37.2916 48.6854 37.7651C50.2115 39.5107 48.4571 43.5737 44.6916 47.0148C42.1358 49.3503 39.2387 50.8208 37.2245 50.8208ZM46.6816 37.8898C44.9137 37.8898 42.1955 39.3003 39.8346 41.4579C36.2104 44.7699 34.8804 48.258 35.9119 49.4381C36.1589 49.7204 36.5439 49.8784 37.0567 49.907C38.8106 50.0064 41.6381 48.5736 44.0786 46.3435C47.7028 43.0316 49.0327 39.5435 48.0012 38.3634C47.7542 38.081 47.3692 37.9231 46.8565 37.8945C46.7993 37.8914 46.7411 37.8896 46.6816 37.8896V37.8898Z" fill="#2D2D2D"/>
    <path d="M39.8338 53.6527C39.3795 53.6527 38.9319 53.5351 38.5275 53.3078C36.4977 52.1674 35.2316 50.0584 35.1786 49.969C35.0505 49.7532 35.1217 49.4742 35.3378 49.3461C35.5537 49.2183 35.8327 49.2892 35.9607 49.5054C35.9722 49.5248 37.1598 51.4964 38.9729 52.5152C39.2854 52.6908 39.6351 52.7675 39.9842 52.7371C42.6522 52.5051 45.593 50.7348 47.8503 48.0013C49.6879 45.7762 50.6737 43.375 50.4869 41.5779C50.4568 41.2865 50.3529 40.9992 50.1866 40.7472C49.8463 40.2316 49.118 39.244 48.0641 38.4231C47.8659 38.2688 47.8306 37.9833 47.9846 37.7851C48.1389 37.5869 48.4247 37.5516 48.6226 37.7059C49.7791 38.6065 50.5745 39.6843 50.9454 40.2464C51.1919 40.6199 51.3459 41.048 51.3911 41.4842C51.6023 43.5181 50.5407 46.1711 48.5512 48.5801C46.1419 51.4975 42.9686 53.3901 40.0626 53.6426C39.9863 53.6493 39.9099 53.6525 39.8338 53.6525V53.6527Z" fill="#2D2D2D"/>
    <path d="M38.3781 48.2174C37.5798 48.0499 37.3362 47.2665 37.5076 46.5467C37.9477 44.8499 39.1389 43.4861 40.3263 42.2767C41.5659 41.1233 42.993 39.9284 44.7589 39.7037C45.0701 39.683 45.4015 39.7139 45.7143 39.8354C46.0203 39.9492 46.8289 40.5103 46.4138 40.8355C46.2936 40.9202 46.1291 40.8955 46.0382 40.7841C45.3397 39.9804 44.2098 40.4503 43.4001 40.882C41.5256 41.9247 38.781 44.6174 38.1581 46.6937C38.0313 47.1303 38.0788 47.5602 38.5423 47.687C38.8703 47.812 38.7173 48.2985 38.3784 48.2177L38.3781 48.2174Z" fill="#2D2D2D"/>
    <path d="M40.778 44.5142C40.5798 44.8139 40.6065 45.036 40.8944 45.0945C41.2635 45.1693 41.5666 44.982 41.7705 44.7438C42.0194 44.4536 42.0033 44.2916 41.6583 44.0702C41.0767 43.6931 41.1406 43.3338 41.5742 42.839C42.1259 42.209 42.9517 41.8778 43.5855 41.8927C44.5604 41.9153 44.469 42.4366 44.072 42.967L43.2566 42.9075C43.3522 42.7468 43.4982 42.4893 43.0831 42.4678C42.747 42.4504 42.4763 42.6496 42.3314 42.8166C42.1249 43.0546 42.1506 43.1722 42.5574 43.3933C43.1712 43.7229 43.186 44.1256 42.6319 44.7789C41.9303 45.6062 41.0484 45.8779 40.3403 45.7041C39.6465 45.534 39.6415 45.0189 40.1353 44.4035L40.7777 44.5142H40.778ZM43.081 42.115L43.5564 41.5667L44.2079 41.5716L43.7216 42.1371L43.0813 42.1147L43.081 42.115ZM39.6833 46.0798L40.4112 45.24L40.9918 45.3657L40.245 46.2346L39.6833 46.0798Z" fill="#2D2D2D"/>
    <path d="M87.3643 48.0346C91.8046 48.0346 95.4042 44.4351 95.4042 39.9947C95.4042 35.5544 91.8046 31.9548 87.3643 31.9548C82.924 31.9548 79.3244 35.5544 79.3244 39.9947C79.3244 44.4351 82.924 48.0346 87.3643 48.0346Z" fill="#FEB101"/>
    <g style="mix-blend-mode:color-burn" opacity="0.2">
    <path d="M83.4258 37.1779C82.2457 38.398 81.7244 40.0121 81.8537 41.5814C81.4108 39.7581 81.8831 37.7535 83.284 36.3051C85.4564 34.0589 89.0377 33.9992 91.2839 36.1716C92.31 37.1639 92.8788 38.4497 92.9887 39.7672C92.7445 38.7642 92.2227 37.8151 91.4257 37.0441C89.1796 34.8717 85.5982 34.9315 83.4258 37.1776V37.1779Z" fill="#640002"/>
    </g>
    <g opacity="0.56">
    <path d="M92.9809 39.3176C93.2628 42.7301 86.5871 48.3267 81.9537 41.6506C81.9537 41.6506 82.4504 43.9934 85.0657 45.1651C87.5812 46.9063 93.4776 45.2161 92.9809 39.3176Z" fill="white"/>
    </g>
    <g style="mix-blend-mode:color-burn" opacity="0.2">
    <path d="M93.1438 45.5842C90.0567 48.7762 84.9664 48.8611 81.7745 45.7741C79.2756 43.3573 78.6815 39.7141 80.0224 36.7144C79.1989 39.4089 79.8808 42.4598 82.0462 44.554C85.1226 47.5293 90.0292 47.4472 93.0045 44.3711C94.7707 42.545 95.459 40.0749 95.085 37.7469C95.8622 40.4261 95.2224 43.4354 93.144 45.5845L93.1438 45.5842Z" fill="#640002"/>
    </g>
    <g opacity="0.56">
    <path d="M86.9731 31.9646C86.9731 31.9646 89.9973 32.3007 89.8027 33.2824C89.6081 34.264 87.568 34.1549 87.4477 34.157C87.3274 34.1591 84.809 34.0972 83.3055 36.5276C81.8023 38.9579 79.5522 36.9513 81.5778 34.8568C83.6037 32.7623 85.5244 32.1046 85.5244 32.1046L86.9731 31.9649V31.9646Z" fill="white"/>
    </g>
    <path d="M85.6868 45.6703C81.9319 44.764 80.1219 40.4356 81.9818 37.0792C83.5273 34.1862 87.3147 33.0113 90.2116 34.566C91.6802 35.3378 92.8222 36.7498 93.2108 38.3635C93.5046 39.528 93.4217 40.7743 92.9809 41.8622C92.8541 42.1594 92.4128 42.0098 92.4873 41.7007C92.7505 40.6629 92.7209 39.5761 92.4128 38.5853C91.0314 34.1662 85.0586 33.3994 82.8052 37.5255C82.0667 38.8809 81.9857 40.5616 82.5441 41.9965C82.9322 42.9579 83.5845 43.826 84.4329 44.4315C84.8623 44.743 85.3358 44.9908 85.8364 45.1729C86.1372 45.2882 86.0018 45.7397 85.687 45.6703H85.6868Z" fill="#2D2D2D"/>
    <path d="M87.3607 48.4891C85.1457 48.4891 83.0551 47.6444 81.4592 46.1006C79.8284 44.5233 78.9093 42.4052 78.8714 40.1365C78.8335 37.8679 79.6813 35.7202 81.2589 34.0892C82.8359 32.4584 84.954 31.5394 87.2228 31.5014C89.4889 31.464 91.639 32.3114 93.27 33.8889C94.9008 35.4662 95.8199 37.5843 95.8578 39.8531C95.8954 42.1216 95.0476 44.2693 93.4703 45.9003C91.893 47.5314 89.7749 48.4504 87.5064 48.4883C87.4578 48.4891 87.409 48.4896 87.3607 48.4896V48.4891ZM87.368 32.4093C87.3248 32.4093 87.2815 32.4096 87.2381 32.4103C85.2122 32.4441 83.3209 33.265 81.9124 34.7212C80.504 36.1777 79.7468 38.0952 79.7806 40.1211C79.8143 42.147 80.6352 44.0383 82.0914 45.4468C83.5476 46.8552 85.4616 47.6088 87.4914 47.5786C89.5172 47.5449 91.4086 46.724 92.817 45.2678C94.2254 43.8113 94.9826 41.8937 94.9489 39.8679C94.9151 37.842 94.0943 35.9506 92.638 34.5422C91.213 33.1639 89.3461 32.4093 87.3682 32.4093H87.368Z" fill="#2D2D2D"/>
    <path d="M87.9919 42.5617C88.82 42.4196 89.3645 41.9292 89.345 41.0748C89.3271 40.2683 88.8909 39.8212 87.754 39.5316C87.7527 39.5313 87.7516 39.5311 87.7503 39.5305L87.7308 38.3678C87.9924 38.4707 88.0618 38.6928 88.1049 38.8461L89.1798 38.8222C89.1094 38.2333 88.7624 37.6589 87.8184 37.5382C87.7854 37.534 87.7514 37.5304 87.7168 37.5272L87.7082 37.0093L87.0679 37.0199L87.0765 37.54C87.0233 37.5475 86.97 37.5548 86.9186 37.5662C86.2029 37.7169 85.6514 38.2083 85.6696 38.9749C85.6844 39.6422 86.0226 40.0914 87.1246 40.4241L87.1466 41.7414C86.9134 41.645 86.7547 41.452 86.691 41.192L85.6177 41.2159C85.6927 41.9463 86.2066 42.4703 87.0851 42.583C87.1095 42.5861 87.1357 42.5872 87.1607 42.5898L87.1682 43.0482L87.8085 43.0376L87.801 42.5872C87.8657 42.5804 87.9298 42.5726 87.9914 42.5617H87.9919ZM88.2714 41.2224C88.2776 41.4756 88.1563 41.7076 87.7883 41.7837L87.7688 40.6189C88.1441 40.7665 88.2654 40.9369 88.2714 41.2224ZM86.7492 38.8461C86.745 38.664 86.8251 38.4489 87.0905 38.3569L87.1066 39.3217C86.8328 39.1957 86.7544 39.0598 86.7492 38.8461Z" fill="#2D2D2D"/>
    <path d="M59.9552 46.8601C59.9552 46.8601 58.4166 45.7722 57.1189 45.2176C57.1189 45.2176 59.3256 44.9698 59.6677 43.3296C60.0098 41.6895 56.942 39.8841 55.172 41.6542C53.4019 43.4242 53.1126 46.019 57.3282 47.9487" fill="#FEB101"/>
    <path d="M80.7884 93.6437C65.0722 99.8034 51.8677 99.626 44.8586 91.6614C40.3836 86.5774 40.9014 82.156 42.0529 77.0267C42.7062 74.12 43.5629 70.9872 43.8317 67.3773C44.5754 57.3949 49.9377 53.8684 49.9377 53.8684C59.7918 46.3643 69.4861 44.4701 78.8773 53.1974C81.157 53.6995 83.0691 54.524 84.655 55.4784H84.6563C89.3728 58.3124 91.1965 62.2805 91.1965 62.2805C92.3995 65.0766 94.0046 65.3906 96.2222 70.1391C99.0445 76.1773 96.5053 87.4842 80.7879 93.6437H80.7884Z" fill="#B74829"/>
    <g style="mix-blend-mode:color-burn" opacity="0.17">
    <path d="M79.7067 92.2245C63.9906 98.3843 50.7861 98.2069 43.7769 90.2423C43.6805 90.1329 43.5865 90.0233 43.4951 89.915C40.7751 85.9255 40.9702 82.2634 41.7983 78.2109C41.878 77.8207 41.9638 77.4256 42.0529 77.0271L42.0542 77.0258C42.9096 80.1871 44.1029 82.7868 45.5558 84.8881C60.4368 106.42 102.544 75.5873 87.4619 58.0756C86.6826 57.1714 85.7522 56.3028 84.6565 55.4783C85.2776 55.8508 85.8475 56.2433 86.3699 56.6443C87.5632 57.5582 88.508 58.5136 89.2338 59.3737C90.6079 60.999 91.1971 62.2804 91.1971 62.2804C91.4386 62.842 91.6968 63.3026 91.9727 63.72C92.3642 64.3138 92.7912 64.817 93.2614 65.3929C93.8336 66.2163 94.4584 67.2572 95.1413 68.7197C97.9636 74.7578 95.4244 86.0648 79.707 92.2243L79.7067 92.2245Z" fill="#640002"/>
    </g>
    <g style="mix-blend-mode:color-burn" opacity="0.17">
    <path d="M70.3467 57.1751C68.1242 58.0008 66.2061 59.3048 64.5701 60.8302C62.9614 62.3282 61.6255 64.039 60.5368 65.7168C57.8394 69.8717 56.6677 73.8206 56.6677 73.8206C56.6819 75.873 53.4469 77.0261 52.0452 73.8206L49.7632 70.3512C49.7632 70.3512 49.067 66.3904 48.6566 63.6943C48.4851 62.5664 48.3638 61.6599 48.3638 61.3565C48.3638 60.326 50.8944 54.0595 60.9104 48.6886C63.1555 47.4846 65.2972 47.0467 67.2688 47.0932C74.0912 47.2514 78.8779 53.1981 78.8779 53.1981C78.8779 53.1981 80.1665 53.5277 70.347 57.1756L70.3467 57.1751Z" fill="#640002"/>
    </g>
    <g style="mix-blend-mode:color-burn" opacity="0.17">
    <path d="M60.5365 65.7168C57.8392 69.8717 56.6674 73.8206 56.6674 73.8206C56.6817 75.873 53.4466 77.0261 52.0449 73.8206L49.7629 70.3512C49.7629 70.3512 49.0667 66.3904 48.6563 63.6943C48.9966 63.5218 49.2036 63.4314 49.2036 63.4314C51.3215 70.7559 56.252 69.6922 60.5365 65.717V65.7168Z" fill="#640002"/>
    </g>
    <g style="mix-blend-mode:color-burn" opacity="0.17">
    <path d="M70.3467 57.1749C68.1242 58.0007 66.2061 59.3047 64.5701 60.8301C67.6553 56.0494 69.264 50.4346 66.895 47.9492L67.2685 47.0925C74.0909 47.2507 78.8776 53.1975 78.8776 53.1975C78.8776 53.1975 80.1663 53.5271 70.3467 57.1749Z" fill="#640002"/>
    </g>
    <g style="mix-blend-mode:color-burn" opacity="0.2">
    <path d="M59.146 41.8723C59.146 43.7782 53.5048 45.3544 54.5698 43.0228C54.5698 43.0228 53.7004 44.299 53.8383 44.4369C53.9763 44.5749 54.7587 45.6874 54.7587 45.6874L56.7669 45.1469C56.7669 45.1469 59.2029 44.7666 59.4479 43.9008C59.6928 43.035 59.146 41.8723 59.146 41.8723Z" fill="#640002"/>
    </g>
    <g opacity="0.56">
    <path d="M56.7549 43.2156C57.5312 42.9286 58.029 42.3402 57.8668 41.9014C57.7045 41.4626 56.9437 41.3396 56.1674 41.6266C55.3911 41.9136 54.8934 42.502 55.0556 42.9408C55.2178 43.3796 55.9786 43.5026 56.7549 43.2156Z" fill="white"/>
    </g>
    <path d="M79.852 52.8548C79.0501 52.8392 78.1814 52.912 77.2689 53.0429C76.7917 52.3384 76.2208 51.7186 75.5721 51.1809C69.2163 45.9137 55.4655 48.5955 51.256 58.3483C50.7955 59.413 50.4492 60.5638 50.2388 61.7977C50.0032 63.1861 49.939 64.6805 50.0793 66.2796C50.2804 68.5795 50.9051 71.0948 52.0449 73.8205C53.5799 76.1324 51.0789 78.0931 49.3548 76.369C48.1651 74.1691 47.3344 72.0513 46.8169 70.0274C45.9067 66.4677 45.9639 63.198 46.7312 60.29C47.2344 58.3852 48.0412 56.6349 49.0823 55.0597C55.4598 45.396 70.5881 42.2679 77.9053 50.1504C78.6381 50.9404 79.2927 51.8399 79.8517 52.8548H79.852Z" fill="#FEB101"/>
    <g style="mix-blend-mode:color-burn" opacity="0.2">
    <path d="M79.8519 52.8548C79.05 52.8392 78.1814 52.9119 77.2688 53.0428C76.7917 52.3384 76.2207 51.7186 75.5721 51.1809C76.8951 51.2427 77.5663 50.7276 77.9053 50.1504C78.6381 50.9403 79.2927 51.8399 79.8517 52.8548H79.8519Z" fill="#640002"/>
    </g>
    <g opacity="0.56">
    <path d="M62.0655 46.2512C62.0655 46.2512 65.2577 46.5372 63.7719 48.8704C63.7719 48.8704 60.2401 49.8788 58.7268 50.8581C57.2131 51.8374 56.5349 49.8256 56.3401 49.631C56.1452 49.4364 56.1039 48.6886 56.1039 48.6886L60.8792 46.4453" fill="white"/>
    </g>
    <g style="mix-blend-mode:color-burn" opacity="0.2">
    <path d="M51.2562 58.348C50.7957 59.4127 50.4494 60.5635 50.239 61.7974C48.9303 58.4719 46.8172 60.5575 46.8172 60.5575L46.7314 60.2897C47.2346 58.3849 48.0414 56.6346 49.0826 55.0594C50.1356 55.0534 49.2992 55.527 49.8951 56.1231C50.3447 56.5728 50.6863 57.4344 51.2562 58.348Z" fill="#640002"/>
    </g>
    <g style="mix-blend-mode:color-burn" opacity="0.2">
    <path d="M49.3548 76.369C48.1651 74.169 47.3344 72.0512 46.817 70.0274C48.0093 70.6628 50.3115 71.4623 50.0793 66.2795C50.2804 68.5795 50.9051 71.0948 52.0449 73.8204C53.5799 76.1323 51.0789 78.093 49.3548 76.369Z" fill="#640002"/>
    </g>
    <path d="M50.7924 77.5451C50.2035 77.5451 49.5647 77.3142 48.987 76.7365C48.9514 76.7009 48.9213 76.6606 48.8974 76.6165C45.5776 70.4801 44.7693 64.4058 46.5598 59.0498C48.0994 54.4445 51.5184 50.5039 56.1874 47.954C60.3807 45.6637 65.2622 44.7226 69.5807 45.3717C74.3188 46.0837 78.1279 48.6525 80.3068 52.6046C80.3964 52.7672 80.3925 52.9651 80.2964 53.1241C80.2003 53.2828 80.025 53.3774 79.8416 53.3748C79.1179 53.3605 78.3017 53.4202 77.3424 53.5574C77.1463 53.5849 76.9502 53.4989 76.8387 53.3342C75.2526 50.9909 72.4425 49.4999 68.9261 49.1349C65.5123 48.7811 61.7499 49.5531 58.6042 51.2541C50.7331 55.5097 48.4555 63.8523 52.5058 73.5757C53.4427 75.0254 53.0146 76.3861 52.2127 77.0425C51.841 77.3467 51.3381 77.5451 50.7926 77.5451H50.7924ZM49.7736 76.052C50.4196 76.6578 51.129 76.5866 51.5545 76.2385C51.9945 75.8782 52.2738 75.1041 51.6119 74.1077C51.5937 74.0804 51.5781 74.0511 51.5654 74.0209C49.2538 68.4955 48.8602 63.4821 50.396 59.1202C51.7072 55.396 54.3745 52.3599 58.1099 50.3402C61.4348 48.5424 65.4165 47.7265 69.0331 48.1016C72.728 48.4847 75.7241 50.0373 77.5118 52.4856C78.0258 52.4188 78.5023 52.3744 78.9485 52.3516C74.2983 45.0753 64.133 44.7984 56.6853 48.8658C49.0005 53.063 42.5904 62.6984 49.7736 76.052Z" fill="#2D2D2D"/>
    <path d="M54.5698 76.3343C53.5245 76.3343 52.3161 75.7371 51.5685 74.0284C51.4537 73.7655 51.5734 73.4593 51.8363 73.3442C52.0992 73.2296 52.4055 73.3491 52.5205 73.612C53.0608 74.8477 53.9573 75.4636 54.9171 75.2589C55.6468 75.1035 56.1528 74.5134 56.1479 73.8237C56.1458 73.5369 56.3767 73.3026 56.6637 73.3005H56.6676C56.9529 73.3005 57.1851 73.5307 57.1872 73.8164C57.1955 75.0051 56.3512 76.0161 55.1337 76.2753C54.9545 76.3135 54.7651 76.3343 54.5703 76.3343H54.5698Z" fill="#2D2D2D"/>
    <path d="M73.9221 50.8808C72.4706 52.3336 71.2154 53.7946 70.7715 54.8952C69.9363 55.2105 69.0604 55.6602 68.1575 56.2111C68.1575 56.2111 68.5988 54.7048 69.5519 52.9036C70.1813 51.7139 71.0343 50.3956 72.1326 49.2973C72.1326 49.2973 69.8685 47.8564 70.7359 45.6874C71.6032 43.5183 75.4976 43.9431 76.3114 45.8731C77.1252 47.8018 75.375 49.4295 73.9224 50.8811L73.9221 50.8808Z" fill="#FEB101"/>
    <g style="mix-blend-mode:color-burn" opacity="0.2">
    <path d="M73.9221 50.881C72.4706 52.3338 71.2154 53.7947 70.7715 54.8954C69.9363 55.2107 69.0604 55.6604 68.1575 56.2113C68.1575 56.2113 68.5988 54.705 69.5519 52.9038C73.9876 51.0036 76.3112 45.8733 76.3112 45.8733C77.125 47.802 75.3747 49.4297 73.9221 50.8813V50.881Z" fill="#640002"/>
    </g>
    <g opacity="0.56">
    <path d="M73.2593 46.1988C74.0356 45.9118 74.5334 45.3234 74.3711 44.8846C74.2089 44.4458 73.4481 44.3227 72.6718 44.6097C71.8955 44.8967 71.3977 45.4851 71.56 45.9239C71.7222 46.3627 72.483 46.4858 73.2593 46.1988Z" fill="white"/>
    </g>
    <path d="M68.1572 56.7302C68.0452 56.7302 67.9338 56.6941 67.8411 56.6229C67.6709 56.4923 67.5984 56.2707 67.6587 56.0647C67.7075 55.8984 68.8266 52.1485 71.3577 49.3568C70.5039 48.5968 69.5773 47.1844 70.2532 45.4944C70.6933 44.3938 71.8094 43.7286 73.2392 43.7151C74.8346 43.6997 76.2974 44.504 76.7896 45.6703C77.7066 47.8432 75.9114 49.6324 74.4686 51.0702L74.2899 51.2487C72.6355 52.9029 71.6141 54.1954 71.2538 55.0898C71.1995 55.2249 71.0909 55.3309 70.9548 55.382C70.1857 55.6711 69.3589 56.0873 68.4276 56.6543C68.3445 56.705 68.2507 56.7302 68.1574 56.7302H68.1572ZM73.2831 44.7541C73.2717 44.7541 73.2602 44.7541 73.2488 44.7541C72.2552 44.7635 71.4959 45.1845 71.218 45.8802C70.5239 47.6159 72.3347 48.8093 72.4121 48.8591C72.5441 48.9443 72.6311 49.0849 72.6477 49.241C72.6643 49.3971 72.6103 49.553 72.4991 49.6639C70.7961 51.3669 69.6908 53.6577 69.1209 55.0693C69.5586 54.8428 69.9771 54.6505 70.3823 54.4892C70.854 53.4777 71.8952 52.1737 73.5551 50.5138L73.7351 50.3341C75.083 48.9908 76.4769 47.6016 75.8321 46.0742C75.5079 45.3058 74.4395 44.7538 73.2831 44.7538V44.7541Z" fill="#2D2D2D"/>
    <path d="M57.3274 48.4682C57.2552 48.4682 57.1817 48.4532 57.1115 48.421C54.9615 47.4367 53.7396 46.2044 53.4793 44.7581C53.2684 43.585 53.7388 42.3521 54.8046 41.2863C56.0086 40.0823 57.6264 40.2982 58.646 40.8492C59.7585 41.4505 60.3734 42.4898 60.1762 43.4353C59.9653 44.4469 59.2182 45.0212 58.5221 45.3428C59.439 45.8605 60.21 46.4037 60.2552 46.4359C60.4895 46.6016 60.5451 46.9255 60.3794 47.1598C60.2139 47.3941 59.89 47.4497 59.6551 47.2842C59.6403 47.2736 58.1454 46.221 56.9146 45.6953C56.6977 45.6025 56.5705 45.3755 56.6047 45.142C56.639 44.9087 56.8263 44.7277 57.0606 44.7012C57.0775 44.6991 58.8985 44.471 59.1587 43.2234C59.2598 42.7389 58.8457 42.1386 58.1516 41.7635C57.4126 41.364 56.3385 41.2222 55.5389 42.0212C55.0654 42.495 54.3007 43.4564 54.5017 44.5741C54.6952 45.6503 55.7473 46.6538 57.5438 47.4762C57.8046 47.5957 57.9194 47.904 57.7999 48.1648C57.7126 48.3555 57.524 48.4682 57.3271 48.4682H57.3274Z" fill="#2D2D2D"/>
    <path d="M61.0114 98.5C60.5132 98.5 60.0212 98.4893 59.5354 98.468C53.0619 98.1836 47.9926 96.0088 44.4687 92.0043C39.368 86.2083 40.546 81.1715 41.9098 75.3393C42.4929 72.8461 43.0956 70.2682 43.3138 67.3386C44.0676 57.2175 49.4242 53.5837 49.652 53.434C49.8917 53.2761 50.2138 53.3429 50.3715 53.5826C50.5289 53.8221 50.463 54.1437 50.224 54.3016C50.1601 54.3442 45.0622 57.8516 44.3502 67.4158C44.1261 70.4259 43.5138 73.044 42.9215 75.5759C41.5695 81.3572 40.5016 85.9236 45.2487 91.3178C48.5786 95.1017 53.4006 97.158 59.5809 97.4297C65.6222 97.6952 72.6919 96.2582 80.5993 93.1595C90.2663 89.3711 94.1228 84.0026 95.6556 80.1659C97.0264 76.7352 97.0617 73.1604 95.7523 70.3583C94.5519 67.7893 93.5497 66.5655 92.6653 65.4857C91.9247 64.5817 91.2854 63.8009 90.7191 62.4849C90.6056 62.2215 90.7274 61.9158 90.9908 61.8023C91.254 61.6888 91.56 61.8106 91.6732 62.0743C92.1818 63.2557 92.7499 63.9492 93.469 64.8272C94.3462 65.8982 95.438 67.2313 96.6934 69.9183C98.1236 72.9796 98.0969 76.8553 96.6201 80.5514C95.0112 84.5788 90.9913 90.2031 80.9783 94.1271C73.5667 97.0315 66.8584 98.5 61.0111 98.5H61.0114Z" fill="#2D2D2D"/>
    <path d="M65.6279 60.4507C65.6279 60.4507 65.6279 60.452 65.6266 60.4531C65.5993 60.5482 64.0667 63.2754 62.3035 64.5841L62.3022 64.5854C60.5937 65.5086 58.107 65.2873 55.6868 64.0487C54.7623 63.5752 53.8474 62.9528 52.9894 62.1901C52.3195 61.594 51.7319 60.9539 51.2321 60.2913C50.6004 59.4572 50.1089 58.5862 49.7686 57.7248V57.7235C49.1262 56.1041 49.0166 54.511 49.5177 53.2366C49.5224 53.226 49.5273 53.2117 49.5343 53.1938C49.6639 52.8535 50.3445 51.2115 51.9174 49.6387C54.0173 47.2782 58.66 47.9777 62.2853 51.2032C62.8957 51.7458 63.4381 52.3251 63.9093 52.926C63.9093 52.9272 63.9106 52.9283 63.9106 52.9296C65.9214 55.4947 66.6114 58.4337 65.6274 60.4502L65.6279 60.4507Z" fill="#FEB101"/>
    <g style="mix-blend-mode:color-burn" opacity="0.2">
    <path d="M54.6402 56.9594C52.8359 51.6803 54.2493 49.6315 60.083 52.0211C60.083 52.0211 56.105 49.2907 54.0576 50.396C52.0101 51.5013 53.1632 54.4158 53.1632 54.4158L54.6405 56.9594H54.6402Z" fill="#640002"/>
    </g>
    <g style="mix-blend-mode:color-burn" opacity="0.2">
    <path d="M65.6279 60.4506C65.6279 60.4506 65.6279 60.4519 65.6266 60.4529C65.5993 60.548 64.0667 63.2752 62.3034 64.5839L62.3021 64.5852C60.5937 65.5084 58.107 65.2871 55.6868 64.0485C58.1901 63.8142 58.1698 62.2009 58.1698 62.2009L56.5302 61.1348C64.7483 63.8797 66.5402 58.4244 63.9106 52.9299C65.9214 55.4951 66.6113 58.434 65.6274 60.4506H65.6279Z" fill="#640002"/>
    </g>
    <g opacity="0.56">
    <path d="M63.5438 56.1238C64.4075 58.4219 62.7889 60.5758 59.7232 60.5216C64.9247 61.6461 65.1146 57.6943 63.5438 56.1238Z" fill="white"/>
    </g>
    <g opacity="0.56">
    <path d="M51.2324 60.2911C50.6006 59.457 50.1092 58.586 49.7689 57.7246V57.7233C49.7689 57.7233 49.6107 55.3426 50.8944 54.0586L52.427 57.1508C52.427 57.1508 53.2933 60.1646 51.2324 60.2908V60.2911Z" fill="white"/>
    </g>
    <path d="M59.8453 65.6093C57.5693 65.6093 54.9226 64.5175 52.6878 62.5298C49.499 59.6927 48.0217 55.803 49.0951 53.0705C49.0971 53.0651 49.0995 53.0596 49.1018 53.0544L49.1135 53.023C49.2358 52.7014 49.9466 50.9711 51.5872 49.3266C52.7091 48.0735 54.4888 47.5584 56.5978 47.8768C58.6426 48.1852 60.7701 49.2461 62.5882 50.8639C65.9116 53.8189 67.3618 57.9346 66.0368 60.6501C66.029 60.6662 66.0201 60.6821 66.0103 60.6972C65.7115 61.2868 64.2428 63.7068 62.5819 64.9438C62.5619 64.9593 62.5406 64.9734 62.5185 64.9853C61.7385 65.4066 60.8262 65.6095 59.8453 65.6095V65.6093ZM49.9395 53.4072C49.021 55.7541 50.4302 59.3041 53.292 61.8502C56.1505 64.3928 59.829 65.3778 62.0567 64.2008C63.6256 63.022 65.0686 60.5636 65.2053 60.2826C65.2105 60.2701 65.2159 60.2579 65.2219 60.2457C66.3672 57.8894 65.0063 54.2304 61.9837 51.5429C60.2955 50.0407 58.3345 49.058 56.4619 48.7756C54.661 48.5039 53.1676 48.9177 52.2574 49.9407C52.2514 49.9471 52.2455 49.9536 52.2392 49.9599C50.7227 51.4764 50.0741 53.0544 49.9595 53.3555L49.9518 53.3758C49.9473 53.3872 49.9434 53.3976 49.9395 53.4072ZM65.2034 60.287C65.1957 60.306 65.192 60.3197 65.1899 60.3275C65.1938 60.3137 65.1985 60.3002 65.2034 60.287Z" fill="#2D2D2D"/>
    <path d="M61.5509 63.1719C61.1706 63.1719 60.7758 63.1415 60.3682 63.08C58.3239 62.7716 56.1965 61.7108 54.3779 60.0932C53.463 59.2794 52.6785 58.3728 52.046 57.3982C50.0884 54.3821 49.9048 51.2177 51.5779 49.3365C52.6993 48.0756 54.482 47.5568 56.5973 47.8761C58.6416 48.1844 60.7691 49.245 62.5876 50.8628C64.4062 52.4804 65.7079 54.4696 66.2524 56.4641C66.8158 58.5276 66.5085 60.3587 65.3874 61.6196C64.4821 62.6376 63.1454 63.1717 61.5507 63.1717L61.5509 63.1719ZM55.4185 48.6941C54.0856 48.6941 52.985 49.1227 52.2574 49.9409C50.8641 51.5075 51.0804 54.2405 52.8089 56.9036C53.397 57.8099 54.1282 58.6544 54.9823 59.4142C56.6708 60.9161 58.6317 61.8988 60.5041 62.1812C62.305 62.4529 63.7984 62.0388 64.7086 61.0156C65.6188 59.9924 65.8557 58.4611 65.3759 56.7038C64.8772 54.8774 63.6724 53.0443 61.984 51.5424C60.2955 50.0404 58.3346 49.0577 56.4622 48.7754C56.1014 48.7211 55.7528 48.6941 55.4187 48.6941H55.4185Z" fill="#2D2D2D"/>
    <path d="M61.5393 61.1371C58.066 61.1319 54.5763 58.3548 53.0749 55.332C52.5427 54.229 52.1624 52.9486 52.4374 51.7103C52.7658 50.2497 54.1695 49.6341 55.5525 49.7055C57.9816 49.8052 60.1719 51.182 61.8351 52.865C62.6508 53.7217 63.3524 54.6958 63.8379 55.7847C63.9109 55.9486 63.8374 56.1406 63.6735 56.2136C63.5137 56.285 63.3267 56.2162 63.2503 56.0611C61.8245 53.2884 58.7123 50.7479 55.533 50.5897C54.5566 50.5521 53.5375 50.8926 53.3204 51.9226C52.7972 54.8841 55.9476 58.3127 58.4299 59.5744C59.3988 60.0937 60.4672 60.4519 61.5434 60.4872C61.9567 60.5069 61.9577 61.1192 61.5393 61.1363V61.1371Z" fill="#2D2D2D"/>
    <path d="M59.0006 56.8379C59.4024 57.1839 59.8923 57.286 60.3189 57.0818C60.8254 56.8395 60.7823 56.5145 60.5553 56.2324C60.2763 55.8854 59.9586 55.79 59.1325 55.8734C57.4932 56.0355 56.6643 55.7046 56.0468 54.9549C55.2442 53.9803 55.7788 53.1846 56.8178 52.9155C58.1704 52.5648 59.0892 53.0812 59.6508 53.6927L58.6372 54.0198C58.42 53.834 58.0558 53.5348 57.454 53.713C56.9256 53.8694 57.009 54.2065 57.2022 54.4437C57.4753 54.7788 57.7893 54.8619 58.8016 54.7954C60.1041 54.7063 60.808 54.9817 61.3881 55.7095C62.105 56.6091 61.8302 57.3637 60.8966 57.8526C59.8136 58.4199 58.6515 58.1791 57.8592 57.3429L59.0006 56.8374V56.8379ZM56.6022 53.3704L55.958 52.5783L56.9589 52.3394L57.5755 53.1038L56.6022 53.3706V53.3704ZM60.9402 58.6173L60.0828 57.5624L60.9148 57.1509L61.7369 58.1708L60.94 58.617L60.9402 58.6173Z" fill="#2D2D2D"/>
    <path d="M91.1968 62.2804C88.5805 58.4196 85.1121 56.4706 81.444 56.022C73.7174 55.0772 65.1021 60.793 61.6969 69.3358C60.9272 71.2669 60.4238 73.3432 60.2573 75.5192C60.2739 78.0963 57.9657 78.8423 56.9329 76.5783C56.8378 76.3689 56.7531 76.1346 56.6819 75.8727C56.5523 73.5751 56.8045 71.417 57.3638 69.4132C60.7857 57.1285 75.7046 50.656 84.5581 53.5316C88.2548 54.7322 90.8937 57.5626 91.1971 62.2802L91.1968 62.2804Z" fill="#FEB101"/>
    <g style="mix-blend-mode:color-burn" opacity="0.2">
    <path d="M91.1968 62.2803C88.5805 58.4194 85.1121 56.4704 81.444 56.0218C84.1022 55.3044 84.6386 54.3074 84.5578 53.5315C88.2545 54.7321 90.8934 57.5625 91.1968 62.28V62.2803Z" fill="#640002"/>
    </g>
    <g style="mix-blend-mode:color-burn" opacity="0.2">
    <path d="M61.6967 69.3359C60.927 71.267 60.4236 73.3433 60.2571 75.5193C60.2737 78.0964 57.9654 78.8425 56.9326 76.5784C56.8575 76.3534 56.7731 76.1191 56.6817 75.8729C56.5521 73.5753 56.8043 71.4172 57.3636 69.4133C57.3636 69.4133 58.4582 74.6878 60.9104 70.3508C61.14 69.9451 61.4052 69.6084 61.6969 69.3359H61.6967Z" fill="#640002"/>
    </g>
    <g opacity="0.56">
    <path d="M64.1472 59.041C64.1472 59.041 62.5227 60.3767 63.2308 61.7973C63.9389 63.218 66.071 62.4413 66.071 62.4413C66.071 62.4413 70.547 58.6171 70.7384 58.6171C70.9299 58.6171 73.6558 57.4302 73.6558 57.4302L75.7906 56.4454C75.7906 56.4454 76.1283 53.2462 73.5454 53.8683C70.9626 54.4905 66.8238 57.151 66.8238 57.151" fill="white"/>
    </g>
    <path d="M58.6031 78.4453C57.7428 78.4453 56.6716 77.8216 56.1806 76.0092C56.171 75.9744 56.1653 75.9388 56.1632 75.9027C55.8065 69.5816 58.3335 63.6198 63.2786 59.1156C67.5543 55.2207 73.3499 52.6994 78.781 52.3713C86.3359 51.9147 91.2929 55.6989 91.7148 62.247C91.7299 62.481 91.5862 62.6961 91.3646 62.772C91.1431 62.8481 90.8978 62.766 90.7661 62.572C87.2755 57.4198 81.8443 55.3758 75.8654 56.9634C68.9381 58.8031 61.5343 65.7738 60.7771 75.5388C60.7802 77.3431 59.7755 78.3024 58.8369 78.4302C58.7613 78.4406 58.6832 78.4458 58.6034 78.4458L58.6031 78.4453ZM57.1976 75.7887C57.4989 76.8526 58.0847 77.4841 58.6964 77.4002C59.2032 77.3311 59.7453 76.7139 59.7378 75.5227C59.7378 75.5084 59.7381 75.4941 59.7393 75.4798C60.0918 70.8732 61.9094 66.5131 64.9959 62.8709C67.8847 59.4621 71.65 57.0073 75.5986 55.9587C81.3622 54.4281 86.6533 56.0343 90.3913 60.372C89.2515 55.6046 85.0677 53.0319 78.8436 53.4083C69.2846 53.9858 56.4598 62.0833 57.1973 75.7887H57.1976Z" fill="#2D2D2D"/>
    <g opacity="0.14">
    <path d="M74.9967 82.5233C75.4129 85.4853 70.2517 88.6594 63.4687 89.6124C56.6858 90.5655 50.8497 88.9371 50.4333 85.975C50.0172 83.0129 55.1784 83.3753 61.9613 82.4222C68.7443 81.4691 74.5803 79.5612 74.9967 82.5233Z" fill="white"/>
    </g>
    <g style="mix-blend-mode:color-burn" opacity="0.17">
    <path d="M63.6485 73.8203C71.02 67.4201 78.9028 62.816 88.2716 63.4311C84.6552 55.4785 67.0397 58.4331 63.6485 73.8203Z" fill="#640002"/>
    </g>
    </g>
    </g>
    <defs>
    <filter id="filter0_d_0_704" x="0" y="0" width="135" height="135" filterUnits="userSpaceOnUse" color-interpolation-filters="sRGB">
    <feFlood flood-opacity="0" result="BackgroundImageFix"/>
    <feColorMatrix in="SourceAlpha" type="matrix" values="0 0 0 0 0 0 0 0 0 0 0 0 0 0 0 0 0 0 127 0" result="hardAlpha"/>
    <feOffset dx="5" dy="5"/>
    <feComposite in2="hardAlpha" operator="out"/>
    <feColorMatrix type="matrix" values="0 0 0 0 0 0 0 0 0 0 0 0 0 0 0 0 0 0 0.26 0"/>
    <feBlend mode="normal" in2="BackgroundImageFix" result="effect1_dropShadow_0_704"/>
    <feBlend mode="normal" in="SourceGraphic" in2="effect1_dropShadow_0_704" result="shape"/>
    </filter>
    <clipPath id="clip0_0_704">
    <rect width="65.4949" height="67" fill="white" transform="translate(32.2526 31.5)"/>
    </clipPath>
    </defs>
    </svg>
    