<svg width="446" height="225" viewBox="0 0 446 225" fill="none" xmlns="http://www.w3.org/2000/svg">
    <g filter="url(#filter0_d_0_951)">
    <rect width="426" height="205" rx="45" fill="white" shape-rendering="crispEdges"/>
    <rect x="5" y="5" width="416" height="195" rx="40" stroke="black" stroke-width="10" shape-rendering="crispEdges"/>
    <path d="M60.212 76L56.394 69.445H53.864V76H51.771V59.969H56.946C58.1573 59.969 59.177 60.176 60.005 60.59C60.8483 61.004 61.477 61.5637 61.891 62.269C62.305 62.9743 62.512 63.7793 62.512 64.684C62.512 65.788 62.19 66.7617 61.546 67.605C60.9173 68.4483 59.9667 69.008 58.694 69.284L62.719 76H60.212ZM53.864 67.766H56.946C58.0807 67.766 58.9317 67.49 59.499 66.938C60.0663 66.3707 60.35 65.6193 60.35 64.684C60.35 63.7333 60.0663 62.9973 59.499 62.476C58.947 61.9547 58.096 61.694 56.946 61.694H53.864V67.766ZM77.2642 69.215C77.2642 69.6137 77.2412 70.0353 77.1952 70.48H67.1212C67.1978 71.722 67.6195 72.6957 68.3862 73.401C69.1682 74.091 70.1112 74.436 71.2152 74.436C72.1198 74.436 72.8712 74.229 73.4692 73.815C74.0825 73.3857 74.5118 72.8183 74.7572 72.113H77.0112C76.6738 73.3243 75.9992 74.3133 74.9872 75.08C73.9752 75.8313 72.7178 76.207 71.2152 76.207C70.0192 76.207 68.9458 75.9387 67.9952 75.402C67.0598 74.8653 66.3238 74.1063 65.7872 73.125C65.2505 72.1283 64.9822 70.9783 64.9822 69.675C64.9822 68.3717 65.2428 67.2293 65.7642 66.248C66.2855 65.2667 67.0138 64.5153 67.9492 63.994C68.8998 63.4573 69.9885 63.189 71.2152 63.189C72.4112 63.189 73.4692 63.4497 74.3892 63.971C75.3092 64.4923 76.0145 65.213 76.5052 66.133C77.0112 67.0377 77.2642 68.065 77.2642 69.215ZM75.1022 68.778C75.1022 67.9807 74.9258 67.2983 74.5732 66.731C74.2205 66.1483 73.7375 65.7113 73.1242 65.42C72.5262 65.1133 71.8592 64.96 71.1232 64.96C70.0652 64.96 69.1605 65.2973 68.4092 65.972C67.6732 66.6467 67.2515 67.582 67.1442 68.778H75.1022ZM79.2449 69.652C79.2449 68.364 79.5055 67.237 80.0269 66.271C80.5482 65.2897 81.2612 64.5307 82.1659 63.994C83.0859 63.4573 84.1132 63.189 85.2479 63.189C86.2292 63.189 87.1415 63.419 87.9849 63.879C88.8282 64.3237 89.4722 64.914 89.9169 65.65V58.98H92.0329V76H89.9169V73.631C89.5029 74.3823 88.8895 75.0033 88.0769 75.494C87.2642 75.9693 86.3135 76.207 85.2249 76.207C84.1055 76.207 83.0859 75.931 82.1659 75.379C81.2612 74.827 80.5482 74.0527 80.0269 73.056C79.5055 72.0593 79.2449 70.9247 79.2449 69.652ZM89.9169 69.675C89.9169 68.7243 89.7252 67.8963 89.3419 67.191C88.9585 66.4857 88.4372 65.949 87.7779 65.581C87.1339 65.1977 86.4209 65.006 85.6389 65.006C84.8569 65.006 84.1439 65.19 83.4999 65.558C82.8559 65.926 82.3422 66.4627 81.9589 67.168C81.5755 67.8733 81.3839 68.7013 81.3839 69.652C81.3839 70.618 81.5755 71.4613 81.9589 72.182C82.3422 72.8873 82.8559 73.4317 83.4999 73.815C84.1439 74.183 84.8569 74.367 85.6389 74.367C86.4209 74.367 87.1339 74.183 87.7779 73.815C88.4372 73.4317 88.9585 72.8873 89.3419 72.182C89.7252 71.4613 89.9169 70.6257 89.9169 69.675ZM107.07 69.215C107.07 69.6137 107.047 70.0353 107.001 70.48H96.9268C97.0035 71.722 97.4252 72.6957 98.1918 73.401C98.9738 74.091 99.9168 74.436 101.021 74.436C101.925 74.436 102.677 74.229 103.275 73.815C103.888 73.3857 104.317 72.8183 104.563 72.113H106.817C106.479 73.3243 105.805 74.3133 104.793 75.08C103.781 75.8313 102.523 76.207 101.021 76.207C99.8248 76.207 98.7515 75.9387 97.8008 75.402C96.8655 74.8653 96.1295 74.1063 95.5928 73.125C95.0562 72.1283 94.7878 70.9783 94.7878 69.675C94.7878 68.3717 95.0485 67.2293 95.5698 66.248C96.0912 65.2667 96.8195 64.5153 97.7548 63.994C98.7055 63.4573 99.7942 63.189 101.021 63.189C102.217 63.189 103.275 63.4497 104.195 63.971C105.115 64.4923 105.82 65.213 106.311 66.133C106.817 67.0377 107.07 68.065 107.07 69.215ZM104.908 68.778C104.908 67.9807 104.731 67.2983 104.379 66.731C104.026 66.1483 103.543 65.7113 102.93 65.42C102.332 65.1133 101.665 64.96 100.929 64.96C99.8708 64.96 98.9662 65.2973 98.2148 65.972C97.4788 66.6467 97.0572 67.582 96.9498 68.778H104.908ZM121.333 69.215C121.333 69.6137 121.31 70.0353 121.264 70.48H111.19C111.266 71.722 111.688 72.6957 112.455 73.401C113.237 74.091 114.18 74.436 115.284 74.436C116.188 74.436 116.94 74.229 117.538 73.815C118.151 73.3857 118.58 72.8183 118.826 72.113H121.08C120.742 73.3243 120.068 74.3133 119.056 75.08C118.044 75.8313 116.786 76.207 115.284 76.207C114.088 76.207 113.014 75.9387 112.064 75.402C111.128 74.8653 110.392 74.1063 109.856 73.125C109.319 72.1283 109.051 70.9783 109.051 69.675C109.051 68.3717 109.311 67.2293 109.833 66.248C110.354 65.2667 111.082 64.5153 112.018 63.994C112.968 63.4573 114.057 63.189 115.284 63.189C116.48 63.189 117.538 63.4497 118.458 63.971C119.378 64.4923 120.083 65.213 120.574 66.133C121.08 67.0377 121.333 68.065 121.333 69.215ZM119.171 68.778C119.171 67.9807 118.994 67.2983 118.642 66.731C118.289 66.1483 117.806 65.7113 117.193 65.42C116.595 65.1133 115.928 64.96 115.192 64.96C114.134 64.96 113.229 65.2973 112.478 65.972C111.742 66.6467 111.32 67.582 111.213 68.778H119.171ZM139.252 63.166C140.234 63.166 141.108 63.373 141.874 63.787C142.641 64.1857 143.247 64.7913 143.691 65.604C144.136 66.4167 144.358 67.4057 144.358 68.571V76H142.288V68.87C142.288 67.6127 141.974 66.6543 141.345 65.995C140.732 65.3203 139.896 64.983 138.838 64.983C137.75 64.983 136.883 65.3357 136.239 66.041C135.595 66.731 135.273 67.7353 135.273 69.054V76H133.203V68.87C133.203 67.6127 132.889 66.6543 132.26 65.995C131.647 65.3203 130.811 64.983 129.753 64.983C128.665 64.983 127.798 65.3357 127.154 66.041C126.51 66.731 126.188 67.7353 126.188 69.054V76H124.095V63.396H126.188V65.213C126.602 64.5537 127.154 64.0477 127.844 63.695C128.55 63.3423 129.324 63.166 130.167 63.166C131.225 63.166 132.161 63.4037 132.973 63.879C133.786 64.3543 134.392 65.052 134.79 65.972C135.143 65.0827 135.726 64.3927 136.538 63.902C137.351 63.4113 138.256 63.166 139.252 63.166ZM164.779 63.396L157.189 81.934H155.027L157.511 75.862L152.428 63.396H154.751L158.707 73.608L162.617 63.396H164.779ZM172.38 76.207C171.2 76.207 170.126 75.9387 169.16 75.402C168.21 74.8653 167.458 74.1063 166.906 73.125C166.37 72.1283 166.101 70.9783 166.101 69.675C166.101 68.387 166.377 67.2523 166.929 66.271C167.497 65.2743 168.263 64.5153 169.229 63.994C170.195 63.4573 171.276 63.189 172.472 63.189C173.668 63.189 174.749 63.4573 175.715 63.994C176.681 64.5153 177.44 65.2667 177.992 66.248C178.56 67.2293 178.843 68.3717 178.843 69.675C178.843 70.9783 178.552 72.1283 177.969 73.125C177.402 74.1063 176.628 74.8653 175.646 75.402C174.665 75.9387 173.576 76.207 172.38 76.207ZM172.38 74.367C173.132 74.367 173.837 74.1907 174.496 73.838C175.156 73.4853 175.685 72.9563 176.083 72.251C176.497 71.5457 176.704 70.687 176.704 69.675C176.704 68.663 176.505 67.8043 176.106 67.099C175.708 66.3937 175.186 65.8723 174.542 65.535C173.898 65.1823 173.201 65.006 172.449 65.006C171.683 65.006 170.977 65.1823 170.333 65.535C169.705 65.8723 169.199 66.3937 168.815 67.099C168.432 67.8043 168.24 68.663 168.24 69.675C168.24 70.7023 168.424 71.5687 168.792 72.274C169.176 72.9793 169.682 73.5083 170.31 73.861C170.939 74.1983 171.629 74.367 172.38 74.367ZM192.773 63.396V76H190.68V74.137C190.282 74.781 189.722 75.287 189.001 75.655C188.296 76.0077 187.514 76.184 186.655 76.184C185.674 76.184 184.792 75.9847 184.01 75.586C183.228 75.172 182.607 74.5587 182.147 73.746C181.703 72.9333 181.48 71.9443 181.48 70.779V63.396H183.55V70.503C183.55 71.745 183.865 72.7033 184.493 73.378C185.122 74.0373 185.981 74.367 187.069 74.367C188.189 74.367 189.07 74.022 189.714 73.332C190.358 72.642 190.68 71.6377 190.68 70.319V63.396H192.773ZM198.4 65.443C198.768 64.7223 199.289 64.1627 199.964 63.764C200.654 63.3653 201.49 63.166 202.471 63.166V65.328H201.919C199.573 65.328 198.4 66.6007 198.4 69.146V76H196.307V63.396H198.4V65.443ZM213.572 65.121V72.55C213.572 73.1633 213.702 73.6003 213.963 73.861C214.224 74.1063 214.676 74.229 215.32 74.229H216.861V76H214.975C213.81 76 212.936 75.7317 212.353 75.195C211.77 74.6583 211.479 73.7767 211.479 72.55V65.121H209.846V63.396H211.479V60.222H213.572V63.396H216.861V65.121H213.572ZM224.894 76.207C223.713 76.207 222.64 75.9387 221.674 75.402C220.723 74.8653 219.972 74.1063 219.42 73.125C218.883 72.1283 218.615 70.9783 218.615 69.675C218.615 68.387 218.891 67.2523 219.443 66.271C220.01 65.2743 220.777 64.5153 221.743 63.994C222.709 63.4573 223.79 63.189 224.986 63.189C226.182 63.189 227.263 63.4573 228.229 63.994C229.195 64.5153 229.954 65.2667 230.506 66.248C231.073 67.2293 231.357 68.3717 231.357 69.675C231.357 70.9783 231.066 72.1283 230.483 73.125C229.916 74.1063 229.141 74.8653 228.16 75.402C227.179 75.9387 226.09 76.207 224.894 76.207ZM224.894 74.367C225.645 74.367 226.351 74.1907 227.01 73.838C227.669 73.4853 228.198 72.9563 228.597 72.251C229.011 71.5457 229.218 70.687 229.218 69.675C229.218 68.663 229.019 67.8043 228.62 67.099C228.221 66.3937 227.7 65.8723 227.056 65.535C226.412 65.1823 225.714 65.006 224.963 65.006C224.196 65.006 223.491 65.1823 222.847 65.535C222.218 65.8723 221.712 66.3937 221.329 67.099C220.946 67.8043 220.754 68.663 220.754 69.675C220.754 70.7023 220.938 71.5687 221.306 72.274C221.689 72.9793 222.195 73.5083 222.824 73.861C223.453 74.1983 224.143 74.367 224.894 74.367ZM241.147 76L236.202 70.434V76H234.109V58.98H236.202V68.985L241.055 63.396H243.976L238.042 69.675L243.999 76H241.147ZM257.446 69.215C257.446 69.6137 257.423 70.0353 257.377 70.48H247.303C247.379 71.722 247.801 72.6957 248.568 73.401C249.35 74.091 250.293 74.436 251.397 74.436C252.301 74.436 253.053 74.229 253.651 73.815C254.264 73.3857 254.693 72.8183 254.939 72.113H257.193C256.855 73.3243 256.181 74.3133 255.169 75.08C254.157 75.8313 252.899 76.207 251.397 76.207C250.201 76.207 249.127 75.9387 248.177 75.402C247.241 74.8653 246.505 74.1063 245.969 73.125C245.432 72.1283 245.164 70.9783 245.164 69.675C245.164 68.3717 245.424 67.2293 245.946 66.248C246.467 65.2667 247.195 64.5153 248.131 63.994C249.081 63.4573 250.17 63.189 251.397 63.189C252.593 63.189 253.651 63.4497 254.571 63.971C255.491 64.4923 256.196 65.213 256.687 66.133C257.193 67.0377 257.446 68.065 257.446 69.215ZM255.284 68.778C255.284 67.9807 255.107 67.2983 254.755 66.731C254.402 66.1483 253.919 65.7113 253.306 65.42C252.708 65.1133 252.041 64.96 251.305 64.96C250.247 64.96 249.342 65.2973 248.591 65.972C247.855 66.6467 247.433 67.582 247.326 68.778H255.284ZM266.35 63.166C267.883 63.166 269.125 63.6337 270.076 64.569C271.026 65.489 271.502 66.823 271.502 68.571V76H269.432V68.87C269.432 67.6127 269.117 66.6543 268.489 65.995C267.86 65.3203 267.001 64.983 265.913 64.983C264.809 64.983 263.927 65.328 263.268 66.018C262.624 66.708 262.302 67.7123 262.302 69.031V76H260.209V63.396H262.302V65.19C262.716 64.546 263.275 64.0477 263.981 63.695C264.701 63.3423 265.491 63.166 266.35 63.166ZM279.382 76.207C278.416 76.207 277.55 76.046 276.783 75.724C276.017 75.3867 275.411 74.9267 274.966 74.344C274.522 73.746 274.276 73.0637 274.23 72.297H276.392C276.454 72.9257 276.745 73.4393 277.266 73.838C277.803 74.2367 278.501 74.436 279.359 74.436C280.157 74.436 280.785 74.2597 281.245 73.907C281.705 73.5543 281.935 73.1097 281.935 72.573C281.935 72.021 281.69 71.6147 281.199 71.354C280.709 71.078 279.95 70.8097 278.922 70.549C277.987 70.3037 277.22 70.0583 276.622 69.813C276.04 69.5523 275.534 69.1767 275.104 68.686C274.69 68.18 274.483 67.5207 274.483 66.708C274.483 66.064 274.675 65.4737 275.058 64.937C275.442 64.4003 275.986 63.9787 276.691 63.672C277.397 63.35 278.202 63.189 279.106 63.189C280.502 63.189 281.629 63.5417 282.487 64.247C283.346 64.9523 283.806 65.9183 283.867 67.145H281.774C281.728 66.4857 281.46 65.9567 280.969 65.558C280.494 65.1593 279.85 64.96 279.037 64.96C278.286 64.96 277.688 65.121 277.243 65.443C276.799 65.765 276.576 66.1867 276.576 66.708C276.576 67.122 276.707 67.467 276.967 67.743C277.243 68.0037 277.581 68.2183 277.979 68.387C278.393 68.5403 278.961 68.7167 279.681 68.916C280.586 69.1613 281.322 69.4067 281.889 69.652C282.457 69.882 282.94 70.2347 283.338 70.71C283.752 71.1853 283.967 71.8063 283.982 72.573C283.982 73.263 283.791 73.884 283.407 74.436C283.024 74.988 282.48 75.425 281.774 75.747C281.084 76.0537 280.287 76.207 279.382 76.207ZM298.198 65.121H295.553V76H293.46V65.121H291.827V63.396H293.46V62.499C293.46 61.0883 293.82 60.061 294.541 59.417C295.277 58.7577 296.45 58.428 298.06 58.428V60.176C297.14 60.176 296.488 60.36 296.105 60.728C295.737 61.0807 295.553 61.671 295.553 62.499V63.396H298.198V65.121ZM306.135 76.207C304.955 76.207 303.881 75.9387 302.915 75.402C301.965 74.8653 301.213 74.1063 300.661 73.125C300.125 72.1283 299.856 70.9783 299.856 69.675C299.856 68.387 300.132 67.2523 300.684 66.271C301.252 65.2743 302.018 64.5153 302.984 63.994C303.95 63.4573 305.031 63.189 306.227 63.189C307.423 63.189 308.504 63.4573 309.47 63.994C310.436 64.5153 311.195 65.2667 311.747 66.248C312.315 67.2293 312.598 68.3717 312.598 69.675C312.598 70.9783 312.307 72.1283 311.724 73.125C311.157 74.1063 310.383 74.8653 309.401 75.402C308.42 75.9387 307.331 76.207 306.135 76.207ZM306.135 74.367C306.887 74.367 307.592 74.1907 308.251 73.838C308.911 73.4853 309.44 72.9563 309.838 72.251C310.252 71.5457 310.459 70.687 310.459 69.675C310.459 68.663 310.26 67.8043 309.861 67.099C309.463 66.3937 308.941 65.8723 308.297 65.535C307.653 65.1823 306.956 65.006 306.204 65.006C305.438 65.006 304.732 65.1823 304.088 65.535C303.46 65.8723 302.954 66.3937 302.57 67.099C302.187 67.8043 301.995 68.663 301.995 69.675C301.995 70.7023 302.179 71.5687 302.547 72.274C302.931 72.9793 303.437 73.5083 304.065 73.861C304.694 74.1983 305.384 74.367 306.135 74.367ZM317.443 65.443C317.811 64.7223 318.332 64.1627 319.007 63.764C319.697 63.3653 320.533 63.166 321.514 63.166V65.328H320.962C318.616 65.328 317.443 66.6007 317.443 69.146V76H315.35V63.396H317.443V65.443ZM335.191 65.121H332.546V76H330.453V65.121H328.82V63.396H330.453V62.499C330.453 61.0883 330.813 60.061 331.534 59.417C332.27 58.7577 333.443 58.428 335.053 58.428V60.176C334.133 60.176 333.481 60.36 333.098 60.728C332.73 61.0807 332.546 61.671 332.546 62.499V63.396H335.191V65.121ZM338.712 61.349C338.314 61.349 337.976 61.211 337.7 60.935C337.424 60.659 337.286 60.3217 337.286 59.923C337.286 59.5243 337.424 59.187 337.7 58.911C337.976 58.635 338.314 58.497 338.712 58.497C339.096 58.497 339.418 58.635 339.678 58.911C339.954 59.187 340.092 59.5243 340.092 59.923C340.092 60.3217 339.954 60.659 339.678 60.935C339.418 61.211 339.096 61.349 338.712 61.349ZM339.724 63.396V76H337.631V63.396H339.724ZM342.51 69.652C342.51 68.364 342.77 67.237 343.292 66.271C343.813 65.2897 344.526 64.5307 345.431 63.994C346.351 63.4573 347.37 63.189 348.49 63.189C349.594 63.189 350.552 63.4267 351.365 63.902C352.177 64.3773 352.783 64.9753 353.182 65.696V63.396H355.298V76H353.182V73.654C352.768 74.39 352.147 75.0033 351.319 75.494C350.506 75.9693 349.555 76.207 348.467 76.207C347.347 76.207 346.335 75.931 345.431 75.379C344.526 74.827 343.813 74.0527 343.292 73.056C342.77 72.0593 342.51 70.9247 342.51 69.652ZM353.182 69.675C353.182 68.7243 352.99 67.8963 352.607 67.191C352.223 66.4857 351.702 65.949 351.043 65.581C350.399 65.1977 349.686 65.006 348.904 65.006C348.122 65.006 347.409 65.19 346.765 65.558C346.121 65.926 345.607 66.4627 345.224 67.168C344.84 67.8733 344.649 68.7013 344.649 69.652C344.649 70.618 344.84 71.4613 345.224 72.182C345.607 72.8873 346.121 73.4317 346.765 73.815C347.409 74.183 348.122 74.367 348.904 74.367C349.686 74.367 350.399 74.183 351.043 73.815C351.702 73.4317 352.223 72.8873 352.607 72.182C352.99 71.4613 353.182 70.6257 353.182 69.675ZM361.387 65.121V72.55C361.387 73.1633 361.518 73.6003 361.778 73.861C362.039 74.1063 362.491 74.229 363.135 74.229H364.676V76H362.79C361.625 76 360.751 75.7317 360.168 75.195C359.586 74.6583 359.294 73.7767 359.294 72.55V65.121H357.661V63.396H359.294V60.222H361.387V63.396H364.676V65.121H361.387ZM369.374 73.102L366.798 79.289H365.395L367.074 73.102H369.374ZM56.969 98.189C58.0577 98.189 59.0083 98.4267 59.821 98.902C60.649 99.3773 61.2623 99.9753 61.661 100.696V98.396H63.777V111.276C63.777 112.426 63.5317 113.446 63.041 114.335C62.5503 115.24 61.845 115.945 60.925 116.451C60.0203 116.957 58.9623 117.21 57.751 117.21C56.095 117.21 54.715 116.819 53.611 116.037C52.507 115.255 51.8553 114.189 51.656 112.84H53.726C53.956 113.607 54.4313 114.22 55.152 114.68C55.8727 115.155 56.739 115.393 57.751 115.393C58.901 115.393 59.8363 115.033 60.557 114.312C61.293 113.591 61.661 112.579 61.661 111.276V108.631C61.247 109.367 60.6337 109.98 59.821 110.471C59.0083 110.962 58.0577 111.207 56.969 111.207C55.8497 111.207 54.83 110.931 53.91 110.379C53.0053 109.827 52.2923 109.053 51.771 108.056C51.2497 107.059 50.989 105.925 50.989 104.652C50.989 103.364 51.2497 102.237 51.771 101.271C52.2923 100.29 53.0053 99.5307 53.91 98.994C54.83 98.4573 55.8497 98.189 56.969 98.189ZM61.661 104.675C61.661 103.724 61.4693 102.896 61.086 102.191C60.7027 101.486 60.1813 100.949 59.522 100.581C58.878 100.198 58.165 100.006 57.383 100.006C56.601 100.006 55.888 100.19 55.244 100.558C54.6 100.926 54.0863 101.463 53.703 102.168C53.3197 102.873 53.128 103.701 53.128 104.652C53.128 105.618 53.3197 106.461 53.703 107.182C54.0863 107.887 54.6 108.432 55.244 108.815C55.888 109.183 56.601 109.367 57.383 109.367C58.165 109.367 58.878 109.183 59.522 108.815C60.1813 108.432 60.7027 107.887 61.086 107.182C61.4693 106.461 61.661 105.626 61.661 104.675ZM68.395 96.349C67.9963 96.349 67.659 96.211 67.383 95.935C67.107 95.659 66.969 95.3217 66.969 94.923C66.969 94.5243 67.107 94.187 67.383 93.911C67.659 93.635 67.9963 93.497 68.395 93.497C68.7783 93.497 69.1003 93.635 69.361 93.911C69.637 94.187 69.775 94.5243 69.775 94.923C69.775 95.3217 69.637 95.659 69.361 95.935C69.1003 96.211 68.7783 96.349 68.395 96.349ZM69.407 98.396V111H67.314V98.396H69.407ZM78.1031 100.121H75.4581V111H73.3651V100.121H71.7321V98.396H73.3651V97.499C73.3651 96.0883 73.7255 95.061 74.4461 94.417C75.1821 93.7577 76.3551 93.428 77.9651 93.428V95.176C77.0451 95.176 76.3935 95.36 76.0101 95.728C75.6421 96.0807 75.4581 96.671 75.4581 97.499V98.396H78.1031V100.121ZM83.0965 100.121V107.55C83.0965 108.163 83.2268 108.6 83.4875 108.861C83.7481 109.106 84.2005 109.229 84.8445 109.229H86.3855V111H84.4995C83.3341 111 82.4601 110.732 81.8775 110.195C81.2948 109.658 81.0035 108.777 81.0035 107.55V100.121H79.3705V98.396H81.0035V95.222H83.0965V98.396H86.3855V100.121H83.0965ZM94.2712 104.675C94.2712 103.372 94.5319 102.237 95.0532 101.271C95.5746 100.29 96.2952 99.5307 97.2152 98.994C98.1506 98.4573 99.2162 98.189 100.412 98.189C101.961 98.189 103.234 98.5647 104.23 99.316C105.242 100.067 105.909 101.11 106.231 102.444H103.977C103.763 101.677 103.341 101.072 102.712 100.627C102.099 100.182 101.332 99.96 100.412 99.96C99.2162 99.96 98.2502 100.374 97.5142 101.202C96.7782 102.015 96.4102 103.172 96.4102 104.675C96.4102 106.193 96.7782 107.366 97.5142 108.194C98.2502 109.022 99.2162 109.436 100.412 109.436C101.332 109.436 102.099 109.221 102.712 108.792C103.326 108.363 103.747 107.749 103.977 106.952H106.231C105.894 108.24 105.219 109.275 104.207 110.057C103.195 110.824 101.93 111.207 100.412 111.207C99.2162 111.207 98.1506 110.939 97.2152 110.402C96.2952 109.865 95.5746 109.106 95.0532 108.125C94.5319 107.144 94.2712 105.994 94.2712 104.675ZM108.242 104.652C108.242 103.364 108.503 102.237 109.024 101.271C109.545 100.29 110.258 99.5307 111.163 98.994C112.083 98.4573 113.103 98.189 114.222 98.189C115.326 98.189 116.284 98.4267 117.097 98.902C117.91 99.3773 118.515 99.9753 118.914 100.696V98.396H121.03V111H118.914V108.654C118.5 109.39 117.879 110.003 117.051 110.494C116.238 110.969 115.288 111.207 114.199 111.207C113.08 111.207 112.068 110.931 111.163 110.379C110.258 109.827 109.545 109.053 109.024 108.056C108.503 107.059 108.242 105.925 108.242 104.652ZM118.914 104.675C118.914 103.724 118.722 102.896 118.339 102.191C117.956 101.486 117.434 100.949 116.775 100.581C116.131 100.198 115.418 100.006 114.636 100.006C113.854 100.006 113.141 100.19 112.497 100.558C111.853 100.926 111.339 101.463 110.956 102.168C110.573 102.873 110.381 103.701 110.381 104.652C110.381 105.618 110.573 106.461 110.956 107.182C111.339 107.887 111.853 108.432 112.497 108.815C113.141 109.183 113.854 109.367 114.636 109.367C115.418 109.367 116.131 109.183 116.775 108.815C117.434 108.432 117.956 107.887 118.339 107.182C118.722 106.461 118.914 105.626 118.914 104.675ZM126.66 100.443C127.028 99.7223 127.549 99.1627 128.224 98.764C128.914 98.3653 129.75 98.166 130.731 98.166V100.328H130.179C127.833 100.328 126.66 101.601 126.66 104.146V111H124.567V98.396H126.66V100.443ZM132.365 104.652C132.365 103.364 132.626 102.237 133.147 101.271C133.668 100.29 134.381 99.5307 135.286 98.994C136.206 98.4573 137.233 98.189 138.368 98.189C139.349 98.189 140.262 98.419 141.105 98.879C141.948 99.3237 142.592 99.914 143.037 100.65V93.98H145.153V111H143.037V108.631C142.623 109.382 142.01 110.003 141.197 110.494C140.384 110.969 139.434 111.207 138.345 111.207C137.226 111.207 136.206 110.931 135.286 110.379C134.381 109.827 133.668 109.053 133.147 108.056C132.626 107.059 132.365 105.925 132.365 104.652ZM143.037 104.675C143.037 103.724 142.845 102.896 142.462 102.191C142.079 101.486 141.557 100.949 140.898 100.581C140.254 100.198 139.541 100.006 138.759 100.006C137.977 100.006 137.264 100.19 136.62 100.558C135.976 100.926 135.462 101.463 135.079 102.168C134.696 102.873 134.504 103.701 134.504 104.652C134.504 105.618 134.696 106.461 135.079 107.182C135.462 107.887 135.976 108.432 136.62 108.815C137.264 109.183 137.977 109.367 138.759 109.367C139.541 109.367 140.254 109.183 140.898 108.815C141.557 108.432 142.079 107.887 142.462 107.182C142.845 106.461 143.037 105.626 143.037 104.675ZM153.152 111.207C152.186 111.207 151.32 111.046 150.553 110.724C149.786 110.387 149.181 109.927 148.736 109.344C148.291 108.746 148.046 108.064 148 107.297H150.162C150.223 107.926 150.515 108.439 151.036 108.838C151.573 109.237 152.27 109.436 153.129 109.436C153.926 109.436 154.555 109.26 155.015 108.907C155.475 108.554 155.705 108.11 155.705 107.573C155.705 107.021 155.46 106.615 154.969 106.354C154.478 106.078 153.719 105.81 152.692 105.549C151.757 105.304 150.99 105.058 150.392 104.813C149.809 104.552 149.303 104.177 148.874 103.686C148.46 103.18 148.253 102.521 148.253 101.708C148.253 101.064 148.445 100.474 148.828 99.937C149.211 99.4003 149.756 98.9787 150.461 98.672C151.166 98.35 151.971 98.189 152.876 98.189C154.271 98.189 155.398 98.5417 156.257 99.247C157.116 99.9523 157.576 100.918 157.637 102.145H155.544C155.498 101.486 155.23 100.957 154.739 100.558C154.264 100.159 153.62 99.96 152.807 99.96C152.056 99.96 151.458 100.121 151.013 100.443C150.568 100.765 150.346 101.187 150.346 101.708C150.346 102.122 150.476 102.467 150.737 102.743C151.013 103.004 151.35 103.218 151.749 103.387C152.163 103.54 152.73 103.717 153.451 103.916C154.356 104.161 155.092 104.407 155.659 104.652C156.226 104.882 156.709 105.235 157.108 105.71C157.522 106.185 157.737 106.806 157.752 107.573C157.752 108.263 157.56 108.884 157.177 109.436C156.794 109.988 156.249 110.425 155.544 110.747C154.854 111.054 154.057 111.207 153.152 111.207ZM162.869 108.102L160.293 114.289H158.89L160.569 108.102H162.869ZM176.09 109.068L180 98.396H182.231L177.286 111H174.848L169.903 98.396H172.157L176.09 109.068ZM189.788 111.207C188.607 111.207 187.534 110.939 186.568 110.402C185.617 109.865 184.866 109.106 184.314 108.125C183.777 107.128 183.509 105.978 183.509 104.675C183.509 103.387 183.785 102.252 184.337 101.271C184.904 100.274 185.671 99.5153 186.637 98.994C187.603 98.4573 188.684 98.189 189.88 98.189C191.076 98.189 192.157 98.4573 193.123 98.994C194.089 99.5153 194.848 100.267 195.4 101.248C195.967 102.229 196.251 103.372 196.251 104.675C196.251 105.978 195.959 107.128 195.377 108.125C194.809 109.106 194.035 109.865 193.054 110.402C192.072 110.939 190.984 111.207 189.788 111.207ZM189.788 109.367C190.539 109.367 191.244 109.191 191.904 108.838C192.563 108.485 193.092 107.956 193.491 107.251C193.905 106.546 194.112 105.687 194.112 104.675C194.112 103.663 193.912 102.804 193.514 102.099C193.115 101.394 192.594 100.872 191.95 100.535C191.306 100.182 190.608 100.006 189.857 100.006C189.09 100.006 188.385 100.182 187.741 100.535C187.112 100.872 186.606 101.394 186.223 102.099C185.839 102.804 185.648 103.663 185.648 104.675C185.648 105.702 185.832 106.569 186.2 107.274C186.583 107.979 187.089 108.508 187.718 108.861C188.346 109.198 189.036 109.367 189.788 109.367ZM210.18 98.396V111H208.087V109.137C207.689 109.781 207.129 110.287 206.408 110.655C205.703 111.008 204.921 111.184 204.062 111.184C203.081 111.184 202.199 110.985 201.417 110.586C200.635 110.172 200.014 109.559 199.554 108.746C199.11 107.933 198.887 106.944 198.887 105.779V98.396H200.957V105.503C200.957 106.745 201.272 107.703 201.9 108.378C202.529 109.037 203.388 109.367 204.476 109.367C205.596 109.367 206.477 109.022 207.121 108.332C207.765 107.642 208.087 106.638 208.087 105.319V98.396H210.18ZM212.932 104.675C212.932 103.372 213.193 102.237 213.714 101.271C214.236 100.29 214.956 99.5307 215.876 98.994C216.812 98.4573 217.877 98.189 219.073 98.189C220.622 98.189 221.895 98.5647 222.891 99.316C223.903 100.067 224.57 101.11 224.892 102.444H222.638C222.424 101.677 222.002 101.072 221.373 100.627C220.76 100.182 219.993 99.96 219.073 99.96C217.877 99.96 216.911 100.374 216.175 101.202C215.439 102.015 215.071 103.172 215.071 104.675C215.071 106.193 215.439 107.366 216.175 108.194C216.911 109.022 217.877 109.436 219.073 109.436C219.993 109.436 220.76 109.221 221.373 108.792C221.987 108.363 222.408 107.749 222.638 106.952H224.892C224.555 108.24 223.88 109.275 222.868 110.057C221.856 110.824 220.591 111.207 219.073 111.207C217.877 111.207 216.812 110.939 215.876 110.402C214.956 109.865 214.236 109.106 213.714 108.125C213.193 107.144 212.932 105.994 212.932 104.675ZM233.941 98.166C234.892 98.166 235.75 98.373 236.517 98.787C237.284 99.1857 237.882 99.7913 238.311 100.604C238.756 101.417 238.978 102.406 238.978 103.571V111H236.908V103.87C236.908 102.613 236.594 101.654 235.965 100.995C235.336 100.32 234.478 99.983 233.389 99.983C232.285 99.983 231.403 100.328 230.744 101.018C230.1 101.708 229.778 102.712 229.778 104.031V111H227.685V93.98H229.778V100.19C230.192 99.546 230.759 99.0477 231.48 98.695C232.216 98.3423 233.036 98.166 233.941 98.166ZM253.897 104.215C253.897 104.614 253.874 105.035 253.828 105.48H243.754C243.831 106.722 244.252 107.696 245.019 108.401C245.801 109.091 246.744 109.436 247.848 109.436C248.753 109.436 249.504 109.229 250.102 108.815C250.715 108.386 251.145 107.818 251.39 107.113H253.644C253.307 108.324 252.632 109.313 251.62 110.08C250.608 110.831 249.351 111.207 247.848 111.207C246.652 111.207 245.579 110.939 244.628 110.402C243.693 109.865 242.957 109.106 242.42 108.125C241.883 107.128 241.615 105.978 241.615 104.675C241.615 103.372 241.876 102.229 242.397 101.248C242.918 100.267 243.647 99.5153 244.582 98.994C245.533 98.4573 246.621 98.189 247.848 98.189C249.044 98.189 250.102 98.4497 251.022 98.971C251.942 99.4923 252.647 100.213 253.138 101.133C253.644 102.038 253.897 103.065 253.897 104.215ZM251.735 103.778C251.735 102.981 251.559 102.298 251.206 101.731C250.853 101.148 250.37 100.711 249.757 100.42C249.159 100.113 248.492 99.96 247.756 99.96C246.698 99.96 245.793 100.297 245.042 100.972C244.306 101.647 243.884 102.582 243.777 103.778H251.735ZM258.753 100.443C259.121 99.7223 259.642 99.1627 260.317 98.764C261.007 98.3653 261.842 98.166 262.824 98.166V100.328H262.272C259.926 100.328 258.753 101.601 258.753 104.146V111H256.66V98.396H258.753V100.443ZM269.702 111.207C268.736 111.207 267.869 111.046 267.103 110.724C266.336 110.387 265.73 109.927 265.286 109.344C264.841 108.746 264.596 108.064 264.55 107.297H266.712C266.773 107.926 267.064 108.439 267.586 108.838C268.122 109.237 268.82 109.436 269.679 109.436C270.476 109.436 271.105 109.26 271.565 108.907C272.025 108.554 272.255 108.11 272.255 107.573C272.255 107.021 272.009 106.615 271.519 106.354C271.028 106.078 270.269 105.81 269.242 105.549C268.306 105.304 267.54 105.058 266.942 104.813C266.359 104.552 265.853 104.177 265.424 103.686C265.01 103.18 264.803 102.521 264.803 101.708C264.803 101.064 264.994 100.474 265.378 99.937C265.761 99.4003 266.305 98.9787 267.011 98.672C267.716 98.35 268.521 98.189 269.426 98.189C270.821 98.189 271.948 98.5417 272.807 99.247C273.665 99.9523 274.125 100.918 274.187 102.145H272.094C272.048 101.486 271.779 100.957 271.289 100.558C270.813 100.159 270.169 99.96 269.357 99.96C268.605 99.96 268.007 100.121 267.563 100.443C267.118 100.765 266.896 101.187 266.896 101.708C266.896 102.122 267.026 102.467 267.287 102.743C267.563 103.004 267.9 103.218 268.299 103.387C268.713 103.54 269.28 103.717 270.001 103.916C270.905 104.161 271.641 104.407 272.209 104.652C272.776 104.882 273.259 105.235 273.658 105.71C274.072 106.185 274.286 106.806 274.302 107.573C274.302 108.263 274.11 108.884 273.727 109.436C273.343 109.988 272.799 110.425 272.094 110.747C271.404 111.054 270.606 111.207 269.702 111.207ZM279.418 108.102L276.842 114.289H275.439L277.118 108.102H279.418ZM300.552 111H298.459L290.041 98.235V111H287.948V94.946H290.041L298.459 107.688V94.946H300.552V111ZM313.182 94.969V96.671H306.213V102.076H311.871V103.778H306.213V111H304.12V94.969H313.182ZM325.576 94.969V96.671H321.206V111H319.113V96.671H314.72V94.969H325.576ZM332.615 111.207C331.649 111.207 330.783 111.046 330.016 110.724C329.249 110.387 328.644 109.927 328.199 109.344C327.754 108.746 327.509 108.064 327.463 107.297H329.625C329.686 107.926 329.978 108.439 330.499 108.838C331.036 109.237 331.733 109.436 332.592 109.436C333.389 109.436 334.018 109.26 334.478 108.907C334.938 108.554 335.168 108.11 335.168 107.573C335.168 107.021 334.923 106.615 334.432 106.354C333.941 106.078 333.182 105.81 332.155 105.549C331.22 105.304 330.453 105.058 329.855 104.813C329.272 104.552 328.766 104.177 328.337 103.686C327.923 103.18 327.716 102.521 327.716 101.708C327.716 101.064 327.908 100.474 328.291 99.937C328.674 99.4003 329.219 98.9787 329.924 98.672C330.629 98.35 331.434 98.189 332.339 98.189C333.734 98.189 334.861 98.5417 335.72 99.247C336.579 99.9523 337.039 100.918 337.1 102.145H335.007C334.961 101.486 334.693 100.957 334.202 100.558C333.727 100.159 333.083 99.96 332.27 99.96C331.519 99.96 330.921 100.121 330.476 100.443C330.031 100.765 329.809 101.187 329.809 101.708C329.809 102.122 329.939 102.467 330.2 102.743C330.476 103.004 330.813 103.218 331.212 103.387C331.626 103.54 332.193 103.717 332.914 103.916C333.819 104.161 334.555 104.407 335.122 104.652C335.689 104.882 336.172 105.235 336.571 105.71C336.985 106.185 337.2 106.806 337.215 107.573C337.215 108.263 337.023 108.884 336.64 109.436C336.257 109.988 335.712 110.425 335.007 110.747C334.317 111.054 333.52 111.207 332.615 111.207ZM50.989 139.652C50.989 138.364 51.2497 137.237 51.771 136.271C52.2923 135.29 53.0053 134.531 53.91 133.994C54.83 133.457 55.8497 133.189 56.969 133.189C58.073 133.189 59.0313 133.427 59.844 133.902C60.6567 134.377 61.2623 134.975 61.661 135.696V133.396H63.777V146H61.661V143.654C61.247 144.39 60.626 145.003 59.798 145.494C58.9853 145.969 58.0347 146.207 56.946 146.207C55.8267 146.207 54.8147 145.931 53.91 145.379C53.0053 144.827 52.2923 144.053 51.771 143.056C51.2497 142.059 50.989 140.925 50.989 139.652ZM61.661 139.675C61.661 138.724 61.4693 137.896 61.086 137.191C60.7027 136.486 60.1813 135.949 59.522 135.581C58.878 135.198 58.165 135.006 57.383 135.006C56.601 135.006 55.888 135.19 55.244 135.558C54.6 135.926 54.0863 136.463 53.703 137.168C53.3197 137.873 53.128 138.701 53.128 139.652C53.128 140.618 53.3197 141.461 53.703 142.182C54.0863 142.887 54.6 143.432 55.244 143.815C55.888 144.183 56.601 144.367 57.383 144.367C58.165 144.367 58.878 144.183 59.522 143.815C60.1813 143.432 60.7027 142.887 61.086 142.182C61.4693 141.461 61.661 140.626 61.661 139.675ZM73.455 133.166C74.9883 133.166 76.2303 133.634 77.181 134.569C78.1316 135.489 78.607 136.823 78.607 138.571V146H76.537V138.87C76.537 137.613 76.2226 136.654 75.594 135.995C74.9653 135.32 74.1066 134.983 73.018 134.983C71.914 134.983 71.0323 135.328 70.373 136.018C69.729 136.708 69.407 137.712 69.407 139.031V146H67.314V133.396H69.407V135.19C69.821 134.546 70.3806 134.048 71.086 133.695C71.8066 133.342 72.5963 133.166 73.455 133.166ZM81.2439 139.652C81.2439 138.364 81.5045 137.237 82.0259 136.271C82.5472 135.29 83.2602 134.531 84.1649 133.994C85.0849 133.457 86.1122 133.189 87.2469 133.189C88.2282 133.189 89.1406 133.419 89.9839 133.879C90.8272 134.324 91.4712 134.914 91.9159 135.65V128.98H94.0319V146H91.9159V143.631C91.5019 144.382 90.8885 145.003 90.0759 145.494C89.2632 145.969 88.3125 146.207 87.2239 146.207C86.1045 146.207 85.0849 145.931 84.1649 145.379C83.2602 144.827 82.5472 144.053 82.0259 143.056C81.5045 142.059 81.2439 140.925 81.2439 139.652ZM91.9159 139.675C91.9159 138.724 91.7242 137.896 91.3409 137.191C90.9575 136.486 90.4362 135.949 89.7769 135.581C89.1329 135.198 88.4199 135.006 87.6379 135.006C86.8559 135.006 86.1429 135.19 85.4989 135.558C84.8549 135.926 84.3412 136.463 83.9579 137.168C83.5745 137.873 83.3829 138.701 83.3829 139.652C83.3829 140.618 83.5745 141.461 83.9579 142.182C84.3412 142.887 84.8549 143.432 85.4989 143.815C86.1429 144.183 86.8559 144.367 87.6379 144.367C88.4199 144.367 89.1329 144.183 89.7769 143.815C90.4362 143.432 90.9575 142.887 91.3409 142.182C91.7242 141.461 91.9159 140.626 91.9159 139.675ZM118.858 133.166C119.839 133.166 120.713 133.373 121.48 133.787C122.246 134.186 122.852 134.791 123.297 135.604C123.741 136.417 123.964 137.406 123.964 138.571V146H121.894V138.87C121.894 137.613 121.579 136.654 120.951 135.995C120.337 135.32 119.502 134.983 118.444 134.983C117.355 134.983 116.489 135.336 115.845 136.041C115.201 136.731 114.879 137.735 114.879 139.054V146H112.809V138.87C112.809 137.613 112.494 136.654 111.866 135.995C111.252 135.32 110.417 134.983 109.359 134.983C108.27 134.983 107.404 135.336 106.76 136.041C106.116 136.731 105.794 137.735 105.794 139.054V146H103.701V133.396H105.794V135.213C106.208 134.554 106.76 134.048 107.45 133.695C108.155 133.342 108.929 133.166 109.773 133.166C110.831 133.166 111.766 133.404 112.579 133.879C113.391 134.354 113.997 135.052 114.396 135.972C114.748 135.083 115.331 134.393 116.144 133.902C116.956 133.411 117.861 133.166 118.858 133.166ZM138.575 133.396V146H136.482V144.137C136.083 144.781 135.524 145.287 134.803 145.655C134.098 146.008 133.316 146.184 132.457 146.184C131.476 146.184 130.594 145.985 129.812 145.586C129.03 145.172 128.409 144.559 127.949 143.746C127.504 142.933 127.282 141.944 127.282 140.779V133.396H129.352V140.503C129.352 141.745 129.666 142.703 130.295 143.378C130.924 144.037 131.782 144.367 132.871 144.367C133.99 144.367 134.872 144.022 135.516 143.332C136.16 142.642 136.482 141.638 136.482 140.319V133.396H138.575ZM141.327 139.675C141.327 138.372 141.588 137.237 142.109 136.271C142.63 135.29 143.351 134.531 144.271 133.994C145.206 133.457 146.272 133.189 147.468 133.189C149.017 133.189 150.289 133.565 151.286 134.316C152.298 135.067 152.965 136.11 153.287 137.444H151.033C150.818 136.677 150.397 136.072 149.768 135.627C149.155 135.182 148.388 134.96 147.468 134.96C146.272 134.96 145.306 135.374 144.57 136.202C143.834 137.015 143.466 138.172 143.466 139.675C143.466 141.193 143.834 142.366 144.57 143.194C145.306 144.022 146.272 144.436 147.468 144.436C148.388 144.436 149.155 144.221 149.768 143.792C150.381 143.363 150.803 142.749 151.033 141.952H153.287C152.95 143.24 152.275 144.275 151.263 145.057C150.251 145.824 148.986 146.207 147.468 146.207C146.272 146.207 145.206 145.939 144.271 145.402C143.351 144.865 142.63 144.106 142.109 143.125C141.588 142.144 141.327 140.994 141.327 139.675ZM162.336 133.166C163.286 133.166 164.145 133.373 164.912 133.787C165.678 134.186 166.276 134.791 166.706 135.604C167.15 136.417 167.373 137.406 167.373 138.571V146H165.303V138.87C165.303 137.613 164.988 136.654 164.36 135.995C163.731 135.32 162.872 134.983 161.784 134.983C160.68 134.983 159.798 135.328 159.139 136.018C158.495 136.708 158.173 137.712 158.173 139.031V146H156.08V128.98H158.173V135.19C158.587 134.546 159.154 134.048 159.875 133.695C160.611 133.342 161.431 133.166 162.336 133.166ZM192.08 133.166C193.062 133.166 193.936 133.373 194.702 133.787C195.469 134.186 196.075 134.791 196.519 135.604C196.964 136.417 197.186 137.406 197.186 138.571V146H195.116V138.87C195.116 137.613 194.802 136.654 194.173 135.995C193.56 135.32 192.724 134.983 191.666 134.983C190.578 134.983 189.711 135.336 189.067 136.041C188.423 136.731 188.101 137.735 188.101 139.054V146H186.031V138.87C186.031 137.613 185.717 136.654 185.088 135.995C184.475 135.32 183.639 134.983 182.581 134.983C181.493 134.983 180.626 135.336 179.982 136.041C179.338 136.731 179.016 137.735 179.016 139.054V146H176.923V133.396H179.016V135.213C179.43 134.554 179.982 134.048 180.672 133.695C181.378 133.342 182.152 133.166 182.995 133.166C184.053 133.166 184.989 133.404 185.801 133.879C186.614 134.354 187.22 135.052 187.618 135.972C187.971 135.083 188.554 134.393 189.366 133.902C190.179 133.411 191.084 133.166 192.08 133.166ZM206.117 146.207C204.936 146.207 203.863 145.939 202.897 145.402C201.946 144.865 201.195 144.106 200.643 143.125C200.106 142.128 199.838 140.978 199.838 139.675C199.838 138.387 200.114 137.252 200.666 136.271C201.233 135.274 202 134.515 202.966 133.994C203.932 133.457 205.013 133.189 206.209 133.189C207.405 133.189 208.486 133.457 209.452 133.994C210.418 134.515 211.177 135.267 211.729 136.248C212.296 137.229 212.58 138.372 212.58 139.675C212.58 140.978 212.288 142.128 211.706 143.125C211.138 144.106 210.364 144.865 209.383 145.402C208.401 145.939 207.313 146.207 206.117 146.207ZM206.117 144.367C206.868 144.367 207.573 144.191 208.233 143.838C208.892 143.485 209.421 142.956 209.82 142.251C210.234 141.546 210.441 140.687 210.441 139.675C210.441 138.663 210.241 137.804 209.843 137.099C209.444 136.394 208.923 135.872 208.279 135.535C207.635 135.182 206.937 135.006 206.186 135.006C205.419 135.006 204.714 135.182 204.07 135.535C203.441 135.872 202.935 136.394 202.552 137.099C202.168 137.804 201.977 138.663 201.977 139.675C201.977 140.702 202.161 141.569 202.529 142.274C202.912 142.979 203.418 143.508 204.047 143.861C204.675 144.198 205.365 144.367 206.117 144.367ZM217.425 135.443C217.793 134.722 218.314 134.163 218.989 133.764C219.679 133.365 220.514 133.166 221.496 133.166V135.328H220.944C218.598 135.328 217.425 136.601 217.425 139.146V146H215.332V133.396H217.425V135.443ZM235.412 139.215C235.412 139.614 235.389 140.035 235.343 140.48H225.269C225.345 141.722 225.767 142.696 226.534 143.401C227.316 144.091 228.259 144.436 229.363 144.436C230.267 144.436 231.019 144.229 231.617 143.815C232.23 143.386 232.659 142.818 232.905 142.113H235.159C234.821 143.324 234.147 144.313 233.135 145.08C232.123 145.831 230.865 146.207 229.363 146.207C228.167 146.207 227.093 145.939 226.143 145.402C225.207 144.865 224.471 144.106 223.935 143.125C223.398 142.128 223.13 140.978 223.13 139.675C223.13 138.372 223.39 137.229 223.912 136.248C224.433 135.267 225.161 134.515 226.097 133.994C227.047 133.457 228.136 133.189 229.363 133.189C230.559 133.189 231.617 133.45 232.537 133.971C233.457 134.492 234.162 135.213 234.653 136.133C235.159 137.038 235.412 138.065 235.412 139.215ZM233.25 138.778C233.25 137.981 233.073 137.298 232.721 136.731C232.368 136.148 231.885 135.711 231.272 135.42C230.674 135.113 230.007 134.96 229.271 134.96C228.213 134.96 227.308 135.297 226.557 135.972C225.821 136.647 225.399 137.582 225.292 138.778H233.25ZM240.888 129.969L240.635 141.469H238.887L238.634 129.969H240.888ZM239.853 146.138C239.455 146.138 239.117 146 238.841 145.724C238.565 145.448 238.427 145.111 238.427 144.712C238.427 144.313 238.565 143.976 238.841 143.7C239.117 143.424 239.455 143.286 239.853 143.286C240.237 143.286 240.559 143.424 240.819 143.7C241.095 143.976 241.233 144.313 241.233 144.712C241.233 145.111 241.095 145.448 240.819 145.724C240.559 146 240.237 146.138 239.853 146.138Z" fill="black"/>
    </g>
    <defs>
    <filter id="filter0_d_0_951" x="0" y="0" width="446" height="225" filterUnits="userSpaceOnUse" color-interpolation-filters="sRGB">
    <feFlood flood-opacity="0" result="BackgroundImageFix"/>
    <feColorMatrix in="SourceAlpha" type="matrix" values="0 0 0 0 0 0 0 0 0 0 0 0 0 0 0 0 0 0 127 0" result="hardAlpha"/>
    <feOffset dx="20" dy="20"/>
    <feComposite in2="hardAlpha" operator="out"/>
    <feColorMatrix type="matrix" values="0 0 0 0 0 0 0 0 0 0 0 0 0 0 0 0 0 0 0.26 0"/>
    <feBlend mode="normal" in2="BackgroundImageFix" result="effect1_dropShadow_0_951"/>
    <feBlend mode="normal" in="SourceGraphic" in2="effect1_dropShadow_0_951" result="shape"/>
    </filter>
    </defs>
    </svg>
    