<svg width="135" height="136" viewBox="0 0 135 136" fill="none" xmlns="http://www.w3.org/2000/svg">
    <g filter="url(#filter0_d_0_953)">
    <rect y="0.109863" width="130" height="130" rx="65" fill="#6BFFA6" shape-rendering="crispEdges"/>
    <rect x="5" y="5.10986" width="120" height="120" rx="60" stroke="black" stroke-width="10" shape-rendering="crispEdges"/>
    <g clip-path="url(#clip0_0_953)">
    <path d="M97.691 39.615L94.5384 47.4099L84.9573 71.1L81.6417 79.3C80.8609 81.23 78.6741 82.1708 76.7352 81.412L58.0089 74.075C56.007 73.2898 55.0559 71.0016 55.9101 69.0291L61.7927 55.4412L69.6052 37.3988L72.5993 30.483C73.3874 28.6646 75.4407 27.7575 77.3164 28.3989L95.4014 34.5984C97.462 35.3059 98.507 37.5955 97.691 39.615Z" fill="#4C9601"/>
    <g opacity="0.56">
    <path d="M97.9328 37.6747C97.4887 37.0002 96.8256 36.4627 95.9993 36.1792L77.9129 29.9787C76.0375 29.3368 73.9842 30.2429 73.1963 32.0629L56.506 70.6095C56.2192 71.2729 56.1359 71.9706 56.2295 72.6361C55.5456 71.6034 55.3782 70.2555 55.9098 69.0291L72.6002 30.4824C73.3874 28.664 75.4413 27.7566 77.3161 28.3998L95.4031 34.5987C96.8112 35.081 97.7441 36.3036 97.9328 37.6747Z" fill="white"/>
    </g>
    <path d="M78.1081 82.2591C77.5786 82.2591 77.0414 82.1626 76.5215 81.9588L57.7949 74.621C56.6771 74.183 55.8077 73.3314 55.3465 72.223C54.8854 71.1149 54.8939 69.8979 55.3709 68.7963L72.0612 30.2497C72.9644 28.1638 75.3565 27.1067 77.5066 27.8441L95.5922 34.0437C96.7425 34.4379 97.6543 35.2645 98.1591 36.3711C98.664 37.4775 98.691 38.708 98.2352 39.8355L82.1857 79.5201C81.4985 81.2194 79.845 82.2591 78.1078 82.2591H78.1081ZM56.4482 69.263C56.0989 70.0696 56.0927 70.9608 56.4303 71.7722C56.7681 72.5838 57.4048 73.2073 58.2229 73.5278L76.9495 80.8657C78.5804 81.5047 80.4409 80.7037 81.0972 79.0801L97.147 39.3952C97.4808 38.5697 97.4611 37.6686 97.0915 36.8584C96.7217 36.0482 96.0542 35.4429 95.212 35.1541L77.1262 28.9549C75.5517 28.4153 73.8004 29.1888 73.1391 30.7161L56.4485 69.2627L56.4482 69.263Z" fill="#2D2D2D"/>
    <path d="M93.7907 41.0395L79.6477 76.0097C79.3363 75.8517 78.9914 75.7643 78.6288 75.7648C77.4606 75.7666 76.4816 76.6725 76.2092 77.8953L61.072 71.9641C61.2769 71.5543 61.3934 71.08 61.3925 70.5765C61.3905 69.3584 60.7051 68.3204 59.7458 67.9256L74.6267 33.5575C75.0001 33.8402 75.4642 34.0066 75.9673 34.006C77.1371 34.0043 78.0925 33.0999 78.1774 31.9536L92.5687 36.8865C92.3227 37.3257 92.1798 37.8455 92.1806 38.4032C92.1827 39.6082 92.8505 40.6359 93.7907 41.0395Z" fill="#7FB100"/>
    <path d="M76.2089 78.4094C76.1455 78.4094 76.0818 78.3976 76.0213 78.3739L60.8841 72.4426C60.7497 72.3901 60.644 72.2832 60.5921 72.1488C60.5401 72.014 60.5474 71.8638 60.612 71.7349C60.787 71.3847 60.8791 70.9846 60.8786 70.5778C60.8771 69.602 60.3431 68.7273 59.5503 68.4009C59.4226 68.3483 59.3219 68.2471 59.27 68.1194C59.218 67.9917 59.2198 67.8484 59.2744 67.7219L74.1553 33.3535C74.2178 33.2088 74.3438 33.1008 74.4961 33.0609C74.6488 33.0207 74.8111 33.053 74.9367 33.1484C75.2341 33.3735 75.5892 33.4927 75.9638 33.4927H75.9664C76.8535 33.4912 77.5997 32.7987 77.6649 31.9161C77.6766 31.7573 77.7614 31.6129 77.8941 31.5251C78.0271 31.4373 78.1935 31.4162 78.3435 31.4678L92.7348 36.4008C92.879 36.4501 92.9937 36.561 93.048 36.7034C93.1024 36.8458 93.0909 37.0049 93.0166 37.1378C92.805 37.5159 92.6935 37.9536 92.694 38.403C92.6955 39.3652 93.2177 40.2353 93.9929 40.5678C94.2498 40.6782 94.3713 40.9735 94.2665 41.2324L80.1235 76.2028C80.0695 76.3361 79.9621 76.4409 79.8274 76.4911C79.6929 76.5416 79.5429 76.5337 79.4146 76.4682C79.1672 76.3426 78.9036 76.2789 78.6318 76.2789H78.6291C77.7256 76.2803 76.9363 76.991 76.71 78.0075C76.6774 78.154 76.5823 78.2787 76.4499 78.3495C76.3748 78.3894 76.2917 78.4097 76.2086 78.4097L76.2089 78.4094ZM61.7401 71.6747L75.8837 77.2167C76.361 76.0373 77.4242 75.2535 78.6277 75.2515C78.8819 75.2506 79.1229 75.2841 79.3606 75.3498L93.1423 41.2729C92.2346 40.6814 91.669 39.6059 91.6672 38.4045C91.6667 37.987 91.7362 37.5761 91.871 37.1907L78.5643 32.6294C78.2061 33.7269 77.1679 34.518 75.9685 34.5201H75.9641C75.5813 34.5201 75.2109 34.4423 74.8689 34.2923L60.4063 67.6946C61.3183 68.2843 61.9045 69.3819 61.9065 70.576C61.9071 70.9508 61.8505 71.3228 61.7407 71.6747H61.7401Z" fill="#2D2D2D"/>
    <path d="M77.5078 60.354C80.9645 60.3485 83.7621 57.4246 83.7564 53.8232C83.7507 50.2218 80.944 47.3066 77.4873 47.3121C74.0307 47.3175 71.2331 50.2414 71.2388 53.8429C71.2444 57.4443 74.0512 60.3594 77.5078 60.354Z" fill="#4B9500"/>
    <path d="M83.7357 41.0964C83.7534 40.1761 83.0217 39.4157 82.1013 39.398C81.181 39.3804 80.4206 40.1121 80.4029 41.0324C80.3853 41.9528 81.117 42.7132 82.0373 42.7308C82.9577 42.7485 83.7181 42.0168 83.7357 41.0964Z" fill="#4B9500"/>
    <g opacity="0.22">
    <path d="M94.5383 47.4099L84.9572 71.1C84.0663 70.7477 83.1065 70.3265 82.0703 69.829C66.5157 62.3628 66.8606 68.8647 62.7114 57.8129C62.3988 56.9778 62.092 56.1897 61.7926 55.4412L69.6052 37.3988L70.2691 36.9723C70.2691 36.9723 73.3625 61.3457 94.1934 47.6345C94.3094 47.5582 94.4253 47.4833 94.5383 47.4099Z" fill="#2F5107"/>
    </g>
    <path d="M71.4754 70.1156C72.5486 70.1139 73.4171 69.1546 73.4153 67.973C73.4134 66.7913 72.5419 65.8347 71.4687 65.8364C70.3955 65.8381 69.527 66.7974 69.5288 67.9791C69.5307 69.1607 70.4022 70.1173 71.4754 70.1156Z" fill="#4B9500"/>
    <path d="M69.9882 82.9971L49.9322 84.5059C47.7879 84.6673 45.9386 83.0191 45.852 80.8704L45.7287 77.7985L45.0389 60.5267L44.1759 38.8988C44.0966 36.9189 45.5541 35.2105 47.5222 34.9771L66.5083 32.7198C68.6702 32.4629 70.6061 34.0745 70.7456 36.2481L71.0963 41.7094L72.6506 65.8676L73.4931 78.9668C73.6266 81.0436 72.0635 82.8415 69.9882 82.9971Z" fill="#4C9601"/>
    <g opacity="0.56">
    <path d="M70.1218 34.3945C69.429 33.9791 68.5983 33.7824 67.7309 33.8852L48.7448 36.141C46.7767 36.3759 45.3192 38.0828 45.3985 40.0642L47.0746 82.0358C47.104 82.7579 47.3314 83.4228 47.7042 83.9819C46.6402 83.3479 45.9048 82.206 45.852 80.8704L44.1759 38.8988C44.0966 36.9189 45.5541 35.2105 47.5222 34.9771L66.5083 32.7198C67.9863 32.5437 69.3571 33.2409 70.1218 34.3945Z" fill="white"/>
    </g>
    <path d="M67.8489 39.2226L70.2692 76.8669C69.9201 76.8596 69.5711 76.9303 69.2447 77.0879C68.1927 77.5963 67.7033 78.8368 67.9884 80.0571L51.7765 81.2764C51.7833 80.8182 51.6829 80.3403 51.4639 79.8871C50.9338 78.7902 49.8659 78.1523 48.8306 78.2125L47.3362 40.7907C47.795 40.8835 48.2855 40.8324 48.7387 40.6134C49.7919 40.1044 50.2607 38.8754 49.84 37.8057L64.947 36.0101C64.9159 36.5127 65.0125 37.0428 65.2552 37.545C65.7795 38.63 66.8271 39.2664 67.8492 39.2223L67.8489 39.2226Z" fill="#7FB100"/>
    <path d="M51.7765 81.7904C51.6462 81.7904 51.52 81.7408 51.4243 81.6507C51.3195 81.5518 51.2608 81.4132 51.2628 81.2691C51.2687 80.8775 51.178 80.4771 51.0013 80.1108C50.5768 79.2325 49.717 78.678 48.8602 78.7256C48.7222 78.7332 48.5875 78.686 48.4854 78.5932C48.3832 78.5007 48.3224 78.371 48.3172 78.233L46.8228 40.8113C46.8166 40.6536 46.8829 40.5019 47.003 40.3997C47.123 40.2976 47.2836 40.2562 47.4377 40.2873C47.8041 40.3613 48.1768 40.3143 48.515 40.1508C49.3137 39.7648 49.6856 38.8172 49.3616 37.9936C49.3032 37.8453 49.3169 37.6786 49.3986 37.5418C49.4802 37.405 49.6208 37.314 49.7787 37.2952L64.8857 35.4997C65.0368 35.4818 65.1883 35.5317 65.299 35.6365C65.4096 35.741 65.4683 35.8895 65.4589 36.0415C65.4322 36.4745 65.5215 36.9169 65.717 37.3214C66.1355 38.1876 66.9827 38.7442 67.8263 38.7092C68.1067 38.6945 68.343 38.9106 68.3611 39.1895L70.7814 76.8337C70.7905 76.9773 70.7391 77.1182 70.6399 77.2221C70.5404 77.326 70.4004 77.3853 70.258 77.3803C69.9771 77.3747 69.7135 77.4317 69.4681 77.5505C68.6547 77.9436 68.2517 78.9264 68.4883 79.9405C68.5223 80.0867 68.4909 80.2402 68.4022 80.3615C68.3136 80.4824 68.1762 80.5584 68.0268 80.5696L51.815 81.7889C51.802 81.7898 51.7891 81.7904 51.7765 81.7904ZM49.3246 77.7179C50.4025 77.8538 51.4064 78.5885 51.9262 79.6637C52.0894 80.001 52.1995 80.3609 52.2529 80.7255L67.4007 79.5859C67.3194 78.3161 67.9376 77.1487 69.0213 76.6253C69.2465 76.5164 69.4813 76.4401 69.7243 76.3964L67.3658 39.7137C66.2911 39.5743 65.3151 38.8501 64.7923 37.7684C64.6109 37.3927 64.4952 36.992 64.4497 36.5864L50.4814 38.2466C50.6346 39.3908 50.042 40.5541 48.9621 41.0757C48.616 41.243 48.247 41.3343 47.8724 41.3473L49.3249 77.7176L49.3246 77.7179Z" fill="#2D2D2D"/>
    <path d="M61.5517 63.6857C64.6641 62.1818 65.917 58.3339 64.3501 55.0912C62.7832 51.8485 58.9899 50.4389 55.8775 51.9428C52.7652 53.4467 51.5123 57.2946 53.0792 60.5373C54.6461 63.78 58.4394 65.1896 61.5517 63.6857Z" fill="#4B9500"/>
    <path d="M58.4774 45.5063C59.1283 44.8554 59.1283 43.8001 58.4774 43.1492C57.8265 42.4983 56.7712 42.4983 56.1203 43.1492C55.4694 43.8001 55.4694 44.8554 56.1203 45.5063C56.7712 46.1572 57.8265 46.1572 58.4774 45.5063Z" fill="#4B9500"/>
    <path d="M60.3491 75.0981C61.3154 74.6312 61.682 73.3901 61.1679 72.3262C60.6538 71.2622 59.4537 70.7782 58.4873 71.2451C57.521 71.7121 57.1544 72.9531 57.6686 74.0171C58.1827 75.081 59.3828 75.565 60.3491 75.0981Z" fill="#4B9500"/>
    <g opacity="0.22">
    <path d="M72.6506 65.8677C70.3097 69.9949 68.7187 67.7742 57.3558 75.7878C49.5022 81.3269 46.8427 80.1924 45.7287 77.7986L45.0389 60.5268C45.1871 59.8927 45.284 59.5111 45.284 59.5111C52.0692 66.5839 69.7417 56.9808 71.0963 41.7095L72.6506 65.8677Z" fill="#2F5107"/>
    </g>
    <path d="M49.6381 85.1041C48.5631 85.1041 47.5413 84.7158 46.7297 83.9925C45.8335 83.1938 45.3134 82.0933 45.2655 80.8939L43.5897 38.9226C43.499 36.6512 45.1963 34.6619 47.4536 34.3936L66.4388 32.1371C67.6467 31.9936 68.8264 32.3432 69.761 33.1211C70.696 33.8992 71.2537 34.9959 71.3318 36.2097L74.0787 78.9287C74.2322 81.3154 72.4167 83.4031 70.032 83.5824L49.9756 85.0912C49.8626 85.0997 49.7499 85.1038 49.6381 85.1038V85.1041ZM46.4388 80.8472C46.474 81.7255 46.8545 82.5313 47.5108 83.116C48.1669 83.7007 49.009 83.9857 49.8876 83.9206L69.9439 82.4118C71.6902 82.2803 73.0193 80.7518 72.9069 79.0044L70.16 36.2854C70.103 35.3966 69.6944 34.5935 69.0102 34.0237C68.3256 33.4539 67.462 33.198 66.5773 33.3034L47.5921 35.5598C45.9395 35.7562 44.6966 37.213 44.7633 38.8759L46.4391 80.8472H46.4388Z" fill="#2D2D2D"/>
    <path d="M89.1904 87.8108C82.6577 90.4765 61.4498 98.0345 51.2728 101.641C48.0985 102.766 44.5898 101.314 43.1377 98.2769C40.7844 93.3596 37.3189 85.9196 34.8843 79.843C34.8828 79.8386 34.8813 79.8342 34.8784 79.8298C34.5572 79.0246 34.252 78.2441 33.9705 77.4976C33.9675 77.4874 33.9661 77.483 33.9661 77.483C32.9061 74.6594 32.1758 72.3079 32.046 70.9183C31.4548 64.5728 44.7988 55.4353 44.7988 55.4353L44.9209 58.3939L45.2661 66.6813C45.2661 66.6813 45.9997 66.416 47.2566 65.9589L47.3168 65.9369C54.1785 63.4498 76.1678 55.4767 80.8677 53.7797C86.4534 51.7613 89.1716 58.0739 89.1716 58.0739C89.1716 58.0739 90.6727 62.4159 92.3022 67.016C92.3022 67.0169 92.3022 67.0179 92.3022 67.0189C93.8224 71.3125 95.4516 75.8289 96.0733 77.247C97.3593 80.1862 97.8973 84.2611 89.1907 87.8108H89.1904Z" fill="#B74829"/>
    <g opacity="0.56">
    <path d="M32.8494 72.1394C32.9795 73.529 33.7098 75.8806 34.7695 78.7041C34.7695 78.7041 34.7709 78.7085 34.7739 78.7188C35.0554 79.4653 35.3604 80.2458 35.6818 81.0509C35.6847 81.0554 35.6862 81.0598 35.6877 81.0642C38.1223 87.141 41.5878 94.5807 43.9411 99.4981C43.966 99.5495 43.9913 99.5994 44.0177 99.6493C43.6751 99.2389 43.3778 98.7786 43.1377 98.277C40.7844 93.3596 37.3189 85.9196 34.8843 79.843C34.8828 79.8386 34.8813 79.8342 34.8784 79.8298C34.5572 79.0247 34.252 78.2441 33.9705 77.4977C33.9675 77.4874 33.9661 77.483 33.9661 77.483C32.9061 74.6594 32.1758 72.3079 32.046 70.9183C31.4548 64.5729 44.7988 55.4353 44.7988 55.4353L44.8707 57.1775C42.0883 59.1985 32.3419 66.6966 32.8497 72.1397L32.8494 72.1394Z" fill="white"/>
    </g>
    <g opacity="0.56">
    <path d="M88.8504 57.4434C87.5709 55.7635 85.1897 53.7301 81.6708 55.0012C76.9709 56.6981 54.9817 64.6712 48.1199 67.1583L48.0597 67.1804C46.8421 67.6227 46.1162 67.8866 46.0707 67.9013L46.0692 67.9028C46.0692 67.9028 39.4549 70.962 37.5085 69.0217C37.5085 69.0217 40.359 69.1344 42.8124 67.908C45.2658 66.6813 46.0067 66.4131 46.0067 66.4131C46.3279 66.2951 46.7505 66.1433 47.2563 65.9589L47.3165 65.9369C54.1782 63.4498 76.1675 55.4767 80.8674 53.7797C85.3456 52.1609 87.9804 55.8979 88.8502 57.4434H88.8504Z" fill="white"/>
    </g>
    <g style="mix-blend-mode:color-burn" opacity="0.2">
    <path d="M47.2566 65.9841L39.8597 68.8039C39.8597 68.8039 33.9558 70.5616 38.7601 64.0767C40.9097 61.1754 43.2718 59.4858 44.9212 58.4191L45.2664 66.7065C45.2664 66.7065 45.9999 66.4412 47.2569 65.9841H47.2566Z" fill="#640002"/>
    </g>
    <g style="mix-blend-mode:color-burn" opacity="0.2">
    <path d="M89.1898 87.3311C82.6571 89.9967 61.4492 97.5548 51.2722 101.161C48.0979 102.286 44.5892 100.834 43.1371 97.7972C40.7838 92.8799 37.3183 85.4398 34.8837 79.3633C37.2205 84.9059 43.9229 98.138 53.9701 95.9993C66.6217 93.3076 96.5793 81.8974 92.301 66.5392C93.8212 70.8328 95.4504 75.3492 96.0721 76.7672C97.3581 79.7064 97.8961 83.7814 89.1895 87.3311H89.1898Z" fill="#640002"/>
    </g>
    <path d="M49.0654 102.61C46.3757 102.61 43.8313 101.088 42.6081 98.5308C38.6301 90.2146 31.8922 75.5761 31.4622 70.9726C30.8446 64.3594 43.9108 55.3313 44.4674 54.95C44.6435 54.8294 44.8713 54.8138 45.0621 54.9095C45.2529 55.0052 45.3768 55.1969 45.3856 55.41L45.8197 65.8556C50.5119 64.1542 75.6409 55.0431 80.6683 53.2273C86.7053 51.0474 89.6814 57.7742 89.7108 57.8423C89.7167 57.8555 89.7217 57.869 89.7264 57.8825C89.7824 58.0445 95.3491 74.1287 96.611 77.0121C97.1787 78.3093 97.8336 80.2798 96.9709 82.4056C96.033 84.7169 93.5606 86.6631 89.4126 88.355C83.0078 90.9675 62.8905 98.1472 51.4689 102.194C50.6754 102.475 49.8641 102.61 49.0654 102.61V102.61ZM44.2578 56.544C43.0578 57.4234 40.797 59.1535 38.5937 61.2335C34.4683 65.1279 32.4068 68.4578 32.6313 70.8637C32.9331 74.0935 36.9554 83.9933 43.6672 98.0242C44.994 100.798 48.1789 102.115 51.0767 101.088C60.2642 97.8325 82.348 89.9692 88.969 87.2681C92.7551 85.7237 95.0814 83.9393 95.8828 81.9644C96.4196 80.6417 96.3125 79.2594 95.5352 77.4832C94.2668 74.5845 88.9464 59.2193 88.6244 58.289C88.4398 57.8731 85.9705 52.5615 81.0673 54.3321C75.5455 56.3267 45.7669 67.1243 45.4666 67.2332C45.2911 67.2969 45.095 67.2731 44.9397 67.1689C44.7841 67.0647 44.6878 66.8927 44.6802 66.7057L44.2581 56.5445L44.2578 56.544Z" fill="#2D2D2D"/>
    <path d="M45.5324 67.2042C43.5985 68.1121 39.27 70.0016 37.2176 69.2977C36.2222 68.9322 36.2498 67.8655 36.6346 67.0627C36.9731 66.3003 37.4689 65.6287 37.9714 64.9841C38.0862 64.8385 38.2969 64.8136 38.4425 64.9281C38.5843 65.0399 38.6119 65.243 38.5068 65.388C38.0216 66.0955 37.0426 67.3903 37.2103 68.2489C37.3059 68.4822 37.5111 68.5233 37.8091 68.5694C39.287 68.6372 40.787 68.0164 42.1778 67.4851C43.1397 67.0903 44.0849 66.6447 45.0016 66.1568C45.7079 65.8087 46.236 66.8349 45.5324 67.2042Z" fill="#640002"/>
    <path d="M89.1906 88.3254C88.984 88.3254 88.7894 88.1998 88.711 87.9955C88.6094 87.7307 88.7418 87.4333 89.0066 87.3321C91.2739 86.4626 92.7372 85.2477 93.3565 83.7213C94.1109 81.8614 93.3301 80.1351 93.3219 80.1178C93.3155 80.104 93.309 80.0881 93.3037 80.0737C93.2535 79.9331 88.2411 65.9619 86.1616 60.473C85.6148 59.0291 84.7823 58.0944 83.688 57.6949C81.6772 56.9611 79.3721 58.2251 79.3492 58.238C79.3251 58.2515 79.2993 58.2632 79.2734 58.2726L40.2874 72.4068C38.0879 73.2178 35.0108 73.202 33.3892 71.6016C32.5694 70.7923 31.7944 69.2554 32.759 66.5296C32.8538 66.2622 33.1471 66.1221 33.4148 66.2167C33.6822 66.3115 33.8222 66.605 33.7277 66.8724C33.0978 68.6524 33.2266 69.9974 34.1111 70.8707C35.4135 72.1561 38.0838 72.1244 39.9346 71.4422L78.8866 57.3204C79.2414 57.1299 81.7101 55.8835 84.0338 56.7277C85.4248 57.2329 86.464 58.3707 87.1227 60.1096C89.1689 65.5113 94.0464 79.1015 94.2639 79.7077C94.3786 79.9645 95.1879 81.9192 94.3155 84.0914C93.5887 85.9002 91.9264 87.3133 89.3744 88.2919C89.3139 88.3151 89.2517 88.3263 89.1906 88.3263V88.3254Z" fill="#2D2D2D"/>
    <path d="M46.2389 98.8103C46.2154 98.8103 46.1919 98.8088 46.1681 98.8053C45.5191 98.7158 44.9059 98.5546 44.3453 98.326C44.0826 98.2188 43.9563 97.9191 44.0635 97.6564C44.1706 97.3934 44.4706 97.2678 44.733 97.3746C45.2144 97.571 45.7446 97.7098 46.3087 97.7879C46.59 97.8267 46.786 98.0859 46.7473 98.3671C46.7118 98.6242 46.4916 98.8106 46.2392 98.8106L46.2389 98.8103ZM48.8705 98.771C48.6254 98.771 48.4084 98.5948 48.365 98.3453C48.3163 98.0659 48.5035 97.7999 48.783 97.7512C48.8338 97.7424 48.8713 97.7351 48.8948 97.7304L50.3669 97.2096C50.6343 97.1151 50.9279 97.2551 51.0224 97.5226C51.1169 97.79 50.9769 98.0835 50.7095 98.178L49.2051 98.7102C49.1863 98.7167 49.1658 98.7225 49.1464 98.7272C49.1464 98.7272 49.0803 98.7422 48.9591 98.7633C48.9292 98.7686 48.8995 98.771 48.8705 98.771ZM53.0287 97.3265C52.8171 97.3265 52.6189 97.1947 52.5444 96.9839C52.4499 96.7165 52.5899 96.423 52.8573 96.3284L54.5176 95.7411C54.7847 95.6465 55.0785 95.7866 55.173 96.054C55.2675 96.3214 55.1275 96.6149 54.8601 96.7095L53.1999 97.2968C53.1432 97.3168 53.0854 97.3265 53.0284 97.3265H53.0287ZM42.4044 96.8504C42.2609 96.8504 42.1182 96.7905 42.0166 96.6739C41.8126 96.4394 41.6221 96.184 41.451 95.9148C41.2986 95.6756 41.3694 95.358 41.6086 95.2057C41.8475 95.0536 42.1652 95.1235 42.3178 95.3633C42.4616 95.5893 42.621 95.8033 42.7919 95.9994C42.978 96.2134 42.9557 96.5377 42.7417 96.7241C42.6442 96.8087 42.5242 96.8504 42.4047 96.8504H42.4044ZM57.1797 95.8582C56.968 95.8582 56.7699 95.7264 56.6953 95.5156C56.6008 95.2482 56.7408 94.9547 57.0082 94.8602L58.6688 94.2728C58.9359 94.1783 59.2297 94.3183 59.3243 94.5857C59.4188 94.8531 59.2788 95.1467 59.0113 95.2412L57.3508 95.8285C57.2941 95.8485 57.2363 95.8582 57.1794 95.8582H57.1797ZM61.3309 94.3899C61.1192 94.3899 60.9211 94.2581 60.8465 94.0474C60.752 93.7799 60.892 93.4864 61.1595 93.3919L62.8197 92.8048C63.0868 92.7103 63.3807 92.8503 63.4752 93.1177C63.5697 93.3851 63.4297 93.6787 63.1623 93.7732L61.502 94.3603C61.4454 94.3802 61.3875 94.3899 61.3306 94.3899H61.3309ZM65.4818 92.9216C65.2702 92.9216 65.072 92.7898 64.9975 92.5791C64.903 92.3117 65.043 92.0181 65.3104 91.9236L66.9709 91.3362C67.2381 91.2417 67.5319 91.3817 67.6264 91.6491C67.7209 91.9165 67.5809 92.2101 67.3135 92.3046L65.6529 92.892C65.5963 92.9119 65.5385 92.9216 65.4818 92.9216ZM69.6327 91.4533C69.4211 91.4533 69.223 91.3216 69.1484 91.1108C69.0539 90.8434 69.1939 90.5498 69.4613 90.4553L71.1219 89.8679C71.389 89.7734 71.6828 89.9134 71.7773 90.1809C71.8719 90.4483 71.7318 90.7418 71.4644 90.8363L69.8039 91.4237C69.7472 91.4437 69.6894 91.4533 69.6324 91.4533H69.6327ZM73.784 89.9851C73.5723 89.9851 73.3742 89.8533 73.2996 89.6425C73.2051 89.3751 73.3451 89.0816 73.6125 88.987L75.2728 88.3997C75.5399 88.3051 75.8337 88.4452 75.9283 88.7126C76.0228 88.98 75.8828 89.2735 75.6154 89.368L73.9551 89.9554C73.8984 89.9754 73.8406 89.9851 73.7837 89.9851H73.784ZM77.9349 88.5168C77.7233 88.5168 77.5251 88.385 77.4506 88.1742C77.356 87.9068 77.4961 87.6133 77.7635 87.5188L79.424 86.9314C79.6917 86.8369 79.985 86.9772 80.0795 87.2443C80.174 87.5117 80.034 87.8052 79.7666 87.8998L78.106 88.4871C78.0494 88.5071 77.9916 88.5168 77.9349 88.5168ZM82.0861 87.0485C81.8745 87.0485 81.6763 86.9167 81.6018 86.7059C81.5073 86.4385 81.6473 86.145 81.9147 86.0505L83.5749 85.4631C83.8421 85.3686 84.1359 85.5086 84.2304 85.776C84.3249 86.0434 84.1849 86.337 83.9175 86.4315L82.2573 87.0189C82.2006 87.0388 82.1428 87.0485 82.0861 87.0485ZM86.237 85.5802C86.0254 85.5802 85.8273 85.4484 85.7527 85.2377C85.6582 84.9703 85.7982 84.6767 86.0656 84.5822L87.7259 83.9948C87.993 83.9003 88.2868 84.0403 88.3813 84.3077C88.4759 84.5752 88.3358 84.8687 88.0684 84.9632L86.4082 85.5506C86.3515 85.5705 86.2937 85.5802 86.237 85.5802ZM90.2808 83.9373C90.1802 83.9373 90.0786 83.9076 89.9893 83.8463C89.756 83.6851 89.6973 83.3652 89.8587 83.1315C89.9221 83.0399 89.9556 82.9328 89.9556 82.8221C89.9556 82.7564 89.9436 82.6915 89.9198 82.6293L89.6574 81.9401C89.5564 81.675 89.6897 81.3782 89.9547 81.2772C90.2204 81.1766 90.5165 81.3095 90.6175 81.5746L90.88 82.2638C90.9481 82.4432 90.983 82.631 90.983 82.8221C90.983 83.1424 90.8864 83.4512 90.7041 83.7154C90.6043 83.8598 90.444 83.937 90.2811 83.937L90.2808 83.9373ZM89.1983 79.8022C88.991 79.8022 88.7961 79.676 88.718 79.4711L88.0916 77.8249C87.9907 77.5599 88.1239 77.2628 88.389 77.1621C88.6549 77.0611 88.9508 77.1944 89.0518 77.4595L89.6782 79.1056C89.7792 79.3707 89.6459 79.6678 89.3808 79.7685C89.3207 79.7914 89.2587 79.8022 89.1983 79.8022ZM37.1794 77.163C36.8729 77.163 36.5712 77.1433 36.2826 77.1043C36.0014 77.0664 35.8045 76.8075 35.8423 76.5263C35.8805 76.2451 36.1385 76.0481 36.4203 76.086C36.9223 76.1541 37.4691 76.1518 38.043 76.0796C38.3239 76.0449 38.5813 76.2436 38.6169 76.5252C38.6524 76.8067 38.4528 77.0635 38.1713 77.099C37.8331 77.1416 37.4994 77.163 37.1797 77.163H37.1794ZM40.674 76.4615C40.4559 76.4615 40.2536 76.3214 40.1844 76.1027C40.0989 75.8324 40.2486 75.5436 40.519 75.4578C40.9934 75.3078 41.5558 75.1235 42.1907 74.9101C42.4599 74.8197 42.7508 74.9647 42.8412 75.2336C42.9316 75.5025 42.7866 75.7937 42.5177 75.8841C41.8772 76.0989 41.3089 76.2853 40.8293 76.4371C40.7776 76.4535 40.7254 76.4612 40.674 76.4612V76.4615ZM33.9455 76.1033C33.8322 76.1033 33.7183 76.0661 33.6232 75.9894C32.7326 75.2712 32.3783 74.4762 32.3636 74.4428C32.2497 74.1827 32.3683 73.8801 32.6281 73.7662C32.8873 73.6526 33.189 73.77 33.3035 74.0283C33.3062 74.0345 33.5833 74.6374 34.2681 75.1895C34.4888 75.3677 34.5235 75.6909 34.3456 75.9119C34.244 76.0379 34.0952 76.103 33.9455 76.103V76.1033ZM87.6325 75.6868C87.4253 75.6868 87.2304 75.5606 87.1523 75.3557L86.5259 73.7098C86.4249 73.4448 86.5582 73.1477 86.8232 73.047C87.0889 72.946 87.3851 73.0796 87.4861 73.3444L88.1125 74.9902C88.2134 75.2553 88.0802 75.5524 87.8151 75.653C87.7549 75.6759 87.693 75.6868 87.6325 75.6868ZM44.8604 75.0522C44.6479 75.0522 44.4492 74.9192 44.3752 74.7073C44.2819 74.4393 44.4236 74.1466 44.6914 74.0533C45.2218 73.8686 45.7777 73.6737 46.3557 73.4694C46.6231 73.3746 46.917 73.5152 47.0109 73.7826C47.1054 74.05 46.9651 74.3436 46.6977 74.4378C46.1182 74.6424 45.5608 74.8382 45.0292 75.0234C44.9734 75.0428 44.9162 75.0522 44.8601 75.0522H44.8604ZM49.0222 73.5798C48.8115 73.5798 48.6136 73.4492 48.5388 73.2393C48.4431 72.9722 48.5819 72.678 48.849 72.5823C49.39 72.3886 49.9442 72.1893 50.5093 71.9859C50.7767 71.8899 51.0705 72.0281 51.1668 72.295C51.2631 72.5621 51.1245 72.8562 50.8577 72.9525C50.2921 73.1562 49.7373 73.3555 49.1957 73.5496C49.1385 73.5701 49.0798 73.5798 49.0225 73.5798H49.0222ZM53.1731 72.0816C52.9633 72.0816 52.766 71.9518 52.6903 71.7431C52.5934 71.4763 52.7311 71.1816 52.9976 71.0847C53.5439 70.8863 54.0969 70.6849 54.6552 70.4812C54.9223 70.3837 55.2168 70.5211 55.3139 70.7876C55.4111 71.0542 55.274 71.3492 55.0075 71.4463C54.4486 71.6501 53.895 71.8517 53.3484 72.0504C53.2906 72.0713 53.2313 72.0813 53.1729 72.0813L53.1731 72.0816ZM86.0668 71.5717C85.8596 71.5717 85.6646 71.4455 85.5866 71.2406L84.9602 69.5947C84.8592 69.3296 84.9924 69.0326 85.2575 68.9319C85.5232 68.8309 85.8193 68.9642 85.9203 69.2292L86.5467 70.8751C86.6477 71.1402 86.5144 71.4372 86.2494 71.5379C86.1892 71.5608 86.1273 71.5717 86.0668 71.5717ZM57.3179 70.5684C57.1086 70.5684 56.912 70.4395 56.8356 70.2314C56.7379 69.9651 56.8747 69.6698 57.1412 69.5721C57.6895 69.371 58.2405 69.1685 58.7927 68.9654C59.0595 68.8676 59.3542 69.0038 59.4522 69.27C59.55 69.5363 59.4138 69.8316 59.1475 69.9296C58.5951 70.1328 58.0435 70.3353 57.4949 70.5367C57.4365 70.5581 57.3769 70.5681 57.3179 70.5681V70.5684ZM61.4548 69.0455C61.246 69.0455 61.0494 68.9169 60.9728 68.7097C60.8744 68.4434 61.0106 68.1481 61.2766 68.0498L62.9313 67.4381C63.1966 67.3397 63.4928 67.4754 63.5914 67.7416C63.6898 68.0075 63.5541 68.3031 63.2879 68.4018L61.6323 69.0138C61.5736 69.0355 61.5138 69.0458 61.4545 69.0458L61.4548 69.0455ZM65.5919 67.5129C65.3835 67.5129 65.1871 67.3849 65.1102 67.1777C65.0116 66.9118 65.1469 66.6162 65.4131 66.5172C65.9697 66.3106 66.5212 66.1057 67.0666 65.9026C67.3335 65.8039 67.6285 65.939 67.7274 66.2049C67.8263 66.4709 67.691 66.7665 67.4253 66.8654C66.8796 67.0685 66.3275 67.2737 65.7707 67.4803C65.7117 67.5024 65.6515 67.5126 65.5919 67.5126V67.5129ZM84.5008 67.4569C84.2935 67.4569 84.0986 67.3306 84.0205 67.1257L83.3941 65.4796C83.2931 65.2145 83.4264 64.9178 83.6915 64.8168C83.9571 64.7155 84.2533 64.8491 84.3543 65.1141L84.9807 66.76C85.0817 67.0251 84.9484 67.3221 84.6833 67.4228C84.6232 67.4457 84.5612 67.4566 84.5008 67.4566V67.4569ZM69.7273 65.9739C69.5191 65.9739 69.3231 65.8462 69.2459 65.6396C69.1466 65.3736 69.282 65.078 69.5476 64.9788L71.2008 64.3615C71.4668 64.2623 71.7627 64.3973 71.8616 64.663C71.9608 64.9286 71.8261 65.2248 71.5601 65.324L69.9066 65.9413C69.8473 65.9633 69.7868 65.9739 69.727 65.9739H69.7273ZM73.8612 64.4287C73.6533 64.4287 73.4576 64.3013 73.3801 64.095C73.2805 63.8293 73.4153 63.5331 73.6809 63.4336L75.3341 62.814C75.6004 62.7142 75.896 62.8489 75.9955 63.1145C76.095 63.3802 75.9606 63.6764 75.6949 63.7759L74.0411 64.3958C73.9818 64.4181 73.9208 64.4287 73.8609 64.4287H73.8612ZM82.9347 63.3417C82.7275 63.3417 82.5326 63.2155 82.4545 63.0106L82.0556 61.9618C82.016 61.8579 81.947 61.7698 81.8563 61.7076C81.6223 61.547 81.563 61.2274 81.7236 60.9934C81.8845 60.7598 82.2041 60.7005 82.4378 60.861C82.7014 61.0422 82.9016 61.2967 83.0158 61.5967L83.4147 62.6455C83.5157 62.9105 83.3824 63.2073 83.1173 63.3083C83.0571 63.3312 82.9952 63.342 82.9347 63.342V63.3417ZM77.9948 62.878C77.7867 62.878 77.5912 62.7509 77.5137 62.5448C77.4139 62.2791 77.5483 61.983 77.8137 61.8831L79.468 61.2608C79.7337 61.1608 80.0299 61.2952 80.1297 61.5606C80.2298 61.8262 80.0953 62.1224 79.83 62.2222L78.175 62.8448C78.1154 62.8671 78.0544 62.8777 77.9945 62.8777L77.9948 62.878Z" fill="#2D2D2D"/>
    <path d="M97.2195 71.1176C97.2225 72.9742 89.7631 77.0679 85.8296 75.3278C84.6208 74.7927 83.8389 74.0806 83.3827 73.3021C82.3568 71.5456 82.9891 69.4529 84.1377 68.3005C85.7935 66.6394 91.1503 63.7495 91.1503 63.7495L90.2169 61.0827C91.0558 60.6967 91.7621 60.9509 92.2308 61.2585C92.6157 61.5118 92.8379 61.8021 92.8379 61.8021C92.8379 61.8021 93.3296 62.6393 93.983 63.8243C95.2813 66.1735 97.2175 69.885 97.2192 71.1179L97.2195 71.1176Z" fill="#B74829"/>
    <g opacity="0.31">
    <path d="M90.9554 61.9838L91.8888 64.6506C91.8888 64.6506 86.5321 67.5405 84.8762 69.2016C83.7273 70.354 83.0953 72.4467 84.1212 74.2032C84.13 74.2193 84.1403 74.2355 84.1506 74.2516C83.83 73.9528 83.5773 73.6346 83.383 73.3017C82.3571 71.5452 82.9893 69.4526 84.138 68.3001C85.7938 66.639 91.1506 63.7491 91.1506 63.7491L90.2171 61.0823C91.0561 60.6963 91.7623 60.9505 92.2311 61.2581C92.6159 61.5115 92.8382 61.8018 92.8382 61.8018C92.8382 61.8018 92.9353 61.9659 93.0971 62.2506C93.0574 62.2198 93.0149 62.189 92.9694 62.1599C92.5006 61.8526 91.7943 61.5981 90.9554 61.9841V61.9838Z" fill="white"/>
    </g>
    <g style="mix-blend-mode:color-burn" opacity="0.2">
    <path d="M97.2195 71.1175C97.2224 72.9742 89.763 77.0679 85.8296 75.3278C84.6208 74.7926 83.8388 74.0805 83.3827 73.302C83.5967 73.1961 83.7229 73.1385 83.7229 73.1385C88.1527 76.0343 98.7835 72.555 93.983 63.824C95.2813 66.1732 97.2175 69.8847 97.2192 71.1175H97.2195Z" fill="#640002"/>
    </g>
    <path d="M88.0561 76.3347C87.1784 76.3347 86.3383 76.1952 85.5922 75.865C83.2935 74.8479 82.5631 73.3115 82.3553 72.2019C82.0732 70.6958 82.6092 69.0018 83.7214 67.886C85.1536 66.4492 89.0988 64.2106 90.432 63.4733L89.6632 61.2764C89.5634 60.9908 89.6967 60.6761 89.9715 60.5493C91.5169 59.8369 92.827 60.8235 93.3037 61.4443C93.3184 61.4634 93.3322 61.4837 93.3442 61.5048C93.8007 62.2824 97.8037 69.1582 97.8069 71.1167C97.8086 72.1629 96.5279 73.2182 95.4533 73.9188C93.7114 75.0548 90.7135 76.3347 88.0558 76.3347H88.0561ZM90.978 61.4787L91.7045 63.5552C91.7999 63.8276 91.6831 64.1287 91.4292 64.2658C91.3763 64.2943 86.1296 67.1331 84.553 68.715C83.7059 69.5648 83.2964 70.8487 83.5095 71.9856C83.7332 73.1794 84.6176 74.1496 86.0674 74.7912C88.3505 75.8016 92.2766 74.5887 94.8125 72.9352C96.1396 72.0695 96.6336 71.3615 96.6333 71.1185C96.6313 69.8883 94.017 64.9732 92.3538 62.1359C92.2341 61.9921 91.711 61.4241 90.9783 61.4787H90.978Z" fill="#2D2D2D"/>
    <path d="M89.1507 72.6559C90.3407 72.4162 91.1355 71.3786 90.926 70.3385C90.7164 69.2983 89.5819 68.6494 88.3919 68.8892C87.2018 69.1289 86.407 70.1665 86.6165 71.2066C86.8261 72.2468 87.9607 72.8956 89.1507 72.6559Z" fill="#FFB002"/>
    <path d="M88.6532 73.293C88.1465 73.293 87.6543 73.1665 87.2248 72.9208C86.5969 72.5618 86.1769 71.9941 86.0415 71.3225C85.7683 69.9666 86.7707 68.6166 88.2763 68.3134C88.9907 68.1696 89.7161 68.2796 90.3184 68.624C90.9463 68.983 91.3663 69.5507 91.5017 70.2223C91.637 70.8939 91.4694 71.5799 91.0297 72.1543C90.6078 72.7047 89.982 73.0875 89.2672 73.2313C89.0624 73.2727 88.8569 73.293 88.6535 73.293H88.6532ZM88.89 69.4259C88.7641 69.4259 88.6361 69.4385 88.5079 69.4644C87.6372 69.6399 87.0469 70.3693 87.1922 71.0906C87.2597 71.4252 87.4781 71.7132 87.8075 71.9016C88.1627 72.1047 88.5983 72.1681 89.0348 72.0804C89.471 71.9926 89.8482 71.7651 90.0971 71.4402C90.3278 71.139 90.4179 70.7888 90.3504 70.4542C90.2829 70.1195 90.0645 69.8313 89.7349 69.6431C89.4842 69.4996 89.1927 69.4256 88.8898 69.4256L88.89 69.4259Z" fill="#2D2D2D"/>
    <g opacity="0.23">
    <path d="M39.4758 81.6618C38.9292 79.6525 40.0508 77.6471 42.1223 77.8572C42.1576 77.8608 42.1931 77.8646 42.2289 77.869C45.8218 78.2864 48.2036 87.3145 51.8672 89.8818C55.5309 92.4487 48.3128 94.908 45.2491 91.83C42.2189 88.7857 40.1195 84.0295 39.4755 81.6621L39.4758 81.6618Z" fill="white"/>
    </g>
    </g>
    </g>
    <defs>
    <filter id="filter0_d_0_953" x="0" y="0.109863" width="135" height="135" filterUnits="userSpaceOnUse" color-interpolation-filters="sRGB">
    <feFlood flood-opacity="0" result="BackgroundImageFix"/>
    <feColorMatrix in="SourceAlpha" type="matrix" values="0 0 0 0 0 0 0 0 0 0 0 0 0 0 0 0 0 0 127 0" result="hardAlpha"/>
    <feOffset dx="5" dy="5"/>
    <feComposite in2="hardAlpha" operator="out"/>
    <feColorMatrix type="matrix" values="0 0 0 0 0 0 0 0 0 0 0 0 0 0 0 0 0 0 0.26 0"/>
    <feBlend mode="normal" in2="BackgroundImageFix" result="effect1_dropShadow_0_953"/>
    <feBlend mode="normal" in="SourceGraphic" in2="effect1_dropShadow_0_953" result="shape"/>
    </filter>
    <clipPath id="clip0_0_953">
    <rect width="67.1179" height="75" fill="white" transform="translate(31.441 27.6099)"/>
    </clipPath>
    </defs>
    </svg>
    