<svg width="168" height="41" viewBox="0 0 168 41" fill="none" xmlns="http://www.w3.org/2000/svg">
    <path d="M155.16 21.5576L149.667 15.3516H155.768L158.197 18.1509L160.627 15.3516H166.833L161.234 21.5576L167.995 28.8992H161.683L158.197 24.8851L154.711 28.8992H148.4L155.16 21.5576Z" fill="black"/>
    <path d="M132.893 15.3516H137.699V22.5876C137.699 23.4678 137.849 24.1809 138.148 24.7267C138.465 25.2724 139.117 25.5453 140.103 25.5453C141.089 25.5453 141.731 25.2724 142.03 24.7267C142.347 24.1809 142.506 23.4766 142.506 22.614V15.3516H147.312V23.5119C147.312 25.7654 146.617 27.3059 145.226 28.1334C143.853 28.9433 142.145 29.3482 140.103 29.3482C138.078 29.3482 136.37 28.9433 134.979 28.1334C133.588 27.3059 132.893 25.7742 132.893 23.5383V15.3516Z" fill="black"/>
    <path d="M114.813 28.8997V6.98047H119.619V16.6725C120.094 16.1443 120.666 15.7394 121.335 15.4577C122.022 15.1584 122.718 14.9823 123.422 14.9295C123.492 14.9295 123.554 14.9295 123.607 14.9295C123.677 14.9295 123.747 14.9295 123.818 14.9295C125.825 14.9295 127.454 15.6513 128.704 17.095C129.971 18.5211 130.605 20.2024 130.605 22.1391C130.605 24.0933 129.971 25.7835 128.704 27.2096C127.436 28.6356 125.79 29.3487 123.765 29.3487C123.712 29.3487 123.659 29.3487 123.607 29.3487C123.554 29.3487 123.501 29.3487 123.448 29.3487C122.709 29.3135 121.996 29.1462 121.309 28.8469C120.622 28.53 120.077 28.0546 119.672 27.4208L119.619 27.3944V28.8997H114.813ZM122.55 19.0757C121.582 19.0933 120.825 19.4102 120.279 20.0264C119.733 20.625 119.46 21.338 119.46 22.1655C119.46 23.0282 119.733 23.75 120.279 24.331C120.825 24.912 121.582 25.2025 122.55 25.2025C123.536 25.2025 124.293 24.912 124.821 24.331C125.367 23.75 125.64 23.0282 125.64 22.1655C125.64 21.338 125.367 20.625 124.821 20.0264C124.293 19.4102 123.536 19.1021 122.55 19.1021V19.0757Z" fill="black"/>
    <path d="M102.261 27.0506L95.7112 15.3516H101.257L104.875 22.2971L108.414 15.3516H113.88L103.026 35.6599H97.639L102.261 27.0506Z" fill="black"/>
    <path d="M94.5292 6.98047V28.8997H89.7228V6.98047H94.5292Z" fill="black"/>
    <path d="M86.5601 15.3523V28.8999H81.7537V15.3523H86.5601ZM84.1569 7.45605C84.8964 7.47366 85.5302 7.74655 86.0583 8.27473C86.5865 8.8029 86.8506 9.43671 86.8506 10.1762C86.8506 10.9156 86.5865 11.5494 86.0583 12.0776C85.5302 12.6058 84.8964 12.8698 84.1569 12.8698C83.4175 12.8698 82.7837 12.6058 82.2555 12.0776C81.7273 11.5494 81.4632 10.9156 81.4632 10.1762C81.4632 9.43671 81.7273 8.8029 82.2555 8.27473C82.7837 7.74655 83.4175 7.48246 84.1569 7.48246V7.45605Z" fill="black"/>
    <path d="M78.5678 15.3522V28.8999H73.7614V27.3946H73.7086C73.3213 28.0284 72.7931 28.5038 72.1241 28.8207C71.4551 29.12 70.7596 29.2872 70.0378 29.3224C69.9674 29.3401 69.8969 29.3489 69.8265 29.3489C69.7561 29.3489 69.6857 29.3489 69.6152 29.3489C67.6082 29.3489 65.962 28.6358 64.6768 27.2097C63.4092 25.7661 62.7754 24.0759 62.7754 22.1393C62.7754 20.2026 63.4004 18.5213 64.6504 17.0952C65.918 15.6515 67.5554 14.9297 69.5624 14.9297C69.6505 14.9297 69.7385 14.9297 69.8265 14.9297C69.9145 14.9297 70.0026 14.9385 70.0906 14.9561C70.7772 15.0089 71.4463 15.185 72.0977 15.4843C72.7667 15.766 73.3213 16.1709 73.7614 16.6991V15.3522H78.5678ZM70.8301 19.0759C69.8617 19.0935 69.1047 19.4104 68.5589 20.0266C68.0131 20.6252 67.7402 21.3382 67.7402 22.1657C67.7402 23.0284 68.0131 23.7502 68.5589 24.3312C69.1047 24.9122 69.8617 25.2027 70.8301 25.2027C71.816 25.2027 72.573 24.9122 73.1012 24.3312C73.647 23.7502 73.9199 23.0284 73.9199 22.1657C73.9199 21.3382 73.647 20.6252 73.1012 20.0266C72.573 19.4104 71.816 19.1023 70.8301 19.1023V19.0759Z" fill="black"/>
    <path d="M44 28.8995V8.9873H51.3416C54.1233 9.00491 56.5001 9.97323 58.472 11.8923C60.4614 13.8113 61.4562 16.1705 61.4562 18.9698C61.4562 21.7691 60.4614 24.1283 58.472 26.0473C56.4825 27.9488 54.1057 28.8995 51.3416 28.8995H44ZM49.1761 13.3712V24.5156H50.3381C51.8874 24.5332 53.2254 24.1019 54.3522 23.2216C55.4966 22.3237 56.0688 20.9064 56.0688 18.9698C56.0688 17.1916 55.5406 15.8184 54.4843 14.85C53.4279 13.8817 52.0635 13.3976 50.3909 13.3976L49.1761 13.3712Z" fill="black"/>
    <path d="M21.1385 29.63C21.2038 29.3221 21.2831 29.0164 21.3767 28.7135L21.3767 28.7067L21.436 28.526C21.9392 26.9935 22.8003 25.5528 24.0164 24.3367C25.234 23.1191 26.7437 22.2162 28.3231 21.7182L28.3237 21.718C28.6094 21.6281 28.898 21.5504 29.1894 21.4849C30.3919 21.0987 31.5234 20.4279 32.4805 19.4707C35.6949 16.2563 35.6953 11.0448 32.4805 7.83003C29.2657 4.61525 24.0542 4.61562 20.8398 7.83003C19.8641 8.80578 19.1858 9.963 18.8031 11.1916C18.7481 11.4272 18.6851 11.6639 18.6124 11.9001C18.1201 13.5077 17.2374 15.0209 15.969 16.2893C14.6289 17.6294 13.0169 18.5378 11.3096 19.0116C11.2476 19.0293 11.1851 19.0456 11.1385 19.0577C11.1335 19.059 11.1287 19.0603 11.124 19.0615C9.805 19.4284 8.55939 20.13 7.5195 21.1699C4.30513 24.3843 4.30513 29.5962 7.5195 32.8106C10.7339 36.025 15.9458 36.025 19.1602 32.8106C20.0882 31.8826 20.7463 30.7912 21.1385 29.63ZM21.4512 28.4827C21.4522 28.4802 21.4506 28.4844 21.4477 28.4923L21.4501 28.4857L21.4512 28.4827Z" stroke="black" stroke-width="2.38912"/>
    <circle cx="5.44142" cy="5.44142" r="4.94142" transform="matrix(2.18557e-08 -1 -1 -2.18557e-08 32.2092 18.9629)" stroke="black"/>
    <circle cx="5.44142" cy="5.44142" r="5.44142" transform="matrix(2.18557e-08 -1 -1 -2.18557e-08 18.8 32.5361)" fill="black"/>
    </svg>
    