<svg width="324" height="401" viewBox="0 0 324 401" fill="none" xmlns="http://www.w3.org/2000/svg">
    <g clip-path="url(#clip0_0_2157)">
    <g opacity="0.25">
    <path d="M10.1305 369.394L136.117 398.706C165.024 405.432 195.351 396.706 216.263 375.645L313.959 277.257C319.037 272.144 316.347 263.435 309.27 262.076L157.411 232.912C154.772 232.406 152.043 233.105 149.972 234.819L6.42886 353.696C0.693761 358.445 2.87715 367.707 10.1305 369.395V369.394Z" fill="#371A45"/>
    </g>
    <path d="M303.915 188.74C303.908 195.745 303.616 208.364 301.866 220.532C301.154 225.488 297.01 229.235 292.007 229.503C291.12 229.549 290.164 229.595 289.162 229.641C273.523 230.353 244.79 230.788 224.248 226.008C224.248 226.008 220.309 208.907 224.723 187.792C225.25 185.268 225.901 182.684 226.689 180.068C226.689 180.068 259.26 173.384 298.378 181.918C301.598 182.622 303.915 185.444 303.915 188.74Z" fill="#FF1B40"/>
    <g opacity="0.6">
    <path d="M303.914 188.743C303.907 195.748 303.615 208.366 301.864 220.535C301.299 224.481 298.553 227.663 294.928 228.924C295.548 227.83 295.976 226.607 296.16 225.299C297.912 213.131 298.202 200.513 298.21 193.507C298.21 190.211 295.892 187.388 292.672 186.685C262.295 180.055 235.873 182.608 225.58 184.077C225.917 182.754 226.283 181.416 226.689 180.069C226.689 180.069 259.26 173.385 298.378 181.92C301.598 182.623 303.915 185.446 303.915 188.741L303.914 188.743Z" fill="white"/>
    </g>
    <path d="M270.381 232.368C255.524 232.368 237.749 231.506 223.727 228.244C222.875 228.043 222.209 227.376 222.016 226.524C221.847 225.804 218.012 208.687 222.478 187.325C223.018 184.739 223.684 182.09 224.489 179.408C224.729 178.6 225.395 177.992 226.224 177.821C227.575 177.544 259.72 171.139 298.865 179.678C303.187 180.621 306.207 184.349 306.207 188.743V188.745C306.201 196.889 305.834 209.068 304.135 220.86C303.271 226.866 298.222 231.468 292.135 231.795L289.266 231.932C284.181 232.163 277.626 232.368 270.381 232.368ZM226.212 224.099C246.429 228.478 274.127 228.028 289.062 227.347L291.895 227.215C295.797 227.002 299.039 224.054 299.597 220.206C301.344 208.075 301.615 195.285 301.621 188.743C301.621 186.525 300.084 184.643 297.887 184.162C264.104 176.787 234.983 180.966 228.495 182.07C227.901 184.164 227.395 186.232 226.97 188.264C223.428 205.214 225.433 219.665 226.214 224.099H226.212Z" fill="#371A45"/>
    <path d="M270.376 231.985C255.544 231.985 237.805 231.123 223.818 227.867C223.104 227.702 222.552 227.146 222.389 226.434C222.221 225.72 218.404 208.681 222.852 187.401C223.026 186.585 223.704 185.973 224.532 185.889C235.427 184.79 254.919 184.463 285.966 189.256C290.041 189.89 293.115 193.636 293.115 197.969C293.115 204.551 292.844 217.455 291.056 229.91C290.929 230.816 290.167 231.503 289.248 231.546C284.164 231.777 277.615 231.984 270.375 231.984L270.376 231.985ZM225.882 224.416C245.476 228.717 272.176 228.435 287.489 227.798C289.051 216.074 289.29 204.174 289.29 197.969C289.29 195.502 287.61 193.384 285.376 193.034C262.193 189.453 241.291 188.247 226.32 189.559C223.084 206.304 225.149 220.377 225.882 224.415V224.416Z" fill="#371A45"/>
    <g opacity="0.2">
    <path d="M291.197 197.013C291.197 203.996 290.907 216.553 289.162 228.682C273.523 229.393 244.79 229.829 224.248 225.049C224.248 225.049 220.309 207.948 224.723 186.833C237.448 185.533 257.6 185.852 285.667 190.191C288.924 190.695 291.197 193.724 291.197 197.013Z" fill="#371A45"/>
    </g>
    <path d="M265.692 233.433C264.323 246.488 254.603 257.157 241.717 259.642C241.327 259.718 240.937 259.794 240.531 259.863C218.216 264.054 181.781 267.326 147.474 254.608C147.474 254.608 133.334 195.033 147.306 136.749C147.36 136.512 147.413 136.275 147.474 136.038C147.474 136.038 177.813 119.939 239.124 128.444C252.92 130.355 263.565 141.551 264.79 155.425C266.633 176.212 268.407 207.513 265.692 233.431V233.433Z" fill="#0096F0"/>
    <g opacity="0.6">
    <path d="M265.691 233.436C264.812 241.818 260.491 249.221 254.089 254.099C257.461 249.778 259.672 244.509 260.268 238.789C262.983 212.871 261.209 181.569 259.366 160.783C258.142 146.91 247.496 135.713 233.7 133.801C186.223 127.217 157.314 135.385 146.692 139.407C146.884 138.52 147.089 137.641 147.304 136.753C147.359 136.516 147.411 136.279 147.473 136.041C147.473 136.041 177.812 119.942 239.123 128.447C252.919 130.359 263.564 141.555 264.789 155.429C266.631 176.215 268.405 207.517 265.691 233.435V233.436Z" fill="white"/>
    </g>
    <path d="M201.342 265.926C184.012 265.926 165.079 263.582 146.674 256.762C145.953 256.495 145.419 255.886 145.239 255.138C145.095 254.538 131.138 194.36 145.071 136.216L145.245 135.474C145.408 134.848 145.828 134.316 146.398 134.013C147.665 133.34 178.112 117.661 239.443 126.173C254.39 128.244 265.754 140.193 267.075 155.227C268.984 176.7 270.688 207.743 267.975 233.673C266.486 247.862 256.114 259.2 242.151 261.896L240.914 262.127C229.79 264.214 216.151 265.927 201.342 265.927V265.926ZM149.441 252.888C182.235 264.681 216.793 261.986 240.102 257.609L241.267 257.391C253.242 255.083 262.133 245.357 263.412 233.192C266.089 207.63 264.396 176.904 262.499 155.633C261.371 142.739 251.628 132.494 238.812 130.718C184.612 123.209 154.88 135.157 149.452 137.633C136.979 190.143 147.58 244.23 149.44 252.888H149.441Z" fill="#371A45"/>
    <g opacity="0.25">
    <path d="M252.699 237.821C251.796 246.455 247.238 254.049 240.532 258.906C218.216 263.097 181.781 266.37 147.474 253.652C147.474 253.652 133.334 194.077 147.306 135.793C161.584 131.823 187.801 127.525 226.13 132.841C239.927 134.753 250.572 145.949 251.796 159.822C253.639 180.609 255.413 211.91 252.699 237.821Z" fill="#371A45"/>
    </g>
    <path d="M241.156 216.664C241.156 216.664 241.202 218.424 240.995 221.345C240.743 224.885 240.107 230.132 238.556 236.005C234.089 252.945 221.991 275.047 189.289 276.156C189.289 276.156 179.853 311.313 163.317 314.18C134.799 319.143 117.867 294.502 119.427 277.325C119.465 276.928 119.51 276.537 119.565 276.155L118.831 276.178L90.0679 277.134C90.0679 277.134 79.2468 314.5 55.6536 314.5C42.8667 314.5 37.7353 302.96 36.4887 290.9C35.4338 280.69 37.1697 270.113 39.4257 265.83C43.8072 257.494 50.3537 254.121 58.5144 256.049C59.509 256.279 60.5183 256.592 61.551 256.982C61.551 256.982 63.0275 242.23 80.7233 238.788L83.53 227.783L84.6155 223.547C84.6155 223.547 71.2472 218.239 72.3634 204.374C73.4035 191.557 88.5225 169.975 110.594 152.867C130.371 137.532 155.722 125.794 181.511 127.186C215.88 129.052 264.42 162.587 241.155 216.663L241.156 216.664Z" fill="white"/>
    <g opacity="0.25">
    <path d="M101.954 213.909C84.6167 215.056 79.087 198.667 81.8703 189.162C82.5206 186.944 83.7058 184.588 85.3273 182.409C86.0846 189.077 88.6995 196.48 96.1791 199.104C105.203 202.262 113.486 198.431 118.54 194.989C118.686 199.762 117.638 212.869 101.952 213.909H101.954Z" fill="#371A45"/>
    </g>
    <path d="M213.051 249.115C213.051 249.115 199.542 227.558 176.023 230.962C152.504 234.366 143.163 259.932 143.163 259.932C143.163 259.932 123.743 258.21 119.565 276.156" fill="white"/>
    <path d="M212.087 249.719C192.342 221.591 156.724 230.264 145.318 260.72C144.929 261.69 143.948 262.264 142.96 262.217C138.443 261.997 133.282 263.054 129.414 265.524C125.269 268.002 122.879 272.286 121.734 276.896C121.382 278.111 120.109 278.809 118.895 278.456C117.686 278.104 116.989 276.844 117.33 275.636C119.117 267.024 126.252 260.086 134.873 258.398C137.67 257.779 140.352 257.479 143.364 257.646L141.008 259.144C149.055 237.15 174.982 220.461 197.24 233.068C204.102 236.713 209.743 242.087 214.014 248.512C214.36 249.033 214.219 249.737 213.696 250.085C213.151 250.451 212.425 250.269 212.087 249.719Z" fill="#371A45"/>
    <path d="M119.411 221.337C116.673 202.819 118.479 182.801 129.432 167.142C129.802 166.62 130.526 166.497 131.048 166.868C131.561 167.232 131.673 167.96 131.326 168.48C121.307 183.557 120.078 203.189 123.157 220.57C123.802 223.066 119.796 223.909 119.411 221.337Z" fill="#371A45"/>
    <path d="M185.795 230.869H140.114C135.185 230.869 131.181 226.862 131.181 221.934V190.224C131.181 185.295 135.185 181.289 140.114 181.289H185.795C190.724 181.289 194.728 185.295 194.728 190.224V221.934C194.728 226.862 190.724 230.869 185.795 230.869ZM140.114 185.112C137.292 185.112 135.006 187.405 135.006 190.224V221.934C135.006 224.751 137.292 227.045 140.114 227.045H185.795C188.617 227.045 190.904 224.753 190.904 221.934V190.224C190.904 187.406 188.617 185.112 185.795 185.112H140.114Z" fill="#371A45"/>
    <path d="M156.057 317.118C145.791 317.118 136.397 313.38 129.049 306.25C121.209 298.644 116.683 288.038 117.049 278.535L91.7706 279.378C89.3216 286.812 78.0604 316.797 55.6511 316.797C48.544 316.797 42.8052 313.505 39.0409 307.276C31.2072 294.298 33.5541 272.061 37.3959 264.761C42.4389 255.18 50.3623 251.417 59.8642 254.024C61.251 249.345 65.6276 239.992 78.8509 236.847L81.9244 224.818C76.6294 221.994 69.1867 215.137 70.0743 204.189C72.2233 177.644 127.473 121.949 181.632 124.899C200.564 125.923 227.205 137.118 240.952 159.278C248.288 171.107 254.645 190.721 243.443 217.134C243.407 222.998 241.606 275.532 191.038 278.372C188.889 285.573 179.53 313.693 163.707 316.443C161.12 316.893 158.557 317.118 156.053 317.118H156.057ZM119.565 273.86C120.212 273.86 120.837 274.137 121.276 274.623C121.726 275.127 121.93 275.805 121.834 276.478C120.603 285.08 124.787 295.72 132.249 302.956C140.306 310.775 151.182 313.972 162.93 311.921C175.29 309.772 184.546 284.945 187.074 275.558C187.338 274.583 188.203 273.892 189.211 273.859C239.623 272.158 238.915 218.984 238.861 216.721C238.855 216.39 238.915 216.061 239.046 215.757C247.498 196.113 246.808 177.42 237.054 161.695C224.177 140.934 199.17 130.441 181.383 129.477C126.733 126.542 76.4413 182.503 74.6526 204.559C73.6863 216.511 84.9893 221.223 85.4699 221.415C86.5383 221.848 87.1272 222.999 86.8383 224.113L82.9485 239.354C82.7321 240.212 82.0363 240.87 81.1659 241.038C65.4444 244.097 63.8893 256.685 63.829 257.219C63.7516 257.921 63.3545 258.558 62.7484 258.931C62.1484 259.303 61.4034 259.384 60.7371 259.126C52.3453 255.972 45.8381 258.571 41.4554 266.897C38.4962 272.528 35.9391 293.253 42.9737 304.905C45.939 309.819 50.0869 312.21 55.6511 312.21C77.2736 312.21 87.7603 276.856 87.8623 276.499C88.1389 275.547 88.9971 274.878 89.9879 274.845L119.486 273.86H119.563H119.565Z" fill="#371A45"/>
    <path d="M241.155 216.667C241.155 216.667 209.861 250.426 168.891 227.483C168.891 227.483 150.21 236.332 137.426 198.64C137.426 198.64 148.898 196.346 145.948 187.169C145.948 187.169 158.075 167.175 180.036 193.396C180.036 193.396 195.44 196.673 204.617 190.118C204.617 190.118 203.421 178.975 198.718 171.108" fill="white"/>
    <g opacity="0.25">
    <path d="M241.156 215.707C241.156 215.707 241.201 217.466 240.995 220.387L239.917 217.726C224.767 256.874 173.366 235.782 173.366 235.782L157.59 238.565C157.429 238.511 157.269 238.465 157.108 238.404C150.837 242.885 143.563 249.806 141.139 258.969C141.139 258.969 123.183 263.58 119.427 276.367C119.465 275.97 119.51 275.579 119.565 275.197L118.831 275.22L90.0679 276.177C90.0679 276.177 79.2468 313.543 55.6536 313.543C42.8667 313.543 37.7352 302.003 36.4886 289.942C43.9142 288.513 60.8846 282.302 58.5672 255.559L58.5131 255.093C59.5077 255.323 60.517 255.636 61.5497 256.026C61.5497 256.026 63.0262 241.273 80.722 237.832L83.5287 226.827C91.7804 226.758 118.586 224.616 141.552 224.647C135.931 213.015 137.912 199.081 137.912 199.081C151.036 216.013 163.631 212.166 169.987 208.358C172.793 206.675 176.234 206.529 179.157 208.013C187.47 212.228 205.098 218.246 221.922 205.123C237.547 192.94 233.317 174.249 228.958 163.443C227.13 158.931 221.777 157.027 217.501 159.375C207.338 164.965 187.331 173.852 162.951 173.852C137.316 173.852 118.885 159.773 110.595 151.911C130.372 136.577 155.723 124.839 181.512 126.231C215.881 128.097 264.421 161.632 241.156 215.708V215.707Z" fill="#371A45"/>
    </g>
    <path d="M244.045 215.685C230.356 243.704 191.529 243.71 167.771 229.485L169.872 229.557C165.18 231.363 160.539 230.823 156.452 229.017C144.758 223.464 139.353 210.607 135.253 199.378C134.834 198.2 135.448 196.907 136.625 196.488C140.812 195.547 145.508 192.811 143.763 187.872C143.533 187.229 143.622 186.511 143.986 185.979C154.8 169.94 172.849 180.064 181.793 191.924L180.513 191.153C188.19 192.462 197.175 192.458 203.282 188.253L202.334 190.364C201.814 184.055 200.519 177.413 197.615 171.729C196.866 170.368 198.988 169.138 199.802 170.46C203.592 176.388 205.608 182.977 206.897 189.874C207.044 190.722 206.632 191.552 205.949 191.987C197.835 197.074 187.08 197.927 178.329 194.935C171.03 185.438 156.606 175.551 147.909 188.36L148.132 186.468C150.819 193.509 144.525 199.744 137.876 200.89L139.599 197.905C143.898 209.904 152.472 229.636 168.092 225.342C168.744 225.094 169.447 225.171 170.013 225.483C175.851 228.741 182.121 231.245 188.601 232.799C206.893 237.398 231.433 232.167 239.839 213.879C240.935 211.122 245.288 212.98 244.045 215.687V215.685Z" fill="#371A45"/>
    <path d="M221.644 234.939C221.459 234.939 221.266 234.912 221.08 234.856C220.072 234.541 219.508 233.473 219.82 232.463C223.295 221.238 223.02 211.786 219.004 204.369C213.835 194.83 204.188 191.986 204.092 191.959C203.072 191.667 202.483 190.611 202.778 189.593C203.066 188.575 204.129 187.99 205.137 188.279C205.6 188.411 216.44 191.611 222.366 202.547C226.893 210.903 227.264 221.348 223.47 233.591C223.218 234.413 222.462 234.938 221.646 234.938L221.644 234.939Z" fill="#371A45"/>
    <path d="M143.45 257.655C155.578 260.17 163.385 271.579 164.045 283.438C164.089 283.838 163.799 284.2 163.397 284.243C163.02 284.283 162.679 284.03 162.603 283.666C162.052 280.978 161.387 278.323 160.259 275.876C157.331 268.786 150.417 263.144 142.874 262.206C139.622 262.008 140.238 257.021 143.45 257.654V257.655Z" fill="#371A45"/>
    <path d="M189.289 278.066C188.677 278.066 188.071 277.769 187.705 277.223C171.575 253.256 146.855 256.57 145.817 256.727C144.736 256.918 143.8 256.16 143.643 255.115C143.487 254.074 144.208 253.101 145.253 252.945C145.54 252.906 173.352 249.055 190.874 275.086C191.463 275.963 191.234 277.152 190.358 277.739C190.027 277.962 189.656 278.066 189.289 278.066Z" fill="#371A45"/>
    <path d="M53.0842 316.479C52.676 316.479 52.2678 316.466 51.8412 316.439C41.0964 315.775 33.8811 302.552 33.8811 283.528C33.8811 275.124 39.3322 263.224 51.4454 263.086C51.4995 263.084 51.5536 263.084 51.6138 263.084C55.8515 263.084 59.7954 264.893 63.0311 268.325C68.0138 273.61 70.6128 282.11 69.9821 291.067C69.2137 302.061 66.5964 316.48 53.0842 316.48V316.479ZM51.6077 267.672H51.4933C41.6545 267.786 38.4667 278.404 38.4667 283.528C38.4667 299.458 44.2117 311.369 52.1289 311.859C57.9882 312.237 64.0564 309.976 65.4075 290.74C65.9472 283.044 63.8106 275.837 59.6933 271.471C57.3464 268.982 54.5545 267.671 51.6077 267.671V267.672Z" fill="#371A45"/>
    <path d="M62.2197 254.786C67.7151 257.335 71.0209 262.652 72.6204 268.167C72.7408 268.594 72.4925 269.036 72.0659 269.157C71.6885 269.264 71.2963 269.077 71.1279 268.739C69.4141 265.342 67.0439 262.377 63.8475 260.451C61.9517 259.045 58.6348 259.456 59.027 256.488C59.2729 255.042 60.8834 254.19 62.2185 254.788L62.2197 254.786Z" fill="#371A45"/>
    <path d="M100.224 216.838C91.8677 216.84 86.9096 212.927 84.1656 209.514C79.1226 203.223 78.4563 194.969 80.0361 189.582C80.7626 187.098 82.0646 184.552 83.7882 182.226C87.9005 176.682 93.6454 173.293 99.5575 172.93C105.771 172.492 112.02 175.491 117.674 181.43C118.196 181.98 118.346 182.79 118.046 183.492C117.752 184.191 117.068 184.65 116.312 184.66C113.844 184.689 106.941 185.374 104.6 188.16C103.97 188.91 103.749 189.748 103.916 190.796C104.084 191.816 104.534 192.518 105.344 193.007C108.453 194.907 115.393 193.214 117.813 192.407C118.341 192.224 118.941 192.299 119.422 192.597C119.908 192.897 120.232 193.395 120.317 193.959C120.317 193.959 120.419 194.688 120.449 195.895C120.592 200.493 119.699 215.608 102.08 216.779C101.443 216.821 100.825 216.839 100.225 216.839L100.224 216.838ZM100.655 176.717C100.368 176.717 100.079 176.725 99.7911 176.744C95.0063 177.038 90.2941 179.865 86.8604 184.502C85.3962 186.472 84.3094 188.596 83.7095 190.655C82.4494 194.947 82.9891 201.931 87.1493 207.118C90.5474 211.353 95.6198 213.407 101.826 212.959C114.99 212.086 116.641 201.823 116.641 196.719C113.249 197.562 107.175 198.583 103.369 196.281C101.598 195.209 100.481 193.522 100.139 191.398C99.7973 189.264 100.331 187.289 101.676 185.692C104.023 182.91 108.453 181.721 111.839 181.214C108.166 178.228 104.42 176.718 100.655 176.718V176.717Z" fill="#371A45"/>
    <path d="M117.352 182.744C123.532 182.039 130.988 181.917 140.899 185.251C145.96 186.953 146.998 193.82 142.58 196.816C142.253 197.037 141.898 197.246 141.512 197.439C139.511 198.439 137.131 198.193 135.227 197.02C132.172 195.138 126.026 192.533 117.352 194.538C104.57 197.493 102.726 194.866 102.029 191.103C101.239 186.842 108.026 183.81 117.352 182.746V182.744Z" fill="#9E9E9E"/>
    <g opacity="0.6">
    <path d="M144.688 194.441C143.969 192.957 142.677 191.71 140.896 191.114C130.984 187.78 123.528 187.902 117.348 188.606C110.588 189.378 105.157 191.192 102.994 193.754C102.474 192.996 102.213 192.087 102.03 191.099C101.242 186.839 108.026 183.812 117.348 182.748C123.527 182.036 130.984 181.915 140.896 185.249C144.873 186.587 146.364 191.107 144.688 194.441Z" fill="white"/>
    </g>
    <path d="M138.811 199.982C137.249 199.982 135.66 199.532 134.225 198.647C131.554 197.008 125.887 194.528 117.783 196.402C110.231 198.145 105.693 198.151 103.04 196.417C101.054 195.113 100.454 193.079 100.153 191.452C99.8648 189.903 100.236 188.373 101.233 187.028C104.3 182.88 112.513 181.372 117.135 180.845C122.928 180.185 130.924 179.885 141.507 183.438C144.58 184.471 146.759 187.124 147.198 190.362C147.635 193.54 146.273 196.619 143.656 198.397C143.254 198.668 142.827 198.92 142.365 199.151C141.255 199.706 140.041 199.982 138.811 199.982ZM123.468 191.905C129.483 191.905 133.853 193.927 136.23 195.392C137.659 196.271 139.316 196.401 140.661 195.728C140.967 195.574 141.25 195.407 141.513 195.226C142.941 194.26 143.65 192.634 143.41 190.877C143.164 189.061 142 187.635 140.288 187.062C130.479 183.76 123.295 183.986 117.568 184.643C109.662 185.546 105.532 187.641 104.308 189.301C103.833 189.938 103.852 190.411 103.912 190.754C104.17 192.132 104.501 192.798 105.136 193.218C106.769 194.286 110.744 194.103 116.92 192.672C119.273 192.128 121.464 191.903 123.469 191.903L123.468 191.905Z" fill="#371A45"/>
    <path d="M151.627 316.941C145.342 316.941 135.516 313.828 123.51 299.556C119.26 294.498 116.522 284.932 119.524 278.297C120.905 275.242 124.044 271.561 131.145 271.403C139.687 271.244 147.941 277.979 152.089 282.028C159.923 289.691 165.614 299.419 165.614 305.161C165.614 309.827 162.276 314.179 157.306 315.993C156.015 316.464 154.094 316.941 151.627 316.941ZM131.499 275.986C131.416 275.986 131.331 275.989 131.254 275.989C127.466 276.076 124.927 277.486 123.708 280.188C121.546 284.967 123.72 292.674 127.027 296.603C142.286 314.762 152.858 312.724 155.733 311.683C158.903 310.527 161.028 307.907 161.028 305.161C161.028 301.325 156.382 292.644 148.878 285.31C142.804 279.373 136.488 275.987 131.499 275.987V275.986Z" fill="#371A45"/>
    <g opacity="0.25">
    <path d="M238.556 235.048C234.089 251.987 221.991 274.089 189.289 275.198C189.289 275.198 179.853 310.355 163.317 313.222C134.149 318.301 117.102 292.405 119.565 275.198L118.831 275.222C124.781 272.621 133.828 270.182 140.42 275.198C151.089 283.312 171.377 294.432 174.299 260.576C174.299 260.576 208.385 271.589 238.556 235.048Z" fill="#371A45"/>
    </g>
    <path d="M166.908 167.811C212.357 167.811 249.2 130.968 249.2 85.5195C249.2 40.0711 212.357 3.22791 166.908 3.22791C121.46 3.22791 84.6168 40.0711 84.6168 85.5195C84.6168 130.968 121.46 167.811 166.908 167.811Z" fill="white"/>
    <g opacity="0.25">
    <path d="M249.202 84.5642C249.202 130.007 212.356 166.853 166.906 166.853C123.941 166.853 88.6553 133.907 84.945 91.9061C97.411 121.495 126.686 142.274 160.811 142.274C206.261 142.274 243.107 105.428 243.107 59.9777C243.107 57.4992 243 55.0527 242.779 52.6357C246.916 62.4549 249.202 73.2391 249.202 84.5654V84.5642Z" fill="#371A45"/>
    </g>
    <path d="M166.91 170.105C120.268 170.105 82.3227 132.161 82.3227 85.5182C82.3227 38.8752 120.268 0.935059 166.91 0.935059C213.551 0.935059 251.49 38.8789 251.49 85.5182C251.49 132.158 213.546 170.105 166.91 170.105ZM166.91 5.52068C122.8 5.52068 86.9096 41.409 86.9096 85.5182C86.9096 129.627 122.8 165.518 166.91 165.518C211.019 165.518 246.903 129.63 246.903 85.5182C246.903 41.4065 211.019 5.52068 166.91 5.52068Z" fill="#371A45"/>
    <path d="M160.811 164.766C117.74 164.766 82.7075 130.466 82.7075 88.304C82.7075 46.1421 117.74 11.8422 160.811 11.8422C203.881 11.8422 238.914 46.1421 238.914 88.304C238.914 130.466 203.881 164.766 160.811 164.766ZM160.811 15.6668C119.853 15.6668 86.5309 48.253 86.5309 88.304C86.5309 128.355 119.852 160.941 160.811 160.941C201.769 160.941 235.09 128.355 235.09 88.304C235.09 48.253 201.769 15.6656 160.811 15.6656V15.6668Z" fill="#371A45"/>
    <path d="M156.261 158.4C195.828 158.4 227.904 127.912 227.904 90.303C227.904 52.694 195.828 22.2059 156.261 22.2059C116.693 22.2059 84.6168 52.694 84.6168 90.303C84.6168 127.912 116.693 158.4 156.261 158.4Z" fill="#371A45"/>
    <path d="M215.136 51.4973C218.067 58.9327 219.675 66.9815 219.675 75.3893C219.675 112.999 187.599 143.486 148.031 143.486C123.636 143.486 102.094 131.896 89.1556 114.195C99.3374 140.017 125.539 158.4 156.262 158.4C195.83 158.4 227.906 127.912 227.906 90.303C227.906 75.881 223.185 62.5077 215.136 51.4985V51.4973Z" fill="#220F2D"/>
    <g opacity="0.5">
    <path d="M154.757 35.535C161.004 32.0374 120.946 37.8106 107.942 60.5678C100.033 74.4082 100.301 90.2932 101.799 100.909C102.222 103.909 106.433 104.228 107.314 101.329C112.573 84.0233 125.853 51.7211 154.756 35.535H154.757Z" fill="white"/>
    </g>
    <g opacity="0.5">
    <path d="M198.954 100.277C203.712 100.277 207.569 95.6507 207.569 89.944C207.569 84.2372 203.712 79.611 198.954 79.611C194.195 79.611 190.338 84.2372 190.338 89.944C190.338 95.6507 194.195 100.277 198.954 100.277Z" fill="white"/>
    </g>
    <g opacity="0.5">
    <path d="M207.569 116.574C210.316 116.574 212.542 113.903 212.542 110.609C212.542 107.314 210.316 104.644 207.569 104.644C204.823 104.644 202.596 107.314 202.596 110.609C202.596 113.903 204.823 116.574 207.569 116.574Z" fill="white"/>
    </g>
    <path d="M241.155 120.386C251.657 120.386 260.171 107.993 260.171 92.7064C260.171 77.4193 251.657 65.0267 241.155 65.0267C230.652 65.0267 222.139 77.4193 222.139 92.7064C222.139 107.993 230.652 120.386 241.155 120.386Z" fill="white"/>
    <g opacity="0.25">
    <path d="M260.169 91.7451C260.169 107.033 251.656 119.43 241.156 119.43C230.656 119.43 222.136 107.033 222.136 91.7451C222.136 89.6342 222.297 87.5775 222.611 85.5969C225.517 95.4701 232.254 102.384 240.094 102.384C249.148 102.384 256.72 93.1761 258.639 80.8478C259.625 84.1979 260.169 87.8762 260.169 91.7463V91.7451Z" fill="#371A45"/>
    </g>
    <path d="M241.154 122.679C229.399 122.679 219.843 109.236 219.843 92.7065C219.843 76.1774 229.399 62.734 241.154 62.734C252.908 62.734 262.464 76.1774 262.464 92.7065C262.464 109.236 252.908 122.679 241.154 122.679ZM241.154 67.3209C231.933 67.3209 224.429 78.7087 224.429 92.7065C224.429 106.704 231.933 118.092 241.154 118.092C250.374 118.092 257.878 106.704 257.878 92.7065C257.878 78.7087 250.374 67.3209 241.154 67.3209Z" fill="#371A45"/>
    <path d="M246.766 115.008C238.764 115.008 232.497 104.619 232.497 91.3565C232.497 78.0939 238.765 67.7056 246.766 67.7056C254.767 67.7056 261.023 78.0939 261.023 91.3565C261.023 104.619 254.762 115.008 246.766 115.008ZM246.766 71.529C241.106 71.529 236.327 80.608 236.327 91.3565C236.327 102.105 241.106 111.184 246.766 111.184C252.426 111.184 257.198 102.105 257.198 91.3565C257.198 80.608 252.42 71.529 246.766 71.529Z" fill="#371A45"/>
    <path d="M117.841 287.748L156.261 289.101L175.576 306.449V314.502L144.372 314.213C142.278 314.193 140.25 313.468 138.62 312.152L117.84 295.395V287.748H117.841Z" fill="#9E9E9E"/>
    <path d="M175.578 316.794H175.553L144.35 316.503C141.751 316.482 139.205 315.57 137.183 313.937L116.395 297.183C115.856 296.748 115.543 296.09 115.543 295.397V287.749C115.543 287.128 115.795 286.531 116.245 286.098C116.689 285.665 117.259 285.423 117.914 285.456L156.338 286.81C156.878 286.828 157.394 287.035 157.791 287.395L177.109 304.74C177.594 305.176 177.871 305.796 177.871 306.448V314.5C177.871 315.113 177.625 315.698 177.192 316.131C176.759 316.557 176.184 316.794 175.578 316.794ZM120.129 294.299L140.065 310.366C141.283 311.353 142.82 311.903 144.393 311.918L173.285 312.184V307.472L155.348 291.366L120.13 290.127V294.299H120.129Z" fill="#05002D"/>
    <path d="M175.561 316.47C175.159 316.47 174.757 316.341 174.42 316.091L151.854 299.26L117.716 297.363C116.707 297.306 115.908 296.468 115.908 295.454V287.806C115.908 287.287 116.125 286.791 116.497 286.431C116.87 286.068 117.355 285.921 117.89 285.894L156.309 287.247C156.758 287.266 157.185 287.437 157.521 287.737L176.838 305.082C177.24 305.445 177.475 305.961 177.475 306.505V314.557C177.475 315.28 177.067 315.94 176.419 316.265C176.148 316.402 175.855 316.469 175.561 316.469V316.47ZM119.74 293.644L152.649 295.474C153.021 295.495 153.381 295.628 153.681 295.849L173.647 310.746V307.358L155.482 291.045L119.742 289.787V293.644H119.74Z" fill="#371A45"/>
    <path d="M32.4391 280.601L60.5072 282.097L74.6181 301.282V310.187L51.8228 309.867C50.2922 309.846 48.8121 309.043 47.6208 307.589L32.4391 289.057V280.6V280.601Z" fill="#9E9E9E"/>
    <path d="M74.6218 312.482H74.5923L51.7933 312.161C49.5718 312.128 47.4646 311.02 45.8443 309.042L30.6564 290.518C30.3208 290.107 30.1401 289.593 30.1401 289.062V280.607C30.1401 279.977 30.3982 279.377 30.8544 278.942C31.3105 278.506 32.0075 278.251 32.5534 278.317L60.6228 279.812C61.3137 279.848 61.9431 280.191 62.3513 280.743L76.4696 299.925C76.7573 300.318 76.9134 300.795 76.9134 301.285V310.19C76.9134 310.805 76.6675 311.394 76.2286 311.823C75.802 312.246 75.2205 312.483 74.6194 312.483L74.6218 312.482ZM34.7269 288.242L49.3984 306.133C50.1422 307.049 51.0188 307.559 51.8597 307.574L72.329 307.862V302.036L59.2963 284.334L34.7269 283.026V288.242Z" fill="#371A45"/>
    <path d="M74.6218 312.099C74.087 312.099 73.5596 311.874 73.1933 311.454L56.8719 293.034L32.2718 290.966C31.281 290.883 30.5187 290.054 30.5187 289.061V280.606C30.5187 280.081 30.7351 279.58 31.1187 279.219C31.5022 278.853 32.0075 278.626 32.5349 278.697L60.6043 280.192C61.1748 280.221 61.7034 280.507 62.0452 280.966L76.1635 300.148C76.4032 300.479 76.536 300.875 76.536 301.283V310.189C76.536 310.984 76.0442 311.696 75.2992 311.978C75.0767 312.061 74.8493 312.101 74.6206 312.101L74.6218 312.099ZM34.3483 287.301L57.9575 289.288C58.4443 289.33 58.9004 289.559 59.2237 289.927L72.7064 305.145V301.909L59.5003 283.96L34.3483 282.621V287.3V287.301Z" fill="#371A45"/>
    <path d="M321.055 249.542C322.21 225.668 311.952 205.772 298.143 205.104C284.334 204.436 272.203 223.248 271.048 247.123C269.893 270.997 280.151 290.893 293.96 291.561C307.769 292.229 319.9 273.417 321.055 249.542Z" fill="#9E9E9E"/>
    <g opacity="0.6">
    <path d="M322.001 249.942C321.843 246.907 321.49 243.97 320.956 241.169C317.953 225.469 309.338 213.943 298.507 213.099C286.43 212.158 275.429 224.802 271.301 242.812C270.502 246.31 269.961 250.019 269.721 253.862C269.702 254.129 269.689 254.403 269.677 254.67C269.538 252.057 269.551 249.366 269.721 246.627C269.961 242.785 270.502 239.076 271.301 235.577C275.429 217.567 286.431 204.924 298.507 205.864C309.338 206.708 317.953 218.234 320.956 233.934C321.906 238.914 322.29 244.322 322.001 249.942Z" fill="white"/>
    </g>
    <g opacity="0.2">
    <path d="M321.956 250.694C320.477 274.324 307.588 292.573 293.164 291.455C278.74 290.332 268.242 270.263 269.721 246.627C269.961 242.785 270.502 239.076 271.301 235.577C272.735 238.184 280.671 251.116 292.24 240.964C292.24 240.964 292.932 255.905 306.406 258.616C319.049 261.152 320.786 236.953 320.957 233.932C321.951 239.138 322.323 244.806 321.958 250.693L321.956 250.694Z" fill="#05002D"/>
    </g>
    <path d="M294.681 293.504C294.302 293.504 293.925 293.489 293.546 293.464C278.737 292.444 267.805 271.386 269.181 246.522C270.058 230.653 275.874 216.129 284.374 208.622C288.755 204.755 293.696 202.913 298.583 203.222C313.392 204.247 324.324 225.303 322.955 250.168C322.078 266.043 316.25 280.563 307.75 288.07C303.71 291.639 299.214 293.503 294.681 293.503V293.504ZM297.461 207.011C293.865 207.011 290.239 208.548 286.908 211.49C279.147 218.345 273.821 231.849 273 246.733C271.74 269.523 281.073 288.774 293.812 289.647C297.678 289.903 301.622 288.377 305.223 285.205C312.979 278.353 318.315 264.847 319.137 249.96C320.393 227.173 311.052 207.919 298.319 207.042C298.031 207.021 297.748 207.013 297.461 207.013V207.011Z" fill="#371A45"/>
    <path d="M321.062 249.79C322.08 230.108 315.629 213.776 306.653 213.312C297.677 212.848 289.576 228.427 288.559 248.109C287.541 267.791 293.992 284.123 302.968 284.587C311.943 285.052 320.044 269.472 321.062 249.79Z" fill="white"/>
    <g opacity="0.2">
    <path d="M321.04 250.06C319.957 269.745 311.804 285.193 302.834 284.573C293.872 283.961 287.479 267.503 288.569 247.826C288.657 246.173 288.801 244.545 288.987 242.962C291.405 252.453 295.962 258.877 301.498 259.252C309.714 259.817 317.244 246.901 319.286 229.601C320.78 235.483 321.458 242.533 321.04 250.058V250.06Z" fill="#05002D"/>
    </g>
    <path d="M303.35 286.507C303.133 286.507 302.923 286.499 302.708 286.486C292.551 285.784 285.504 268.757 286.662 247.722C287.472 233.094 292.047 220.407 298.602 214.616C301.201 212.317 304.07 211.243 306.91 211.408C317.067 212.107 324.12 229.132 322.956 250.168C322.146 264.806 317.565 277.493 311.01 283.28C308.609 285.4 305.973 286.507 303.351 286.507H303.35ZM306.261 215.211C304.562 215.211 302.845 215.973 301.134 217.483C295.402 222.543 291.223 234.495 290.479 247.933C289.363 268.12 296.037 282.191 302.971 282.672C304.76 282.765 306.644 282.032 308.476 280.414C314.209 275.357 318.392 263.402 319.137 249.959C320.254 229.771 313.579 215.701 306.646 215.226C306.519 215.217 306.387 215.211 306.262 215.211H306.261Z" fill="#371A45"/>
    <path d="M304.76 268.933C304.664 268.933 304.568 268.927 304.483 268.921C303.384 268.846 302.328 268.332 301.428 267.434C298.39 264.457 296.722 257.017 297.196 248.49C297.665 239.96 300.143 232.792 303.512 230.234C304.526 229.46 305.631 229.085 306.717 229.175C312.162 229.547 314.538 239.98 314.005 249.606C313.561 257.716 311.231 264.757 308.08 267.543C306.814 268.663 305.613 268.932 304.761 268.932L304.76 268.933ZM306.434 232.226C306.11 232.226 305.749 232.374 305.366 232.667C303.169 234.339 300.708 240.366 300.245 248.659C299.789 256.967 301.578 263.298 303.577 265.26C303.967 265.643 304.333 265.845 304.693 265.872C305.089 265.853 305.558 265.692 306.055 265.251C308.09 263.45 310.491 257.736 310.953 249.44C311.518 239.157 308.696 232.38 306.512 232.227H306.434V232.226Z" fill="#371A45"/>
    <path d="M302.509 267.883C302.119 267.883 301.734 267.733 301.44 267.446C298.391 264.459 296.722 257.019 297.196 248.492C297.665 239.963 300.143 232.794 303.512 230.237C304.118 229.775 304.953 229.826 305.511 230.366C308.555 233.362 310.217 240.799 309.742 249.314C309.274 257.839 306.796 265.006 303.439 267.57C303.163 267.78 302.833 267.884 302.509 267.884V267.883ZM304.291 233.805C302.43 236.335 300.629 241.698 300.245 248.659C299.862 255.647 301.062 261.235 302.646 264.002C304.514 261.468 306.309 256.102 306.692 249.145C307.076 242.167 305.876 236.578 304.291 233.805Z" fill="#371A45"/>
    <path d="M282.47 278.703L247.291 314.617C246.021 315.918 244.354 316.736 242.572 316.958C242.022 317.027 241.463 317.034 240.898 316.989L237.839 316.737C233.855 316.4 230.727 313.173 230.513 309.188L228.112 265.176C228.067 264.228 228.181 263.295 228.456 262.415C228.884 260.978 229.718 259.677 230.881 258.675L263.047 230.907C264.5 229.653 266.359 228.965 268.285 228.965H274.487C275.703 228.965 276.857 229.233 277.89 229.722C280.467 230.93 282.302 233.462 282.487 236.475L284.292 265.383L284.743 272.602C284.888 274.865 284.062 277.083 282.471 278.704L282.47 278.703Z" fill="#FF1B40"/>
    <g opacity="0.6">
    <path d="M282.156 234.644C281.712 234.308 281.23 234.017 280.719 233.78C279.686 233.291 278.532 233.023 277.316 233.023H271.114C269.186 233.023 267.328 233.711 265.875 234.965L233.71 262.733C232.547 263.735 231.713 265.035 231.285 266.473C231.01 267.352 230.896 268.285 230.941 269.234L233.342 313.247C233.38 313.904 233.487 314.531 233.67 315.136C231.85 313.752 230.642 311.61 230.512 309.186L228.111 265.174C228.065 264.226 228.18 263.293 228.455 262.413C228.883 260.975 229.717 259.675 230.88 258.673L263.045 230.905C264.498 229.651 266.357 228.962 268.284 228.962H274.486C275.702 228.962 276.856 229.23 277.889 229.719C279.924 230.676 281.498 232.45 282.156 234.644Z" fill="white"/>
    </g>
    <g opacity="0.2">
    <path d="M282.47 277.744L247.291 313.658C246.021 314.959 244.354 315.777 242.572 315.999C242.022 316.068 241.463 316.075 240.898 316.03L237.839 315.778C233.855 315.441 230.727 312.214 230.513 308.229L228.112 264.217C228.067 263.269 228.181 262.336 228.456 261.456L231.462 261.762L239.921 265.265C239.921 265.265 265.677 287.703 284.293 264.424L284.744 271.643C284.889 273.906 284.063 276.124 282.472 277.745L282.47 277.744Z" fill="#371A45"/>
    </g>
    <path d="M241.597 319.306C241.304 319.306 241.004 319.294 240.702 319.27L237.654 319.018C232.552 318.586 228.493 314.414 228.217 309.306L225.816 265.297C225.653 262.069 226.957 259.023 229.387 256.932L261.544 229.166C263.412 227.554 265.807 226.669 268.285 226.669H274.486C276.004 226.669 277.524 227.005 278.874 227.644C282.278 229.241 284.546 232.569 284.775 236.33L287.026 272.455C287.218 275.354 286.155 278.221 284.108 280.307L248.932 316.219C247.318 317.873 245.156 318.945 242.851 319.232C242.443 319.284 242.023 319.307 241.596 319.307L241.597 319.306ZM268.286 231.252C266.906 231.252 265.579 231.744 264.546 232.639L232.383 260.409C231.032 261.57 230.312 263.263 230.403 265.052L232.804 309.055C232.954 311.889 235.205 314.205 238.032 314.443L241.081 314.695C241.495 314.73 241.885 314.724 242.282 314.676C243.561 314.518 244.756 313.923 245.656 313.008L280.832 277.093C281.967 275.937 282.554 274.352 282.452 272.749L280.201 236.611C280.07 234.525 278.815 232.68 276.918 231.791C276.155 231.431 275.345 231.251 274.486 231.251H268.285L268.286 231.252Z" fill="#371A45"/>
    <path d="M242.57 318.484C242.216 318.484 241.868 318.357 241.591 318.126C241.261 317.855 241.063 317.46 241.045 317.037L238.405 269.194C238.273 266.916 239.137 264.7 240.776 263.119C257.878 246.557 270.688 234.296 276.854 228.594C277.31 228.168 277.988 228.066 278.54 228.334C281.704 229.814 283.805 232.896 284.015 236.378L286.266 272.503C286.445 275.19 285.462 277.84 283.565 279.773L248.388 315.684C246.894 317.215 244.895 318.206 242.758 318.473C242.698 318.479 242.631 318.485 242.572 318.485L242.57 318.484ZM278.113 231.595C271.695 237.568 259.264 249.47 242.899 265.316C241.902 266.28 241.375 267.634 241.452 269.027L243.991 315.018C244.82 314.685 245.576 314.183 246.2 313.544L281.377 277.629C282.661 276.317 283.334 274.522 283.213 272.7L280.962 236.566C280.836 234.537 279.767 232.709 278.111 231.595H278.113Z" fill="#371A45"/>
    <path d="M246.265 316.399C244.468 342.125 228.806 361.994 211.277 360.778C193.748 359.555 180.992 337.705 182.79 311.97C183.08 307.787 183.737 303.749 184.709 299.941C189.726 280.332 203.094 266.567 217.769 267.591C230.931 268.509 241.401 281.059 245.048 298.151C246.257 303.818 246.708 309.99 246.264 316.399H246.265Z" fill="#9E9E9E"/>
    <g opacity="0.6">
    <path d="M246.318 315.58C246.126 312.277 245.699 309.079 245.048 306.028C241.401 288.935 230.931 276.385 217.769 275.467C203.093 274.442 189.726 288.209 184.709 307.817C183.737 311.626 183.08 315.663 182.79 319.847C182.766 320.137 182.751 320.436 182.735 320.726C182.567 317.881 182.583 314.952 182.79 311.969C183.08 307.786 183.737 303.748 184.709 299.94C189.726 280.331 203.094 266.565 217.769 267.589C230.931 268.508 241.401 281.057 245.048 298.15C246.203 303.572 246.67 309.46 246.318 315.579V315.58Z" fill="white"/>
    </g>
    <path d="M212.79 363.121C212.232 363.121 211.68 363.103 211.116 363.065C201.86 362.42 193.581 356.614 187.807 346.723C182.195 337.109 179.601 324.713 180.502 311.813C182.386 284.857 199.122 263.997 217.935 265.303C227.191 265.948 235.47 271.753 241.245 281.645C246.857 291.259 249.451 303.655 248.55 316.555C246.725 342.704 230.865 363.121 212.79 363.121ZM216.23 269.834C200.557 269.834 186.732 288.398 185.075 312.13C184.24 324.12 186.618 335.583 191.768 344.408C196.757 352.95 203.737 357.951 211.439 358.484C227.569 359.571 242.264 340.668 243.975 316.236C244.81 304.246 242.432 292.783 237.282 283.959C232.293 275.417 225.313 270.416 217.611 269.882C217.149 269.849 216.692 269.834 216.23 269.834Z" fill="#371A45"/>
    <path d="M246.276 316.415C247.756 295.197 240.656 277.418 230.416 276.704C220.177 275.99 210.677 292.611 209.197 313.829C207.717 335.047 214.818 352.827 225.057 353.541C235.296 354.255 244.796 337.633 246.276 316.415Z" fill="white"/>
    <path d="M225.696 355.456C225.432 355.456 225.174 355.448 224.916 355.427C219.189 355.031 214.231 350.285 210.947 342.064C207.845 334.303 206.541 324.224 207.274 313.68C208.859 291.065 219.081 274.019 230.535 274.779C242.001 275.577 249.745 293.916 248.172 316.529C247.439 327.073 244.751 336.875 240.603 344.134C236.407 351.466 231.143 355.457 225.698 355.457L225.696 355.456ZM229.761 278.574C220.93 278.574 212.449 294.527 211.091 313.943C210.395 323.926 211.608 333.408 214.495 340.647C217.167 347.329 221.063 351.327 225.18 351.614C229.412 351.846 233.71 348.472 237.282 342.235C241.149 335.468 243.663 326.243 244.354 316.265C245.734 296.473 239.281 279.221 230.271 278.59C230.103 278.581 229.935 278.575 229.761 278.575V278.574Z" fill="#371A45"/>
    <path d="M226.236 336.889C226.11 336.889 225.984 336.883 225.858 336.874C224.537 336.784 223.307 336.235 222.195 335.244C218.449 331.939 216.444 323.781 217.093 314.471C217.741 305.155 220.862 297.354 225.035 294.595C226.266 293.773 227.544 293.392 228.883 293.496C231.932 293.707 234.49 296.368 236.075 300.988C237.474 305.07 238.032 310.367 237.647 315.9C236.802 327.996 231.933 336.889 226.236 336.889ZM228.499 297.306C228.073 297.306 227.635 297.462 227.155 297.783C224.514 299.527 221.524 305.908 220.912 314.735C220.293 323.562 222.371 330.298 224.735 332.383C225.21 332.81 225.66 333.029 226.122 333.062C228.847 332.993 233.056 326.702 233.83 315.635C234.184 310.598 233.692 305.838 232.456 302.228C231.448 299.289 229.976 297.405 228.62 297.309C228.578 297.309 228.542 297.306 228.499 297.306Z" fill="#371A45"/>
    <path d="M223.469 335.35C223.102 335.35 222.742 335.221 222.455 334.966C218.792 331.73 216.836 323.696 217.478 314.499C218.12 305.297 221.17 297.614 225.251 294.918C225.816 294.53 226.59 294.591 227.107 295.049C230.769 298.3 232.725 306.331 232.083 315.514C231.446 324.698 228.397 332.384 224.316 335.095C224.058 335.266 223.764 335.351 223.47 335.351L223.469 335.35ZM225.942 298.314C223.571 300.773 221.099 306.5 220.528 314.708C219.958 322.917 221.609 328.932 223.614 331.696C225.992 329.229 228.464 323.5 229.034 315.302C229.605 307.106 227.947 301.088 225.942 298.314Z" fill="#371A45"/>
    <g opacity="0.25">
    <path d="M246.265 315.44C244.468 341.166 228.806 361.035 211.277 359.819C193.748 358.596 180.992 336.746 182.79 311.011C183.08 306.828 183.737 302.791 184.709 298.982C186.452 301.819 196.096 315.898 210.152 304.847C210.152 304.847 209.595 326.437 225.968 329.388C241.332 332.15 244.842 300.481 245.048 297.192C246.257 302.859 246.708 309.031 246.264 315.44H246.265Z" fill="#371A45"/>
    </g>
    <path d="M198.643 327.832C198.528 332.298 198.13 336.817 197.32 341.101C196.066 347.761 192.578 353.804 187.492 358.292C181 364.02 170.239 372.647 158.644 378.338C156.082 379.599 153.261 380.257 150.4 380.242C133.132 380.158 65.0523 378.269 13.8347 354.492C5.35316 350.562 1.23102 340.856 4.13729 331.97C5.55969 327.627 7.72465 322.64 10.9825 317.309H10.9899C15.2497 310.366 18.5691 305.402 27.9678 295.399C30.2163 292.998 33.2295 291.185 36.2047 289.105C36.2047 289.105 38.2541 306.61 43.4925 308.576C48.517 310.457 66.696 298.458 71.1009 269.32C71.2926 268.043 71.4598 266.728 71.5975 265.381C74.221 239.715 65.8846 232.741 69.4178 222.018C70.2895 219.373 71.8877 216.497 74.5419 213.063C76.7671 210.188 81.7006 208.475 87.8562 207.657C102.326 205.722 123.593 208.697 132.557 213.063C145.045 219.159 149.236 227.563 147.737 235.456C147.707 235.639 147.668 235.823 147.63 236.006C145.014 247.807 120.428 246.17 116.826 267.148C113.743 285.059 120.756 309.754 146.322 310.082C165.456 310.327 177.433 300.109 182.244 294.947C183.911 293.157 186.389 292.37 188.798 292.805L190.579 293.126C192.759 293.523 194.594 294.885 195.618 296.752C196.015 297.455 196.291 298.228 196.428 299.053C197.468 305.248 198.96 316.383 198.639 327.832H198.643Z" fill="#FF1B40"/>
    <g opacity="0.6">
    <path d="M147.74 235.456C142.945 229.681 131.871 216.925 108.223 214.921C102.931 214.47 98.3269 214.347 94.2896 214.493C94.833 214.921 95.1772 215.441 95.2534 216.023C95.5436 218.21 92.0103 220.489 87.3681 221.101C83.4673 221.621 80.0262 220.803 78.8558 219.235C77.3191 220.719 76.2864 222.638 76.0184 225.139C75.2845 232.022 78.787 259.308 71.8729 270.611C71.8729 270.611 71.5975 270.144 71.1009 269.319C71.2926 268.042 71.4598 266.726 71.5975 265.38C74.221 239.714 65.8846 232.74 69.4178 222.017C70.2895 219.372 71.8877 216.496 74.5419 213.062C74.6341 212.939 74.7337 212.825 74.8321 212.711C75.0386 212.481 75.2599 212.252 75.5045 212.038C75.5881 211.955 75.6877 211.877 75.7799 211.801C76.8273 210.929 78.1735 210.187 79.757 209.583C80.3151 209.362 80.904 209.155 81.5236 208.971C81.8371 208.871 82.158 208.779 82.4875 208.695C83.0616 208.543 83.6578 208.397 84.2774 208.268C84.7139 208.175 85.1565 208.084 85.6076 208.007C86.2506 207.893 86.9083 207.786 87.5808 207.694C87.673 207.679 87.764 207.67 87.8562 207.655C102.326 205.72 123.593 208.695 132.557 213.062C145.045 219.158 149.236 227.562 147.737 235.454L147.74 235.456Z" fill="white"/>
    </g>
    <g opacity="0.2">
    <path d="M198.643 326.873C198.528 331.339 198.13 335.859 197.32 340.142C196.066 346.803 192.578 352.845 187.492 357.334C181 363.061 170.239 371.688 158.644 377.379C156.082 378.64 153.261 379.298 150.4 379.283C133.132 379.199 65.0523 377.31 13.8347 353.533C5.35316 349.603 1.23102 339.897 4.13729 331.011C4.25162 330.667 4.36719 330.308 4.49627 329.956C4.61921 329.597 4.74092 329.237 4.87861 328.878C5.23759 327.899 5.62854 326.898 6.07112 325.872C6.19406 325.574 6.32314 325.269 6.46083 324.97C6.59115 324.664 6.73622 324.358 6.87391 324.052C7.12593 323.508 7.38656 322.95 7.66195 322.392C7.73079 322.247 7.79964 322.102 7.87586 321.955C8.06765 322.139 8.26558 322.323 8.47211 322.499C8.63316 322.636 8.80036 322.782 8.96879 322.912C9.42735 323.287 9.90927 323.638 10.4145 323.967C10.583 324.081 10.7588 324.188 10.9346 324.295C10.9579 324.31 10.9887 324.326 11.0108 324.34C11.1866 324.447 11.3624 324.547 11.5382 324.647C11.714 324.746 11.8898 324.838 12.073 324.929C12.2943 325.044 12.5242 325.159 12.7541 325.266C63.9704 349.043 123.806 352.836 141.074 352.92C143.935 352.935 146.756 352.277 149.318 351.016C160.913 345.326 179.917 334.795 186.41 329.067C191.496 324.578 194.983 318.536 196.238 311.876C196.345 311.318 196.444 310.752 196.537 310.185C196.591 309.872 196.636 309.558 196.682 309.237C196.727 308.955 196.765 308.663 196.805 308.373C196.866 307.937 196.919 307.501 196.973 307.065C197.027 306.614 197.08 306.163 197.118 305.712C197.172 305.253 197.21 304.802 197.248 304.343C197.263 304.182 197.279 304.03 197.294 303.869C197.325 304.06 197.348 304.251 197.37 304.443C197.432 304.925 197.493 305.429 197.553 305.941C197.615 306.454 197.676 306.974 197.736 307.501C197.805 308.114 197.874 308.748 197.936 309.382C197.981 309.857 198.028 310.323 198.073 310.805C198.097 311.133 198.127 311.47 198.157 311.807C198.195 312.22 198.226 312.633 198.257 313.053C198.287 313.466 198.318 313.88 198.349 314.3C198.472 316.097 198.57 317.948 198.624 319.837C198.639 320.196 198.647 320.564 198.655 320.931C198.693 322.89 198.693 324.878 198.64 326.873H198.643Z" fill="#371A45"/>
    </g>
    <path d="M146.944 384.459C127.789 384.459 61.0494 378.933 12.8696 356.569C3.37261 352.165 -1.32119 341.283 1.9625 331.252C3.64308 326.123 6.02071 321.03 9.0278 316.107C13.7462 308.43 17.9003 302.604 26.3105 293.81C28.3095 291.721 30.7831 290.031 33.1779 288.398L34.8892 287.219C35.5494 286.757 36.3964 286.676 37.1464 287.009C37.8791 287.34 38.3893 288.033 38.4852 288.833C39.3974 296.622 41.9545 305.552 44.2965 306.431C44.669 306.572 46.3496 306.524 49.3149 304.684C57.1731 299.809 67.125 286.531 69.3219 265.143C70.7271 251.369 69.2973 242.45 68.1454 235.281C66.6861 226.217 65.6362 219.668 72.8281 211.539C81.9219 201.268 120.683 204.72 133.565 210.996C146.171 217.145 152.12 226.441 149.875 236.499C148.53 242.571 142.798 245.491 136.729 248.581C128.979 252.527 120.966 256.606 119.092 267.532C117.508 276.725 118.486 289.754 125.972 298.75C130.864 304.632 137.726 307.672 146.358 307.784C146.568 307.787 146.784 307.787 146.995 307.787C165.171 307.787 176.511 297.738 180.569 293.38C182.779 291.023 186.002 289.971 189.213 290.543L190.996 290.864C193.841 291.383 196.26 293.128 197.634 295.645C198.151 296.545 198.511 297.576 198.697 298.671C199.675 304.482 201.272 316.013 200.941 327.89C200.81 332.852 200.348 337.437 199.579 341.522C198.241 348.606 194.488 355.174 189.014 360.009C187.837 361.048 186.553 362.227 185.184 363.49C179.05 369.13 170.658 376.859 160.884 381.652C158.194 382.976 154.161 384.057 150.848 384.338C149.948 384.413 148.632 384.459 146.946 384.459H146.944ZM34.4565 293.086C32.6493 294.335 30.9687 295.574 29.6237 296.982C20.6738 306.34 16.7779 312.265 12.9483 318.505C10.1207 323.115 7.8943 327.884 6.32068 332.681C3.76356 340.5 7.41361 348.981 14.8022 352.406C66.1624 376.253 140.869 380.58 150.455 379.764C153.169 379.533 156.704 378.596 158.86 377.534C168.032 373.032 175.818 365.867 182.073 360.113C183.472 358.826 184.774 357.625 185.975 356.569C190.693 352.406 193.917 346.76 195.064 340.673C195.796 336.825 196.228 332.482 196.355 327.764C196.673 316.275 195.124 305.082 194.17 299.431C194.074 298.869 193.893 298.35 193.63 297.885C192.898 296.55 191.644 295.649 190.173 295.379L188.397 295.058C186.74 294.766 185.059 295.297 183.924 296.507C179.404 301.363 166.894 312.652 146.299 312.37C136.406 312.243 128.152 308.549 122.444 301.682C113.962 291.489 112.815 276.956 114.568 266.754C116.838 253.562 126.712 248.532 134.648 244.492C139.943 241.793 144.522 239.465 145.399 235.502C147.164 227.573 142.253 220.337 131.556 215.119C119.335 209.158 83.2804 206.659 76.263 214.58C70.512 221.084 71.2385 225.583 72.6794 234.551C73.808 241.593 75.357 251.236 73.8854 265.61C71.5262 288.628 60.8957 302.9 51.7343 308.582C48.1568 310.806 44.9272 311.562 42.6885 310.729C37.8324 308.904 35.4732 299.179 34.4589 293.086H34.4565Z" fill="#371A45"/>
    <g opacity="0.2">
    <path d="M195.624 295.79C195.624 295.79 180.084 312.072 164.352 316.332C148.621 320.592 109.104 322.508 106.013 279.295C103.903 249.799 112.268 244.842 123.662 240.561C132.233 237.342 141.411 227.836 132.56 212.102C145.34 218.335 151.047 227.009 147.634 235.045C142.065 248.158 120.431 245.209 116.829 266.187C113.747 284.098 120.76 308.792 146.326 309.121C165.46 309.365 177.437 299.148 182.247 293.986C183.914 292.196 186.393 291.409 188.801 291.844L190.583 292.165C192.762 292.562 194.598 293.924 195.622 295.79H195.624Z" fill="#371A45"/>
    </g>
    <path d="M150.709 383.963H150.642C149.855 383.961 71.2902 383.267 13.0319 356.225C3.70946 351.902 -0.894603 341.217 2.32271 331.373C3.99713 326.271 6.36248 321.204 9.35235 316.309C9.67691 315.784 10.2289 315.445 10.8473 315.399C11.3821 315.351 12.0595 315.606 12.4504 316.08C12.8168 316.513 12.9668 317.109 12.8647 317.665C12.6065 319.093 10.6076 331.781 19.5514 337.649C29.9003 344.443 127.837 367.363 150.012 359.409C169.137 352.554 186.941 337.936 197.23 326.546C197.765 325.952 198.623 325.759 199.356 326.054C200.099 326.352 200.58 327.081 200.557 327.879C200.425 332.822 199.968 337.387 199.199 341.451C197.879 348.454 194.175 354.942 188.761 359.721C187.578 360.762 186.299 361.942 184.925 363.209C178.808 368.833 170.434 376.538 160.716 381.31C158.225 382.538 154.113 383.963 150.709 383.963ZM8.82986 325.34C7.71357 327.729 6.75342 330.142 5.96047 332.561C3.3431 340.566 7.07675 349.249 14.6412 352.755C72.1544 379.453 149.886 380.137 150.667 380.14H150.709C153.266 380.14 156.808 378.97 159.029 377.877C168.256 373.35 176.06 366.168 182.332 360.396C183.731 359.109 185.033 357.911 186.228 356.854C191.007 352.634 194.278 346.913 195.442 340.743C195.899 338.317 196.24 335.7 196.469 332.915C185.585 343.931 169.012 356.662 151.298 363.011C127.647 371.49 28.2985 347.968 17.4516 340.849C11.3526 336.842 9.34743 330.493 8.83109 325.34H8.82986Z" fill="#371A45"/>
    <g opacity="0.2">
    <path d="M53.528 307.265C53.528 307.265 27.9629 327.791 27.9678 294.452V294.437C30.4917 292.326 33.2296 290.222 36.2047 288.142C36.2047 288.142 39.1478 315.009 53.5292 307.265H53.528Z" fill="#371A45"/>
    </g>
    <g clip-path="url(#clip1_0_2157)">
    <path d="M105.209 238.47C104.586 238.808 103.797 239.413 103.205 240.914C101.84 244.373 99.5022 247.288 94.9104 247.086C92.2643 246.968 89.6917 244.984 88.6538 242.393C88.654 242.393 88.6534 242.393 88.6534 242.393C88.59 242.233 88.5318 242.071 88.4799 241.907C88.224 241.1 88.1181 240.245 88.2024 239.376C88.2446 238.935 87.8922 238.417 88.3567 238.104C88.3546 238.105 88.3511 238.106 88.3505 238.106C88.5954 237.334 88.7679 236.768 89.2393 236.051C90.0515 234.815 91.2218 233.859 92.5818 233.158C92.9635 232.962 93.4364 232.689 93.8134 232.421C94.4832 231.946 95.1343 231.357 95.6707 230.746C95.9594 230.416 96.2482 229.996 96.4589 229.663C99.7526 224.465 103.676 220.776 110.071 223.692C110.89 223.748 111.846 223.916 112.461 224.407C112.762 224.647 112.827 224.824 112.825 225.07C112.824 225.16 112.814 225.26 112.803 225.377C112.782 225.59 112.586 225.84 112.482 225.988C112.517 226.434 112.552 225.87 112.584 226.472C112.636 227.425 112.833 226.991 112.727 228.481C112.426 232.75 109.146 236.336 105.209 238.47Z" fill="#D89C53"/>
    <path d="M105.252 238.42C109.203 236.14 112.449 232.888 112.788 228.294C112.728 227.713 112.718 227.065 112.528 226.481C112.554 226.439 112.607 226.375 112.627 226.336C112.794 226.007 112.992 225.683 112.847 225.31C112.725 224.998 112.625 224.885 112.279 224.678C111.682 224.321 110.85 224.166 110.117 224.11C110.085 224.097 110.059 224.082 110.034 224.072C108.94 223.595 107.821 223.249 106.644 223.111C106.354 223.077 106.112 223.065 105.838 223.072C104.467 223.102 103.256 223.436 102.045 224.094C101.795 224.23 101.591 224.358 101.313 224.555C99.3105 225.972 97.7887 227.995 96.473 230.083C96.068 230.725 95.4143 231.507 94.8168 232.053C94.5948 232.256 94.3012 232.49 94.0629 232.672C93.6426 232.992 93.0226 233.351 92.5903 233.578C90.2992 234.78 88.5331 236.696 88.2491 239.309C87.8595 243.217 91.3439 246.863 94.9545 247.018C99.5453 247.215 101.883 244.314 103.25 240.841C103.842 239.334 104.626 238.781 105.252 238.419L105.252 238.42ZM111.534 229.2C111.329 229.163 111.128 229.117 110.93 229.057C110.928 229.056 110.927 229.056 110.926 229.056C110.76 228.985 110.699 228.819 110.783 228.66C111.029 228.192 111.271 227.73 111.478 227.243C111.585 227.898 111.586 228.54 111.534 229.2ZM108.712 231.514C108.986 231.184 109.259 230.861 109.54 230.527C109.911 230.085 110.399 229.916 110.966 230.047C111.111 230.081 111.227 230.133 111.369 230.164C111.337 230.287 111.312 230.396 111.275 230.519C111.053 231.256 110.747 231.945 110.372 232.62C110.196 232.589 110.02 232.57 109.845 232.532C109.534 232.463 109.225 232.429 108.918 232.318C108.565 232.191 108.469 231.807 108.712 231.514L108.712 231.514ZM108.172 232.996C108.734 233.169 109.263 233.335 109.834 233.457C109.681 233.658 109.558 233.844 109.393 234.039C108.859 234.67 108.317 235.264 107.665 235.8C107.292 236.106 106.804 236.211 106.331 236.057C105.95 235.932 105.59 235.807 105.234 235.616C104.786 235.375 104.764 234.87 105.151 234.554C105.231 234.489 105.317 234.441 105.403 234.385C105.942 234.029 106.427 233.642 106.939 233.238C107.294 232.957 107.734 232.861 108.172 232.996L108.172 232.996ZM108.167 225.83C108.62 225.666 109.095 225.568 109.517 225.448C109.857 225.352 110.075 225.366 110.401 225.38C110.404 225.38 110.406 225.381 110.409 225.382C110.625 225.44 110.717 225.641 110.631 225.845C110.48 226.206 110.295 226.557 110.111 226.901C109.855 227.378 109.567 227.827 109.266 228.275C109.228 228.246 109.182 228.221 109.146 228.192C109.022 228.093 108.908 228.006 108.788 227.898C108.725 227.841 108.625 227.75 108.567 227.692C108.375 227.501 108.219 227.315 108.054 227.105C107.977 227.006 107.902 226.89 107.826 226.788C107.821 226.782 107.818 226.774 107.814 226.767C107.608 226.383 107.784 225.968 108.167 225.829L108.167 225.83ZM108.412 228.592C108.437 228.616 108.464 228.636 108.488 228.662C108.646 228.834 108.666 229.073 108.517 229.254C108.048 229.822 107.549 230.364 107.009 230.86C106.716 231.128 106.318 231.172 105.995 230.947C105.206 230.4 104.574 229.741 103.971 229.006C103.964 228.998 103.957 228.991 103.951 228.98C103.676 228.451 103.932 228.087 104.35 227.665C104.351 227.664 104.143 227.804 104.421 227.617C104.699 227.431 105.862 226.716 106.42 226.5C106.573 226.441 106.853 226.48 106.958 226.678C107.342 227.404 107.831 228.016 108.412 228.592L108.412 228.592ZM96.7479 236.015C97.1365 236.398 97.5233 236.732 97.9263 237.107C98.3712 237.522 98.4675 238.069 98.2496 238.628C98.1625 238.851 98.0593 239.052 97.9697 239.266C97.7631 239.759 97.556 240.245 97.2879 240.708C97.1392 240.965 96.8208 241.026 96.5881 240.835C96.1547 240.48 95.7722 240.086 95.4033 239.662C95.0343 239.239 94.6917 238.783 94.3789 238.312C94.2657 238.141 94.2789 237.923 94.4151 237.769C94.954 237.157 95.5154 236.573 96.1056 236.009C96.2889 235.834 96.567 235.837 96.7479 236.015L96.7479 236.015ZM97.497 234.691C98.0123 234.181 98.5532 233.706 99.0736 233.203C99.1554 233.124 99.2277 233.043 99.3187 232.967C99.5379 232.784 99.7893 232.789 100.01 232.975C100.011 232.976 100.013 232.977 100.014 232.978C100.381 233.372 100.777 233.722 101.167 234.097C101.377 234.3 101.369 234.602 101.145 234.792C100.54 235.306 100.021 235.88 99.5337 236.502C99.3666 236.715 99.0695 236.749 98.8671 236.592C98.3702 236.205 97.9152 235.793 97.4847 235.354C97.2872 235.152 97.3084 234.877 97.4969 234.69L97.497 234.691ZM100.768 232.363C100.766 232.361 100.765 232.359 100.764 232.358C100.537 232.071 100.521 231.739 100.748 231.455C101.036 231.092 101.323 230.772 101.601 230.403C101.806 230.132 102.027 229.854 102.244 229.588C102.245 229.586 102.25 229.581 102.252 229.579C102.636 229.215 103.165 229.189 103.516 229.6C104.013 230.183 104.494 230.685 105.052 231.205C105.462 231.587 105.412 232.169 104.984 232.506C104.557 232.842 104.1 233.087 103.641 233.362C103.413 233.499 103.185 233.625 102.94 233.739C102.67 233.865 102.372 233.832 102.139 233.643C101.648 233.245 101.211 232.807 100.768 232.363L100.768 232.363ZM108.087 224.625C107.714 224.745 107.345 224.875 106.978 225.012C106.906 224.786 106.844 224.558 106.791 224.327C107.231 224.396 107.661 224.496 108.087 224.625ZM102.644 225.131C103.12 224.857 103.613 224.647 104.128 224.5C104.669 224.345 105.182 224.277 105.74 224.265C105.938 224.261 106.087 224.393 106.149 224.577C106.185 224.681 106.205 224.793 106.239 224.896C106.24 224.898 106.239 224.9 106.24 224.901C106.28 225.113 106.198 225.319 106 225.408C105.115 225.807 104.312 226.261 103.5 226.789C103.166 227.006 102.772 226.88 102.611 226.518C102.507 226.285 102.439 226.044 102.374 225.801C102.304 225.536 102.415 225.263 102.644 225.131ZM98.6638 229.006C99.366 228.074 100.089 227.172 100.943 226.398C101.286 226.087 101.71 226.243 101.89 226.62C102.001 226.851 102.085 227.106 102.183 227.341C102.281 227.576 102.229 227.815 102.055 227.995C101.629 228.439 101.227 228.882 100.854 229.371C100.571 229.743 100.286 230.105 99.9737 230.461C99.7504 230.716 99.3647 230.67 99.1752 230.429C98.964 230.16 98.7991 229.882 98.6422 229.626C98.5081 229.406 98.5336 229.179 98.6638 229.006ZM95.9674 232.604C96.5404 231.987 97.0481 231.377 97.5063 230.679C97.5071 230.677 97.5092 230.675 97.5102 230.674C97.7001 230.462 97.9767 230.438 98.1618 230.677C98.2969 230.852 98.4131 231.025 98.5406 231.219C98.7318 231.511 98.724 231.862 98.4891 232.129C97.9342 232.761 97.3573 233.354 96.767 233.947C96.7662 233.948 96.764 233.95 96.7629 233.95C96.5718 234.098 96.3435 234.092 96.1796 233.916C96.077 233.805 95.9926 233.698 95.911 233.581C95.6873 233.259 95.707 232.884 95.9672 232.604L95.9674 232.604ZM93.1295 234.632C93.1311 234.631 93.1333 234.629 93.1354 234.628C93.5115 234.447 93.843 234.229 94.2095 234.019C94.5317 233.835 94.8805 233.897 95.1311 234.178C95.2291 234.287 95.3155 234.398 95.403 234.518C95.5881 234.774 95.5811 235.092 95.3608 235.32C94.9192 235.777 94.4925 236.223 94.0541 236.678C93.8458 236.895 93.5096 236.847 93.3645 236.585C93.165 236.224 92.992 235.87 92.8331 235.485C92.6937 235.146 92.823 234.827 93.1296 234.632L93.1295 234.632ZM89.756 238.084C90.0241 237.406 90.3809 236.835 90.8918 236.301C91.2512 235.925 91.8058 236.053 92.0491 236.51C92.0504 236.513 92.0544 236.518 92.0553 236.52C92.2343 236.96 92.4326 237.378 92.6307 237.814C92.7331 238.039 92.7149 238.272 92.5744 238.481C92.4081 238.728 92.2501 238.936 92.0831 239.199C91.9038 239.481 91.6791 239.825 91.5085 240.117C91.4215 240.266 91.3569 240.384 91.2761 240.524C91.115 240.804 90.742 240.797 90.5705 240.575C90.3031 240.228 90.0534 239.85 89.8681 239.5C89.6136 239.019 89.5645 238.569 89.7561 238.084L89.756 238.084ZM89.366 240.565C89.7416 241.127 90.1485 241.659 90.5896 242.173C90.463 242.595 90.3639 243.02 90.2925 243.455C89.7726 242.535 89.4728 241.613 89.366 240.565ZM92.6 244.487C92.1339 244.58 91.6544 244.596 91.1781 244.597C91.1733 244.593 91.171 244.59 91.1658 244.586C91.18 244.198 91.1928 243.81 91.2728 243.429C91.3137 243.234 91.5346 243.171 91.6839 243.302C92.0092 243.586 92.3436 243.868 92.6798 244.139C92.8151 244.249 92.7766 244.452 92.5999 244.487L92.6 244.487ZM92.3382 242.564C91.9388 242.169 91.836 241.631 92.0721 241.123C92.3787 240.464 92.793 239.897 93.1992 239.293C93.2 239.291 93.1725 239.325 93.2103 239.281C93.2482 239.237 93.4086 239.199 93.473 239.299C93.9211 239.996 94.4152 240.62 94.972 241.231C95.1578 241.435 95.3663 241.611 95.5639 241.814C95.898 242.157 95.9162 242.635 95.5833 242.974C95.2718 243.291 94.9351 243.528 94.5663 243.75C94.3126 243.903 94.0149 243.895 93.7748 243.726C93.2664 243.37 92.7829 243.003 92.3383 242.564L92.3382 242.564ZM95.0502 246.341C94.2318 246.302 93.4781 246.101 92.7323 245.751C93.3377 245.686 93.9146 245.56 94.4908 245.365C94.5065 245.359 94.521 245.353 94.5362 245.347C95.1776 245.691 95.8307 245.988 96.5108 246.251C96.0172 246.315 95.5553 246.364 95.0501 246.341L95.0502 246.341ZM100.241 244.172C100.157 244.282 100.06 244.375 99.9636 244.469C99.4181 245 98.8306 245.41 98.1489 245.754C97.7413 245.617 97.3232 245.54 96.9285 245.356C96.3732 245.098 96.2698 244.506 96.6887 244.07C96.9332 243.815 97.2004 243.613 97.4251 243.344C97.4258 243.343 97.4267 243.344 97.4275 243.343C97.5292 243.249 97.6571 243.216 97.7861 243.269C98.5409 243.579 99.2801 243.771 100.092 243.831C100.094 243.831 100.095 243.831 100.097 243.832C100.273 243.864 100.349 244.028 100.24 244.172L100.241 244.172ZM100.231 242.511C99.9641 242.469 99.7009 242.411 99.4398 242.342C99.4218 242.337 99.4046 242.335 99.3868 242.327C98.9094 242.137 98.7201 241.714 98.9292 241.25C99.0575 240.964 99.2096 240.731 99.3372 240.45C99.5529 239.976 99.7725 239.499 100.019 239.037C100.019 239.036 100.02 239.035 100.021 239.034C100.136 238.862 100.336 238.805 100.517 238.898C101.199 239.251 101.867 239.57 102.588 239.824C102.388 240.18 102.252 240.456 102.109 240.86C101.905 241.434 101.63 242.069 101.331 242.621C100.961 242.604 100.596 242.569 100.231 242.511L100.231 242.511ZM103.196 238.999C102.716 238.816 102.216 238.672 101.763 238.42C101.214 238.115 101.085 237.507 101.479 237.024C101.872 236.542 102.352 236.192 102.84 235.819C102.853 235.809 102.88 235.796 102.895 235.784C102.896 235.784 102.897 235.783 102.898 235.783C103.105 235.699 103.294 235.709 103.491 235.812C103.555 235.845 103.609 235.881 103.668 235.914C104.441 236.345 105.228 236.705 106.059 237.006C105.614 237.296 105.169 237.552 104.703 237.815C104.138 238.132 103.643 238.524 103.196 238.999L103.196 238.999Z" fill="#C1823E"/>
    <path d="M112.488 230.013C112.494 229.991 112.498 229.969 112.504 229.948C112.679 229.236 112.772 228.511 112.758 227.788C112.758 227.781 112.758 227.774 112.758 227.767C112.755 227.667 112.751 227.567 112.744 227.467C112.744 227.465 112.745 227.463 112.744 227.461C112.719 227.091 112.665 226.72 112.577 226.353C112.577 226.353 112.576 226.351 112.577 226.351C112.563 226.292 112.548 226.232 112.532 226.173C112.517 226.118 112.501 226.062 112.484 226.006C112.506 225.969 112.527 225.933 112.548 225.897C112.664 225.697 112.754 225.52 112.805 225.355C112.872 225.139 112.87 224.947 112.767 224.758C112.767 224.756 112.766 224.755 112.765 224.753C112.702 224.64 112.603 224.528 112.461 224.413C112.397 224.361 112.323 224.307 112.241 224.254C111.616 223.848 110.812 223.768 110.071 223.691C110.042 223.682 110.013 223.666 109.989 223.655C108.898 223.177 107.779 222.828 106.603 222.689C106.313 222.655 106.072 222.641 105.798 222.647C104.426 222.677 103.221 223.007 102.008 223.663C101.757 223.799 101.555 223.924 101.277 224.123C99.2711 225.553 97.7753 227.576 96.4559 229.672C96.0496 230.317 95.4045 231.089 94.8053 231.635C94.5827 231.838 94.2958 232.072 94.0532 232.251C93.6245 232.566 93.0261 232.932 92.5834 233.16C88.0633 235.492 86.6703 240.492 89.9135 244.521C90.4223 245.153 90.8187 245.471 91.3983 245.884C92.247 246.489 93.2092 246.852 94.1939 247.009C94.1985 247.01 94.2028 247.01 94.2068 247.011C94.4163 247.043 94.626 247.067 94.8363 247.082C94.8941 247.086 94.9521 247.089 95.0098 247.092C95.3252 247.106 95.6335 247.101 95.9345 247.078C95.9408 247.078 95.9465 247.077 95.9525 247.076C96.8733 247.005 97.7313 246.771 98.5521 246.443C99.0745 246.234 99.5021 245.947 99.8493 245.69C100.271 245.378 100.651 245.035 100.994 244.665C100.999 244.66 101.003 244.655 101.007 244.651C101.998 243.578 102.684 242.289 103.193 240.944C103.21 240.901 103.226 240.856 103.242 240.813C103.422 240.327 103.539 240.121 103.775 239.765C103.943 239.51 104.115 239.322 104.305 239.141C104.381 239.069 104.46 238.998 104.543 238.924C104.565 238.904 104.588 238.885 104.611 238.866C104.822 238.689 105.064 238.542 105.282 238.42C105.9 238.072 106.542 237.68 107.118 237.281C107.12 237.28 107.122 237.279 107.124 237.277C107.256 237.187 107.383 237.096 107.507 237.005C107.873 236.736 108.236 236.436 108.515 236.194C109.511 235.329 110.391 234.295 111.074 233.275C111.299 232.938 111.531 232.514 111.618 232.337C111.719 232.132 111.815 231.924 111.905 231.714C112.142 231.161 112.342 230.591 112.488 230.013ZM111.502 228.736C111.298 228.699 111.097 228.654 110.897 228.595C110.896 228.595 110.895 228.595 110.894 228.595C110.854 228.578 110.82 228.556 110.794 228.53C110.706 228.447 110.686 228.322 110.749 228.2C110.845 228.014 110.94 227.828 111.033 227.643C111.175 227.357 111.311 227.069 111.434 226.773C111.546 227.429 111.553 228.075 111.502 228.736ZM108.698 231.067C108.973 230.738 109.241 230.414 109.52 230.078C109.78 229.765 110.093 229.585 110.455 229.552C110.608 229.538 110.769 229.551 110.939 229.59C111.085 229.625 111.2 229.677 111.343 229.708C111.311 229.831 111.288 229.941 111.252 230.065C111.03 230.805 110.731 231.497 110.354 232.174C110.178 232.144 110.003 232.124 109.828 232.086C109.646 232.046 109.466 232.018 109.287 231.979C109.158 231.952 109.031 231.919 108.903 231.874C108.55 231.747 108.454 231.36 108.698 231.067ZM108.122 225.39C108.574 225.228 109.048 225.125 109.469 225.006C109.809 224.911 110.025 224.915 110.351 224.928C110.355 224.928 110.356 224.929 110.359 224.93C110.573 224.987 110.667 225.177 110.582 225.382C110.431 225.743 110.249 226.096 110.067 226.441C109.814 226.921 109.528 227.372 109.231 227.823C109.193 227.794 109.147 227.769 109.111 227.741C108.986 227.643 108.872 227.558 108.751 227.451C108.688 227.395 108.587 227.304 108.528 227.247C108.335 227.057 108.178 226.871 108.012 226.662C107.934 226.564 107.86 226.447 107.783 226.346C107.778 226.339 107.775 226.332 107.771 226.324C107.564 225.942 107.739 225.528 108.122 225.39ZM89.3669 240.143C89.7425 240.705 90.1502 241.238 90.5914 241.75C90.4648 242.172 90.3655 242.595 90.2946 243.03C89.7743 242.11 89.4756 241.191 89.3669 240.143ZM97.492 234.27C97.5567 234.206 97.6217 234.143 97.6873 234.08C98.1425 233.644 98.6137 233.227 99.0676 232.789C99.1496 232.71 99.2208 232.631 99.3124 232.555C99.531 232.373 99.7834 232.379 100.003 232.564C100.005 232.565 100.006 232.566 100.008 232.568C100.375 232.96 100.774 233.309 101.165 233.682C101.375 233.883 101.368 234.182 101.143 234.373C100.679 234.767 100.265 235.19 99.8775 235.646C99.7587 235.786 99.6426 235.928 99.5283 236.074C99.3609 236.288 99.0645 236.322 98.8624 236.165C98.3661 235.778 97.9115 235.368 97.4805 234.931C97.2828 234.731 97.3037 234.456 97.492 234.27ZM96.7437 235.591C96.9684 235.811 97.1919 236.015 97.4187 236.221C97.584 236.371 97.7517 236.522 97.9218 236.68C98.3462 237.073 98.4527 237.591 98.2735 238.122C98.2646 238.147 98.2551 238.173 98.2452 238.199C98.1582 238.421 98.0537 238.623 97.9651 238.837C97.7606 239.327 97.5496 239.82 97.285 240.278C97.1381 240.531 96.8141 240.608 96.5843 240.408C95.7282 239.666 95.0205 238.818 94.3773 237.887C94.261 237.719 94.2763 237.498 94.4124 237.343C94.9503 236.734 95.5114 236.147 96.101 235.585C96.2847 235.41 96.5621 235.413 96.7437 235.591ZM94.9706 240.806C95.1576 241.008 95.3645 241.184 95.5625 241.387C95.8969 241.729 95.9146 242.209 95.5822 242.547C95.271 242.863 94.9337 243.1 94.5654 243.322C94.3119 243.475 94.0146 243.466 93.7743 243.299C93.2652 242.943 92.7848 242.576 92.3392 242.138C91.9389 241.745 91.8385 241.207 92.0728 240.7C92.3775 240.04 92.7918 239.468 93.1945 238.873C93.1953 238.872 93.1968 238.872 93.197 238.871C93.2732 238.783 93.4026 238.78 93.4686 238.879C93.9268 239.563 94.4118 240.199 94.9706 240.806ZM92.599 244.059C92.1335 244.151 91.6533 244.166 91.1775 244.167C91.173 244.162 91.1708 244.159 91.1656 244.155C91.1792 243.769 91.1942 243.383 91.2746 243.004C91.3161 242.81 91.536 242.745 91.6851 242.876C92.0102 243.16 92.3442 243.442 92.6799 243.712C92.8152 243.821 92.7758 244.025 92.599 244.059ZM102.134 233.223C101.642 232.828 101.203 232.393 100.759 231.951C100.757 231.95 100.756 231.947 100.754 231.945C100.528 231.658 100.509 231.329 100.733 231.043C101.02 230.677 101.306 230.354 101.583 229.983C101.785 229.71 102.006 229.431 102.221 229.162C102.222 229.16 102.227 229.156 102.229 229.154C102.609 228.785 103.138 228.758 103.491 229.168C103.991 229.748 104.475 230.247 105.037 230.765C105.45 231.145 105.4 231.73 104.973 232.07C104.547 232.409 104.09 232.655 103.631 232.934C103.404 233.072 103.177 233.199 102.933 233.314C102.664 233.442 102.367 233.411 102.134 233.223ZM103.943 228.573C103.936 228.565 103.929 228.558 103.923 228.547C103.644 228.019 103.899 227.656 104.317 227.234C104.336 227.221 104.359 227.205 104.387 227.186C104.664 226.999 105.824 226.286 106.377 226.066C106.529 226.005 106.809 226.044 106.915 226.242C107.305 226.966 107.795 227.574 108.381 228.147C108.406 228.171 108.433 228.19 108.457 228.216C108.616 228.386 108.639 228.628 108.491 228.809C108.024 229.377 107.532 229.92 106.994 230.414C106.703 230.683 106.304 230.728 105.98 230.504C105.19 229.958 104.55 229.305 103.943 228.573ZM108.043 224.195C107.671 224.316 107.302 224.445 106.935 224.58C106.863 224.355 106.801 224.128 106.749 223.898C107.188 223.965 107.617 224.067 108.043 224.195ZM102.608 224.702C103.083 224.427 103.576 224.219 104.09 224.07C104.629 223.914 105.142 223.85 105.7 223.836C105.897 223.831 106.047 223.965 106.108 224.148C106.143 224.252 106.163 224.362 106.197 224.465C106.197 224.466 106.197 224.468 106.198 224.47C106.239 224.682 106.157 224.888 105.959 224.977C105.076 225.375 104.273 225.833 103.464 226.361C103.131 226.577 102.739 226.449 102.577 226.089C102.473 225.857 102.406 225.612 102.341 225.369C102.271 225.106 102.38 224.834 102.608 224.702ZM98.6437 228.588C99.3351 227.645 100.059 226.74 100.914 225.966C101.257 225.655 101.679 225.813 101.859 226.19C101.969 226.42 102.053 226.677 102.152 226.911C102.25 227.146 102.2 227.386 102.027 227.566C101.6 228.011 101.204 228.458 100.832 228.95C100.549 229.323 100.268 229.691 99.9568 230.051C99.7349 230.308 99.3491 230.263 99.1585 230.022C98.9463 229.753 98.7815 229.475 98.6233 229.219C98.4873 228.999 98.5158 228.763 98.6437 228.588ZM97.4912 230.27C97.4918 230.268 97.4939 230.266 97.4949 230.265C97.6818 230.047 97.9611 230.033 98.1466 230.271C98.2816 230.444 98.3985 230.618 98.5271 230.811C98.7194 231.1 98.713 231.454 98.4784 231.72C98.0134 232.247 97.53 232.745 97.0409 233.242C96.9479 233.337 96.8542 233.432 96.7604 233.528C96.7595 233.529 96.7578 233.53 96.757 233.53C96.5661 233.681 96.3373 233.672 96.1733 233.496C96.0704 233.386 95.9859 233.278 95.9043 233.161C95.6807 232.84 95.6975 232.466 95.9582 232.187C96.1261 232.007 96.2893 231.828 96.4469 231.648C96.8268 231.213 97.176 230.768 97.4912 230.27ZM93.1231 234.209C93.1248 234.208 93.1273 234.207 93.1288 234.206C93.5051 234.024 93.8362 233.806 94.2033 233.597C94.5256 233.413 94.8748 233.476 95.1248 233.756C95.2228 233.866 95.3088 233.976 95.3965 234.097C95.5814 234.352 95.5749 234.671 95.3545 234.898C94.9125 235.355 94.488 235.799 94.0499 236.255C93.8419 236.471 93.5062 236.424 93.3608 236.161C93.1605 235.801 92.9874 235.446 92.8282 235.061C92.6889 234.722 92.8162 234.404 93.1231 234.209ZM90.8881 235.878C91.2464 235.502 91.8064 235.626 92.045 236.087C92.0466 236.09 92.0502 236.095 92.0512 236.097C92.225 236.54 92.4293 236.956 92.6283 237.391C92.7313 237.616 92.7131 237.848 92.5728 238.058C92.4063 238.305 92.2487 238.512 92.0823 238.776C91.9045 239.059 91.6791 239.403 91.5085 239.695C91.4215 239.843 91.3581 239.963 91.2772 240.102C91.1168 240.382 90.7432 240.375 90.5718 240.153C90.3042 239.806 90.053 239.428 89.8676 239.078C89.6138 238.598 89.5629 238.147 89.7546 237.663C90.023 236.985 90.3781 236.412 90.8881 235.878ZM95.0479 245.91C94.2292 245.872 93.477 245.67 92.7307 245.32C93.3349 245.255 93.9133 245.131 94.489 244.936C94.5047 244.931 94.519 244.924 94.5349 244.919C95.1755 245.262 95.8282 245.56 96.5086 245.821C96.0149 245.886 95.5531 245.934 95.0479 245.91ZM100.239 243.742C100.155 243.852 100.058 243.946 99.9616 244.04C99.416 244.571 98.828 244.982 98.1465 245.324C97.7389 245.188 97.3214 245.112 96.9265 244.927C96.3712 244.669 96.2677 244.078 96.6862 243.641C96.9312 243.386 97.1973 243.184 97.4223 242.915C97.4231 242.915 97.4244 242.914 97.4246 242.914C97.5264 242.819 97.6542 242.787 97.7837 242.84C98.5386 243.15 99.2774 243.342 100.09 243.401C100.091 243.402 100.093 243.402 100.094 243.402C100.271 243.434 100.347 243.599 100.239 243.742ZM102.106 240.432C101.902 241.005 101.627 241.64 101.327 242.192C100.958 242.175 100.593 242.14 100.228 242.082C99.9607 242.04 99.6976 241.982 99.4361 241.913C99.4185 241.908 99.4008 241.905 99.3834 241.898C98.9053 241.708 98.7171 241.285 98.9253 240.82C99.0536 240.535 99.2045 240.301 99.3322 240.021C99.5483 239.546 99.7654 239.067 100.011 238.605C100.011 238.604 100.013 238.603 100.014 238.602C100.128 238.43 100.329 238.373 100.51 238.466C101.192 238.821 101.861 239.142 102.584 239.396C102.384 239.752 102.249 240.028 102.106 240.432ZM104.694 237.388C104.131 237.706 103.636 238.096 103.19 238.571C102.709 238.388 102.207 238.242 101.755 237.989C101.204 237.683 101.079 237.074 101.47 236.59C101.602 236.428 101.743 236.281 101.891 236.145C102.185 235.873 102.506 235.637 102.831 235.39C102.844 235.38 102.871 235.367 102.886 235.356C102.886 235.355 102.888 235.355 102.889 235.355C103.096 235.271 103.285 235.282 103.481 235.385C103.545 235.419 103.598 235.455 103.658 235.488C103.913 235.63 104.169 235.765 104.428 235.892C104.953 236.15 105.49 236.378 106.047 236.578C105.603 236.869 105.158 237.125 104.694 237.388ZM107.647 235.37C107.274 235.676 106.789 235.781 106.316 235.627C106.099 235.556 105.888 235.486 105.682 235.402C105.527 235.341 105.374 235.271 105.222 235.189C104.776 234.949 104.751 234.443 105.137 234.127C105.217 234.061 105.303 234.015 105.388 233.957C105.926 233.598 106.412 233.213 106.922 232.803C107.276 232.519 107.719 232.418 108.157 232.554C108.366 232.618 108.569 232.682 108.77 232.742C109.115 232.846 109.456 232.941 109.816 233.017C109.664 233.218 109.54 233.403 109.375 233.599C108.84 234.232 108.3 234.832 107.647 235.37Z" fill="#FADA9D"/>
    <path d="M92.6662 246.982C90.3799 246.14 88.6355 244.111 88.0825 241.477C87.7364 239.828 87.9129 238.175 88.5927 236.695C89.3428 235.063 90.6857 233.738 92.4765 232.863C93.8435 232.194 95.2478 230.912 96.1411 229.517C98.1841 226.325 99.9734 224.42 101.942 223.337C104.393 221.991 107.082 221.997 110.162 223.356C111.194 223.453 112.581 223.685 113.017 224.545C113.233 224.972 113.182 225.476 112.865 226.044C113.522 228.469 112.986 231.034 111.312 233.47C109.934 235.477 107.81 237.366 105.333 238.789C105.106 238.92 104.302 239.471 103.519 241.069C102.715 242.71 101.883 244.407 100.546 245.624C99.0698 246.969 97.2091 247.532 94.6908 247.398C93.9833 247.36 93.3037 247.217 92.6662 246.982L92.6662 246.982ZM109.092 223.645C106.551 222.709 104.313 222.802 102.271 223.924C100.405 224.95 98.69 226.786 96.7103 229.878C95.7548 231.371 94.2474 232.745 92.7763 233.464C88.973 235.324 88.1988 238.753 88.7424 241.343C89.2777 243.893 91.3349 246.548 94.7239 246.728C99.8602 247.003 101.275 244.116 102.913 240.773C103.755 239.054 104.649 238.407 104.994 238.208C109.226 235.777 113.646 231.144 112.178 226.087C112.152 225.996 112.165 225.899 112.215 225.819C112.468 225.41 112.535 225.082 112.415 224.844C112.267 224.551 111.735 224.17 110.048 224.019C110.011 224.015 109.974 224.006 109.94 223.991C109.654 223.863 109.371 223.748 109.092 223.645L109.092 223.645Z" fill="#661407"/>
    <path d="M105.446 238.711C104.267 239.288 102.968 239.693 101.641 239.694C101.535 239.695 101.448 239.609 101.448 239.503C101.447 239.402 101.525 239.319 101.625 239.312C102.246 239.264 102.856 239.123 103.441 238.915C104.026 238.708 104.587 238.435 105.124 238.121C105.531 237.903 105.853 238.493 105.446 238.711L105.446 238.711Z" fill="#661407"/>
    <path d="M97.337 228.938C96.0998 230.674 94.7725 232.473 94.5082 234.635C94.4969 234.74 94.4017 234.816 94.2958 234.804C94.1931 234.792 94.118 234.702 94.1244 234.6C94.1612 234.037 94.2789 233.482 94.4476 232.947C94.9531 231.359 95.8805 229.931 96.7802 228.557C97.0412 228.189 97.5886 228.559 97.337 228.938Z" fill="#661407"/>
    </g>
    </g>
    <defs>
    <clipPath id="clip0_0_2157">
    <rect width="322.16" height="400" fill="white" transform="translate(0.919983 0.935059)"/>
    </clipPath>
    <clipPath id="clip1_0_2157">
    <rect width="20.5846" height="28.5017" fill="white" transform="translate(95.576 217.679) rotate(20.2286)"/>
    </clipPath>
    </defs>
    </svg>
    