<svg width="390" height="401" viewBox="0 0 390 401" fill="none" xmlns="http://www.w3.org/2000/svg">
    <g clip-path="url(#clip0_0_1253)">
    <path d="M61.5105 301.833C43.5782 301.833 27.9242 311.589 19.5708 326.088C15.4719 333.189 13.1284 341.429 13.1284 350.215C13.1284 376.934 34.7922 398.591 61.5105 398.591C72.7318 398.591 83.0603 394.767 91.2732 388.361C102.6 379.504 109.886 365.714 109.886 350.215C109.886 323.497 88.2287 301.833 61.5105 301.833ZM61.5105 374.046C48.3419 374.046 37.6727 363.377 37.6727 350.217C37.6727 348.093 37.9495 346.033 38.4724 344.072C41.1762 333.884 50.4657 326.38 61.5091 326.38C74.6707 326.38 85.3399 337.05 85.3399 350.218C85.3399 351.925 85.1632 353.588 84.8225 355.188C82.5359 365.963 72.9641 374.048 61.5091 374.048L61.5105 374.046Z" fill="#657C8B"/>
    <path d="M301.463 350.216C301.463 363.378 290.793 374.045 277.632 374.045C264.47 374.045 253.794 363.376 253.794 350.216C253.794 337.056 264.463 326.378 277.632 326.378C290.8 326.378 301.463 337.047 301.463 350.216Z" fill="#C6C5C8"/>
    <g opacity="0.6">
    <path d="M65.2141 304.311C74.3603 304.311 82.9127 306.852 90.2049 311.264C82.1769 305.339 72.2574 301.834 61.5117 301.834C34.7935 301.834 13.1296 323.498 13.1296 350.216C13.1296 367.781 22.4956 383.159 36.507 391.632C24.5707 382.825 16.832 368.666 16.832 352.693C16.832 325.975 38.4959 304.311 65.2141 304.311ZM76.5134 331.696C81.9015 336.064 85.3411 342.741 85.3411 350.216C85.3411 363.378 74.6719 374.046 61.5103 374.046C57.4114 374.046 53.5532 373.012 50.1902 371.193C54.289 374.527 59.5144 376.524 65.2127 376.524C78.3743 376.524 89.0422 365.855 89.0422 352.695C89.0422 343.618 83.9725 335.725 76.5106 331.697L76.5134 331.696Z" fill="white"/>
    </g>
    <g opacity="0.6">
    <path d="M85.3412 350.215C85.3412 363.377 74.672 374.044 61.5104 374.044C57.4116 374.044 53.5533 373.011 50.1903 371.192C42.7353 367.164 37.674 359.276 37.674 350.215C37.674 337.046 48.3432 326.377 61.5118 326.377C67.1962 326.377 72.4216 328.366 76.5135 331.694C81.9016 336.063 85.3412 342.739 85.3412 350.215Z" fill="white"/>
    </g>
    <path d="M61.5092 400.715C33.663 400.715 11.0074 378.059 11.0074 350.213C11.0074 322.367 33.6616 299.711 61.5092 299.711C89.3568 299.711 112.011 322.365 112.011 350.213C112.011 378.061 89.3568 400.715 61.5092 400.715ZM61.5092 303.959C36.0052 303.959 15.2551 324.708 15.2551 350.213C15.2551 375.718 36.0038 396.467 61.5092 396.467C87.0146 396.467 107.763 375.717 107.763 350.213C107.763 324.709 87.0146 303.959 61.5092 303.959Z" fill="#371A45"/>
    <path d="M61.5092 376.172C47.196 376.172 35.5504 364.526 35.5504 350.213C35.5504 335.9 47.196 324.254 61.5092 324.254C75.8224 324.254 87.468 335.9 87.468 350.213C87.468 364.526 75.8224 376.172 61.5092 376.172ZM61.5092 328.502C49.5382 328.502 39.798 338.241 39.798 350.213C39.798 362.185 49.5368 371.924 61.5092 371.924C73.4816 371.924 83.2204 362.184 83.2204 350.213C83.2204 338.242 73.4816 328.502 61.5092 328.502Z" fill="#371A45"/>
    <path d="M61.5104 376.17C47.1958 376.17 35.5502 364.527 35.5502 350.217C35.5502 335.906 47.1958 324.255 61.5104 324.255C75.8251 324.255 87.4651 335.901 87.4651 350.217C87.4651 364.533 75.8223 376.17 61.5104 376.17ZM61.5104 328.503C49.538 328.503 39.7979 338.243 39.7979 350.217C39.7979 362.191 49.538 371.922 61.5104 371.922C73.4829 371.922 83.2174 362.185 83.2174 350.217C83.2174 338.249 73.4801 328.503 61.5104 328.503Z" fill="#371A45"/>
    <path d="M85.3414 350.216C85.3414 363.378 74.6722 374.045 61.5106 374.045C48.349 374.045 37.6728 363.376 37.6728 350.216C37.6728 337.056 48.342 326.378 61.5106 326.378C74.6791 326.378 85.3414 337.047 85.3414 350.216Z" fill="#C6C5C8"/>
    <g opacity="0.3">
    <path d="M109.887 350.215C109.887 365.712 102.602 379.504 91.2744 388.361C103.614 367.285 88.5206 357.246 84.8251 355.185C84.3369 354.916 84.0462 354.781 84.0462 354.781L82.5455 358.151C82.5455 358.172 82.5316 361.423 73.6037 369.295C64.648 377.203 56.0818 372.219 56.0818 372.219C74.3116 374.045 83.1407 357.295 76.1378 349.033C75.8763 357.43 71.0334 361.961 63.1111 363.886C69.3978 360.898 75.9459 350.633 67.8762 347.121L65.5535 346.731L52.364 339.375L48.6894 342.306C43.1177 339.197 38.6781 343.849 38.4736 344.068L38.4667 344.075C40.4208 331.332 21.476 328.047 21.476 328.047L19.572 326.085C27.9254 311.586 43.5794 301.83 61.5116 301.83C88.2299 301.83 109.887 323.494 109.887 350.212V350.215Z" fill="#371A45"/>
    </g>
    <path d="M61.5104 376.17C47.1958 376.17 35.5502 364.527 35.5502 350.217C35.5502 335.906 47.1958 324.255 61.5104 324.255C75.8251 324.255 87.4651 335.901 87.4651 350.217C87.4651 364.533 75.8223 376.17 61.5104 376.17ZM61.5104 328.503C49.538 328.503 39.7979 338.243 39.7979 350.217C39.7979 362.191 49.538 371.922 61.5104 371.922C73.4829 371.922 83.2174 362.185 83.2174 350.217C83.2174 338.249 73.4801 328.503 61.5104 328.503Z" fill="#371A45"/>
    <path d="M61.5092 366.616C52.4659 366.616 45.1083 359.258 45.1083 350.215C45.1083 341.171 52.4659 333.814 61.5092 333.814C70.5525 333.814 77.9101 341.171 77.9101 350.215C77.9101 359.258 70.5525 366.616 61.5092 366.616ZM61.5092 337.352C54.4173 337.352 48.648 343.121 48.648 350.213C48.648 357.305 54.4173 363.076 61.5092 363.076C68.6012 363.076 74.3704 357.307 74.3704 350.213C74.3704 343.12 68.6012 337.352 61.5092 337.352Z" fill="#371A45"/>
    <path d="M68.4005 351.824C69.2986 348.018 66.9419 344.205 63.1366 343.307C59.3313 342.409 55.5184 344.766 54.6203 348.571C53.7221 352.376 56.0789 356.189 59.8842 357.087C63.6895 357.986 67.5024 355.629 68.4005 351.824Z" fill="#371A45"/>
    <path d="M277.632 301.833C250.914 301.833 229.25 323.497 229.25 350.215C229.25 376.934 250.914 398.591 277.632 398.591C304.35 398.591 326.007 376.934 326.007 350.215C326.007 323.497 304.35 301.833 277.632 301.833ZM277.632 374.046C264.463 374.046 253.794 363.377 253.794 350.217C253.794 337.057 264.463 326.379 277.632 326.379C290.801 326.379 301.463 337.048 301.463 350.217C301.463 363.385 290.794 374.046 277.632 374.046Z" fill="#657C8B"/>
    <g opacity="0.3">
    <path d="M326.007 350.216C326.007 376.934 304.35 398.591 277.632 398.591C262.071 398.591 248.222 391.242 239.38 379.83C247.798 386.939 258.673 391.221 270.552 391.221C287.458 391.221 302.34 382.549 310.991 369.401C310.998 369.394 310.998 369.38 311.005 369.374C318.955 354.569 309.972 351.519 300.966 355.066C298.778 351.654 291.126 355.873 291.126 355.873C291.126 355.873 283.925 350.924 279.735 355.907C275.544 360.892 274.255 363.546 268.712 361.805C263.168 360.063 257.037 362.215 257.037 362.215C244.095 356.141 236.443 359.021 233.215 369.401L230.589 361.543C230.589 361.543 229.4 347.066 229.817 346.457C230.241 345.847 237.322 340.538 238.383 340.064C239.446 339.597 284.635 339.271 286.879 339.377C289.124 339.476 293.839 338.917 297.145 339.377C299.885 339.753 313.746 339.732 318.866 340.39C318.357 330.181 314.682 320.808 308.806 313.225C319.326 322.089 326.01 335.377 326.01 350.216H326.007Z" fill="#371A45"/>
    </g>
    <path d="M277.631 400.715C249.784 400.715 227.129 378.059 227.129 350.213C227.129 322.367 249.784 299.711 277.631 299.711C305.477 299.711 328.132 322.365 328.132 350.213C328.132 378.061 305.478 400.715 277.631 400.715ZM277.631 303.959C252.127 303.959 231.377 324.708 231.377 350.213C231.377 375.718 252.127 396.467 277.631 396.467C303.135 396.467 323.885 375.717 323.885 350.213C323.885 324.709 303.136 303.959 277.631 303.959Z" fill="#371A45"/>
    <path d="M277.631 376.172C263.317 376.172 251.672 364.526 251.672 350.213C251.672 335.9 263.317 324.254 277.631 324.254C291.944 324.254 303.589 335.9 303.589 350.213C303.589 364.526 291.944 376.172 277.631 376.172ZM277.631 328.502C265.66 328.502 255.919 338.241 255.919 350.213C255.919 362.185 265.66 371.924 277.631 371.924C289.602 371.924 299.342 362.184 299.342 350.213C299.342 338.242 289.603 328.502 277.631 328.502Z" fill="#371A45"/>
    <path d="M277.632 376.17C263.317 376.17 251.67 364.527 251.67 350.217C251.67 335.906 263.316 324.255 277.632 324.255C291.948 324.255 303.585 335.901 303.585 350.217C303.585 364.533 291.942 376.17 277.632 376.17ZM277.632 328.503C265.66 328.503 255.918 338.243 255.918 350.217C255.918 362.191 265.658 371.922 277.632 371.922C289.606 371.922 299.338 362.185 299.338 350.217C299.338 338.249 289.6 328.503 277.632 328.503Z" fill="#371A45"/>
    <path d="M277.632 376.17C263.317 376.17 251.67 364.527 251.67 350.217C251.67 335.906 263.316 324.255 277.632 324.255C291.948 324.255 303.585 335.901 303.585 350.217C303.585 364.533 291.942 376.17 277.632 376.17ZM277.632 328.503C265.66 328.503 255.918 338.243 255.918 350.217C255.918 362.191 265.658 371.922 277.632 371.922C289.606 371.922 299.338 362.185 299.338 350.217C299.338 338.249 289.6 328.503 277.632 328.503Z" fill="#371A45"/>
    <path d="M277.631 366.616C268.587 366.616 261.23 359.258 261.23 350.215C261.23 341.171 268.587 333.814 277.631 333.814C286.674 333.814 294.031 341.171 294.031 350.215C294.031 359.258 286.674 366.616 277.631 366.616ZM277.631 337.352C270.539 337.352 264.768 343.121 264.768 350.213C264.768 357.305 270.537 363.076 277.631 363.076C284.724 363.076 290.492 357.307 290.492 350.213C290.492 343.12 284.723 337.352 277.631 337.352Z" fill="#371A45"/>
    <path d="M284.512 351.823C285.41 348.017 283.054 344.204 279.248 343.306C275.443 342.408 271.63 344.765 270.732 348.57C269.834 352.375 272.191 356.188 275.996 357.086C279.801 357.985 283.614 355.628 284.512 351.823Z" fill="#371A45"/>
    <path d="M355.784 306.966V323.193C355.784 324.758 354.517 326.025 352.952 326.025H344.457V301.012H349.83C353.122 301.012 355.784 303.674 355.784 306.966Z" fill="#EF1649"/>
    <path d="M352.955 328.149H344.459C343.287 328.149 342.336 327.198 342.336 326.025V301.011C342.336 299.838 343.287 298.887 344.459 298.887H349.828C354.284 298.887 357.91 302.513 357.91 306.969V323.194C357.91 325.927 355.688 328.149 352.956 328.149H352.955ZM346.582 323.901H352.955C353.344 323.901 353.663 323.583 353.663 323.194V306.969C353.663 304.854 351.942 303.135 349.828 303.135H346.583V323.903L346.582 323.901Z" fill="#371A45"/>
    <path d="M220.86 352.043L277.924 356.416C281.02 356.654 283.867 354.712 284.775 351.743C286.03 347.649 283.135 343.456 278.863 343.178L220.653 339.375" fill="#A7AEB7"/>
    <path d="M348.457 326.62C348.563 329.027 346.899 331.144 344.542 331.611L340.507 332.397L334.765 315.781L326.836 292.857L342.772 294.316C345.187 294.536 347.07 296.504 347.183 298.925L347.282 301.014L347.501 305.857L347.848 313.369L348.131 319.465L348.429 326.029L348.457 326.624V326.62Z" fill="#EF1649"/>
    <g opacity="0.3">
    <path d="M355.784 308.624V323.195C355.784 324.759 354.517 326.027 352.952 326.027H348.428L348.455 326.622C348.561 329.029 346.898 331.146 344.54 331.614L340.505 332.399L334.764 315.783C338.658 315.677 341.985 312.993 344.455 310.099C345.702 308.64 346.728 307.125 347.5 305.858C348.59 304.08 349.177 302.785 349.177 302.785L347.846 313.37L347.053 319.656C347.429 319.622 347.789 319.558 348.13 319.466C353.766 318.036 354.607 309.745 354.607 309.745L355.782 308.627L355.784 308.624Z" fill="#371A45"/>
    </g>
    <path d="M340.504 334.522C339.508 334.522 338.621 333.82 338.422 332.806C338.197 331.655 338.946 330.539 340.098 330.314L344.13 329.525C345.449 329.266 346.396 328.062 346.333 326.72L345.058 299.022C344.995 297.668 343.93 296.552 342.578 296.428L326.643 294.972C325.475 294.865 324.614 293.832 324.722 292.663C324.829 291.495 325.87 290.636 327.031 290.743L342.966 292.199C346.418 292.515 349.143 295.363 349.301 298.826L350.577 326.524C350.735 329.952 348.314 333.034 344.945 333.692L340.914 334.481C340.777 334.509 340.639 334.521 340.504 334.521V334.522Z" fill="#371A45"/>
    <path d="M278.451 358.56C278.223 358.56 277.992 358.552 277.761 358.533L220.697 354.161C219.528 354.072 218.653 353.051 218.742 351.881C218.831 350.711 219.862 349.838 221.022 349.926L278.085 354.298C280.208 354.458 282.12 353.155 282.745 351.122C283.151 349.795 282.932 348.379 282.144 347.237C281.357 346.095 280.11 345.389 278.725 345.298L220.514 341.496C219.344 341.419 218.457 340.408 218.533 339.237C218.61 338.066 219.613 337.195 220.792 337.256L279.003 341.059C281.692 341.234 284.111 342.607 285.64 344.824C287.17 347.041 287.596 349.791 286.806 352.366C285.665 356.093 282.287 358.561 278.451 358.561V358.56Z" fill="#371A45"/>
    <path d="M259.48 355.001L261.154 347.103L271.657 347.904L275.055 356.196" fill="#371A45"/>
    <path d="M95.9606 201.189L95.3946 212.396L91.5781 215.038L81.0646 222.316C78.856 223.837 76.2356 224.659 73.5527 224.659H56.6038C54.7484 224.659 53.2477 223.159 53.2477 221.303V184.737C53.2477 183.568 54.1753 182.613 55.3506 182.57C58.9334 182.435 62.4231 182.421 65.7583 182.62C76.0451 183.215 84.8589 185.756 90.4306 192.574L95.9593 201.19L95.9606 201.189Z" fill="#24A7F1"/>
    <path d="M224.492 340.539V356.956C224.492 359.866 222.134 362.217 219.225 362.217H183.592C182.042 362.217 180.605 361.651 179.494 360.688C178.524 359.859 177.809 358.734 177.489 357.417L173.425 340.539L210.686 331.774L216.357 335.377L224.492 340.539Z" fill="#C6C5C8"/>
    <g opacity="0.3">
    <path d="M224.492 340.539V356.956C224.492 359.866 222.135 362.216 219.225 362.216H183.593C182.042 362.216 180.605 361.65 179.494 360.688C230.22 361.254 209.944 341.48 209.944 341.48L216.358 335.377L224.493 340.539H224.492Z" fill="#371A45"/>
    </g>
    <path d="M219.223 364.345H183.592C179.697 364.345 176.338 361.7 175.425 357.912L171.363 341.037C171.087 339.897 171.79 338.749 172.93 338.475C174.068 338.204 175.218 338.902 175.492 340.043L179.556 356.918C180.007 358.79 181.667 360.099 183.592 360.099H219.223C220.956 360.099 222.365 358.69 222.365 356.957V341.708L209.546 333.573C208.555 332.944 208.262 331.632 208.891 330.641C209.519 329.652 210.832 329.358 211.823 329.986L225.628 338.747C226.241 339.136 226.614 339.813 226.614 340.541V356.957C226.614 361.031 223.3 364.345 219.226 364.345H219.223Z" fill="#371A45"/>
    <path d="M148.163 240.892C148.163 240.892 131.655 251.537 129.886 265.507C128.116 279.475 133.249 297.804 132.718 305.543C132.187 313.281 123.691 315.862 123.691 315.862C123.691 315.862 126.346 321.939 131.125 321.859C135.904 321.778 159.974 318.736 160.506 316.983C161.037 315.229 164.872 313.359 161.803 301.285C158.735 289.211 156.109 251.099 156.109 251.099" fill="white"/>
    <path d="M131.029 323.983C124.992 323.983 121.876 317.011 121.746 316.712C121.504 316.157 121.509 315.524 121.764 314.974C122.018 314.423 122.495 314.007 123.075 313.83C123.359 313.743 130.178 311.549 130.601 305.399C130.797 302.548 130.13 297.909 129.355 292.539C128.163 284.254 126.678 273.944 127.78 265.242C129.654 250.462 146.305 239.566 147.015 239.108C148.001 238.471 149.315 238.758 149.951 239.742C150.586 240.729 150.302 242.043 149.316 242.679C149.094 242.823 133.614 252.997 131.995 265.776C130.964 273.909 132.404 283.903 133.559 291.934C134.368 297.543 135.066 302.389 134.838 305.69C134.405 311.982 129.725 315.352 126.747 316.872C127.694 318.195 129.194 319.737 131.035 319.737C131.053 319.737 131.071 319.737 131.091 319.737C136.106 319.652 155.365 317.042 158.778 315.633C158.945 315.312 159.139 315.017 159.329 314.726C160.326 313.206 161.995 310.661 159.746 301.809C156.667 289.689 154.1 252.811 153.992 251.246C153.912 250.077 154.795 249.063 155.965 248.982C157.132 248.901 158.148 249.784 158.229 250.954C158.255 251.332 160.876 289.013 163.862 300.763C166.571 311.427 164.169 315.088 162.879 317.054C162.748 317.255 162.568 317.529 162.528 317.626C162.121 318.976 161.791 320.065 147.718 322.149C141.191 323.116 133.763 323.939 131.16 323.982C131.116 323.982 131.073 323.982 131.028 323.982L131.029 323.983ZM158.474 316.363C158.474 316.363 158.474 316.366 158.474 316.367C158.474 316.366 158.474 316.364 158.474 316.363Z" fill="#371A45"/>
    <path d="M152.528 153.162L148.202 159.215C148.202 159.215 141.306 170.543 140.245 172.221C139.183 173.899 120.684 181.871 120.33 182.473C119.975 183.075 110.418 190.183 99.6212 187.443C97.617 186.934 95.6851 186.254 93.8367 185.418C85.7016 181.75 79.1882 175.202 75.7264 168.065C72.4204 161.247 71.1032 155.4 73.6374 148.214C73.6443 148.193 73.6513 148.171 73.6582 148.15C73.9976 147.187 74.4093 146.203 74.8975 145.19C74.9044 145.183 74.9044 145.176 74.9044 145.176C75.4357 144.051 76.0658 142.89 76.7876 141.687C83.0673 131.251 90.685 133.899 90.685 133.899C92.5404 124.964 97.496 122.133 102.012 124.172C106.521 126.204 103.16 134.607 103.244 138.415C103.336 142.225 107.847 151.747 107.847 151.747C114.537 157.41 126.049 159.655 135.139 156.943C144.23 154.224 152.526 153.162 152.526 153.162H152.528Z" fill="white"/>
    <path d="M65.7597 182.62V224.658H56.6051C54.7497 224.658 53.249 223.158 53.249 221.302V184.736C53.249 183.567 54.1767 182.612 55.3519 182.569C58.9348 182.434 62.4244 182.42 65.7597 182.619V182.62Z" fill="#C6C5C8"/>
    <g opacity="0.3">
    <path d="M91.5781 215.038L81.0646 222.316C78.856 223.838 76.2356 224.66 73.5527 224.66H56.6038C54.7484 224.66 53.2477 223.159 53.2477 221.304V212.632C79.7962 221.459 84.016 198.578 84.016 198.578L87.2303 205.289C88.3555 207.095 90.4793 212.623 91.5767 215.038H91.5781Z" fill="#371A45"/>
    </g>
    <g opacity="0.6">
    <path d="M95.9607 201.188L95.7549 205.287L90.4307 196.996C84.859 190.178 76.0452 187.637 65.7584 187.042C62.4246 186.843 58.9335 186.858 55.3507 186.992C54.1754 187.035 53.2477 187.991 53.2477 189.159V184.735C53.2477 183.566 54.1754 182.611 55.3507 182.568C58.9335 182.433 62.4232 182.419 65.7584 182.618C76.0452 183.213 84.859 185.754 90.4307 192.572L95.9593 201.188H95.9607Z" fill="white"/>
    </g>
    <path d="M104.642 190.185C102.85 190.185 100.99 189.98 99.0984 189.499C88.3096 186.758 78.6223 178.898 73.8169 168.987C69.4274 159.935 68.0894 152.028 74.97 140.593C79.9729 132.28 85.8993 131.299 89.0857 131.492C90.6768 125.851 93.3959 123.391 95.4989 122.318C97.7938 121.15 100.417 121.118 102.884 122.229C107.627 124.368 106.592 130.346 105.836 134.712C105.587 136.146 105.353 137.499 105.373 138.364C105.427 140.709 107.893 146.81 109.566 150.413C115.764 155.4 126.398 157.331 134.534 154.903C143.686 152.171 151.913 151.1 152.259 151.056C153.424 150.903 154.486 151.729 154.636 152.893C154.785 154.056 153.963 155.12 152.801 155.27C152.718 155.281 144.557 156.345 135.751 158.974C126.046 161.873 113.736 159.514 106.474 153.369C106.243 153.173 106.057 152.931 105.926 152.657C105.445 151.64 101.222 142.601 101.126 138.465C101.097 137.186 101.366 135.633 101.651 133.989C102.169 130.993 102.88 126.889 101.137 126.103C99.8328 125.514 98.5852 125.514 97.4266 126.104C95.2972 127.189 93.6407 130.111 92.7631 134.332C92.6393 134.93 92.2624 135.446 91.7297 135.748C91.197 136.049 90.5614 136.106 89.9842 135.905C89.7603 135.835 83.8505 134.072 78.6098 142.783C72.6918 152.618 73.7724 159.159 77.639 167.133C81.9131 175.948 90.5364 182.94 100.144 185.382C109.046 187.644 117.319 182.313 118.64 181.162C119.027 180.595 119.709 180.249 125.676 177.447C129.736 175.542 137.224 172.026 138.54 170.935C139.845 168.85 146.325 158.217 146.391 158.108C147.002 157.106 148.309 156.789 149.311 157.4C150.312 158.01 150.629 159.316 150.02 160.319C149.738 160.782 143.097 171.679 142.037 173.357C141.23 174.634 138.51 176.118 127.481 181.294C124.972 182.472 122.128 183.808 121.636 184.13C121.666 184.111 121.938 183.926 122.16 183.548C121.547 184.589 114.014 190.189 104.642 190.189V190.185Z" fill="#371A45"/>
    <path d="M109.806 151.355L107.845 159.183L105.56 151.444L109.806 151.355Z" fill="#371A45"/>
    <path d="M115.84 356.467C111.642 360.481 104.102 358.946 87.2313 349.622C70.3603 340.304 45.695 328.737 34.6085 328.297C29.518 328.091 24.938 328.042 21.4761 328.049C21.1437 328.049 20.8183 328.015 20.5067 327.951C19.9198 327.83 19.3885 327.604 18.9211 327.293C17.0727 326.067 16.2312 323.576 17.2994 321.332C24.5416 306.16 42.5239 293.338 58.68 293.338L75.3173 292.857L81.7806 296.383L87.2313 299.356C87.2313 299.356 89.2842 304.864 93.2704 311.526C96.1091 316.277 99.9256 321.607 104.698 325.948C116.139 336.369 120.032 352.455 115.841 356.469L115.84 356.467Z" fill="#24A7F1"/>
    <g opacity="0.3">
    <path d="M115.84 356.467C111.642 360.481 104.103 358.945 87.2316 349.621C70.3606 340.304 45.6953 328.736 34.6088 328.297C29.5183 328.091 24.9383 328.042 21.4764 328.049C21.144 328.049 20.8186 328.014 20.507 327.95C23.5655 327.561 27.0704 327.334 31.0705 327.292C81.8032 326.79 93.6045 351.392 97.4989 342.308C101.393 333.224 88.1538 312.857 88.1538 312.857L93.2721 311.526C96.1108 316.277 99.9273 321.607 104.699 325.947C116.14 336.369 120.033 352.454 115.843 356.468L115.84 356.467Z" fill="#371A45"/>
    </g>
    <g opacity="0.6">
    <path d="M80.5554 295.71C79.1256 296.991 77.9142 298.654 77.0296 300.574C68.9947 296.248 59.6495 296.149 50.8914 298.647C48.8454 306.647 42.919 308.006 35.1678 306.251C27.2956 311.858 21.5389 319.271 20.3288 326.378L18.9199 327.292C17.0715 326.066 16.23 323.575 17.2982 321.331C24.5403 306.159 42.5226 293.337 58.6787 293.337L75.3161 292.856L80.5554 295.708V295.71Z" fill="white"/>
    </g>
    <path d="M73.5512 226.783H56.6065C53.5842 226.783 51.1252 224.324 51.1252 221.301V184.739C51.1252 182.42 52.9444 180.535 55.2671 180.446C68.6888 179.935 83.5654 180.816 92.0788 191.23C92.8215 192.138 92.688 193.476 91.7783 194.219C90.8701 194.96 89.5321 194.826 88.7908 193.918C82.9576 186.782 72.9796 184.028 55.4299 184.691C55.3993 184.691 55.3728 184.714 55.3728 184.739V221.301C55.3728 221.981 55.9264 222.536 56.6079 222.536H73.5526C75.8156 222.536 77.995 221.855 79.856 220.567L93.3277 211.245L93.8437 201.08C93.9022 199.907 94.9119 199.017 96.0719 199.066C97.243 199.125 98.1456 200.123 98.0858 201.295L97.517 212.504C97.4836 213.163 97.147 213.768 96.6046 214.144L82.2733 224.061C79.6988 225.842 76.6834 226.784 73.5526 226.784L73.5512 226.783Z" fill="#371A45"/>
    <path d="M65.7567 225.848C64.7789 225.848 63.9875 225.055 63.9875 224.079V182.469C63.9875 181.491 64.7803 180.7 65.7567 180.7C66.7331 180.7 67.5259 181.492 67.5259 182.469V224.079C67.5259 225.056 66.7331 225.848 65.7567 225.848Z" fill="#371A45"/>
    <path d="M45.7453 295.827L38.7883 292.771C36.9217 291.952 34.7645 292.154 33.083 293.306L23.8964 299.599C22.0077 300.893 21.0382 303.161 21.4096 305.42L22.6294 312.855" fill="#F7BC14"/>
    <path d="M110.286 360.665C104.991 360.665 97.482 357.713 86.205 351.484C67.7512 341.289 44.6144 330.823 34.521 330.419C30.2525 330.249 25.8811 330.177 21.4763 330.172H21.4665C19.1354 330.172 17.0033 328.999 15.7612 327.031C14.4997 325.032 14.3579 322.561 15.3815 320.416C23.1967 304.043 42.2138 291.217 58.6759 291.217C59.8484 291.217 60.7997 292.168 60.7997 293.34C60.7997 294.513 59.8484 295.464 58.6759 295.464C43.7159 295.464 26.3832 307.228 19.2133 322.245C18.8156 323.077 18.8656 323.995 19.3524 324.763C19.8184 325.501 20.5889 325.924 21.4665 325.924C21.6348 325.921 21.7697 325.924 21.9213 325.924C26.2163 325.924 30.5098 326.009 34.6907 326.174C46.2167 326.635 70.7513 338.092 88.2593 347.764C103.39 356.122 110.955 358.199 114.372 354.931C115.011 354.321 115.379 352.845 115.357 350.987C115.281 344.723 111.103 334.647 103.267 327.514C92.8574 318.036 86.8963 304.242 85.536 300.851L74.2979 294.719C73.2687 294.157 72.889 292.866 73.4509 291.837C74.0114 290.809 75.3021 290.427 76.3328 290.99L88.2496 297.492C88.6974 297.737 89.0437 298.136 89.2218 298.615C89.2802 298.772 95.2108 314.434 106.125 324.372C115.264 332.693 119.519 343.974 119.603 350.934C119.642 354.084 118.848 356.527 117.307 358.001C115.471 359.756 113.218 360.663 110.286 360.663V360.665Z" fill="#371A45"/>
    <path d="M99.6989 231.115L99.9757 220.097L86.8113 221.108C83.0282 221.399 79.9196 224.201 79.2451 227.934C77.5023 237.584 74.2575 255.528 73.0725 261.955C71.4202 270.923 59.8566 276.113 59.8566 276.113L58.6772 293.341C58.6772 293.341 77.0434 294.403 88.1562 305.965C99.2677 317.529 100.131 281.541 99.7003 277.293C99.2691 273.045 97.7322 241.423 97.7322 241.423" fill="#24A7F1"/>
    <g opacity="0.6">
    <path d="M99.9747 220.1L99.8968 223.321L89.9717 224.086C86.1844 224.377 83.0759 227.179 82.4041 230.911C80.6627 240.568 77.4123 258.507 76.2301 264.935C74.5806 273.905 63.0129 279.094 63.0129 279.094L62.0142 293.727C59.9474 293.409 58.6804 293.338 58.6804 293.338L59.8556 276.114C59.8556 276.114 71.4233 270.924 73.0729 261.955C74.2551 255.526 77.5041 237.587 79.2469 227.937C79.92 224.199 83.0272 221.396 86.8145 221.105L99.9761 220.1H99.9747Z" fill="white"/>
    </g>
    <g opacity="0.6">
    <path d="M88.9938 306.769C77.8295 297.248 61.8361 296.32 61.8361 296.32L62.0128 293.729C67.8251 294.62 79.9603 297.438 88.151 305.97C88.4347 306.267 88.7171 306.536 88.9938 306.769Z" fill="white"/>
    </g>
    <path d="M59.6869 278.589L70.3575 279.3L68.8248 293.932L58.6772 293.342" fill="#F7BC14"/>
    <path d="M92.1818 310.371C90.6643 310.371 88.7756 309.675 86.6253 307.437C76.2412 296.632 58.729 295.47 58.5538 295.461C57.9877 295.427 57.4578 295.169 57.0837 294.743C56.7095 294.317 56.5204 293.76 56.5593 293.195L57.7401 275.968C57.7944 275.186 58.2742 274.496 58.9891 274.175C59.092 274.128 69.5582 269.315 70.9852 261.57C72.1632 255.179 75.3678 237.457 77.1731 227.462C78.009 222.837 81.8672 219.358 86.5544 218.997L99.8147 217.979C100.42 217.933 101.004 218.143 101.439 218.556C101.875 218.971 102.115 219.549 102.1 220.15L101.823 231.169C101.795 232.341 100.818 233.281 99.6478 233.238C98.4753 233.209 97.5476 232.234 97.5782 231.063L97.7952 222.395L86.8798 223.234C84.119 223.447 81.845 225.497 81.354 228.219C79.5473 238.216 76.3414 255.944 75.1633 262.342C73.6431 270.592 65.0699 275.807 61.8946 277.477L60.9391 291.433C66.2702 292.096 80.2914 294.717 89.6893 304.497C90.2596 305.091 91.6741 306.437 92.503 306.049C92.9843 305.827 95.453 304.134 96.8786 292.602C97.7312 285.708 97.7312 278.926 97.588 277.512C97.1554 273.257 95.6742 242.824 95.6116 241.53C95.5546 240.359 96.4586 239.362 97.6297 239.305C98.7994 239.266 99.798 240.152 99.8551 241.323C99.8704 241.639 101.393 272.937 101.815 277.082C101.844 277.362 102.745 305.991 94.2875 309.905C93.7047 310.174 92.9968 310.375 92.1831 310.375L92.1818 310.371Z" fill="#371A45"/>
    <path d="M115.786 300.163C115.786 300.163 112.865 316.99 144.178 317.2C175.492 317.41 192.954 317.2 192.954 317.2C192.954 317.2 194.37 340.065 192.954 339.358C191.538 338.65 141.981 338.381 141.981 338.381L120.27 334.613L106.346 319.769L104.694 311.216" fill="#24A7F1"/>
    <path d="M137.032 330.067C116.184 330.067 114.171 319.1 114.092 318.602C113.937 317.637 114.594 316.729 115.559 316.575C116.51 316.417 117.417 317.067 117.583 318.02C117.626 318.225 119.842 327.856 141.387 326.37C142.362 326.306 143.208 327.039 143.275 328.014C143.341 328.989 142.606 329.835 141.631 329.902C140.005 330.014 138.472 330.066 137.031 330.066L137.032 330.067Z" fill="#371A45"/>
    <path d="M193.02 341.501C192.779 341.501 192.537 341.463 192.303 341.383C189.42 340.928 160.019 340.604 141.97 340.507C141.852 340.507 141.735 340.496 141.618 340.476L119.907 336.709C119.452 336.629 119.036 336.405 118.72 336.07L104.797 321.226C104.523 320.934 104.336 320.569 104.26 320.176L102.607 311.623C102.385 310.472 103.139 309.358 104.29 309.135C105.445 308.918 106.556 309.666 106.779 310.818L108.314 318.768L121.331 332.647L142.167 336.264C175.605 336.446 187.209 336.798 191.395 337.094C191.583 333.963 191.356 326.497 190.951 319.348C185.488 319.395 169.158 319.497 144.162 319.329C130.978 319.241 121.855 316.277 117.045 310.52C112.776 305.413 113.651 300.031 113.69 299.804C113.89 298.647 114.99 297.871 116.146 298.075C117.296 298.275 118.07 299.366 117.878 300.515C117.848 300.712 117.353 304.332 120.374 307.88C124.319 312.512 132.554 315.002 144.19 315.081C175.118 315.288 192.751 315.084 192.925 315.081C194.049 315.075 195 315.943 195.07 317.074C196.469 339.663 195.344 340.407 194.255 341.127C193.876 341.378 193.447 341.504 193.015 341.504L193.02 341.501ZM192.004 341.259C192.004 341.259 192.009 341.261 192.011 341.262C192.01 341.262 192.007 341.259 192.004 341.259ZM193.077 337.251C193.505 337.311 193.693 337.366 193.807 337.415C193.573 337.314 193.326 337.259 193.077 337.251Z" fill="#371A45"/>
    <path d="M117.388 338.383C93.0315 326.551 81.3317 308.445 82.0397 289.566C82.7476 270.686 88.1552 235.318 88.1552 235.318C88.1552 235.318 100.919 230.598 102.098 231.998C103.278 233.399 108.355 238.709 111.008 240.183C113.662 241.658 115.451 244.962 117.388 248.266C119.326 251.569 120.978 255.582 120.978 257.705C120.978 259.829 121.686 264.087 120.978 268.92C120.27 273.753 119.326 276.96 118.383 280.194C117.438 283.428 114.606 287.179 113.663 292.855C112.719 298.531 114.608 325.198 114.608 325.198L118.855 329.917" fill="#24A7F1"/>
    <g opacity="0.6">
    <path d="M117.709 336.547L117.391 338.38C93.0299 326.549 81.3343 308.447 82.0422 289.565C82.7501 270.684 88.1522 235.321 88.1522 235.321C88.1522 235.321 100.917 230.599 102.1 232.001C102.134 232.044 102.184 232.092 102.228 232.149C98.0717 233.091 92.0466 235.321 92.0466 235.321C92.0466 235.321 86.6445 270.683 85.9366 289.565C85.2634 307.497 95.7768 324.73 117.711 336.545L117.709 336.547Z" fill="white"/>
    </g>
    <path d="M273.249 257.707V249.388H339.267V258.946H273.249" fill="#8F8A99"/>
    <path d="M339.267 261.07H273.249C272.077 261.07 271.126 260.119 271.126 258.946C271.126 258.731 271.158 258.523 271.217 258.327C271.158 258.131 271.126 257.923 271.126 257.708V249.39C271.126 248.217 272.077 247.266 273.249 247.266H339.267C340.44 247.266 341.391 248.217 341.391 249.39V258.948C341.391 260.12 340.44 261.072 339.267 261.072V261.07ZM275.373 256.822H337.144V251.512H275.373V256.822Z" fill="#371A45"/>
    <path d="M184.577 321.659H204.508C210.025 321.659 214.956 325.258 216.478 330.561C216.821 331.757 217.058 333.102 217.144 334.614H161.805L173.84 322.839" fill="#77B1F2"/>
    <path d="M217.144 336.738H161.805C160.941 336.738 160.164 336.216 159.838 335.416C159.513 334.617 159.702 333.7 160.319 333.096L172.354 321.323C173.193 320.504 174.538 320.518 175.359 321.356C176.178 322.195 176.164 323.54 175.325 324.36L167.012 332.493H214.753C214.667 332.031 214.56 331.583 214.436 331.149C213.191 326.814 209.109 323.786 204.508 323.786H184.577C183.405 323.786 182.453 322.835 182.453 321.662C182.453 320.49 183.405 319.538 184.577 319.538H204.508C210.994 319.538 216.756 323.831 218.519 329.978C218.924 331.39 219.174 332.909 219.265 334.497C219.298 335.08 219.09 335.651 218.688 336.076C218.286 336.5 217.728 336.74 217.144 336.74V336.738Z" fill="#371A45"/>
    <path d="M315.904 322.84L275.197 334.614H167.763L168.167 333.716L175.197 318.119C195.317 317.651 211.962 289.085 183.218 281L179.388 276.404L176.584 273.048L212.775 257.233L230.007 251.102L252.236 254.344L295.139 256.765L307.407 273.636L315.903 322.84H315.904Z" fill="#24A7F1"/>
    <g opacity="0.3">
    <path d="M205.229 285.445C208.294 300.659 200.626 310.683 197.201 314.932C193.78 319.18 179.622 328.03 188.472 332.986C188.472 332.986 172.897 333.815 172.542 333.581C172.352 333.453 170.206 333.694 168.167 333.716L175.197 318.119C195.317 317.651 211.962 289.085 183.218 281L179.388 276.404L183.218 271.866L231.559 258.953C230.716 259.279 202.199 270.459 205.23 285.445H205.229Z" fill="#371A45"/>
    </g>
    <path d="M275.196 336.738H167.763C167.041 336.738 166.371 336.372 165.979 335.767C165.588 335.162 165.531 334.4 165.827 333.742L173.261 317.248C173.596 316.503 174.331 316.017 175.147 315.998C186.064 315.742 195.371 306.425 196.399 298.264C197.289 291.195 192.405 285.79 182.644 283.046C182.231 282.93 181.862 282.691 181.588 282.361L174.951 274.407C174.523 273.894 174.361 273.21 174.514 272.559C174.667 271.908 175.119 271.368 175.731 271.1L211.925 255.289C211.971 255.269 212.016 255.251 212.063 255.234L229.29 249.098C230.393 248.701 231.61 249.28 232.004 250.386C232.397 251.49 231.82 252.706 230.716 253.099L213.558 259.211L180.026 273.859L184.432 279.14C200.647 283.964 201.157 294.463 200.612 298.794C199.262 309.519 188.225 319.208 176.601 320.17L171.048 332.489H274.895L313.488 321.327L305.4 274.484L294.012 258.825L252.115 256.462C250.944 256.397 250.049 255.393 250.115 254.223C250.181 253.052 251.208 252.147 252.355 252.223L295.257 254.642C295.894 254.677 296.479 254.996 296.855 255.512L309.126 272.385C309.318 272.648 309.446 272.952 309.502 273.272L317.997 322.476C318.181 323.543 317.534 324.577 316.494 324.878L275.785 336.652C275.593 336.708 275.394 336.735 275.195 336.735L275.196 336.738Z" fill="#371A45"/>
    <path d="M264.931 235.995C264.931 235.995 269.355 249.033 256.081 254.343H228.824L237.674 235.995L255.019 233.813" fill="#8F8A99"/>
    <path d="M256.081 256.467H228.824C228.094 256.467 227.414 256.092 227.026 255.473C226.638 254.854 226.595 254.079 226.912 253.42L235.762 235.072C236.075 234.424 236.695 233.977 237.41 233.887L254.755 231.704C255.914 231.554 256.981 232.383 257.128 233.547C257.274 234.71 256.449 235.773 255.285 235.92L239.086 237.959L232.208 252.219H255.662C266.415 247.655 263.068 237.122 262.918 236.67C262.55 235.56 263.149 234.357 264.258 233.984C265.366 233.611 266.568 234.204 266.942 235.312C268.697 240.482 268.85 251.524 256.869 256.315C256.619 256.416 256.351 256.467 256.081 256.467Z" fill="#371A45"/>
    <path d="M135.142 207.258C135.142 207.258 142.629 239.477 150.948 250.098C159.267 260.717 175.196 233.815 175.196 233.815L160.683 196.743L135.142 207.26V207.258Z" fill="white"/>
    <path d="M155.589 254.702C153.78 254.702 151.365 254.073 149.276 251.407C140.765 240.541 133.383 209.073 133.074 207.74C132.839 206.726 133.372 205.691 134.334 205.295L159.874 194.778C160.401 194.561 160.994 194.565 161.517 194.789C162.041 195.013 162.453 195.438 162.66 195.969L177.174 233.041C177.411 233.65 177.357 234.334 177.023 234.896C175.862 236.858 165.406 254.08 156.102 254.685C155.937 254.696 155.766 254.702 155.589 254.702ZM137.636 208.528C139.32 215.332 145.772 240.046 152.62 248.786C153.867 250.38 155.048 250.497 155.825 250.446C160.94 250.113 168.719 240.297 172.836 233.612L159.492 199.528L137.635 208.527L137.636 208.528Z" fill="#371A45"/>
    <path d="M159.977 242.309C159.236 242.309 158.517 241.921 158.126 241.23C149.607 226.145 143.307 204.666 143.042 203.759C142.714 202.632 143.361 201.454 144.489 201.126C145.617 200.797 146.793 201.446 147.122 202.571C147.184 202.788 153.552 224.49 161.824 239.139C162.402 240.16 162.041 241.457 161.019 242.034C160.689 242.22 160.331 242.309 159.976 242.309H159.977Z" fill="#371A45"/>
    <path d="M270.241 237.177C255.551 243.195 231.58 244.611 231.58 244.611C231.58 244.611 217.272 177.475 216.677 176.526C216.082 175.585 201.625 139.125 201.215 137.588C200.805 136.051 221.979 120.321 221.979 120.321C221.979 120.321 238.589 118.806 249.59 121.333C252.889 122.091 255.686 123.209 257.377 124.845C262.51 129.808 267.756 143.366 272.386 161.27V161.284C274.354 168.909 276.217 177.326 277.908 186.204C283.571 215.939 284.93 231.16 270.24 237.177H270.241Z" fill="white"/>
    <g opacity="0.3">
    <path d="M270.242 237.177C255.551 243.195 231.58 244.611 231.58 244.611C231.58 244.611 217.273 177.475 216.677 176.526C216.082 175.585 201.625 139.125 201.215 137.588C200.805 136.051 221.979 120.321 221.979 120.321C221.979 120.321 238.589 118.806 249.59 121.333V121.34C249.59 121.34 227.849 124.137 241.555 153.637C255.254 183.138 258.766 195.705 258.193 209.836C257.62 223.96 280.303 209.964 272.388 161.284C274.356 168.909 276.218 177.326 277.909 186.204C283.573 215.939 284.932 231.16 270.242 237.177Z" fill="#371A45"/>
    </g>
    <path d="M231.58 246.733C230.584 246.733 229.713 246.038 229.503 245.052C223.993 219.2 215.554 180.049 214.72 177.356C212.817 173.406 199.229 138.388 199.162 138.141C198.739 136.567 198.373 135.21 220.713 118.611C221.027 118.379 221.399 118.236 221.787 118.201C224.76 117.931 251.064 115.781 258.854 123.319C269.076 133.212 277.044 170.313 279.994 185.806C285.436 214.373 287.913 232.231 271.042 239.142C256.196 245.224 232.697 246.672 231.702 246.731C231.66 246.733 231.617 246.733 231.576 246.733H231.58ZM218.474 175.394C218.73 175.801 219.26 176.646 233.272 242.356C239.089 241.889 257.551 240.08 269.436 235.21C282.578 229.826 281.475 216.264 275.824 186.6C269.836 155.164 262.388 132.649 255.903 126.372C250.616 121.257 230.749 121.721 222.765 122.38C214.531 128.515 205.684 135.518 203.546 137.828C205.618 143.41 217.746 173.936 218.536 175.505C218.51 175.455 218.488 175.419 218.472 175.394H218.474ZM214.742 177.4C214.77 177.464 214.814 177.555 214.878 177.657C214.845 177.604 214.799 177.518 214.742 177.4Z" fill="#371A45"/>
    <path d="M237.555 256.291C220.565 270.45 184.578 277.297 184.578 277.297C184.578 277.297 193.902 321.071 188.592 324.137C184.486 326.508 159.113 332.052 147.784 334.444C144.251 335.195 140.676 333.404 139.126 330.14C137.158 326.005 136.691 322.593 137.052 319.81C138.022 312.291 145.053 309.388 145.053 309.388C145.053 309.388 139.623 281.777 140.097 263.604C140.564 245.438 167.764 229.919 167.764 229.919C167.608 229.601 167.452 229.268 167.303 228.927C166.426 226.987 165.604 224.68 164.84 222.244C163.381 217.564 162.157 212.411 161.307 208.446C161.257 208.226 161.216 208.006 161.166 207.788C161.145 207.682 161.122 207.568 161.095 207.462C160.387 204.078 159.976 201.778 159.976 201.778C159.976 201.778 150.242 206.202 135.552 211.689C126.553 215.052 117.364 214.429 111.587 213.444C107.927 212.814 105.64 212.042 105.64 212.042C105.64 212.042 106.135 214.833 100.861 219.299C99.7137 220.268 98.2491 220.758 96.6635 220.835C90.9499 221.119 83.5868 216.056 83.2196 208.856C82.9359 203.291 83.2544 197.72 86.7871 192.573H86.7941C89.0945 189.21 92.7761 186.025 98.5607 183.136C113.194 175.816 125.23 176.765 137.852 164.022C150.476 151.279 156.592 147.611 156.592 147.611C156.592 147.611 193.549 124.744 212.338 127.922C215.206 128.404 217.655 129.494 219.481 131.37C230.753 142.931 241.995 166.726 246.999 184.05C248.117 187.915 248.925 191.455 249.357 194.465C249.682 196.731 250.014 199.265 250.298 201.998C252.117 219.201 252.216 244.072 237.555 256.291Z" fill="white"/>
    <g opacity="0.3">
    <path d="M237.555 256.292C220.564 270.45 184.577 277.298 184.577 277.298C184.577 277.298 193.901 321.072 188.591 324.137C184.485 326.509 159.112 332.053 147.784 334.445C144.251 335.196 140.675 333.405 139.125 330.14C137.157 326.005 136.69 322.593 137.052 319.81C137.491 319.634 137.732 319.534 137.732 319.534C137.732 319.534 142.454 327.795 160.387 323.073C178.327 318.358 179.502 311.279 173.371 283.427C167.233 255.582 181.866 259.477 181.866 259.477C246.936 247.307 242.242 201.197 219.268 146.202C201.922 153.989 178.206 151.746 178.206 151.746L191.622 131.371H195.168C195.168 131.371 203.579 129.63 212.337 127.923C215.205 128.404 217.654 129.495 219.48 131.371C233.265 145.509 246.998 177.941 249.357 194.466C251.715 210.982 254.547 242.133 237.556 256.292H237.555Z" fill="#371A45"/>
    </g>
    <path d="M146.157 336.74C142.39 336.74 138.887 334.587 137.207 331.055C134.585 325.543 134.108 320.53 135.791 316.159C137.429 311.905 140.71 309.412 142.669 308.242C141.524 302.094 137.556 279.482 137.97 263.551C138.403 246.905 158.93 232.887 165.046 229.075C161.879 221.621 159.399 210.007 158.382 204.802C154.573 206.457 146.613 209.824 136.294 213.678C124.3 218.158 112.156 215.948 107.228 214.702C106.572 216.301 105.167 218.435 102.234 220.919C99.3672 223.347 95.0194 223.656 90.6035 221.745C85.1055 219.367 81.3752 214.35 81.0998 208.966C80.6283 199.778 81.4767 189.301 97.6106 181.235C102.951 178.565 107.886 176.987 112.657 175.462C121.194 172.733 128.567 170.375 136.343 162.525C148.827 149.924 155.058 146.058 155.485 145.799C155.915 145.535 168.235 137.978 182.05 132.226C201.511 124.124 214.617 123.335 221.001 129.885C234.81 144.051 248.955 176.63 251.458 194.162C256.037 226.218 251.935 247.074 238.915 257.924C223.897 270.439 195.165 277.231 187.085 278.951C187.842 282.693 189.446 290.91 190.674 299.257C193.788 320.421 192.021 324.608 189.65 325.978C185.626 328.301 164.9 332.995 148.221 336.525C147.53 336.671 146.838 336.742 146.155 336.742L146.157 336.74ZM159.976 199.654C160.317 199.654 160.656 199.736 160.967 199.899C161.548 200.205 161.954 200.763 162.068 201.409C162.102 201.597 165.43 220.333 169.671 228.984C170.164 229.991 169.79 231.208 168.817 231.765C168.555 231.913 142.652 246.907 142.217 263.662C141.756 281.386 147.079 308.706 147.133 308.98C147.328 309.973 146.795 310.966 145.859 311.353C145.824 311.368 141.429 313.274 139.738 317.73C138.51 320.963 138.949 324.832 141.041 329.231C142.179 331.623 144.772 332.913 147.342 332.367C169.212 327.742 184.5 323.921 187.421 322.358C187.747 321.858 189.259 318.356 186.322 298.879C184.699 288.111 182.519 277.841 182.497 277.738C182.379 277.18 182.49 276.596 182.806 276.12C183.123 275.644 183.617 275.316 184.177 275.209C184.532 275.141 219.826 268.301 236.195 254.661C247.825 244.969 251.544 224.817 247.251 194.764C244.85 177.958 230.861 146.09 217.957 132.851C207.623 122.252 170.96 141.216 157.706 149.418C157.699 149.422 157.693 149.426 157.684 149.43C157.624 149.467 151.559 153.198 139.357 165.514C130.846 174.103 122.638 176.729 113.946 179.508C109.328 180.985 104.554 182.51 99.5063 185.035C85.6535 191.96 84.8996 200.203 85.3377 208.749C85.5742 213.347 89.2293 216.524 92.2878 217.846C95.1474 219.083 97.9041 219.017 99.4841 217.678C103.039 214.667 103.466 212.743 103.518 212.33C103.296 211.599 103.536 210.939 104.085 210.384C104.657 209.807 105.547 209.77 106.315 210.03C106.459 210.078 121.028 214.845 134.805 209.699C149.258 204.299 158.997 199.888 159.093 199.843C159.373 199.717 159.673 199.653 159.972 199.653L159.976 199.654Z" fill="#371A45"/>
    <path d="M103.132 221.601C107.482 221.601 111.008 217.897 111.008 213.327C111.008 208.758 107.482 205.053 103.132 205.053C98.7816 205.053 95.2552 208.758 95.2552 213.327C95.2552 217.897 98.7816 221.601 103.132 221.601Z" fill="#5A4E68"/>
    <g opacity="0.3">
    <path d="M111.005 213.325C111.005 217.899 107.479 221.601 103.133 221.601C99.2885 221.601 96.0881 218.712 95.3941 214.882C96.7961 216.248 98.6723 217.083 100.739 217.083C105.092 217.083 108.618 213.381 108.618 208.815C108.618 208.284 108.568 207.761 108.476 207.257C110.034 208.765 111.004 210.925 111.004 213.324L111.005 213.325Z" fill="#371A45"/>
    </g>
    <path d="M103.133 223.372C97.8145 223.372 93.4862 218.866 93.4862 213.327C93.4862 207.789 97.8131 203.283 103.133 203.283C108.453 203.283 112.779 207.789 112.779 213.327C112.779 218.866 108.452 223.372 103.133 223.372ZM103.133 206.824C99.7659 206.824 97.0259 209.742 97.0259 213.329C97.0259 216.916 99.7659 219.834 103.133 219.834C106.5 219.834 109.239 216.916 109.239 213.329C109.239 209.742 106.5 206.824 103.133 206.824Z" fill="#371A45"/>
    <path d="M250.298 201.999C250.108 202.104 249.909 202.189 249.696 202.253C237.943 205.857 224.882 209.255 210.927 212.497C202.446 214.465 193.632 216.391 184.576 218.266C178.113 219.618 171.515 220.942 164.839 222.245C163.954 222.422 163.068 222.6 162.184 222.77C160.351 223.131 158.552 222.027 158.028 220.235C157.433 218.189 156.754 215.287 156.428 211.945C156.307 210.648 156.896 209.41 157.908 208.68C158.206 208.46 158.538 208.291 158.907 208.17C159.636 207.929 160.366 207.695 161.095 207.462C162.206 207.1 163.324 206.74 164.437 206.385C166.632 205.684 168.819 204.99 171.014 204.312C190.611 198.188 210.306 192.666 230.102 187.752C235.22 186.485 240.338 185.253 245.465 184.064C245.989 183.943 246.512 183.943 247.002 184.05C248.205 184.29 249.247 185.154 249.678 186.379C250.613 189.048 251.809 193.317 252.226 198.499C252.347 199.965 251.568 201.345 250.3 201.997L250.298 201.999Z" fill="white"/>
    <path d="M161.473 224.962C158.966 224.962 156.717 223.325 155.991 220.825C155.418 218.854 154.663 215.749 154.318 212.15C154.064 209.498 155.717 206.973 158.251 206.15C186.924 196.817 216.104 188.69 244.981 181.996C247.836 181.333 250.715 182.92 251.679 185.682C252.654 188.471 253.907 192.93 254.34 198.333C254.554 201.002 252.864 203.504 250.321 204.283C228.908 210.85 201.85 217.195 162.592 224.855C162.217 224.929 161.841 224.964 161.473 224.964V224.962ZM246.277 186.094C246.166 186.094 246.053 186.106 245.939 186.133C217.182 192.799 188.121 200.892 159.564 210.187C158.908 210.4 158.479 211.055 158.546 211.744C158.861 215.015 159.548 217.843 160.071 219.638C160.286 220.382 161.019 220.827 161.78 220.683C200.886 213.053 227.811 206.741 249.078 200.219C249.73 200.019 250.163 199.368 250.107 198.67C249.709 193.717 248.563 189.633 247.672 187.08C247.46 186.476 246.894 186.092 246.28 186.092L246.277 186.094Z" fill="#371A45"/>
    <path d="M159.043 199.87C161.172 198.511 163.634 197.322 165.811 195.947C170.319 193.109 174.516 189.728 178.041 185.702C179.857 183.704 181.383 181.464 182.808 179.124L182.025 181.023C181.283 182.845 180.187 184.844 179.138 186.518C176.157 191.241 172.296 195.383 168.001 198.966C165.78 200.762 163.59 202.571 160.91 203.688C158.442 204.658 156.775 201.219 159.044 199.872L159.043 199.87Z" fill="#371A45"/>
    <path d="M143.406 210.449C142.463 210.449 141.678 209.703 141.638 208.752C140.693 185.998 125.912 173.716 125.763 173.594C125.006 172.978 124.889 171.864 125.504 171.106C126.119 170.348 127.231 170.23 127.991 170.844C128.65 171.378 144.161 184.192 145.175 208.606C145.215 209.582 144.456 210.407 143.479 210.447C143.454 210.447 143.429 210.447 143.404 210.447L143.406 210.449Z" fill="#371A45"/>
    <path d="M167.259 227.856L185.402 225.613L168.266 231.983C167.159 232.394 165.928 231.83 165.516 230.724C165.025 229.454 165.908 228.008 167.257 227.856H167.259Z" fill="#371A45"/>
    <path d="M182.501 277.745L181.863 264.787L186.653 276.845C187.697 280.005 182.861 281.055 182.501 277.746V277.745Z" fill="#371A45"/>
    <path d="M143.407 291.335C142.969 291.335 142.53 291.174 142.188 290.848C141.48 290.175 141.451 289.054 142.124 288.346C155.865 273.883 184.536 279.379 185.75 279.621C186.708 279.812 187.331 280.742 187.141 281.702C186.95 282.66 186.02 283.285 185.06 283.093C184.783 283.039 157.083 277.738 144.692 290.784C144.344 291.15 143.877 291.335 143.408 291.335H143.407Z" fill="#371A45"/>
    <path d="M144.429 307.358C149.058 306.821 153.718 307.634 158.146 308.903C153.906 309.077 149.54 309.66 145.668 311.42L144.429 307.358Z" fill="#371A45"/>
    <g opacity="0.3">
    <path d="M97.7311 219.951C97.7311 219.951 97.3417 220.283 96.6616 220.836C90.948 221.119 83.5848 216.057 83.2176 208.856C82.9339 203.291 83.2524 197.72 86.7852 192.574H86.7921C86.7921 192.574 85.2344 214.4 96.6185 208.68C96.6185 208.68 93.4821 214.045 97.7298 219.951H97.7311Z" fill="#371A45"/>
    </g>
    <g opacity="0.3">
    <path d="M181.228 201.177L162.68 207.974C162.68 207.974 162.185 208.144 161.307 208.448C160.464 204.533 159.976 201.779 159.976 201.779C159.976 201.779 150.241 206.203 135.551 211.69C126.552 215.053 117.363 214.43 111.587 213.446C111.24 212.277 111.007 211.512 111.007 211.512L107.85 206.712L104.763 203.413C105.011 203.583 112.551 208.701 140.975 199.477C169.435 190.245 185.001 174.493 185.405 174.005C185.128 174.607 172.516 196.568 181.231 201.177H181.228Z" fill="#371A45"/>
    </g>
    <g opacity="0.3">
    <path d="M252.223 198.5C252.358 200.185 251.316 201.756 249.695 202.253C237.943 205.856 224.881 209.254 210.927 212.496C211.72 211.562 212.308 210.982 212.308 210.982C243.926 206.968 230.1 187.753 230.1 187.753C235.218 186.486 240.336 185.254 245.463 184.065C247.254 183.647 249.067 184.645 249.676 186.38C250.611 189.049 251.807 193.318 252.224 198.5H252.223Z" fill="#371A45"/>
    </g>
    <g opacity="0.3">
    <path d="M176.584 227.767C173.42 228.143 170.27 228.553 167.303 228.929C166.426 226.988 165.604 224.681 164.84 222.245C163.955 222.422 163.069 222.6 162.185 222.77C160.352 223.131 158.553 222.027 158.029 220.236C157.434 218.19 156.755 215.287 156.43 211.945C156.309 210.649 156.897 209.411 157.909 208.681H159.092L161.165 207.789L164.437 206.387L171.39 203.413C171.362 203.477 171.213 203.796 171.014 204.312C169.648 207.888 165.967 220.679 184.579 218.266C184.579 218.266 189.237 226.259 176.586 227.767H176.584Z" fill="#371A45"/>
    </g>
    <path d="M142.363 232.132C141.956 232.132 141.547 231.992 141.212 231.707C140.469 231.07 140.383 229.953 141.02 229.211L144.471 225.185L140.219 210.32C139.95 209.379 140.494 208.4 141.434 208.13C142.377 207.862 143.354 208.406 143.624 209.346L148.137 225.128C148.3 225.7 148.166 226.316 147.779 226.766L143.708 231.516C143.358 231.924 142.863 232.134 142.363 232.134V232.132Z" fill="#371A45"/>
    <g opacity="0.3">
    <path d="M157.143 218.593C157.143 218.593 152.343 212.922 148.77 214.43C145.197 215.938 140.684 222.838 140.684 222.838C140.684 222.838 136.613 212.95 137.321 212.497C138.029 212.043 159.09 203.165 159.09 203.165V205.495L156.416 208.68L157.056 214.227" fill="#371A45"/>
    </g>
    <g opacity="0.3">
    <path d="M158.117 219.389C158.117 219.389 160.099 227.089 155.169 228.416L151.745 221.071C151.745 221.071 154.879 234.836 145.082 239.192L148.164 244.611L167.138 229.389L164.223 222.838L159.975 222.133" fill="#371A45"/>
    </g>
    <path d="M257.436 127.688C251.722 126.34 242.366 130.813 237.028 133.624L234.135 135.229C240.068 130.54 246.37 125.868 253.811 123.912C255.391 123.574 257.053 123.301 258.671 123.638C261.554 124.421 260.276 128.639 257.436 127.688Z" fill="#371A45"/>
    <path d="M169.356 151.749C209.629 151.749 242.277 118.414 242.277 77.2941C242.277 36.1738 209.629 2.83917 169.356 2.83917C129.083 2.83917 96.4348 36.1738 96.4348 77.2941C96.4348 118.414 129.083 151.749 169.356 151.749Z" fill="white"/>
    <path d="M123.373 135.079C132.512 140.127 143.117 143.015 154.432 143.015C188.811 143.015 216.677 116.332 216.677 83.419C216.677 50.5059 188.811 23.8294 154.432 23.8294C130.885 23.8294 110.396 36.3387 99.8272 54.8022C87.8214 96.2454 111.284 122.321 123.374 135.078L123.373 135.079Z" fill="#371A45"/>
    <g opacity="0.35">
    <path d="M216.676 83.42C216.676 116.333 188.811 143.017 154.432 143.017C143.119 143.017 132.513 140.128 123.373 135.08C119.189 130.663 113.638 124.652 108.676 116.963C119.083 122.81 131.04 126.132 143.756 126.132C178.297 126.132 207.224 101.615 214.757 68.6937C216.01 73.4086 216.675 78.3364 216.675 83.42H216.676Z" fill="#111A28"/>
    </g>
    <g opacity="0.3">
    <path d="M242.277 77.2948C242.277 118.414 209.633 151.744 169.356 151.744C159.289 151.744 149.697 149.663 140.975 145.897C146.008 147.022 151.234 147.611 156.592 147.611C196.862 147.611 229.513 114.279 229.513 73.1542C229.513 42.3219 211.156 15.8721 184.996 4.5589C217.754 11.865 242.279 41.6487 242.279 77.2948H242.277Z" fill="#371A45"/>
    </g>
    <path d="M169.356 153.871C127.977 153.871 94.3111 119.519 94.3111 77.2925C94.3111 35.0664 127.975 0.715149 169.356 0.715149C210.736 0.715149 244.4 35.0677 244.4 77.2939C244.4 119.52 210.736 153.873 169.356 153.873V153.871ZM169.356 4.9628C130.319 4.9628 98.5588 37.4099 98.5588 77.2939C98.5588 117.178 130.317 149.624 169.356 149.624C208.394 149.624 240.153 117.177 240.153 77.2939C240.153 37.4113 208.393 4.9628 169.356 4.9628Z" fill="#371A45"/>
    <path d="M162.26 153.169C161.359 153.169 160.588 152.483 160.5 151.568C160.407 150.596 161.119 149.731 162.093 149.638C198.087 146.176 225.229 117.574 225.229 83.1092C225.229 46.235 193.696 16.2344 154.934 16.2344C140.156 16.2344 125.945 21.6114 113.836 31.7841C113.089 32.4127 111.971 32.3167 111.344 31.5671C110.715 30.8188 110.812 29.702 111.561 29.0733C124.315 18.3582 139.315 12.6946 154.936 12.6946C195.647 12.6946 228.769 44.2822 228.769 83.1092C228.769 100.681 221.943 117.51 209.546 130.495C197.254 143.372 180.522 151.422 162.432 153.161C162.374 153.166 162.317 153.169 162.26 153.169Z" fill="#371A45"/>
    <path d="M154.433 144.786C143.217 144.786 132.18 141.965 122.518 136.63C121.663 136.157 121.353 135.081 121.824 134.225C122.296 133.37 123.373 133.058 124.229 133.531C133.368 138.579 143.813 141.248 154.431 141.248C187.777 141.248 214.905 115.307 214.905 83.4204C214.905 51.5338 187.777 25.6 154.431 25.6C132.319 25.6 111.984 37.1274 101.362 55.6827C100.875 56.5297 99.7958 56.8246 98.946 56.3392C98.0976 55.8538 97.8041 54.7717 98.2895 53.9233C109.541 34.2692 131.054 22.0589 154.431 22.0589C189.728 22.0589 218.445 49.5852 218.445 83.4176C218.445 117.25 189.728 144.785 154.431 144.785L154.433 144.786Z" fill="#371A45"/>
    <path d="M226.996 94.6376C239.475 94.6376 249.591 83.4382 249.591 69.6231C249.591 55.808 239.475 44.6087 226.996 44.6087C214.516 44.6087 204.4 55.808 204.4 69.6231C204.4 83.4382 214.516 94.6376 226.996 94.6376Z" fill="white"/>
    <g opacity="0.3">
    <path d="M249.59 69.6212C249.59 83.4407 239.473 94.6412 226.999 94.6412C216.132 94.6412 207.055 86.1529 204.897 74.8328C208.954 79.2084 214.503 81.8983 220.627 81.8983C233.102 81.8983 243.219 70.6978 243.219 56.8783C243.219 55.0938 243.049 53.3525 242.724 51.6751C246.964 56.2204 249.59 62.578 249.59 69.6226V69.6212Z" fill="#371A45"/>
    </g>
    <path d="M226.996 96.7632C213.365 96.7632 202.276 84.589 202.276 69.6249C202.276 54.6607 213.365 42.4866 226.996 42.4866C240.626 42.4866 251.715 54.6607 251.715 69.6249C251.715 84.589 240.626 96.7632 226.996 96.7632ZM226.996 46.7343C215.708 46.7343 206.524 57.0029 206.524 69.6249C206.524 82.2469 215.708 92.5155 226.996 92.5155C238.284 92.5155 247.468 82.2469 247.468 69.6249C247.468 57.0029 238.284 46.7343 226.996 46.7343Z" fill="#371A45"/>
    <path d="M231.422 92.2202C220.425 92.2202 211.481 81.779 211.481 68.9457C211.481 56.1123 220.427 45.6712 231.422 45.6712C242.416 45.6712 251.362 56.1123 251.362 68.9457C251.362 81.779 242.416 92.2202 231.422 92.2202ZM231.422 49.2109C222.378 49.2109 215.021 58.0637 215.021 68.9457C215.021 79.8277 222.378 88.6805 231.422 88.6805C240.465 88.6805 247.822 79.8277 247.822 68.9457C247.822 58.0637 240.465 49.2109 231.422 49.2109Z" fill="#371A45"/>
    <g opacity="0.5">
    <path d="M137.852 38.2366C104.816 47.4399 98.3838 89.5061 121.923 118.945C117.856 89.1988 120.514 61.4916 137.852 38.2366Z" fill="white"/>
    </g>
    <g opacity="0.5">
    <path d="M195.167 107.097C199.777 107.097 203.515 103.253 203.515 98.5124C203.515 93.7714 199.777 89.928 195.167 89.928C190.557 89.928 186.819 93.7714 186.819 98.5124C186.819 103.253 190.557 107.097 195.167 107.097Z" fill="white"/>
    </g>
    <g opacity="0.5">
    <path d="M185.008 111.794C188.6 116.458 186.672 123.053 180.786 127.587C174.9 132.121 167.288 132.877 163.696 128.213C160.103 123.55 164.256 118.59 170.141 114.057C176.025 109.524 181.415 107.132 185.008 111.796V111.794Z" fill="white"/>
    </g>
    <path d="M217.144 334.613H130.417C130.417 334.613 110.359 331.57 116.73 303.252C123.102 274.933 124.99 254.167 117.674 242.132C110.82 230.856 100.239 229.368 90.9744 228.035C89.9465 227.888 88.9952 228.597 88.8408 229.622L88.1565 235.318C108.865 237.442 116.024 245.671 114.666 267.972C114.666 267.972 113.25 285.671 109.179 301.955C105.69 315.912 105.452 332.47 120.167 340.036C124.124 342.071 128.552 343.017 133.002 343.017H210.772C210.772 343.017 216.967 341.609 217.144 334.615V334.613Z" fill="#24A7F1"/>
    <path d="M210.772 345.139H133.002C128.06 345.139 123.286 344.028 119.196 341.924C106.328 335.307 102.153 321.307 107.119 301.439C111.098 285.523 112.535 267.978 112.549 267.803C113.823 246.862 107.844 239.472 87.9394 237.432C87.372 237.373 86.8532 237.09 86.4971 236.646C86.1425 236.201 85.9797 235.632 86.0479 235.066L86.7322 229.371C87.0674 227.134 89.098 225.617 91.2775 225.934L91.3637 225.946C100.618 227.277 112.137 228.931 119.489 241.029C126.355 252.322 126.15 271.071 118.802 303.718C116.669 313.201 117.371 320.645 120.889 325.845C124.385 331.014 129.707 332.303 130.613 332.49H217.144C217.717 332.49 218.265 332.72 218.664 333.131C219.065 333.54 219.282 334.095 219.266 334.666C219.092 341.506 213.942 344.473 211.242 345.086C211.088 345.121 210.929 345.139 210.772 345.139ZM90.5195 233.454C110.996 236.113 118.15 245.696 116.787 268.102C116.769 268.321 115.307 286.203 111.24 302.469C106.744 320.455 110.075 332.458 121.139 338.148C124.631 339.945 128.733 340.893 133.003 340.893H210.493C211.263 340.659 213.757 339.687 214.678 336.737H130.417C130.31 336.737 130.205 336.73 130.099 336.714C129.783 336.666 122.311 335.459 117.423 328.304C113.176 322.09 112.246 313.504 114.658 302.787C121.74 271.312 122.1 253.502 115.859 243.235C109.582 232.909 100.101 231.494 90.9117 230.173L90.5195 233.454Z" fill="#371A45"/>
    <path d="M341.123 339.244C340.493 341.602 338.575 343.393 336.167 343.846C311.211 348.589 257.901 346.685 232.718 346.912C224.109 346.027 219.628 341.906 217.689 335.796C217.37 334.804 217.123 333.771 216.938 332.681C210.134 254.868 286.375 252.786 323.43 285.445C338.381 298.62 346.956 317.452 341.121 339.243L341.123 339.244Z" fill="#24A7F1"/>
    <g opacity="0.6">
    <path d="M332.506 295.236C314.192 274.337 280.761 263.994 254.999 271.859C252.309 280.001 245.979 282.223 237.625 281.154C225.172 291.639 217.597 309.494 219.948 336.397C220.358 338.789 221.059 340.956 222.129 342.839C219.261 340.34 217.661 336.857 216.939 332.681C209.512 247.753 301.004 253.035 332.508 295.236H332.506Z" fill="white"/>
    </g>
    <path d="M275.462 349.227C267.849 349.227 260.433 349.166 253.65 349.11C245.501 349.043 238.461 348.986 232.737 349.036C232.66 349.039 232.578 349.033 232.5 349.025C222.433 347.989 216.492 342.612 214.842 333.044C214.832 332.986 214.824 332.927 214.818 332.869C213.45 317.212 215.32 303.742 220.378 292.831C224.986 282.89 232.1 275.273 241.52 270.193C264.32 257.898 298.077 262.571 321.784 281.309C341.212 296.664 349.008 317.98 343.172 339.793C342.334 342.923 339.74 345.337 336.565 345.939C322.028 348.698 297.898 349.23 275.462 349.23V349.227ZM237.588 344.768C242.309 344.768 247.697 344.812 253.684 344.861C280.287 345.081 316.713 345.381 335.774 341.761C337.356 341.46 338.65 340.254 339.07 338.69C344.447 318.592 337.187 298.889 319.153 284.636C297.076 267.189 264.569 262.584 243.538 273.926C230.65 280.876 215.948 296.665 219.045 332.404C220.379 339.985 224.76 343.921 232.822 344.783C234.325 344.771 235.915 344.765 237.589 344.765L237.588 344.768Z" fill="#371A45"/>
    <g opacity="0.6">
    <path d="M290.95 302.827L260.416 305.539C259.741 305.599 259.346 304.777 259.83 304.302C261.211 302.948 262.776 301.75 264.506 300.752C269.221 298.026 272.719 297.587 272.719 297.587C279.772 296.041 286.238 297.797 291.325 301.514C291.864 301.909 291.617 302.767 290.95 302.827Z" fill="white"/>
    <path d="M298.071 313.155L255.142 316.977C254.061 317.073 253.233 316.055 253.524 315.01C253.787 314.066 254.108 313.138 254.484 312.234C254.699 311.714 255.2 311.365 255.76 311.315L296.4 307.703C296.955 307.654 297.501 307.903 297.81 308.367C298.348 309.182 298.846 310.028 299.298 310.897C299.806 311.875 299.17 313.057 298.073 313.156L298.071 313.155Z" fill="white"/>
    <path d="M302.446 323.026C302.453 323.351 302.198 323.628 301.873 323.656L253.965 327.635C253.653 327.656 253.378 327.452 253.307 327.147C253.257 326.934 253.215 326.723 253.172 326.517C253.025 325.831 252.911 325.144 252.826 324.457C252.698 323.418 253.484 322.486 254.527 322.393L300.169 318.329C301.155 318.241 302.054 318.933 302.193 319.913C302.339 320.942 302.425 321.981 302.447 323.026H302.446Z" fill="white"/>
    </g>
    <path d="M290.065 301.706L259.53 304.418C258.856 304.478 258.461 303.656 258.945 303.181C260.326 301.827 261.89 300.629 263.621 299.63C268.336 296.904 271.834 296.466 271.834 296.466C278.887 294.92 285.353 296.676 290.439 300.393C290.979 300.788 290.731 301.646 290.065 301.706Z" fill="#371A45"/>
    <path d="M297.188 312.034L254.258 315.856C253.177 315.952 252.349 314.934 252.64 313.889C252.903 312.945 253.224 312.017 253.6 311.113C253.815 310.593 254.316 310.244 254.877 310.194L295.516 306.582C296.071 306.533 296.617 306.782 296.926 307.246C297.464 308.061 297.962 308.907 298.414 309.776C298.922 310.754 298.286 311.936 297.189 312.035L297.188 312.034Z" fill="#371A45"/>
    <path d="M301.562 321.905C301.568 322.23 301.314 322.507 300.988 322.535L253.081 326.514C252.769 326.535 252.494 326.331 252.423 326.026C252.373 325.813 252.331 325.602 252.288 325.396C252.14 324.71 252.026 324.023 251.942 323.336C251.814 322.297 252.599 321.365 253.643 321.272L299.285 317.208C300.271 317.12 301.169 317.812 301.308 318.792C301.454 319.821 301.541 320.86 301.563 321.905H301.562Z" fill="#371A45"/>
    <g opacity="0.3">
    <path d="M341.123 339.244C340.493 341.601 338.575 343.393 336.167 343.846C311.211 348.589 257.901 346.685 232.719 346.911C224.109 346.027 219.628 341.906 217.689 335.796L218.206 334.614C252.833 346.706 352.706 337.665 323.431 285.446C338.383 298.621 346.957 317.453 341.123 339.244Z" fill="#371A45"/>
    </g>
    <path d="M303.977 271.046C302.955 271.046 302.054 270.304 301.884 269.263C301.696 268.104 302.481 267.014 303.639 266.825L322.808 263.702V258.945C322.808 257.773 323.759 256.822 324.932 256.822C326.104 256.822 327.056 257.773 327.056 258.945V265.507C327.056 266.549 326.302 267.437 325.274 267.603L304.324 271.017C304.208 271.035 304.093 271.044 303.979 271.044L303.977 271.046Z" fill="#371A45"/>
    <path d="M387.175 188.325V238.293C387.175 244.424 382.206 249.386 376.082 249.386H299.388C294.107 249.386 289.688 245.705 288.57 240.763C288.386 239.97 288.293 239.141 288.293 238.293V188.325C288.293 182.201 293.255 177.232 299.386 177.232H376.081C378.374 177.232 380.505 177.926 382.275 179.122C385.228 181.118 387.174 184.495 387.174 188.325H387.175Z" fill="#24A7F1"/>
    <g clip-path="url(#clip1_0_1253)">
    <path d="M319.107 215.862C319.359 215.916 319.569 216.001 319.737 216.089C320.961 216.734 322.378 216.939 323.709 216.567C326.884 215.68 330.024 212.612 329.454 210.234C329.28 209.508 329.007 208.856 328.648 208.308C327.375 206.37 325.012 205.741 322.074 207.807C318.306 210.457 318.668 214.049 318.668 214.049C318.49 214.26 318.367 214.449 318.287 214.617C317.93 215.379 318.488 215.729 319.107 215.862L319.107 215.862Z" fill="#CE753D"/>
    <path d="M319.107 215.862C319.359 215.916 319.569 216.001 319.737 216.089C320.961 216.734 322.377 216.939 323.709 216.568C326.884 215.681 330.023 212.612 329.454 210.234C329.28 209.508 329.007 208.856 328.647 208.308L328.461 208.314C328.461 208.314 330.469 210.909 326.089 213.667C322.674 215.817 319.628 215.54 318.287 214.617C317.93 215.379 318.488 215.729 319.107 215.862V215.862Z" fill="#BF622E"/>
    <path d="M322.346 217.137C321.403 217.137 320.448 216.899 319.558 216.43C319.394 216.344 319.215 216.279 319.026 216.239C318.397 216.103 317.988 215.81 317.845 215.39C317.7 214.967 317.845 214.474 318.275 213.924C318.249 213.157 318.362 209.948 321.853 207.494C324.157 205.874 325.88 206.002 326.921 206.396C328.324 206.926 329.384 208.293 329.827 210.145C330.126 211.393 329.572 212.842 328.265 214.225C327.084 215.476 325.419 216.49 323.812 216.938C323.335 217.072 322.842 217.138 322.346 217.138V217.137ZM325.51 206.911C324.528 206.911 323.437 207.319 322.295 208.122C318.769 210.602 319.037 213.874 319.05 214.012C319.06 214.115 319.028 214.219 318.961 214.298C318.526 214.814 318.544 215.06 318.572 215.141C318.621 215.286 318.852 215.415 319.188 215.487C319.445 215.543 319.69 215.631 319.916 215.75C321.099 216.373 322.409 216.532 323.606 216.198C326.509 215.388 329.605 212.518 329.08 210.324C328.697 208.723 327.811 207.554 326.649 207.115C326.29 206.979 325.909 206.912 325.51 206.912V206.911Z" fill="#661407"/>
    <g opacity="0.39">
    <path d="M320.956 211.604C321.432 212.344 322.499 210.867 324.042 209.876C325.585 208.885 327.019 208.755 326.544 208.014C326.068 207.274 324.432 207.477 322.889 208.468C321.346 209.46 320.48 210.863 320.956 211.604V211.604Z" fill="#F4EFF0"/>
    </g>
    <path d="M346.45 221.03C345.812 221.761 345.091 222.913 345.041 225.123C344.925 230.219 343.311 235.077 337.354 236.993C333.92 238.096 329.702 236.764 327.158 233.923C327.158 233.923 327.157 233.923 327.157 233.923C327.001 233.747 326.85 233.567 326.707 233.38C326 232.463 325.463 231.414 325.162 230.256C325.008 229.669 324.314 229.169 324.76 228.547C324.758 228.549 324.754 228.552 324.753 228.552C324.703 227.444 324.657 226.634 324.921 225.488C325.377 223.513 326.421 221.728 327.828 220.182C328.223 219.749 328.698 219.174 329.053 218.651C329.685 217.722 330.239 216.656 330.637 215.616C330.85 215.055 331.022 214.378 331.134 213.85C332.893 205.603 336.167 198.998 345.705 199.718C346.776 199.402 348.076 199.165 349.092 199.504C349.589 199.67 349.756 199.867 349.869 200.184C349.91 200.301 349.944 200.435 349.984 200.59C350.058 200.875 349.926 201.289 349.863 201.529C350.117 202.085 349.896 201.343 350.221 202.103C350.735 203.304 350.782 202.652 351.349 204.618C352.973 210.252 350.472 216.42 346.45 221.03Z" fill="#D89C53"/>
    <path d="M346.48 220.945C350.451 216.14 353.066 210.42 351.338 204.349C350.988 203.631 350.67 202.802 350.152 202.14C350.166 202.075 350.203 201.967 350.21 201.908C350.269 201.405 350.37 200.894 350.009 200.484C349.707 200.141 349.526 200.041 348.986 199.939C348.057 199.764 346.922 199.958 345.959 200.234C345.913 200.232 345.872 200.226 345.835 200.224C344.214 200.129 342.622 200.215 341.055 200.595C340.668 200.689 340.354 200.789 340.007 200.926C338.271 201.615 336.882 202.62 335.646 204.039C335.39 204.332 335.189 204.594 334.927 204.979C333.037 207.751 332.046 211.074 331.349 214.383C331.134 215.402 330.667 216.716 330.161 217.702C329.973 218.068 329.709 218.509 329.49 218.856C329.104 219.467 328.481 220.223 328.036 220.719C325.676 223.352 324.323 226.653 325.19 230.149C326.531 235.36 332.695 238.398 337.378 236.886C343.332 234.963 344.952 230.124 345.063 225.009C345.111 222.79 345.85 221.707 346.48 220.945H346.48ZM350.163 206.109C349.884 206.159 349.606 206.195 349.324 206.211C349.322 206.211 349.32 206.212 349.319 206.212C349.074 206.2 348.918 206.015 348.95 205.771C349.044 205.052 349.136 204.343 349.171 203.619C349.615 204.411 349.92 205.236 350.163 206.109ZM347.649 210.424C347.844 209.869 348.04 209.324 348.241 208.761C348.507 208.016 349.051 207.568 349.836 207.469C350.037 207.443 350.21 207.455 350.406 207.428C350.422 207.601 350.443 207.753 350.453 207.929C350.516 208.982 350.449 210.013 350.288 211.059C350.049 211.103 349.815 211.162 349.574 211.195C349.144 211.255 348.734 211.357 348.29 211.36C347.78 211.364 347.476 210.915 347.649 210.424V210.424ZM347.656 212.585C348.455 212.542 349.21 212.505 349.995 212.39C349.895 212.721 349.825 213.019 349.706 213.349C349.322 214.413 348.909 215.434 348.328 216.432C347.996 217.002 347.423 217.369 346.746 217.394C346.201 217.415 345.682 217.424 345.138 217.347C344.453 217.251 344.187 216.611 344.533 216.021C344.604 215.9 344.691 215.797 344.774 215.684C345.295 214.971 345.732 214.244 346.196 213.481C346.518 212.952 347.033 212.619 347.656 212.585H347.656ZM344.279 203.37C344.779 202.945 345.34 202.593 345.823 202.24C346.212 201.955 346.496 201.869 346.919 201.733C346.923 201.731 346.926 201.732 346.93 201.732C347.234 201.704 347.445 201.919 347.432 202.222C347.408 202.758 347.338 203.298 347.264 203.827C347.163 204.562 347.005 205.275 346.832 205.995C346.77 205.975 346.7 205.964 346.64 205.944C346.435 205.876 346.248 205.819 346.044 205.736C345.937 205.693 345.766 205.623 345.665 205.576C345.33 205.421 345.043 205.256 344.734 205.064C344.589 204.974 344.439 204.859 344.294 204.765C344.285 204.759 344.277 204.751 344.269 204.743C343.825 204.346 343.854 203.73 344.279 203.37V203.37ZM345.891 206.807C345.934 206.827 345.978 206.838 346.021 206.861C346.303 207.007 346.442 207.305 346.336 207.609C346.004 208.562 345.623 209.495 345.167 210.389C344.919 210.873 344.431 211.118 343.914 210.982C342.648 210.651 341.531 210.104 340.415 209.445C340.402 209.437 340.391 209.432 340.378 209.42C339.778 208.87 339.933 208.281 340.269 207.54C340.27 207.538 340.069 207.817 340.336 207.445C340.604 207.073 341.752 205.602 342.363 205.06C342.53 204.912 342.906 204.829 343.134 205.035C343.966 205.787 344.879 206.341 345.891 206.807L345.891 206.807ZM334.491 221.883C335.167 222.192 335.818 222.438 336.509 222.73C337.272 223.052 337.653 223.71 337.637 224.532C337.631 224.86 337.594 225.168 337.58 225.486C337.548 226.218 337.513 226.941 337.388 227.663C337.319 228.064 336.941 228.294 336.555 228.159C335.834 227.907 335.16 227.582 334.49 227.212C333.82 226.842 333.168 226.418 332.547 225.961C332.322 225.795 332.236 225.508 332.337 225.244C332.738 224.203 333.18 223.185 333.668 222.18C333.82 221.868 334.176 221.74 334.491 221.883V221.883ZM334.824 219.825C335.242 218.925 335.709 218.057 336.137 217.163C336.204 217.023 336.259 216.885 336.339 216.744C336.533 216.405 336.856 216.293 337.226 216.427C337.228 216.428 337.231 216.428 337.232 216.429C337.886 216.762 338.556 217.025 339.231 217.322C339.594 217.483 339.726 217.876 339.529 218.226C338.999 219.173 338.606 220.158 338.277 221.189C338.164 221.543 337.8 221.727 337.468 221.621C336.651 221.358 335.877 221.044 335.121 220.684C334.774 220.518 334.671 220.154 334.824 219.825L334.824 219.825ZM337.905 215.28C337.903 215.279 337.9 215.277 337.897 215.275C337.473 215.014 337.297 214.595 337.452 214.122C337.65 213.519 337.865 212.971 338.047 212.365C338.181 211.92 338.332 211.456 338.484 211.011C338.485 211.008 338.489 211 338.491 210.997C338.809 210.346 339.472 210.061 340.113 210.424C341.023 210.939 341.873 211.356 342.83 211.761C343.533 212.058 343.743 212.83 343.356 213.465C342.969 214.101 342.501 214.632 342.044 215.204C341.817 215.487 341.585 215.758 341.326 216.021C341.04 216.31 340.644 216.41 340.258 216.277C339.444 215.998 338.68 215.642 337.905 215.281L337.905 215.28ZM343.61 201.858C343.19 202.189 342.779 202.532 342.375 202.882C342.178 202.625 341.991 202.362 341.815 202.09C342.408 201.969 343.005 201.894 343.61 201.858ZM336.898 205.09C337.377 204.511 337.907 204.008 338.496 203.573C339.113 203.118 339.736 202.789 340.444 202.508C340.695 202.409 340.947 202.508 341.113 202.715C341.207 202.832 341.285 202.966 341.378 203.084C341.379 203.085 341.38 203.088 341.381 203.09C341.532 203.343 341.524 203.647 341.314 203.855C340.371 204.788 339.559 205.752 338.77 206.816C338.446 207.253 337.885 207.278 337.508 206.889C337.267 206.638 337.066 206.36 336.869 206.078C336.655 205.772 336.667 205.367 336.898 205.09ZM333.639 211.96C334.097 210.428 334.596 208.925 335.323 207.525C335.614 206.962 336.228 206.963 336.636 207.362C336.886 207.606 337.113 207.895 337.349 208.15C337.585 208.406 337.631 208.738 337.494 209.052C337.158 209.825 336.853 210.585 336.608 211.391C336.421 212.004 336.228 212.604 335.997 213.211C335.831 213.644 335.317 213.768 334.962 213.548C334.566 213.302 334.224 213.022 333.903 212.767C333.629 212.549 333.554 212.244 333.639 211.96ZM331.889 217.866C332.331 216.801 332.692 215.775 332.948 214.66C332.949 214.658 332.95 214.654 332.951 214.652C333.094 214.29 333.436 214.127 333.785 214.347C334.039 214.508 334.269 214.675 334.523 214.865C334.905 215.149 335.06 215.605 334.886 216.06C334.475 217.136 334.017 218.172 333.542 219.215C333.542 219.216 333.54 219.219 333.539 219.22C333.364 219.501 333.07 219.602 332.778 219.452C332.595 219.359 332.437 219.262 332.277 219.149C331.84 218.84 331.689 218.349 331.889 217.865L331.889 217.866ZM329.22 221.819C329.222 221.817 329.224 221.814 329.226 221.811C329.621 221.4 329.941 220.963 330.311 220.519C330.635 220.129 331.11 220.044 331.562 220.286C331.739 220.381 331.901 220.482 332.07 220.596C332.426 220.837 332.567 221.249 332.393 221.647C332.044 222.444 331.709 223.22 331.364 224.013C331.199 224.39 330.748 224.489 330.439 224.22C330.015 223.85 329.627 223.477 329.243 223.056C328.906 222.687 328.921 222.215 329.22 221.819H329.22ZM326.537 227.859C326.561 226.86 326.747 225.955 327.148 225.026C327.43 224.373 328.199 224.275 328.725 224.747C328.727 224.75 328.735 224.754 328.737 224.757C329.172 225.238 329.623 225.682 330.08 226.148C330.317 226.389 330.403 226.697 330.322 227.033C330.226 227.43 330.122 227.772 330.033 228.189C329.937 228.637 329.812 229.187 329.731 229.643C329.69 229.875 329.663 230.058 329.626 230.277C329.552 230.712 329.072 230.881 328.749 230.676C328.244 230.356 327.748 229.988 327.346 229.626C326.795 229.129 326.521 228.573 326.537 227.859L326.537 227.859ZM327.206 231.234C327.951 231.78 328.72 232.271 329.525 232.723C329.562 233.326 329.635 233.919 329.749 234.512C328.652 233.575 327.836 232.532 327.206 231.234ZM333.181 234.747C332.63 235.087 332.025 235.334 331.417 235.562C331.409 235.558 331.405 235.556 331.396 235.553C331.232 235.047 331.066 234.543 330.989 234.014C330.949 233.745 331.201 233.558 331.453 233.656C332.003 233.868 332.562 234.072 333.119 234.261C333.343 234.338 333.39 234.618 333.181 234.747V234.747ZM331.942 232.397C331.246 232.078 330.862 231.435 330.924 230.67C331.005 229.676 331.268 228.751 331.502 227.781C331.502 227.779 331.483 227.836 331.511 227.761C331.538 227.686 331.725 227.561 331.854 227.659C332.755 228.344 333.679 228.912 334.678 229.435C335.011 229.609 335.359 229.736 335.707 229.903C336.295 230.186 336.544 230.793 336.278 231.386C336.029 231.941 335.711 232.406 335.345 232.866C335.093 233.183 334.709 233.314 334.323 233.211C333.506 232.993 332.716 232.751 331.942 232.396V232.397ZM337.181 235.969C336.118 236.308 335.061 236.406 333.944 236.31C334.687 235.938 335.364 235.504 336.008 234.979C336.026 234.965 336.041 234.95 336.058 234.935C337.038 235.073 338.012 235.146 339.004 235.161C338.404 235.478 337.837 235.76 337.181 235.969H337.181ZM342.788 230.719C342.733 230.9 342.653 231.066 342.574 231.233C342.127 232.174 341.57 232.981 340.861 233.746C340.277 233.763 339.707 233.863 339.116 233.813C338.286 233.743 337.875 233.032 338.205 232.271C338.397 231.828 338.643 231.441 338.804 230.989C338.804 230.988 338.806 230.988 338.806 230.987C338.892 230.817 339.039 230.714 339.229 230.721C340.339 230.763 341.373 230.659 342.438 230.351C342.44 230.35 342.442 230.35 342.444 230.35C342.684 230.308 342.859 230.483 342.788 230.719L342.788 230.719ZM341.994 228.588C341.633 228.66 341.27 228.71 340.904 228.745C340.879 228.747 340.856 228.752 340.83 228.752C340.131 228.733 339.69 228.279 339.739 227.582C339.768 227.155 339.853 226.782 339.884 226.361C339.936 225.648 339.992 224.93 340.089 224.22C340.089 224.219 340.09 224.217 340.09 224.214C340.156 223.94 340.385 223.771 340.66 223.805C341.696 223.936 342.7 224.03 343.74 224.014C343.652 224.567 343.608 224.987 343.615 225.574C343.625 226.409 343.572 227.356 343.45 228.208C342.969 228.361 342.488 228.489 341.994 228.587L341.994 228.588ZM344.128 222.665C343.428 222.658 342.722 222.71 342.026 222.6C341.181 222.467 340.731 221.746 341.006 220.939C341.281 220.132 341.73 219.455 342.177 218.743C342.189 218.724 342.217 218.695 342.231 218.673C342.231 218.672 342.233 218.671 342.234 218.67C342.459 218.464 342.705 218.387 343.005 218.425C343.102 218.438 343.188 218.459 343.279 218.474C344.469 218.661 345.643 218.752 346.846 218.744C346.413 219.328 345.966 219.869 345.494 220.427C344.922 221.104 344.475 221.843 344.127 222.665L344.128 222.665Z" fill="#C1823E"/>
    <path d="M351.764 206.701C351.76 206.671 351.756 206.641 351.753 206.611C351.642 205.612 351.42 204.635 351.061 203.712C351.058 203.703 351.055 203.694 351.052 203.686C351.001 203.558 350.949 203.431 350.893 203.305C350.892 203.303 350.891 203.3 350.89 203.299C350.684 202.834 350.441 202.383 350.155 201.953C350.155 201.952 350.154 201.95 350.154 201.95C350.108 201.88 350.061 201.811 350.013 201.742C349.967 201.678 349.921 201.613 349.873 201.55C349.884 201.492 349.894 201.435 349.904 201.38C349.958 201.068 349.99 200.796 349.977 200.56C349.96 200.251 349.868 200.005 349.647 199.81C349.646 199.809 349.645 199.807 349.643 199.805C349.509 199.689 349.33 199.592 349.095 199.512C348.988 199.475 348.869 199.441 348.738 199.412C347.749 199.186 346.685 199.464 345.704 199.716C345.662 199.719 345.618 199.711 345.581 199.708C343.964 199.611 342.371 199.693 340.805 200.071C340.418 200.165 340.104 200.26 339.756 200.398C338.019 201.088 336.635 202.083 335.396 203.502C335.139 203.795 334.94 204.052 334.679 204.439C332.79 207.23 331.832 210.54 331.134 213.862C330.919 214.885 330.458 216.184 329.95 217.17C329.761 217.536 329.505 217.973 329.279 218.318C328.88 218.927 328.289 219.681 327.831 220.184C323.157 225.327 323.73 232.417 329.767 236.062C330.714 236.634 331.369 236.855 332.304 237.111C333.672 237.487 335.072 237.499 336.402 237.233C336.409 237.232 336.414 237.231 336.42 237.23C336.703 237.173 336.981 237.103 337.257 237.023C337.333 237.001 337.408 236.978 337.483 236.954C337.893 236.822 338.284 236.669 338.657 236.497C338.665 236.494 338.672 236.491 338.68 236.487C339.822 235.959 340.807 235.251 341.701 234.44C342.269 233.924 342.68 233.352 343.003 232.857C343.395 232.256 343.717 231.634 343.982 230.995C343.986 230.987 343.989 230.979 343.991 230.971C344.752 229.122 345.022 227.139 345.039 225.167C345.04 225.104 345.04 225.039 345.04 224.975C345.041 224.266 345.093 223.945 345.227 223.375C345.322 222.967 345.453 222.645 345.611 222.321C345.674 222.193 345.741 222.064 345.812 221.93C345.831 221.894 345.851 221.858 345.872 221.822C346.058 221.495 346.297 221.191 346.518 220.931C347.145 220.191 347.779 219.382 348.328 218.595C348.329 218.593 348.331 218.591 348.333 218.588C348.458 218.409 348.578 218.231 348.694 218.056C349.035 217.537 349.357 216.979 349.599 216.535C350.464 214.951 351.102 213.204 351.493 211.568C351.622 211.028 351.719 210.372 351.747 210.104C351.779 209.793 351.803 209.48 351.819 209.166C351.862 208.342 351.849 207.515 351.764 206.701ZM349.904 205.527C349.626 205.577 349.348 205.613 349.066 205.633C349.064 205.633 349.063 205.633 349.061 205.633C349.002 205.631 348.949 205.619 348.903 205.597C348.751 205.532 348.668 205.381 348.691 205.194C348.726 204.909 348.76 204.626 348.79 204.343C348.837 203.908 348.875 203.474 348.894 203.034C349.345 203.825 349.658 204.652 349.904 205.527ZM347.42 209.855C347.616 209.3 347.807 208.757 348.005 208.192C348.19 207.667 348.505 207.287 348.951 207.073C349.14 206.983 349.352 206.922 349.587 206.893C349.79 206.868 349.962 206.881 350.158 206.853C350.175 207.026 350.198 207.179 350.21 207.355C350.275 208.412 350.218 209.444 350.056 210.493C349.817 210.537 349.584 210.595 349.342 210.629C349.091 210.664 348.848 210.713 348.601 210.748C348.425 210.774 348.246 210.793 348.061 210.795C347.551 210.799 347.247 210.347 347.42 209.855ZM344.015 202.826C344.515 202.403 345.071 202.045 345.553 201.693C345.943 201.409 346.22 201.312 346.643 201.175C346.648 201.173 346.65 201.174 346.654 201.174C346.954 201.144 347.164 201.345 347.151 201.648C347.129 202.185 347.063 202.725 346.992 203.256C346.895 203.993 346.742 204.708 346.574 205.429C346.512 205.41 346.442 205.399 346.382 205.38C346.178 205.314 345.991 205.258 345.787 205.178C345.68 205.136 345.508 205.067 345.407 205.021C345.071 204.868 344.783 204.704 344.472 204.513C344.327 204.424 344.177 204.309 344.031 204.216C344.022 204.209 344.014 204.201 344.006 204.193C343.561 203.8 343.59 203.184 344.015 202.826ZM327.009 230.691C327.753 231.236 328.524 231.727 329.329 232.177C329.365 232.779 329.438 233.371 329.552 233.964C328.455 233.028 327.641 231.987 327.009 230.691ZM334.62 219.285C334.672 219.172 334.726 219.061 334.78 218.948C335.156 218.172 335.561 217.412 335.935 216.634C336.003 216.493 336.056 216.357 336.137 216.216C336.331 215.879 336.656 215.766 337.024 215.9C337.026 215.902 337.028 215.902 337.031 215.903C337.685 216.234 338.358 216.493 339.032 216.788C339.396 216.947 339.527 217.335 339.33 217.687C338.923 218.414 338.594 219.154 338.313 219.925C338.227 220.161 338.146 220.399 338.069 220.641C337.956 220.995 337.593 221.179 337.261 221.072C336.445 220.81 335.672 220.498 334.916 220.141C334.57 219.977 334.467 219.613 334.62 219.285ZM334.286 221.339C334.676 221.515 335.058 221.672 335.444 221.829C335.726 221.945 336.011 222.059 336.303 222.182C337.029 222.485 337.409 223.102 337.43 223.869C337.431 223.906 337.431 223.944 337.43 223.981C337.424 224.309 337.385 224.618 337.373 224.935C337.342 225.663 337.305 226.397 337.182 227.111C337.114 227.506 336.736 227.758 336.349 227.611C334.907 227.061 333.604 226.307 332.345 225.414C332.117 225.252 332.033 224.961 332.134 224.698C332.534 223.659 332.974 222.638 333.463 221.636C333.615 221.323 333.971 221.197 334.286 221.339ZM334.476 228.887C334.809 229.058 335.157 229.187 335.505 229.354C336.093 229.635 336.341 230.244 336.076 230.837C335.827 231.391 335.508 231.855 335.142 232.316C334.891 232.633 334.507 232.762 334.121 232.661C333.304 232.445 332.518 232.2 331.743 231.848C331.047 231.532 330.665 230.887 330.726 230.124C330.805 229.131 331.064 228.199 331.299 227.242C331.299 227.241 331.301 227.24 331.301 227.239C331.357 227.089 331.521 227.025 331.651 227.12C332.559 227.784 333.477 228.372 334.476 228.887ZM332.978 234.195C332.427 234.534 331.821 234.781 331.214 235.008C331.206 235.004 331.202 235.002 331.193 234.998C331.029 234.496 330.867 233.992 330.791 233.467C330.753 233.197 331.003 233.009 331.255 233.107C331.804 233.318 332.363 233.522 332.919 233.711C333.142 233.787 333.188 234.067 332.978 234.195ZM340.054 215.738C339.24 215.464 338.475 215.112 337.7 214.754C337.697 214.753 337.694 214.751 337.691 214.749C337.267 214.487 337.088 214.073 337.24 213.598C337.435 212.992 337.647 212.441 337.826 211.832C337.956 211.386 338.107 210.921 338.254 210.474C338.255 210.471 338.259 210.463 338.261 210.459C338.572 209.805 339.235 209.519 339.878 209.879C340.79 210.389 341.643 210.802 342.604 211.201C343.31 211.494 343.521 212.27 343.137 212.909C342.753 213.548 342.285 214.081 341.83 214.657C341.605 214.942 341.375 215.213 341.118 215.476C340.833 215.769 340.441 215.87 340.054 215.738ZM340.175 208.9C340.163 208.893 340.152 208.888 340.139 208.876C339.534 208.329 339.688 207.742 340.024 207C340.042 206.975 340.064 206.944 340.091 206.905C340.356 206.534 341.502 205.067 342.105 204.521C342.27 204.372 342.645 204.289 342.874 204.493C343.713 205.239 344.624 205.789 345.642 206.249C345.685 206.268 345.729 206.279 345.772 206.301C346.055 206.445 346.198 206.744 346.093 207.048C345.764 208 345.392 208.931 344.938 209.822C344.693 210.306 344.204 210.552 343.686 210.419C342.42 210.09 341.295 209.554 340.175 208.9ZM343.352 201.326C342.933 201.657 342.523 201.998 342.117 202.345C341.92 202.091 341.733 201.828 341.559 201.557C342.152 201.435 342.747 201.363 343.352 201.326ZM336.65 204.554C337.127 203.975 337.659 203.474 338.246 203.038C338.86 202.582 339.486 202.257 340.191 201.974C340.441 201.875 340.694 201.976 340.859 202.182C340.952 202.299 341.029 202.431 341.122 202.548C341.122 202.549 341.123 202.552 341.124 202.553C341.277 202.807 341.269 203.111 341.059 203.319C340.118 204.25 339.308 205.219 338.524 206.282C338.2 206.718 337.639 206.739 337.263 206.353C337.021 206.104 336.821 205.82 336.623 205.539C336.41 205.233 336.422 204.832 336.65 204.554ZM333.417 211.431C333.856 209.89 334.355 208.384 335.082 206.983C335.373 206.42 335.987 206.423 336.394 206.822C336.643 207.066 336.871 207.357 337.107 207.612C337.343 207.867 337.392 208.199 337.256 208.513C336.92 209.288 336.625 210.051 336.381 210.86C336.195 211.474 336.01 212.079 335.782 212.69C335.62 213.126 335.106 213.251 334.749 213.031C334.351 212.786 334.011 212.507 333.688 212.252C333.411 212.034 333.336 211.716 333.417 211.431ZM332.737 214.141C332.737 214.138 332.739 214.134 332.739 214.133C332.876 213.764 333.225 213.613 333.574 213.831C333.828 213.99 334.059 214.158 334.314 214.345C334.696 214.626 334.854 215.084 334.68 215.538C334.334 216.436 333.951 217.305 333.561 218.177C333.486 218.344 333.412 218.51 333.337 218.677C333.336 218.679 333.334 218.681 333.334 218.682C333.161 218.967 332.864 219.064 332.572 218.915C332.389 218.822 332.23 218.724 332.071 218.611C331.635 218.305 331.48 217.816 331.682 217.333C331.811 217.022 331.936 216.715 332.052 216.408C332.332 215.668 332.569 214.931 332.737 214.141ZM329.013 221.278C329.015 221.276 329.017 221.272 329.019 221.271C329.414 220.859 329.734 220.422 330.105 219.979C330.43 219.589 330.905 219.505 331.356 219.746C331.533 219.841 331.694 219.942 331.863 220.056C332.219 220.297 332.361 220.71 332.187 221.107C331.837 221.903 331.504 222.676 331.159 223.47C330.995 223.846 330.544 223.945 330.235 223.676C329.81 223.307 329.422 222.933 329.037 222.513C328.7 222.144 328.713 221.674 329.013 221.278ZM326.945 224.484C327.225 223.83 327.999 223.724 328.52 224.204C328.524 224.207 328.531 224.212 328.533 224.215C328.963 224.701 329.42 225.139 329.878 225.605C330.116 225.845 330.202 226.153 330.121 226.489C330.025 226.885 329.921 227.227 329.833 227.645C329.739 228.093 329.613 228.642 329.533 229.099C329.491 229.331 329.467 229.514 329.429 229.733C329.356 230.168 328.876 230.336 328.552 230.132C328.047 229.812 327.549 229.445 327.147 229.083C326.598 228.587 326.32 228.031 326.337 227.316C326.361 226.317 326.545 225.413 326.945 224.484ZM336.976 235.416C335.913 235.754 334.857 235.851 333.74 235.755C334.481 235.385 335.161 234.951 335.804 234.428C335.822 234.414 335.837 234.399 335.854 234.383C336.834 234.522 337.807 234.595 338.799 234.609C338.199 234.927 337.632 235.207 336.976 235.416ZM342.583 230.167C342.528 230.348 342.449 230.515 342.37 230.681C341.923 231.623 341.365 232.43 340.657 233.193C340.072 233.211 339.503 233.311 338.912 233.261C338.081 233.192 337.671 232.481 338 231.721C338.193 231.276 338.437 230.89 338.598 230.438C338.599 230.437 338.601 230.436 338.601 230.435C338.686 230.265 338.834 230.163 339.024 230.17C340.134 230.211 341.168 230.108 342.233 229.799C342.235 229.799 342.238 229.799 342.239 229.798C342.48 229.755 342.655 229.931 342.583 230.167ZM343.41 225.024C343.42 225.858 343.367 226.805 343.244 227.657C342.764 227.81 342.282 227.937 341.788 228.036C341.428 228.109 341.064 228.159 340.698 228.194C340.673 228.196 340.649 228.201 340.624 228.2C339.924 228.182 339.485 227.728 339.532 227.031C339.561 226.603 339.644 226.231 339.675 225.81C339.728 225.097 339.78 224.378 339.876 223.667C339.876 223.666 339.877 223.663 339.878 223.662C339.943 223.387 340.173 223.217 340.447 223.252C341.485 223.386 342.491 223.48 343.533 223.465C343.445 224.018 343.403 224.437 343.41 225.024ZM345.282 219.882C344.713 220.559 344.265 221.295 343.919 222.117C343.218 222.109 342.509 222.159 341.812 222.049C340.966 221.916 340.519 221.192 340.791 220.384C340.883 220.114 340.993 219.858 341.118 219.612C341.366 219.123 341.666 218.667 341.964 218.196C341.975 218.176 342.004 218.147 342.018 218.125C342.018 218.125 342.02 218.123 342.021 218.122C342.246 217.917 342.492 217.841 342.792 217.881C342.889 217.894 342.973 217.915 343.066 217.93C343.458 217.992 343.848 218.043 344.238 218.084C345.031 218.167 345.823 218.206 346.629 218.2C346.199 218.784 345.751 219.323 345.282 219.882ZM348.104 215.887C347.772 216.458 347.2 216.822 346.525 216.848C346.214 216.86 345.912 216.869 345.609 216.86C345.382 216.854 345.154 216.838 344.922 216.804C344.239 216.706 343.97 216.067 344.314 215.477C344.385 215.355 344.472 215.255 344.555 215.14C345.071 214.423 345.512 213.698 345.97 212.928C346.288 212.396 346.805 212.055 347.43 212.023C347.726 212.007 348.015 211.993 348.301 211.974C348.789 211.945 349.27 211.905 349.766 211.832C349.666 212.164 349.595 212.46 349.476 212.791C349.091 213.857 348.684 214.885 348.104 215.887Z" fill="#FADA9D"/>
    <path d="M334.44 237.923C331.124 237.923 327.942 236.14 325.997 233.015C324.779 231.058 324.226 228.847 324.399 226.623C324.589 224.168 325.68 221.827 327.554 219.852C328.985 218.344 330.175 216.029 330.659 213.811C331.766 208.738 333.154 205.439 335.159 203.114C337.653 200.221 341.089 198.954 345.661 199.243C347.024 198.877 348.905 198.519 349.866 199.418C350.344 199.865 350.515 200.537 350.377 201.418C352.357 204.226 352.88 207.778 351.889 211.706C351.073 214.94 349.251 218.377 346.758 221.381C346.529 221.657 345.762 222.747 345.514 225.174C345.259 227.666 344.996 230.243 343.862 232.441C342.609 234.871 340.498 236.477 337.22 237.498C336.299 237.785 335.364 237.923 334.439 237.923L334.44 237.923ZM344.432 200.121C340.747 200.121 337.933 201.302 335.854 203.713C333.954 205.916 332.628 209.091 331.556 214.007C331.038 216.38 329.76 218.861 328.22 220.484C324.239 224.678 324.864 229.457 326.776 232.53C328.66 235.556 332.535 237.995 336.947 236.622C343.634 234.54 344.082 230.156 344.601 225.08C344.868 222.469 345.704 221.214 346.052 220.795C350.31 215.662 353.774 207.607 349.521 201.799C349.445 201.695 349.416 201.564 349.442 201.437C349.572 200.79 349.504 200.337 349.239 200.088C348.911 199.782 348.054 199.543 345.828 200.148C345.779 200.162 345.728 200.167 345.677 200.163C345.251 200.135 344.836 200.121 344.432 200.121Z" fill="#661407"/>
    <path d="M346.865 221.227C345.631 222.527 344.163 223.664 342.47 224.295C342.334 224.345 342.183 224.276 342.132 224.141C342.084 224.011 342.145 223.867 342.269 223.81C343.04 223.455 343.752 222.984 344.401 222.44C345.05 221.895 345.639 221.278 346.177 220.62C346.593 220.148 347.282 220.752 346.865 221.227V221.227Z" fill="#661407"/>
    <path d="M331.913 212.501C331.15 215.321 330.302 218.264 330.982 221.17C331.017 221.31 330.931 221.453 330.79 221.488C330.653 221.522 330.515 221.441 330.476 221.307C330.257 220.565 330.146 219.795 330.11 219.028C330.008 216.745 330.521 214.469 331.023 212.276C331.183 211.679 332.056 211.894 331.913 212.501Z" fill="#661407"/>
    <path d="M353.412 234.683C350.588 239.934 340.174 235.257 341.43 229.175C341.43 229.175 341.125 228.393 341.329 227.902C341.532 227.411 342.54 227.597 342.54 227.597C345.373 224.199 356.843 228.289 353.412 234.683H353.412Z" fill="#CE753D"/>
    <path d="M353.412 234.684C350.625 239.866 340.446 235.379 341.388 229.413C342.5 234.363 350.865 237.432 353.351 232.81C353.632 232.288 353.813 231.78 353.906 231.29C354.18 232.312 354.071 233.455 353.412 234.684L353.412 234.684Z" fill="#BF622E"/>
    <path d="M349.263 237.349C348.376 237.349 347.421 237.175 346.436 236.817C343.244 235.657 340.385 232.679 341.033 229.205C340.943 228.936 340.762 228.266 340.974 227.756C341.218 227.166 341.996 227.155 342.39 227.191C344.283 225.223 348.746 225.84 351.603 227.768C352.844 228.606 353.722 229.643 354.142 230.767C354.635 232.085 354.503 233.464 353.751 234.865C353.751 234.865 353.751 234.865 353.751 234.866C352.881 236.483 351.242 237.349 349.264 237.349L349.263 237.349ZM342.135 227.946C341.9 227.946 341.709 227.989 341.684 228.05C341.576 228.31 341.708 228.827 341.788 229.036C341.815 229.105 341.821 229.181 341.806 229.253C341.168 232.345 343.784 235.035 346.698 236.094C348.828 236.868 351.776 236.915 353.074 234.501C354.785 231.312 352.314 229.176 351.172 228.405C349.817 227.491 348.1 226.897 346.461 226.777C344.822 226.658 343.5 227.046 342.835 227.844C342.747 227.95 342.607 228.001 342.471 227.975C342.358 227.955 342.242 227.946 342.135 227.946H342.135Z" fill="#661407"/>
    <g opacity="0.39">
    <path d="M351.796 230.245C351.541 231.053 350.182 229.737 348.193 229.111C346.203 228.486 344.336 228.787 344.59 227.978C344.844 227.17 346.663 227.022 348.653 227.647C350.643 228.273 352.05 229.436 351.796 230.245Z" fill="#F4EFF0"/>
    </g>
    </g>
    <g opacity="0.3">
    <path d="M378.474 179.122C378.207 178.934 377.93 178.763 377.647 178.602C377.718 179.121 377.759 179.649 377.759 180.189V230.156C377.759 236.287 372.99 241.25 367.115 241.25H293.528C291.675 241.25 289.937 240.753 288.421 239.888C288.461 240.183 288.5 240.478 288.564 240.765C289.638 245.706 293.876 249.388 298.944 249.388H372.531C378.407 249.388 383.175 244.425 383.175 238.294V188.327C383.175 184.496 381.307 181.119 378.474 179.123V179.122Z" fill="#371A45"/>
    </g>
    <path d="M387.175 188.325V193.989H288.294V188.325C288.294 182.201 293.257 177.232 299.388 177.232H376.082C382.206 177.232 387.175 182.201 387.175 188.325Z" fill="white"/>
    <path d="M376.082 251.511H299.386C292.1 251.511 286.172 245.584 286.172 238.297V188.327C286.172 181.04 292.1 175.111 299.386 175.111H376.082C383.369 175.111 389.296 181.038 389.296 188.327V238.297C389.296 245.584 383.369 251.511 376.082 251.511ZM299.386 179.358C294.442 179.358 290.418 183.381 290.418 188.325V238.296C290.418 243.24 294.442 247.264 299.386 247.264H376.082C381.026 247.264 385.05 243.24 385.05 238.296V188.325C385.05 183.381 381.026 179.358 376.082 179.358H299.386Z" fill="#371A45"/>
    <path d="M387.172 195.76H288.294C287.316 195.76 286.525 194.968 286.525 193.991C286.525 193.015 287.318 192.222 288.294 192.222H387.172C388.15 192.222 388.941 193.015 388.941 193.991C388.941 194.968 388.149 195.76 387.172 195.76Z" fill="#371A45"/>
    <path d="M117.386 340.507C117.075 340.507 116.759 340.439 116.459 340.293C92.4624 328.635 79.1423 310.117 79.917 289.486C80.6207 270.703 86.0019 235.353 86.0562 234.998C86.2328 233.838 87.3177 233.037 88.4762 233.221C89.6348 233.397 90.4318 234.481 90.2537 235.641C90.1995 235.993 84.8572 271.106 84.1618 289.646C83.4539 308.517 95.902 325.584 118.316 336.473C119.37 336.987 119.811 338.256 119.297 339.312C118.93 340.067 118.174 340.508 117.385 340.508L117.386 340.507Z" fill="#371A45"/>
    <path d="M68.8266 295.701C68.7654 295.701 68.7028 295.699 68.6402 295.692C67.668 295.59 66.9629 294.719 67.0644 293.747L68.4066 280.944L59.5691 280.355C58.5927 280.291 57.8556 279.447 57.921 278.472C57.9849 277.495 58.8417 276.761 59.8042 276.823L70.4748 277.535C70.9546 277.567 71.4011 277.794 71.7112 278.161C72.0214 278.53 72.1674 279.007 72.1174 279.487L70.5833 294.119C70.4887 295.028 69.7195 295.704 68.8252 295.704L68.8266 295.701Z" fill="#371A45"/>
    <path d="M22.6249 314.979C21.6041 314.979 20.7028 314.239 20.5317 313.199L19.3119 305.764C18.8112 302.705 20.1381 299.598 22.6945 297.847L31.8824 291.555C34.1843 289.976 37.0842 289.705 39.642 290.829L46.599 293.884C47.6728 294.356 48.1609 295.609 47.6894 296.683C47.2179 297.756 45.9676 298.246 44.8911 297.773L37.934 294.717C36.7309 294.189 35.3665 294.317 34.283 295.06L25.0951 301.352C23.8934 302.175 23.2689 303.638 23.504 305.077L24.7237 312.512C24.9143 313.671 24.1298 314.762 22.9727 314.952C22.8558 314.971 22.7404 314.981 22.6249 314.981V314.979Z" fill="#371A45"/>
    <path d="M92.1358 132.351C103.275 141.415 97.5643 158.828 85.2803 163.635C83.6655 164.247 81.9422 164.57 80.2704 164.491C83.5389 163.715 86.2344 161.784 88.3457 159.461C94.6073 152.574 95.9133 142.453 89.2317 135.451L92.1358 132.351Z" fill="#371A45"/>
    <path d="M120.861 176.821C120.303 176.821 119.754 176.558 119.41 176.066C118.85 175.265 119.044 174.162 119.844 173.602C127.545 168.211 125.266 158.924 125.166 158.53C124.922 157.586 125.49 156.619 126.434 156.374C127.378 156.128 128.342 156.692 128.59 157.635C128.718 158.123 131.622 169.677 121.875 176.5C121.566 176.717 121.211 176.82 120.861 176.82V176.821Z" fill="#371A45"/>
    <g opacity="0.3">
    <path d="M138.516 163.321L129.829 169.686C129.829 169.686 118.558 175.753 111.004 178.224C105.319 180.079 97.411 183.725 93.8352 185.418C85.7001 181.75 79.1867 175.202 75.7249 168.065C72.4189 161.247 71.1017 155.4 73.6359 148.214C73.6428 148.193 73.6498 148.171 73.6567 148.15C74.3577 146.479 74.8459 145.318 74.896 145.19C74.9029 145.183 74.9029 145.176 74.9029 145.176C75.0239 160.299 81.1548 162.904 95.137 149.197L87.5332 161.551C87.5332 161.551 88.0576 172.163 106.223 172.751C123.512 173.31 137.226 164.206 138.513 163.321H138.516Z" fill="#371A45"/>
    </g>
    <path d="M130.303 285.408C129.636 285.408 128.996 285.029 128.695 284.384C128.285 283.499 128.665 282.449 129.548 282.036C129.771 281.932 135.079 279.499 141.398 280.747C142.356 280.938 142.981 281.868 142.79 282.828C142.6 283.786 141.669 284.406 140.71 284.22C135.565 283.199 131.088 285.224 131.042 285.245C130.803 285.356 130.549 285.408 130.302 285.408H130.303Z" fill="#371A45"/>
    <g opacity="0.15">
    <path d="M49.4117 385.587C46.8525 388.859 40.6896 388.314 35.6464 384.37C30.6032 380.425 28.5893 374.574 31.1498 371.303C33.7104 368.031 37.741 370.695 42.7843 374.639C47.8275 378.584 51.9722 382.315 49.4131 385.587H49.4117Z" fill="white"/>
    </g>
    <g opacity="0.15">
    <path d="M263.092 381.57C260.533 384.842 254.37 384.297 249.327 380.353C244.283 376.408 242.269 370.558 244.83 367.286C247.389 364.013 251.421 366.678 256.464 370.622C261.508 374.567 265.652 378.297 263.093 381.57H263.092Z" fill="white"/>
    </g>
    <g opacity="0.3">
    <path d="M83.1397 270.45C79.5207 282.248 74.7807 288.428 69.1978 290.372V294.52L82.0117 299.564L82.2009 286.258" fill="#371A45"/>
    </g>
    <g opacity="0.3">
    <path d="M125.993 312.338C125.993 312.338 119.622 326.209 132.896 334.612C132.896 334.612 122.011 332.573 118.559 324.609C115.108 316.645 117.48 308.959 117.48 308.959L121.036 311.158" fill="#371A45"/>
    </g>
    <path d="M366.877 400.716H2.82787C1.65538 400.716 0.704041 399.764 0.704041 398.592C0.704041 397.419 1.65538 396.468 2.82787 396.468H366.877C368.05 396.468 369.001 397.419 369.001 398.592C369.001 399.764 368.05 400.716 366.877 400.716Z" fill="#371A45"/>
    </g>
    <defs>
    <clipPath id="clip0_0_1253">
    <rect width="388.592" height="400" fill="white" transform="translate(0.703857 0.715149)"/>
    </clipPath>
    <clipPath id="clip1_0_1253">
    <rect width="36.6433" height="39.0698" fill="white" transform="translate(317.791 198.855)"/>
    </clipPath>
    </defs>
    </svg>
    