<svg width="330" height="401" viewBox="0 0 330 401" fill="none" xmlns="http://www.w3.org/2000/svg">
    <g clip-path="url(#clip0_0_1964)">
    <path d="M156.714 395.885C243.096 395.885 313.122 377.2 313.122 354.152C313.122 331.103 243.096 312.418 156.714 312.418C70.3328 312.418 0.306824 331.103 0.306824 354.152C0.306824 377.2 70.3328 395.885 156.714 395.885Z" fill="#8F8F8F" fill-opacity="0.5"/>
    <path d="M237.065 208.367C237.065 208.367 279.965 262.856 257.497 293.21C236.855 321.097 189.055 287.776 189.055 287.776L183.862 208.367H237.065Z" fill="white"/>
    <path d="M234.014 306.727C228.213 306.727 221.778 305.567 214.776 303.232C200.085 298.334 188.18 290.097 187.679 289.749L186.73 289.087L181.295 205.96H238.234L238.957 206.878C240.755 209.162 282.725 263.172 259.433 294.64C253.492 302.666 244.863 306.726 234.015 306.726L234.014 306.727ZM191.38 286.433C198.054 290.787 238.082 315.396 255.564 291.778C275.14 265.33 241.245 217.955 235.873 210.773H186.433L191.38 286.433Z" fill="#371A45"/>
    <path d="M155.781 206.491L151.053 220.916L108.727 350.104C108.727 350.104 60.3957 346.395 48.7454 325.895C44.6065 318.613 44.3135 299.711 46.4999 278.93C49.363 251.625 56.5137 221.082 64.8434 209.406C77.7739 191.286 139.515 202.014 155.782 206.492" fill="white"/>
    <path d="M151.053 220.918L108.727 350.105C108.727 350.105 60.3972 346.396 48.7454 325.897C44.6065 318.615 44.3135 299.711 46.4999 278.931C53.6433 281.673 66.4973 283.76 69.2349 271.049C73.3305 251.984 81.1825 226.257 90.4373 214.122C99.6863 201.983 124.456 205.759 124.456 205.759L151.053 220.919V220.918Z" fill="#D8D8D8"/>
    <path d="M108.727 352.514C108.665 352.514 108.603 352.511 108.541 352.506C106.515 352.35 58.7982 348.451 46.6543 327.083C41.0694 317.255 42.3047 290.485 45.3223 268.711C48.3225 247.063 54.5121 219.749 62.8851 208.012C77.4592 187.582 143.937 200.736 156.421 204.172C157.703 204.524 158.455 205.849 158.103 207.13C157.75 208.412 156.424 209.166 155.144 208.811C133.763 202.926 77.9788 195.142 66.8032 210.806C60.3221 219.892 53.7617 242.879 50.0889 269.372C46.4883 295.346 46.7899 317.583 50.8379 324.706C61.722 343.858 108.439 347.673 108.909 347.709C110.234 347.812 111.226 348.969 111.123 350.294C111.026 351.557 109.971 352.516 108.726 352.516L108.727 352.514Z" fill="#371A45"/>
    <path d="M77.6122 274.065C77.6252 277.866 76.9859 283.702 75.9526 289.787C74.0362 301.069 70.7675 313.216 67.799 314.913C60.0537 319.326 47.9372 318.343 41.8703 311.029C39.1024 307.692 38.6276 299.089 39.4617 290.123C40.482 279.148 43.4635 267.626 46.5879 264.571C50.6763 260.571 71.8022 267.076 71.8022 267.076C74.7953 268.762 77.5992 271.095 77.6122 274.064" fill="white"/>
    <path d="M75.9526 289.788C74.0362 301.07 70.7675 313.217 67.799 314.914C60.0537 319.327 47.9387 318.345 41.8718 311.031C39.1038 307.694 38.6291 299.09 39.4617 290.124C40.1934 295.115 42.3235 302.622 48.578 303.693C61.8331 305.96 64.601 284.86 64.601 284.86C64.601 284.86 69.1901 304.294 75.9526 289.787" fill="#D8D8D8"/>
    <path d="M57.1776 319.935C50.8076 319.935 44.2414 317.656 40.0188 312.568C35.4585 307.071 36.6722 292.721 37.4053 286.807C38.4876 278.083 41.0997 266.575 44.9052 262.854C49.5232 258.337 65.7512 262.698 72.5151 264.782L72.7619 264.858L72.987 264.984C77.6382 267.6 80.0049 270.652 80.0194 274.055C80.0554 282.624 75.41 313.343 68.9953 317.003C65.6602 318.905 61.4636 319.936 57.179 319.936L57.1776 319.935ZM48.2691 266.294C46.3541 268.169 43.5689 276.201 42.1806 287.4C40.8746 297.932 41.4937 306.811 43.7218 309.495C49.1595 316.047 60.1475 316.508 66.6084 312.822C69.6981 310.657 75.2527 285.665 75.2036 274.077C75.1979 272.613 73.6508 270.924 70.844 269.304C60.3986 266.117 49.8883 264.709 48.2677 266.294H48.2691Z" fill="#371A45"/>
    <path d="M66.9288 276.432C66.6286 278.465 66.4569 280.6 66.262 282.721C66.073 284.848 65.8825 286.987 65.653 289.13C65.1869 293.413 64.5996 297.719 63.5302 302.007C62.9876 304.149 62.3252 306.29 61.3929 308.391C60.452 310.48 59.2441 312.581 57.3666 314.349C56.4315 315.226 55.2928 315.981 54.0272 316.495C52.7645 317.02 51.3776 317.238 50.0528 317.232C47.3729 317.206 45.0033 316.327 42.8906 315.29C41.6971 314.704 41.205 313.26 41.7909 312.067C42.3768 310.874 43.82 310.381 45.0134 310.967C45.0466 310.983 45.0784 311.001 45.1101 311.018L45.1375 311.034C46.8 311.953 48.5404 312.624 50.1553 312.703C51.7702 312.803 53.2277 312.288 54.5366 311.182C55.8383 310.074 56.9279 308.464 57.8068 306.703C58.6899 304.935 59.387 303.007 59.9801 301.034C61.1577 297.072 61.9226 292.915 62.5633 288.73C62.8822 286.635 63.1636 284.528 63.4465 282.408C63.738 280.285 63.9978 278.165 64.4177 275.986C64.5519 275.295 65.2201 274.843 65.9114 274.976C66.5838 275.106 67.0298 275.741 66.9316 276.41L66.9288 276.432Z" fill="#371A45"/>
    <path d="M73.4618 208.207C76.8431 208.521 80.1031 209.051 83.3847 209.699C86.6563 210.347 89.9033 211.125 93.1157 212.05C93.9224 212.271 94.7248 212.504 95.52 212.761L97.9141 213.516C99.4944 214.069 101.09 214.585 102.649 215.207C105.799 216.368 108.866 217.763 111.912 219.215C113.113 219.786 113.623 221.224 113.051 222.424C112.48 223.625 111.042 224.136 109.842 223.563C109.8 223.543 109.759 223.523 109.719 223.501L109.653 223.465C106.843 221.912 103.997 220.397 101.039 219.098C99.5766 218.408 98.07 217.819 96.5778 217.192L94.3092 216.321C93.5545 216.026 92.791 215.753 92.0233 215.492C88.9667 214.406 85.8554 213.457 82.7094 212.633C79.5749 211.81 76.361 211.092 73.2078 210.602L73.1645 210.595C72.5079 210.494 72.0576 209.879 72.1601 209.223C72.2582 208.592 72.834 208.152 73.4604 208.21" fill="#371A45"/>
    <g opacity="0.35">
    <path d="M281.402 296.991C281.402 296.991 281.393 297.135 281.523 297.388C281.49 297.24 281.451 297.106 281.402 296.991Z" fill="black"/>
    </g>
    <path d="M327.031 312.357C325.554 329.744 317.167 348.174 311.91 358.285C309.45 363.015 306.932 365.16 298.846 365.896C269.946 368.535 243.518 352.297 173.683 365.248C124.449 374.383 178.995 295.305 178.995 295.305C178.995 295.305 200.906 279.789 233.274 281.874C237.958 282.174 242.862 282.844 247.947 283.979C261.533 287.02 273.647 294.677 282.012 301.173C289.557 277.291 315.276 272.761 323.635 289.774C326.917 296.45 327.719 304.294 327.029 312.359" fill="white"/>
    <path d="M327.031 312.357C325.554 329.744 317.167 348.174 311.91 358.285C309.451 363.015 306.932 365.16 298.846 365.896C269.946 368.535 243.518 352.297 173.683 365.248C124.449 374.383 178.995 295.305 178.995 295.305C178.995 295.305 200.906 279.789 233.274 281.874C230.708 296.367 225.081 337.035 241.332 343.291C268.922 353.902 280.83 306.178 280.83 306.178C280.83 306.178 273.413 373.667 312.918 324.86C318.37 318.125 323.035 314.17 327.031 312.359" fill="#D8D8D8"/>
    <path d="M292.146 368.599C284.069 368.599 275.966 367.44 266.898 366.144C245.55 363.092 218.981 359.293 174.12 367.613C163.638 369.557 156.543 367.799 153.034 362.387C148.23 354.976 150.904 341.085 160.983 321.1C168.256 306.677 176.93 294.06 177.016 293.934L177.259 293.584L177.606 293.337C178.814 292.481 207.649 272.499 248.471 281.633C261.299 284.5 272.794 291.368 280.861 297.289C285.574 285.778 295.037 278.022 305.677 277.218C314.415 276.556 321.935 280.855 325.798 288.712C336.391 310.256 322.981 342.244 314.045 359.394C311.318 364.639 308.253 367.454 299.066 368.293C296.747 368.505 294.448 368.599 292.147 368.599H292.146ZM224.905 357.751C242.191 357.751 255.682 359.68 267.58 361.38C278.931 363.004 288.733 364.404 298.627 363.5C306.097 362.819 307.759 361.048 309.775 357.172C316.631 344.012 331.496 311.21 321.477 290.834C318.47 284.716 312.842 281.502 306.037 282.017C298.735 282.57 288.662 288.108 284.304 301.9L283.262 305.196L280.533 303.075C272.835 297.093 260.842 289.332 247.419 286.33C211.038 278.193 184.01 294.884 180.719 297.043C171.278 310.826 149.347 347.855 157.072 359.771C159.419 363.39 164.858 364.438 173.241 362.882C193.853 359.06 210.666 357.751 224.903 357.751H224.905Z" fill="#371A45"/>
    <path d="M294.576 365.248L299.11 365.522C304.434 365.844 309.449 363.012 311.91 358.283C319.613 343.494 334.001 310.848 323.641 289.769C323.339 289.155 323.014 288.561 322.664 287.989C322.664 287.989 312.148 277.197 303.29 291.032C295.016 303.957 275.892 360.201 294.578 365.248" fill="#AFAFB2"/>
    <g opacity="0.7">
    <path d="M298.62 300.316C298.839 300.008 299.059 299.717 299.269 299.448C309.963 285.723 323.035 296.669 323.035 296.669C323.47 297.246 323.882 297.845 324.257 298.464C325.511 300.508 326.484 302.656 327.21 304.886C326.979 299.5 325.901 294.356 323.639 289.766C323.338 289.152 323.013 288.559 322.662 287.986C322.662 287.986 312.145 277.192 303.288 291.028C301.945 293.122 300.323 296.347 298.618 300.313" fill="white"/>
    </g>
    <path d="M327.184 306.719C327.005 306.719 326.824 306.699 326.642 306.657L299.11 300.336C297.815 300.039 297.006 298.747 297.304 297.453C297.601 296.158 298.894 295.347 300.187 295.646L327.719 301.967C329.015 302.264 329.823 303.555 329.526 304.85C329.27 305.964 328.279 306.719 327.182 306.719H327.184Z" fill="#371A45"/>
    <path d="M326.101 321.735C325.948 321.735 325.791 321.72 325.635 321.688L293.363 315.352C292.058 315.096 291.209 313.83 291.465 312.526C291.72 311.223 292.986 310.373 294.29 310.628L326.563 316.965C327.868 317.22 328.716 318.486 328.461 319.791C328.236 320.938 327.228 321.733 326.101 321.733V321.735Z" fill="#371A45"/>
    <path d="M322.342 336.28C322.198 336.28 322.05 336.267 321.903 336.239L289.121 330.204C287.814 329.963 286.949 328.709 287.19 327.402C287.431 326.094 288.688 325.23 289.993 325.471L322.775 331.506C324.082 331.747 324.947 333.001 324.706 334.309C324.492 335.467 323.481 336.28 322.342 336.28Z" fill="#371A45"/>
    <path d="M294.576 365.248L299.11 365.522C304.434 365.844 309.449 363.012 311.91 358.283C313.903 354.449 316.346 349.427 318.694 343.709C315.699 348.063 309.997 350.593 303.925 350.228L298.522 349.901C290.911 348.105 288.473 340.388 288.955 330.496C285.347 347.024 285.119 362.693 294.578 365.249" fill="#959596"/>
    <path d="M316.136 352.014C316.017 352.014 315.895 352.006 315.774 351.987L286.408 347.541C285.093 347.341 284.19 346.115 284.389 344.801C284.588 343.487 285.818 342.585 287.128 342.783L316.494 347.229C317.809 347.428 318.712 348.655 318.513 349.968C318.333 351.16 317.307 352.014 316.136 352.014Z" fill="#371A45"/>
    <path d="M299.926 367.952C299.607 367.952 299.287 367.942 298.966 367.923L294.187 367.635L293.95 367.571C290.232 366.567 287.538 363.962 285.941 359.829C279.187 342.352 294.464 300.355 301.262 289.735C304.423 284.798 308.205 282.073 312.504 281.636C319.093 280.963 324.173 286.091 324.385 286.31L324.573 286.502L324.713 286.73C325.1 287.361 325.465 288.027 325.8 288.71C336.386 310.247 322.977 342.241 314.041 359.393C311.298 364.668 305.83 367.952 299.924 367.952H299.926ZM294.986 362.862L299.256 363.121C303.63 363.382 307.758 361.05 309.775 357.172C316.631 344.011 331.496 311.203 321.482 290.831C321.258 290.375 321.019 289.931 320.768 289.507C319.993 288.798 316.701 286.03 312.965 286.427C310.21 286.719 307.636 288.704 305.316 292.331C298.232 303.397 284.728 343.341 290.43 358.096C291.424 360.667 292.917 362.23 294.987 362.864L294.986 362.862Z" fill="#371A45"/>
    <path d="M299.926 367.952C299.607 367.952 299.287 367.942 298.966 367.923L294.187 367.635L293.95 367.571C290.232 366.567 287.538 363.962 285.941 359.829C279.187 342.352 294.464 300.355 301.262 289.735C304.423 284.798 308.205 282.073 312.504 281.636C319.093 280.963 324.173 286.091 324.385 286.31L324.573 286.502L324.713 286.73C325.1 287.361 325.465 288.027 325.8 288.71C336.386 310.247 322.977 342.241 314.041 359.393C311.298 364.668 305.83 367.952 299.924 367.952H299.926ZM294.986 362.862L299.256 363.121C303.63 363.382 307.758 361.05 309.775 357.172C316.631 344.011 331.496 311.203 321.482 290.831C321.258 290.375 321.019 289.931 320.768 289.507C319.993 288.798 316.701 286.03 312.965 286.427C310.21 286.719 307.636 288.704 305.316 292.331C298.232 303.397 284.728 343.341 290.43 358.096C291.424 360.667 292.917 362.23 294.987 362.864L294.986 362.862Z" fill="#371A45"/>
    <path d="M297.504 368.017C296.242 368.017 295.052 367.868 293.95 367.571C292.667 367.226 291.906 365.906 292.251 364.623C292.596 363.34 293.915 362.578 295.2 362.924C296.253 363.209 297.483 363.278 298.852 363.129C300.178 362.988 301.36 363.943 301.502 365.265C301.643 366.587 300.688 367.773 299.366 367.915C298.729 367.982 298.107 368.017 297.503 368.017H297.504Z" fill="#371A45"/>
    <path d="M218.217 306.712L217.997 334.349C204.639 368.241 187.908 352.899 152.545 369.677C150.78 370.512 148.971 371.427 147.106 372.437C121.085 386.537 95.1852 361.445 85.7096 348.789C79.2675 335.98 75.8199 322.876 75.5861 310.713C75.4923 306.149 75.8531 301.72 76.6829 297.49C78.393 288.776 80.7381 277.377 84.0861 265.021C86.7992 254.997 90.1804 244.353 94.403 233.995C99.9085 220.511 104.58 210.627 108.635 203.097C121.325 179.496 127.94 178.934 135.203 162.849C156.746 115.125 232.663 129.131 212.797 191.149C210.478 209.925 210.272 226.011 211.039 240.116C212.449 266.223 217.2 285.541 218.082 302.628C218.155 304.004 218.196 305.361 218.216 306.71" fill="white"/>
    <path d="M218.217 306.712L217.997 334.349C204.639 368.241 187.908 352.899 152.545 369.677L135.42 294.83L218.085 302.629C218.158 304.006 218.199 305.362 218.219 306.712" fill="#D8D8D8"/>
    <path d="M122.704 319.721C122.704 320.196 95.5344 314.77 75.589 310.713C75.4952 306.149 75.8559 301.72 76.6843 297.49C78.3959 288.776 80.7409 277.377 84.089 265.021C88.8672 267.005 93.2297 269.739 95.6629 267.64C99.2707 264.533 102.586 229.907 106.928 257.892C111.478 287.186 122.704 318.974 122.704 319.721Z" fill="#D8D8D8"/>
    <path d="M212.8 191.15C210.481 209.927 210.275 226.011 211.042 240.117C201.627 243.178 191.824 244.608 182.45 243.953C159.664 242.35 149.473 231.624 134.812 220.157C126.072 213.328 115.434 210.428 108.638 203.098C121.327 179.497 127.943 178.936 135.206 162.852C156.749 115.128 232.665 129.133 212.8 191.152" fill="#D8D8D8"/>
    <path d="M215.815 306.743C215.735 302.026 215.341 297.282 214.776 292.527C214.221 287.772 213.523 283.002 212.83 278.216C211.43 268.645 210.087 258.995 209.267 249.278C208.432 239.563 208.104 229.792 208.29 220.033C208.388 215.154 208.635 210.28 208.98 205.414C209.328 200.548 209.837 195.698 210.409 190.856L210.435 190.642L210.505 190.417C212.555 183.959 213.817 177.25 213.649 170.605C213.488 163.981 211.767 157.432 208.235 151.969C204.721 146.504 199.448 142.257 193.403 139.736C187.361 137.182 180.607 136.314 174.025 136.947C167.428 137.56 160.989 139.749 155.33 143.189C149.675 146.647 144.82 151.386 141.185 156.961C140.714 157.647 140.29 158.364 139.867 159.081C139.426 159.787 139.056 160.537 138.656 161.268C138.252 161.996 137.925 162.767 137.554 163.514L136.414 165.935C135.611 167.554 134.766 169.161 133.831 170.724C132.894 172.284 131.893 173.808 130.835 175.279C128.71 178.214 126.417 180.907 124.267 183.6C122.104 186.291 120.069 189.028 118.151 191.868C114.321 197.543 110.993 203.597 107.882 209.775C104.796 215.971 101.936 222.3 99.2201 228.699C96.4869 235.115 93.9369 241.511 91.7318 248.085C89.5151 254.646 87.5539 261.301 85.7818 268.013C84.0024 274.723 82.4496 281.499 81.0021 288.303C80.2892 291.697 79.5951 295.145 78.9543 298.522C78.3439 301.812 78.0509 305.169 78.012 308.536C77.9398 315.274 78.9024 322.042 80.6399 328.61C82.376 335.183 84.874 341.567 87.9479 347.665L87.7155 347.288C91.5153 352.301 95.9659 356.929 100.797 360.995C105.642 365.044 110.944 368.557 116.656 370.947C122.346 373.344 128.49 374.54 134.469 373.834C137.453 373.494 140.375 372.691 143.149 371.488C144.553 370.887 145.819 370.196 147.347 369.385C148.823 368.61 150.315 367.865 151.826 367.157C157.859 364.294 164.214 362.066 170.684 360.436C173.918 359.624 177.179 358.96 180.421 358.378C183.662 357.792 186.884 357.289 190.009 356.671C193.133 356.055 196.155 355.303 198.919 354.136C201.684 352.977 204.157 351.352 206.289 349.272C208.426 347.203 210.295 344.765 212 342.145C213.708 339.52 215.252 336.727 216.874 333.909L216.878 333.9C217.213 333.319 217.955 333.118 218.536 333.453C219.014 333.728 219.235 334.28 219.112 334.79C218.33 338.032 217.183 341.197 215.652 344.237C214.122 347.269 212.179 350.203 209.655 352.705C208.394 353.952 207.006 355.091 205.522 356.088C204.039 357.087 202.453 357.918 200.838 358.622C197.594 360.018 194.25 360.85 190.989 361.523C187.72 362.191 184.5 362.715 181.327 363.314C178.155 363.907 175.026 364.568 171.939 365.365C165.77 366.955 159.791 369.141 154.026 371.844C152.584 372.518 151.157 373.228 149.745 373.967C148.395 374.683 146.793 375.554 145.195 376.233C141.987 377.622 138.553 378.565 135.054 378.96C131.558 379.363 128.013 379.223 124.582 378.631C121.147 378.042 117.825 377.013 114.663 375.687C108.336 373.015 102.663 369.199 97.5259 364.881C92.397 360.532 87.7632 355.686 83.6993 350.293L83.5666 350.115L83.467 349.916C80.2719 343.524 77.6685 336.812 75.8559 329.862C74.0448 322.916 73.0346 315.718 73.1356 308.472C73.1905 304.853 73.5181 301.222 74.1934 297.642C74.8659 294.155 75.5716 290.755 76.2889 287.309C77.7493 280.442 79.3194 273.589 81.1233 266.787C82.92 259.985 84.9116 253.225 87.1686 246.542L88.9191 241.547C89.5425 239.896 90.1313 238.231 90.7836 236.59C92.0709 233.288 93.4144 230.056 94.784 226.82C97.5302 220.353 100.427 213.939 103.573 207.622C106.747 201.32 110.163 195.096 114.154 189.179C116.147 186.226 118.287 183.35 120.502 180.595C122.713 177.829 124.951 175.192 126.925 172.463C128.898 169.736 130.598 166.863 132.08 163.828L133.174 161.507C133.578 160.687 133.939 159.849 134.38 159.049C134.818 158.247 135.223 157.429 135.708 156.651C136.171 155.863 136.639 155.077 137.157 154.32C141.157 148.187 146.54 142.918 152.815 139.087C159.094 135.267 166.229 132.844 173.556 132.16C180.868 131.46 188.405 132.411 195.259 135.303C196.966 136.03 198.643 136.844 200.235 137.817C201.047 138.273 201.808 138.817 202.587 139.328C203.335 139.888 204.104 140.417 204.812 141.029C207.717 143.384 210.227 146.229 212.272 149.363C216.356 155.674 218.278 163.161 218.451 170.478C218.635 177.829 217.249 185.044 215.08 191.889L215.177 191.451C214.615 196.216 214.113 200.987 213.77 205.771C213.432 210.553 213.188 215.343 213.091 220.136C212.91 229.722 213.23 239.312 214.053 248.873C214.859 258.438 216.184 267.961 217.584 277.53C218.277 282.317 218.979 287.12 219.547 291.973C220.122 296.82 220.537 301.728 220.619 306.686C220.64 308.015 219.581 309.11 218.252 309.132C216.923 309.153 215.829 308.094 215.807 306.765V306.748L215.815 306.743Z" fill="#371A45"/>
    <path d="M277.918 322.619C277.918 322.619 279.462 311.05 282.011 301.176L277.918 322.619Z" fill="white"/>
    <path d="M276.726 322.459C277.034 318.789 277.432 315.157 277.91 311.509C278.389 307.865 278.956 304.224 279.682 300.573C279.941 299.267 281.21 298.419 282.515 298.679C283.821 298.937 284.668 300.207 284.408 301.512C284.391 301.599 284.369 301.684 284.343 301.767L284.34 301.776C283.264 305.18 282.317 308.663 281.455 312.175C280.597 315.684 279.806 319.236 279.11 322.778L279.107 322.792C278.979 323.445 278.347 323.87 277.693 323.742C277.087 323.624 276.677 323.062 276.725 322.459" fill="#371A45"/>
    <path d="M249.507 363.884C248.652 363.884 247.823 363.426 247.389 362.62C247.206 362.278 242.876 354.097 241.992 340.564C241.182 328.19 243.236 308.761 257.612 286.472C258.332 285.355 259.823 285.033 260.938 285.755C262.055 286.475 262.377 287.964 261.656 289.081C248.066 310.149 246.064 328.392 246.776 339.987C247.549 352.557 251.587 360.267 251.629 360.344C252.252 361.516 251.812 362.973 250.642 363.6C250.279 363.793 249.89 363.885 249.506 363.885L249.507 363.884Z" fill="#371A45"/>
    <path d="M297.322 139.65C292.984 157.713 284.051 174.794 270.75 189.071C268.036 191.98 265.154 194.771 262.087 197.428C260.599 198.725 259.055 199.99 257.475 201.233C252.694 204.958 247.705 208.237 242.549 211.079C238.111 213.538 233.545 215.666 228.904 217.477C223.299 219.667 217.567 221.381 211.77 222.639C209.654 223.091 207.533 223.486 205.407 223.827C166.471 229.955 125.459 215.744 99.3298 183.116C60.8301 135.057 69.2205 65.2535 118.053 27.2025C127.462 19.8801 137.69 14.249 148.344 10.3122C149.585 9.8403 150.845 9.40303 152.112 8.99174C155.493 7.86899 158.909 6.91219 162.35 6.11992C170.309 4.29003 178.406 3.33901 186.479 3.24088C194.549 3.13409 202.616 3.88451 210.508 5.47051C213.018 5.97272 215.51 6.55863 217.988 7.23257C221.7 8.24564 225.362 9.43622 228.972 10.8317C246.962 17.7342 263.374 29.3052 276.197 45.3181C298.346 72.9612 304.972 107.795 297.322 139.648" fill="white"/>
    <path d="M187.635 225.458C153.437 225.458 120.659 210.136 99.1422 183.267C80.5548 160.067 72.2178 131.096 75.664 101.692C79.1391 72.052 94.1389 45.5303 117.904 27.0121C127.178 19.7964 137.391 14.1019 148.26 10.0856C149.434 9.63971 150.707 9.19379 152.037 8.76229C155.394 7.64676 158.846 6.67842 162.295 5.8847C170.192 4.06925 178.327 3.09947 186.474 2.99989C194.543 2.89166 202.648 3.64497 210.554 5.23385C213.097 5.74472 215.62 6.33784 218.05 7.00024C221.837 8.03351 225.54 9.24718 229.057 10.6081C247.615 17.7284 263.98 29.6804 276.384 45.168C297.838 71.9438 305.555 106.401 297.556 139.706C293.122 158.169 283.913 175.296 270.926 189.235C268.171 192.188 265.25 195.006 262.244 197.61C260.865 198.813 259.352 200.06 257.623 201.423C252.897 205.104 247.865 208.425 242.665 211.289C238.313 213.702 233.712 215.86 228.992 217.701C223.472 219.858 217.694 221.597 211.822 222.875C209.719 223.325 207.574 223.725 205.444 224.064C199.502 224.999 193.543 225.458 187.633 225.458H187.635ZM187.978 3.47324C187.479 3.47324 186.981 3.47612 186.482 3.48334C178.368 3.58147 170.267 4.54836 162.405 6.35516C158.97 7.14599 155.534 8.11 152.189 9.22121C150.862 9.65126 149.6 10.0943 148.431 10.5388C137.606 14.5377 127.436 20.2077 118.202 27.3931C94.5401 45.8304 79.6052 72.2368 76.1446 101.747C72.7128 131.023 81.0137 159.865 99.5189 182.962C124.647 214.34 165.209 229.904 205.369 223.585C207.489 223.245 209.627 222.847 211.719 222.4C217.567 221.13 223.319 219.397 228.816 217.249C233.516 215.415 238.098 213.266 242.432 210.863C247.61 208.01 252.62 204.706 257.326 201.04C259.048 199.685 260.554 198.443 261.928 197.243C264.921 194.65 267.831 191.845 270.573 188.903C283.503 175.025 292.671 157.973 297.087 139.592C305.05 106.435 297.367 72.1285 276.009 45.4711C263.659 30.0484 247.364 18.1498 228.885 11.0597C225.383 9.70465 221.695 8.49676 217.925 7.46781C215.504 6.8083 212.993 6.21662 210.461 5.70864C203.076 4.22366 195.52 3.47324 187.978 3.47324Z" fill="#371A45"/>
    <path d="M99.3313 183.112C125.458 215.746 166.476 229.955 205.41 223.821C207.537 223.485 209.657 223.09 211.77 222.637C217.568 221.38 223.299 219.662 228.904 217.477C233.545 215.662 238.114 213.536 242.549 211.079C247.708 208.238 252.694 204.96 257.479 201.234C259.054 199.985 260.601 198.724 262.091 197.431C265.157 194.773 268.034 191.976 270.752 189.068C284.053 174.791 292.989 157.715 297.325 139.647C299.711 129.724 300.709 119.505 300.284 109.308C295.745 126.454 287.03 142.621 274.339 156.241C271.63 159.158 268.746 161.944 265.679 164.604C264.194 165.9 262.648 167.158 261.067 168.408C256.281 172.134 251.295 175.412 246.143 178.255C241.703 180.711 237.14 182.838 232.499 184.653C226.894 186.838 221.156 188.556 215.364 189.813C213.244 190.264 211.125 190.66 208.997 190.996C170.063 197.129 129.052 182.92 102.919 150.285C87.6679 131.252 79.7827 108.807 78.8461 86.2798C70.2177 118.805 76.6035 154.75 99.3313 183.114" fill="#D8D8D8"/>
    <path d="M187.638 227.08C152.951 227.08 119.702 211.536 97.8752 184.28C79.0149 160.739 70.5539 131.341 74.052 101.502C77.5776 71.4272 92.7968 44.5172 116.906 25.7306C126.312 18.4111 136.672 12.6357 147.698 8.56317C148.882 8.11291 150.178 7.65833 151.536 7.21817C154.931 6.09109 158.432 5.10832 161.931 4.30306C169.942 2.46163 178.192 1.47742 186.456 1.37784C194.643 1.27249 202.857 2.03302 210.875 3.64355C213.454 4.16019 216.011 4.76342 218.477 5.43447C222.317 6.48218 226.074 7.71317 229.644 9.09424C248.467 16.3156 265.07 28.4408 277.653 44.1535C299.422 71.3233 307.253 106.289 299.136 140.084C294.637 158.819 285.293 176.197 272.115 190.341C269.321 193.337 266.359 196.194 263.309 198.835C261.912 200.053 260.38 201.317 258.629 202.695C253.829 206.435 248.724 209.801 243.451 212.708C239.039 215.154 234.372 217.342 229.584 219.211C223.984 221.398 218.124 223.163 212.168 224.458C210.032 224.914 207.86 225.319 205.703 225.664C199.675 226.612 193.632 227.077 187.638 227.077V227.08ZM187.978 5.09678C187.486 5.09678 186.995 5.09966 186.503 5.10688C178.504 5.20357 170.519 6.15748 162.768 7.93829C159.384 8.71758 155.997 9.66716 152.701 10.7639C151.389 11.1897 150.151 11.6226 149.008 12.057C138.326 16.0025 128.302 21.5917 119.199 28.6746C95.8836 46.8421 81.1666 72.8617 77.758 101.936C74.3767 130.777 82.5564 159.192 100.787 181.948C125.553 212.871 165.53 228.211 205.118 221.981C207.206 221.648 209.315 221.254 211.381 220.812C217.139 219.561 222.809 217.854 228.227 215.737C232.861 213.929 237.375 211.812 241.647 209.443C246.754 206.629 251.692 203.372 256.33 199.759C258.025 198.425 259.51 197.2 260.863 196.02C263.817 193.459 266.683 190.694 269.388 187.797C282.128 174.123 291.16 157.324 295.51 139.212C303.355 106.547 295.786 72.7491 274.742 46.4842C262.572 31.2866 246.513 19.5598 228.303 12.5736C224.849 11.2373 221.213 10.0467 217.496 9.03218C215.112 8.38278 212.637 7.79975 210.14 7.29899C202.86 5.83566 195.412 5.09534 187.977 5.09534L187.978 5.09678Z" fill="#371A45"/>
    <path d="M187.638 227.621C152.788 227.621 119.384 212.004 97.4523 184.619C78.5012 160.965 69.9997 131.424 73.5137 101.44C77.0566 71.2208 92.348 44.181 116.572 25.3049C126.023 17.9507 136.431 12.1479 147.51 8.05661C148.698 7.60491 150.004 7.14744 151.369 6.7044C154.776 5.57299 158.295 4.58589 161.809 3.7763C169.858 1.92477 178.148 0.936225 186.45 0.835207C194.67 0.729858 202.926 1.49327 210.983 3.11246C213.574 3.63199 216.144 4.2381 218.62 4.91348C222.479 5.96552 226.253 7.20372 229.839 8.59057C248.75 15.8466 265.432 28.028 278.076 43.8173C299.95 71.1183 307.818 106.254 299.663 140.212C295.142 159.036 285.753 176.5 272.512 190.712C269.705 193.721 266.728 196.592 263.664 199.246C262.262 200.469 260.723 201.739 258.964 203.124C254.138 206.883 249.011 210.265 243.712 213.185C239.28 215.642 234.591 217.841 229.78 219.719C224.155 221.916 218.267 223.69 212.282 224.99C210.136 225.449 207.953 225.856 205.788 226.202C199.731 227.155 193.661 227.623 187.639 227.623L187.638 227.621ZM187.978 5.63793C187.489 5.63793 187 5.64082 186.511 5.64803C178.549 5.74472 170.603 6.69286 162.889 8.46502C159.523 9.23997 156.152 10.1867 152.871 11.2762C151.565 11.7005 150.336 12.1306 149.2 12.5621C138.564 16.4902 128.591 22.0521 119.531 29.1017C96.331 47.1798 81.6862 73.0695 78.2948 102C74.9309 130.695 83.0687 158.969 101.209 181.61C125.852 212.382 165.636 227.648 205.033 221.447C207.111 221.115 209.211 220.724 211.267 220.284C216.997 219.04 222.638 217.34 228.029 215.235C232.642 213.435 237.134 211.328 241.383 208.973C246.465 206.172 251.381 202.929 255.996 199.334C257.68 198.008 259.159 196.789 260.505 195.614C263.447 193.065 266.3 190.313 268.99 187.429C281.665 173.824 290.652 157.106 294.982 139.087C302.788 106.585 295.256 72.9569 274.318 46.8233C262.207 31.6993 246.229 20.0317 228.107 13.0787C224.668 11.7481 221.052 10.5633 217.352 9.55458C214.981 8.90806 212.517 8.32792 210.032 7.83004C202.786 6.37393 195.374 5.63793 187.975 5.63793H187.978Z" fill="#371A45"/>
    <path d="M287.127 166.278C235.461 227.211 140.255 219.212 114.934 144.77C97.7063 94.1247 134.754 38.2872 185.2 24.986C221.918 15.3055 262.024 21.6754 292.719 73.7016C292.719 73.7016 302.694 98.8091 300.298 117.951C297.901 137.092 292.293 155.318 292.293 155.318L287.128 166.278H287.127Z" fill="#371A45"/>
    <path d="M114.937 144.77C140.255 219.209 235.464 227.208 287.128 166.281L288.173 164.057C221.475 195.188 140.313 172.603 113.289 97.809C109.469 113.017 109.624 129.139 114.937 144.768" fill="#220F2D"/>
    <path d="M201.786 220.71C185.142 220.71 168.863 217.187 154.287 210.19C129.155 198.124 110.873 177.063 101.421 149.284C92.7434 123.777 95.5604 95.5736 109.354 69.87C124.681 41.3091 151.863 19.5049 182.063 11.5418C198.849 7.11569 214.763 6.07809 229.357 8.45925L229.601 8.49965L229.832 8.58913C248.748 15.8481 265.431 28.0295 278.074 43.8173C299.949 71.1183 307.817 106.254 299.662 140.212C295.14 159.036 285.751 176.5 272.511 190.712C269.704 193.721 266.727 196.592 263.663 199.246C262.26 200.469 260.722 201.739 258.963 203.124C254.137 206.883 249.009 210.265 243.71 213.185L243.368 213.34C229.781 218.262 215.657 220.711 201.785 220.711L201.786 220.71ZM213.625 12.0267C203.972 12.0267 193.821 13.4193 183.291 16.1944C154.356 23.8228 128.302 44.7394 113.595 72.1459C100.44 96.6602 97.7352 123.505 105.978 147.734C115.005 174.261 132.429 194.358 156.369 205.852C181.882 218.101 212.921 219.2 241.553 208.878C246.572 206.101 251.431 202.89 255.997 199.333C257.681 198.007 259.16 196.787 260.507 195.613C263.448 193.064 266.301 190.312 268.991 187.427C281.666 173.823 290.655 157.106 294.983 139.085C302.789 106.583 295.257 72.9555 274.319 46.8219C262.26 31.7629 246.364 20.1298 228.34 13.1667C223.583 12.4048 218.669 12.0238 213.624 12.0238L213.625 12.0267Z" fill="#371A45"/>
    <path d="M65.4351 152.997C69.9059 174.432 86.499 189.774 102.5 187.258C118.502 184.743 127.847 165.326 123.378 143.889C123.352 143.755 123.319 143.612 123.286 143.478C118.695 122.257 102.202 107.129 86.3128 109.628C73.951 111.571 65.5621 123.602 64.4423 138.854C64.1161 143.345 64.4177 148.122 65.4337 152.997" fill="white"/>
    <path d="M65.4351 152.997C69.9059 174.432 86.499 189.774 102.5 187.258C118.502 184.743 127.847 165.326 123.378 143.889C123.352 143.755 123.319 143.612 123.286 143.478C121.985 145.955 119.7 148.551 115.838 148.405C109.074 148.145 94.5386 136.193 94.5386 136.193C94.5386 136.193 81.4798 137.263 64.4437 138.854C64.1175 143.345 64.4192 148.122 65.4351 152.997Z" fill="#D8D8D8"/>
    <path d="M99.0787 189.93C83.1019 189.93 67.4512 174.469 63.0771 153.491C60.3495 140.412 62.3988 127.679 68.7009 118.558C73.0592 112.25 79.0193 108.341 85.9362 107.253C103.156 104.547 121.011 120.76 125.732 143.397C128.459 156.476 126.41 169.209 120.108 178.331C115.75 184.639 109.79 188.548 102.873 189.635C101.61 189.833 100.343 189.931 99.0787 189.931V189.93ZM89.7994 111.764C88.7589 111.764 87.7199 111.843 86.6837 112.006C81.1003 112.884 76.2499 116.096 72.6594 121.293C67.1856 129.216 65.3644 140.885 67.7874 152.508C71.9927 172.674 87.4024 187.196 102.125 184.88C107.709 184.003 112.558 180.792 116.149 175.595C121.625 167.671 123.446 156.002 121.021 144.38C117.112 125.635 103.525 111.764 89.8009 111.764H89.7994Z" fill="#371A45"/>
    <path d="M66.7513 169.021C75.3234 183.814 90.8183 188.888 101.362 180.356C111.905 171.824 113.503 152.916 104.932 138.126C96.3599 123.334 80.865 118.258 70.3216 126.79C59.7781 135.322 58.1791 154.229 66.7513 169.021Z" fill="white"/>
    <path d="M89.8182 184.756C88.6016 184.756 87.362 184.64 86.1065 184.408C78.4709 182.998 71.3361 177.436 66.5334 169.148C57.9164 154.277 59.5443 135.189 70.1628 126.595C74.5745 123.025 79.9068 121.69 85.5769 122.739C93.2124 124.149 100.347 129.712 105.15 138C113.767 152.87 112.139 171.96 101.521 180.552C98.0859 183.332 94.0942 184.756 89.8182 184.756ZM66.9692 168.896C71.6983 177.057 78.7076 182.531 86.1974 183.913C91.7202 184.933 96.9097 183.635 101.203 180.161C111.637 171.717 113.213 152.918 104.714 138.251C99.985 130.09 92.9772 124.617 85.4859 123.233C79.9631 122.211 74.7736 123.51 70.4803 126.985C60.0465 135.428 58.4706 154.229 66.9692 168.895V168.896Z" fill="#371A45"/>
    <path d="M110.628 162.122C110.892 156.159 109.498 150.106 106.915 144.685C105.151 158.234 94.5502 165.785 82.2346 161.734C74.2757 159.119 67.4338 152.252 63.4422 143.859C63.3253 144.713 63.2546 145.6 63.2113 146.504C62.546 161.69 72.6204 177.497 85.7168 181.809C98.8117 186.121 109.961 177.301 110.628 162.123" fill="#D8D8D8"/>
    <path d="M90.0173 186.987C77.5256 186.987 65.0007 173.999 61.2919 156.564C58.9367 145.49 60.5675 134.5 65.6559 127.166C68.9261 122.453 73.3579 119.558 78.4723 118.795C91.7895 116.806 105.846 130.369 109.814 149.024C112.169 160.099 110.537 171.088 105.45 178.422C102.18 183.135 97.7482 186.03 92.6337 186.794C91.7635 186.923 90.8904 186.987 90.0188 186.987H90.0173ZM81.1825 123.409C80.5144 123.409 79.8476 123.456 79.1824 123.556C75.4143 124.119 72.1038 126.315 69.6101 129.91C65.2648 136.173 63.9141 145.763 65.9994 155.563C69.2363 170.784 79.6846 182.18 89.9235 182.181C90.5917 182.181 91.2584 182.134 91.9223 182.034C95.6903 181.471 99.0008 179.275 101.495 175.68C105.84 169.417 107.191 159.826 105.107 150.027C101.87 134.806 91.4215 123.409 81.1825 123.409Z" fill="#371A45"/>
    <g opacity="0.5">
    <path d="M167.196 57.4923C167.196 57.4923 213.312 48.3862 245.181 67.525C245.214 67.5452 245.247 67.5654 245.282 67.5856C251.985 71.6191 257.456 77.3728 261.165 84.1988C266.069 93.2256 268.105 100.157 269.658 106.326C274.374 125.094 273.02 134.766 273.02 134.766C281.364 122.182 284.642 109.422 280.872 93.7494C280.496 92.2053 280.05 90.628 279.542 89.0218C279.426 88.6509 279.304 88.2872 279.172 87.9221C279.179 87.9163 279.174 87.9091 279.162 87.9005C277.899 84.7213 276.078 80.604 273.631 76.1303C266.258 62.6328 253.221 45.8708 232.666 41.6612C194.234 33.7919 165.136 55.9179 167.199 57.4923" fill="white"/>
    </g>
    <path d="M258.097 231.998C254.228 240.325 227.853 239.182 227.853 239.182C227.853 239.182 225.455 245.49 219.427 246.546C214.656 247.388 208.033 243.533 206.169 235.534C205.58 233.021 205.467 230.095 206.022 226.78C208.354 212.914 240.889 212.226 249.496 213.689C255.075 214.639 258.095 219.791 258.837 224.762V224.768C259.238 227.461 258.977 230.1 258.095 231.998" fill="white"/>
    <path d="M258.097 231.998C254.228 240.325 227.853 239.182 227.853 239.182C227.853 239.182 225.455 245.49 219.427 246.546C214.656 247.388 208.033 243.533 206.169 235.534C208.013 237.003 210.98 238.413 215.23 237.693C222.62 236.43 224.979 229.908 224.979 229.908C224.979 229.908 252.917 234.56 258.837 224.769C259.238 227.462 258.977 230.102 258.095 232" fill="#D8D8D8"/>
    <path d="M218.122 249.064C214.829 249.064 211.306 247.526 208.586 244.823C206.013 242.267 201.951 236.473 203.651 226.379C204.213 223.038 206.172 220.154 209.472 217.809C220.138 210.231 242.715 210.094 249.901 211.318C253.899 211.999 257.243 214.546 259.315 218.493C261.725 223.081 262.123 229.051 260.283 233.01C256.325 241.531 236.297 241.811 229.331 241.641C228.054 243.943 225.107 247.995 219.847 248.917C219.284 249.015 218.707 249.064 218.124 249.064H218.122ZM241.104 215.554C231.885 215.554 218.834 217.06 212.259 221.732C210.006 223.332 208.743 225.113 208.396 227.177C207.056 235.133 210.065 239.508 211.977 241.409C214.057 243.475 216.819 244.562 219.016 244.177C223.566 243.38 225.582 238.381 225.601 238.331C225.969 237.361 226.925 236.732 227.953 236.781C238.241 237.221 253.718 235.713 255.918 230.981C256.947 228.768 256.993 224.423 255.053 220.73C254.092 218.9 252.278 216.604 249.093 216.062C247.249 215.747 244.426 215.552 241.105 215.552L241.104 215.554Z" fill="#371A45"/>
    <path d="M157.01 300.135C145.416 302.462 135.114 303.382 126.091 303.41C93.5357 303.496 77.6656 291.83 77.6656 291.83C71.3115 283.35 73.3752 276.775 76.6973 272.485V272.478C79.6239 268.71 83.5204 266.698 83.5204 266.698C87.6896 270.006 92.2282 272.612 96.9515 274.657C106.935 278.981 117.72 280.777 127.495 281.305C145.35 282.268 159.83 278.96 159.83 278.96C168.645 285.195 157.01 300.135 157.01 300.135Z" fill="white"/>
    <path d="M127.495 281.305L126.091 303.41C93.5357 303.496 77.6656 291.83 77.6656 291.83C71.3101 283.35 73.3752 276.775 76.6958 272.485C76.4015 278.132 77.9788 284.265 85.0891 287.065C95.533 291.175 97.0035 281.038 96.9501 274.657C106.934 278.981 117.718 280.777 127.494 281.305" fill="#D8D8D8"/>
    <path d="M125.554 305.843C93.1446 305.843 77.0913 294.393 76.2442 293.77L75.957 293.559L75.7434 293.273C71.7878 287.994 70.3677 282.764 71.5222 277.731C73.4632 269.268 82.0498 264.748 82.4135 264.559L83.7946 263.846L85.0126 264.812C112.816 286.859 158.833 276.716 159.295 276.611L160.342 276.373L161.22 276.993C163.579 278.663 164.989 280.947 165.408 283.783C166.574 291.663 159.225 301.21 158.912 301.613L158.364 302.319L157.488 302.495C145.484 304.902 134.847 305.843 125.556 305.843H125.554ZM79.3627 290.074C82.2317 291.969 107.465 307.36 155.635 297.955C157.635 295.154 161.305 288.908 160.647 284.482C160.469 283.293 160.003 282.342 159.199 281.552C151.627 283.085 110.785 290.094 83.3588 269.612C81.2763 271.004 77.2543 274.218 76.2081 278.833C75.4158 282.324 76.4779 286.105 79.3642 290.075L79.3627 290.074Z" fill="#371A45"/>
    <path d="M224.186 280.473C223.903 283.897 219.095 307.984 215.356 317.765C214.716 319.443 214.11 320.694 213.565 321.359C209.945 325.718 174.025 329.722 156.994 325.482C146.569 322.883 148.949 304.696 152.362 290.97C154.528 282.267 157.108 275.361 157.108 275.361C157.108 275.361 187.163 278.061 211.1 273.461C211.1 273.461 224.468 277.125 224.185 280.474" fill="white"/>
    <path d="M215.357 317.764C214.718 319.443 214.112 320.694 213.566 321.359C209.948 325.718 174.026 329.722 156.996 325.482C146.571 322.883 148.95 304.694 152.363 290.97C163.966 291.578 177.233 292.254 177.233 292.254C177.477 292.479 183.862 318.114 192.465 317.3C202.277 316.373 199.497 301.271 204.105 297.007C208.72 292.742 213.058 299.105 213.058 299.105C213.058 299.105 208.925 318.528 215.356 317.763" fill="#D8D8D8"/>
    <path d="M176.137 329.618C168.554 329.618 161.429 329.063 156.413 327.813C153.274 327.031 150.877 325.106 149.288 322.09C142.227 308.677 154.336 275.905 154.856 274.517C155.235 273.502 156.248 272.862 157.325 272.963C157.622 272.99 187.327 275.575 210.648 271.097C211.011 271.027 211.383 271.042 211.738 271.139C221.886 273.921 226.882 277.129 226.586 280.675C226.303 284.065 219.896 317.493 215.415 322.893C212.11 326.875 192.989 329.618 176.137 329.618ZM158.748 277.904C155.211 287.964 148.807 310.846 153.547 319.848C154.482 321.623 155.799 322.701 157.574 323.143C174.147 327.269 208.564 323.041 211.723 319.804C214.692 316.226 221.118 286.169 221.755 280.614C220.747 279.432 215.953 277.341 210.995 275.927C190.247 279.803 165.665 278.409 158.746 277.902L158.748 277.904Z" fill="#371A45"/>
    <path d="M175.023 287.068C175.023 287.068 213.419 286.708 224.189 279.562L175.023 287.068Z" fill="white"/>
    <path d="M175.023 289.473C173.704 289.473 172.631 288.411 172.618 287.089C172.605 285.76 173.672 284.674 175.002 284.661C185.484 284.561 214.516 283.092 222.86 277.555C223.967 276.819 225.461 277.122 226.195 278.23C226.93 279.337 226.628 280.831 225.52 281.565C214.283 289.02 176.642 289.458 175.046 289.472C175.039 289.472 175.03 289.472 175.023 289.472V289.473Z" fill="#371A45"/>
    <path d="M214.682 304.134C214.566 305.09 212.471 312.67 212.471 312.67C212.471 312.67 210.365 312.447 207.781 312.171C204.551 311.828 202.405 307.673 202.987 302.89C203.568 298.108 206.658 294.509 209.889 294.852C212.068 295.083 214.579 295.35 214.579 295.35C214.579 295.35 214.872 302.577 214.683 304.133" fill="#22A7F0"/>
    <path d="M214.68 304.136C214.566 305.09 212.472 312.673 212.472 312.673C212.472 312.673 212.419 312.667 212.317 312.656C212.91 310.465 213.589 307.859 213.654 307.325C213.846 305.771 213.553 298.545 213.553 298.545C213.553 298.545 211.041 298.278 208.863 298.046C206.608 297.803 204.414 299.493 203.098 302.161C203.886 297.747 206.824 294.529 209.888 294.858C212.065 295.089 214.579 295.356 214.579 295.356C214.579 295.356 214.872 302.583 214.68 304.137" fill="white"/>
    <path d="M214.68 304.136C214.566 305.09 212.472 312.673 212.472 312.673C212.472 312.673 210.367 312.448 207.782 312.175C204.548 311.829 202.404 307.677 202.985 302.89C203.122 301.756 203.402 300.687 203.791 299.723C204.402 302.667 205.932 300.827 208.227 301.065C210.811 301.339 213.132 305.569 213.132 305.569C213.132 305.569 214.058 302.205 214.716 299.678C214.753 301.527 214.768 303.424 214.68 304.139" fill="#2585EF"/>
    <path d="M211.2 314.331C211.083 314.331 210.966 314.326 210.849 314.313L207.59 313.966C205.929 313.79 204.44 312.929 203.284 311.474C201.568 309.318 200.787 306.028 201.196 302.674C201.907 296.829 205.805 292.609 210.08 293.06L213.354 293.407C215.082 293.592 216.38 295.079 216.442 296.94C216.575 300.941 216.585 303.434 216.474 304.354C216.444 304.6 216.365 305.253 214.656 311.535C214.2 313.204 212.78 314.333 211.2 314.333V314.331ZM209.482 296.637C207.586 296.637 205.254 299.196 204.778 303.11C204.489 305.489 204.998 307.833 206.107 309.228C206.655 309.918 207.283 310.305 207.97 310.379L211.113 310.713C211.132 310.686 211.155 310.644 211.171 310.586C212.695 304.986 212.869 304.048 212.889 303.912C212.921 303.641 213.009 302.361 212.833 297.061C212.833 297.03 212.827 297.004 212.823 296.982L209.696 296.65C209.625 296.643 209.553 296.639 209.481 296.639L209.482 296.637Z" fill="#371A45"/>
    <path d="M220.671 304.775C220.081 309.557 216.948 313.157 213.675 312.813C210.4 312.47 208.225 308.316 208.815 303.534C209.406 298.751 212.537 295.152 215.812 295.496C219.085 295.839 221.261 299.994 220.671 304.776" fill="#22A7F0"/>
    <path d="M220.671 304.775C220.599 305.354 220.492 305.915 220.346 306.452C220.291 302.43 218.271 299.196 215.395 298.891C212.514 298.593 209.746 301.335 208.72 305.254C208.713 304.693 208.742 304.114 208.814 303.531C209.404 298.748 212.539 295.151 215.812 295.497C219.085 295.838 221.258 299.995 220.669 304.775" fill="white"/>
    <path d="M220.671 304.775C220.081 309.556 216.95 313.155 213.677 312.815C210.4 312.47 208.227 308.318 208.815 303.531C208.963 302.352 209.263 301.242 209.681 300.251C210.184 303.479 212.029 305.903 214.496 306.165C216.959 306.419 219.345 304.444 220.623 301.404C220.793 302.456 220.817 303.596 220.671 304.775Z" fill="#2585EF"/>
    <path d="M214.119 314.642C213.908 314.642 213.698 314.63 213.485 314.608C211.794 314.431 210.28 313.558 209.107 312.083C207.391 309.924 206.612 306.647 207.025 303.313C207.745 297.473 211.686 293.252 215.999 293.7C217.692 293.878 219.206 294.752 220.378 296.226C222.094 298.385 222.873 301.664 222.462 304.996C221.776 310.55 218.177 314.642 214.119 314.642ZM215.382 297.278C213.237 297.278 211.042 300.212 210.606 303.756C210.311 306.149 210.807 308.422 211.933 309.837C212.321 310.325 212.97 310.926 213.862 311.019C216.072 311.246 218.425 308.231 218.88 304.556C219.176 302.163 218.679 299.89 217.554 298.473C217.165 297.985 216.516 297.383 215.624 297.289C215.545 297.281 215.464 297.276 215.383 297.276L215.382 297.278Z" fill="#371A45"/>
    <path d="M292.839 240.452L282.007 282.288L281.999 282.295L281.412 284.581C281.405 284.588 281.405 284.601 281.405 284.607L280.295 288.89L274.362 311.79C273.019 316.962 268.441 320.638 263.103 320.818L222.088 322.248C219.001 321.981 216.154 320.457 214.223 318.039L212.807 316.261C211.263 314.336 210.683 311.817 211.217 309.412L222.062 260.76L227.514 236.288C228.256 232.961 231.337 231.184 234.805 231.278C238.908 231.385 277.21 231.919 286.906 232.454C291.504 232.701 293.026 236.351 292.84 240.452" fill="#5AE0FF"/>
    <path d="M280.295 288.89L274.362 311.79C273.019 316.962 268.441 320.638 263.103 320.818L222.088 322.248C219.001 321.981 216.155 320.457 214.223 318.039L212.807 316.261C211.263 314.336 210.681 311.817 211.217 309.412L222.062 260.76C223.973 262.685 227.448 264.722 232.6 264.816C241.4 264.969 255.306 261.194 259.022 271.885C262.241 281.139 246.165 296.996 254.464 306.178C259.121 311.33 275.547 301.613 280.298 288.89" fill="#46A8F9"/>
    <path d="M281.999 282.294L281.411 284.58C281.611 283.19 281.804 282.461 281.999 282.294Z" fill="#46A8F9"/>
    <path d="M222.089 324.651C222.02 324.651 221.951 324.648 221.883 324.642C218.155 324.321 214.676 322.46 212.34 319.538L210.922 317.764C208.919 315.259 208.17 312.024 208.867 308.891L225.166 235.762C226.114 231.509 230.037 228.732 234.868 228.868C235.878 228.895 238.972 228.947 243.204 229.019C255.955 229.237 279.689 229.643 287.033 230.047C292.374 230.34 295.52 234.368 295.241 240.559C295.234 240.726 295.21 240.892 295.166 241.054L276.689 312.393C275.094 318.55 269.542 323.003 263.188 323.222L222.173 324.648C222.146 324.648 222.117 324.648 222.089 324.648V324.651ZM234.551 233.676C232.587 233.676 230.379 234.493 229.863 236.809L213.565 309.938C213.185 311.641 213.592 313.399 214.682 314.761L216.099 316.535C217.588 318.397 219.79 319.594 222.16 319.837L263.021 318.417C267.261 318.27 270.967 315.298 272.03 311.19L290.443 240.104C290.58 235.063 287.72 234.906 286.769 234.854C279.516 234.456 255.84 234.052 243.12 233.834C238.866 233.76 235.756 233.708 234.74 233.681C234.678 233.679 234.614 233.678 234.551 233.678V233.676Z" fill="#371A45"/>
    <path d="M219.043 323.224C218.958 323.136 218.878 323.036 218.808 322.934C218.744 322.844 218.658 322.686 218.648 322.655C218.597 322.541 218.552 322.421 218.516 322.305C218.48 322.17 218.443 321.989 218.435 321.905C218.405 321.683 218.402 321.531 218.399 321.38C218.394 321.081 218.408 320.837 218.422 320.592C218.456 320.11 218.506 319.661 218.561 319.216C218.674 318.33 218.809 317.472 218.953 316.616C219.241 314.906 219.562 313.219 219.894 311.536C220.561 308.172 221.275 304.827 222.006 301.487C223.469 294.81 225.003 288.157 226.56 281.51C229.682 268.218 232.901 254.955 236.187 241.706C236.307 241.223 236.796 240.927 237.28 241.048C237.757 241.166 238.05 241.647 237.942 242.123C234.951 255.432 232.027 268.759 229.201 282.099C227.793 288.771 226.409 295.447 225.095 302.13C224.442 305.471 223.804 308.814 223.218 312.157C222.926 313.826 222.646 315.497 222.404 317.158C222.284 317.987 222.172 318.817 222.087 319.625C222.046 320.027 222.01 320.427 221.994 320.797C221.987 320.977 221.983 321.159 221.988 321.286C221.99 321.348 221.997 321.41 221.998 321.398C221.998 321.42 221.993 321.342 221.978 321.312C221.961 321.245 221.935 321.175 221.903 321.111C221.9 321.107 221.834 320.967 221.783 320.9C221.727 320.818 221.662 320.742 221.593 320.677C222.297 321.382 222.297 322.524 221.593 323.228C220.887 323.932 219.746 323.932 219.041 323.228" fill="#371A45"/>
    <path d="M245.201 238.73C249.138 238.918 253.093 238.991 257.049 239.056L268.933 239.22C272.9 239.28 276.869 239.351 280.856 239.517C282.851 239.6 284.847 239.706 286.87 239.891C287.883 239.987 288.897 240.097 289.955 240.28C290.486 240.375 291.02 240.479 291.625 240.668C291.924 240.762 292.256 240.881 292.665 241.111C292.785 241.186 292.886 241.249 293.012 241.344C293.084 241.403 293.153 241.465 293.221 241.53C293.292 241.601 293.344 241.643 293.438 241.765C293.601 241.982 293.745 242.188 293.853 242.579C293.96 242.923 293.944 243.315 293.865 243.677C293.615 244.643 292.631 245.221 291.665 244.972C290.7 244.722 290.121 243.736 290.371 242.772C290.294 243.011 290.32 243.278 290.371 243.506C290.393 243.612 290.472 243.758 290.494 243.807C290.527 243.874 290.567 243.937 290.616 243.993L290.706 244.094C290.729 244.116 290.753 244.138 290.779 244.155C290.807 244.177 290.801 244.175 290.818 244.181C290.798 244.167 290.67 244.094 290.498 244.038C290.162 243.917 289.726 243.807 289.286 243.712C288.398 243.521 287.446 243.38 286.492 243.253C284.575 243.005 282.62 242.826 280.66 242.669C276.739 242.357 272.788 242.136 268.838 241.925L256.967 241.312C253.005 241.097 249.044 240.872 245.074 240.533C244.578 240.491 244.21 240.054 244.251 239.556C244.293 239.071 244.715 238.709 245.195 238.732" fill="#371A45"/>
    <path d="M159.603 262.473C159.603 262.473 127.202 299.402 153.098 318.489L159.603 262.473Z" fill="white"/>
    <path d="M153.096 320.895C152.6 320.895 152.101 320.742 151.671 320.426C145.272 315.71 141.622 309.573 140.823 302.19C138.733 282.863 157.016 261.776 157.795 260.887C158.671 259.888 160.192 259.788 161.189 260.664C162.188 261.54 162.288 263.06 161.413 264.06C161.236 264.262 143.739 284.464 145.608 301.684C146.257 307.668 149.258 312.672 154.525 316.552C155.594 317.34 155.822 318.847 155.035 319.918C154.563 320.558 153.834 320.896 153.095 320.896L153.096 320.895Z" fill="#371A45"/>
    <path d="M245.738 245.275L252.079 245.636C254.195 245.755 255.693 247.754 255.212 249.819L255.138 250.134C254.766 251.733 253.31 252.843 251.669 252.773L245.319 252.509C243.223 252.423 241.7 250.482 242.113 248.425L242.195 248.015C242.53 246.347 244.039 245.181 245.738 245.276" fill="#371A45"/>
    <path d="M253.434 249.141C253.391 250.168 252.522 250.965 251.495 250.922C250.467 250.878 249.67 250.008 249.714 248.982C249.758 247.955 250.626 247.158 251.653 247.201C252.681 247.246 253.477 248.113 253.434 249.141Z" fill="#48404C"/>
    <path d="M252.827 249.115C252.798 249.806 252.212 250.343 251.52 250.314C250.829 250.285 250.292 249.699 250.321 249.008C250.352 248.317 250.936 247.78 251.627 247.809C252.319 247.839 252.855 248.424 252.825 249.115" fill="#5B5B5B"/>
    <path d="M252.808 249.114C252.779 249.796 252.202 250.324 251.521 250.296C250.839 250.267 250.31 249.691 250.34 249.008C250.369 248.327 250.945 247.797 251.627 247.826C252.31 247.855 252.838 248.432 252.809 249.114" fill="#595959"/>
    <path d="M252.79 249.114C252.762 249.785 252.193 250.307 251.522 250.278C250.849 250.249 250.328 249.681 250.357 249.01C250.386 248.337 250.953 247.816 251.626 247.845C252.298 247.874 252.819 248.441 252.79 249.114Z" fill="#585858"/>
    <path d="M252.772 249.112C252.743 249.775 252.184 250.287 251.522 250.259C250.86 250.231 250.346 249.672 250.375 249.01C250.403 248.347 250.962 247.834 251.624 247.862C252.285 247.891 252.801 248.45 252.772 249.112Z" fill="#565656"/>
    <path d="M252.754 249.112C252.726 249.764 252.176 250.27 251.523 250.242C250.873 250.215 250.366 249.663 250.393 249.011C250.422 248.359 250.972 247.854 251.624 247.881C252.277 247.909 252.782 248.46 252.754 249.112Z" fill="#545454"/>
    <path d="M252.736 249.111C252.708 249.753 252.166 250.251 251.523 250.223C250.881 250.196 250.383 249.652 250.411 249.011C250.438 248.37 250.981 247.871 251.623 247.898C252.265 247.926 252.763 248.468 252.736 249.111Z" fill="#535353"/>
    <path d="M252.718 249.111C252.691 249.743 252.157 250.232 251.525 250.206C250.893 250.179 250.402 249.646 250.428 249.013C250.455 248.38 250.989 247.89 251.622 247.917C252.254 247.945 252.743 248.479 252.717 249.111" fill="#515151"/>
    <path d="M252.701 249.109C252.674 249.731 252.148 250.215 251.526 250.187C250.904 250.16 250.422 249.635 250.448 249.013C250.474 248.391 251.001 247.907 251.623 247.935C252.245 247.96 252.728 248.487 252.701 249.109Z" fill="#4F4F4F"/>
    <path d="M252.682 249.109C252.656 249.721 252.14 250.197 251.526 250.17C250.914 250.144 250.438 249.626 250.466 249.014C250.492 248.402 251.01 247.927 251.622 247.953C252.233 247.979 252.71 248.497 252.682 249.109Z" fill="#4E4E4E"/>
    <path d="M252.663 249.108C252.638 249.71 252.128 250.177 251.526 250.151C250.925 250.125 250.457 249.617 250.483 249.015C250.509 248.414 251.018 247.945 251.62 247.971C252.222 247.997 252.689 248.506 252.663 249.108Z" fill="#4C4C4C"/>
    <path d="M252.646 249.106C252.62 249.699 252.119 250.158 251.528 250.134C250.935 250.108 250.476 249.607 250.502 249.015C250.528 248.422 251.027 247.963 251.619 247.989C252.212 248.014 252.671 248.515 252.646 249.106Z" fill="#4A4A4A"/>
    <path d="M252.627 249.106C252.603 249.689 252.111 250.141 251.528 250.115C250.945 250.091 250.493 249.598 250.519 249.015C250.543 248.432 251.036 247.981 251.619 248.007C252.202 248.033 252.653 248.523 252.627 249.106Z" fill="#494949"/>
    <path d="M252.61 249.106C252.586 249.678 252.102 250.122 251.529 250.098C250.956 250.073 250.513 249.59 250.538 249.018C250.562 248.445 251.046 248.001 251.619 248.025C252.19 248.05 252.635 248.533 252.61 249.106Z" fill="#474747"/>
    <path d="M252.593 249.105C252.568 249.668 252.093 250.104 251.531 250.08C250.969 250.056 250.532 249.581 250.556 249.018C250.581 248.457 251.056 248.02 251.619 248.044C252.18 248.069 252.617 248.544 252.593 249.106" fill="#454545"/>
    <path d="M252.574 249.103C252.551 249.656 252.083 250.085 251.531 250.062C250.978 250.039 250.549 249.571 250.572 249.018C250.597 248.466 251.063 248.038 251.616 248.062C252.168 248.086 252.597 248.552 252.574 249.105" fill="#444444"/>
    <path d="M252.557 249.103C252.534 249.646 252.075 250.067 251.532 250.043C250.989 250.02 250.568 249.562 250.591 249.02C250.614 248.477 251.073 248.056 251.616 248.079C252.158 248.102 252.578 248.561 252.557 249.103Z" fill="#424242"/>
    <path d="M252.538 249.102C252.515 249.635 252.065 250.049 251.532 250.026C251 250.003 250.587 249.552 250.61 249.02C250.633 248.487 251.083 248.075 251.616 248.098C252.148 248.119 252.561 248.571 252.538 249.103" fill="#404040"/>
    <path d="M252.521 249.102C252.499 249.624 252.057 250.03 251.533 250.008C251.011 249.987 250.606 249.544 250.629 249.021C250.65 248.499 251.093 248.093 251.616 248.115C252.138 248.137 252.544 248.58 252.522 249.102" fill="#3F3F3F"/>
    <path d="M252.502 249.101C252.48 249.614 252.046 250.011 251.533 249.99C251.02 249.968 250.623 249.533 250.645 249.021C250.666 248.509 251.101 248.111 251.613 248.132C252.127 248.154 252.523 248.587 252.502 249.101Z" fill="#3D3D3D"/>
    <path d="M252.484 249.101C252.463 249.603 252.039 249.992 251.535 249.972C251.033 249.951 250.642 249.526 250.663 249.023C250.685 248.52 251.109 248.129 251.613 248.151C252.115 248.173 252.506 248.597 252.484 249.101Z" fill="#3C3C3C"/>
    <path d="M252.466 249.099C252.444 249.591 252.028 249.975 251.535 249.953C251.043 249.932 250.66 249.516 250.681 249.023C250.702 248.531 251.118 248.147 251.611 248.168C252.104 248.19 252.487 248.606 252.466 249.099Z" fill="#000072"/>
    <path d="M252.448 249.099C252.427 249.583 252.02 249.956 251.536 249.936C251.054 249.914 250.679 249.506 250.699 249.024C250.72 248.542 251.128 248.167 251.611 248.187C252.095 248.209 252.469 248.616 252.448 249.099Z" fill="#383838"/>
    <path d="M252.43 249.098C252.409 249.571 252.01 249.938 251.536 249.917C251.063 249.897 250.696 249.497 250.717 249.024C250.737 248.551 251.137 248.184 251.61 248.204C252.083 248.225 252.45 248.624 252.43 249.098Z" fill="#373737"/>
    <path d="M252.412 249.096C252.394 249.559 252.001 249.919 251.538 249.899C251.075 249.878 250.717 249.487 250.735 249.024C250.756 248.561 251.147 248.201 251.61 248.222C252.073 248.242 252.433 248.633 252.412 249.096Z" fill="#353535"/>
    <path d="M252.394 249.096C252.375 249.549 251.991 249.902 251.538 249.881C251.085 249.861 250.733 249.479 250.753 249.026C250.773 248.572 251.155 248.222 251.609 248.24C252.062 248.259 252.414 248.643 252.394 249.096Z" fill="#000072"/>
    <path d="M252.376 249.096C252.357 249.539 251.982 249.883 251.539 249.864C251.096 249.845 250.753 249.47 250.771 249.028C250.79 248.584 251.165 248.24 251.609 248.259C252.052 248.279 252.395 248.653 252.376 249.096Z" fill="#323232"/>
    <path d="M252.358 249.095C252.339 249.529 251.974 249.864 251.539 249.845C251.106 249.828 250.77 249.46 250.789 249.028C250.808 248.595 251.173 248.259 251.607 248.278C252.041 248.297 252.376 248.662 252.358 249.095Z" fill="#303030"/>
    <path d="M252.34 249.093C252.321 249.516 251.964 249.845 251.541 249.828C251.118 249.809 250.789 249.451 250.808 249.028C250.826 248.606 251.184 248.277 251.607 248.295C252.03 248.314 252.359 248.672 252.342 249.095" fill="#2E2E2E"/>
    <path d="M252.321 249.093C252.304 249.506 251.955 249.828 251.541 249.809C251.128 249.792 250.806 249.443 250.825 249.03C250.844 248.616 251.191 248.295 251.606 248.313C252.018 248.33 252.339 248.681 252.321 249.093Z" fill="#2D2D2D"/>
    <path d="M252.304 249.092C252.287 249.496 251.946 249.808 251.542 249.79C251.138 249.773 250.826 249.433 250.844 249.028C250.862 248.626 251.202 248.313 251.606 248.33C252.008 248.347 252.321 248.688 252.304 249.092Z" fill="#2B2B2B"/>
    <path d="M252.287 249.092C252.269 249.486 251.938 249.79 251.544 249.774C251.15 249.757 250.845 249.425 250.862 249.031C250.878 248.639 251.212 248.333 251.604 248.35C251.998 248.366 252.303 248.699 252.287 249.092Z" fill="#292929"/>
    <path d="M252.268 249.09C252.252 249.474 251.927 249.772 251.545 249.754C251.161 249.738 250.864 249.414 250.88 249.031C250.897 248.647 251.22 248.35 251.604 248.366C251.988 248.382 252.284 248.707 252.268 249.09Z" fill="#282828"/>
    <path d="M252.251 249.09C252.235 249.464 251.919 249.754 251.545 249.738C251.171 249.723 250.883 249.407 250.897 249.033C250.913 248.659 251.229 248.37 251.603 248.385C251.975 248.401 252.265 248.717 252.251 249.09Z" fill="#262626"/>
    <path d="M252.232 249.089C252.216 249.453 251.909 249.734 251.545 249.72C251.181 249.704 250.9 249.396 250.916 249.033C250.93 248.669 251.238 248.388 251.601 248.404C251.965 248.419 252.246 248.727 252.232 249.09" fill="#242424"/>
    <path d="M252.213 249.089C252.199 249.443 251.9 249.717 251.546 249.702C251.193 249.686 250.919 249.388 250.933 249.034C250.948 248.681 251.248 248.405 251.601 248.421C251.955 248.435 252.229 248.735 252.215 249.089" fill="#232323"/>
    <path d="M252.196 249.088C252.181 249.431 251.89 249.698 251.547 249.682C251.203 249.668 250.936 249.378 250.951 249.034C250.965 248.691 251.255 248.424 251.6 248.438C251.943 248.453 252.21 248.744 252.196 249.088Z" fill="#212121"/>
    <path d="M248.204 248.917C248.161 249.945 247.292 250.741 246.265 250.698C245.237 250.655 244.441 249.785 244.484 248.757C244.529 247.73 245.396 246.933 246.423 246.978C247.451 247.021 248.247 247.89 248.204 248.917Z" fill="#48404C"/>
    <path d="M247.597 248.891C247.566 249.583 246.982 250.119 246.291 250.091C245.599 250.062 245.063 249.476 245.093 248.785C245.122 248.093 245.708 247.556 246.399 247.585C247.09 247.616 247.627 248.2 247.598 248.891" fill="#5B5B5B"/>
    <path d="M247.579 248.89C247.55 249.572 246.973 250.101 246.292 250.072C245.611 250.043 245.081 249.467 245.11 248.785C245.139 248.103 245.715 247.574 246.397 247.603C247.079 247.631 247.608 248.209 247.579 248.89Z" fill="#595959"/>
    <path d="M247.561 248.89C247.532 249.561 246.965 250.083 246.292 250.054C245.62 250.026 245.099 249.457 245.127 248.785C245.156 248.113 245.725 247.591 246.396 247.62C247.068 247.649 247.589 248.217 247.561 248.888" fill="#585858"/>
    <path d="M247.543 248.888C247.514 249.551 246.954 250.065 246.293 250.036C245.631 250.007 245.117 249.448 245.146 248.786C245.174 248.124 245.734 247.61 246.396 247.639C247.058 247.668 247.572 248.226 247.543 248.888Z" fill="#565656"/>
    <path d="M247.524 248.888C247.496 249.541 246.946 250.046 246.294 250.018C245.641 249.991 245.136 249.44 245.164 248.787C245.192 248.135 245.742 247.63 246.395 247.657C247.045 247.685 247.552 248.236 247.524 248.888Z" fill="#545454"/>
    <path d="M247.507 248.887C247.48 249.529 246.937 250.027 246.295 250C245.653 249.972 245.155 249.428 245.182 248.787C245.21 248.147 245.752 247.647 246.395 247.675C247.037 247.702 247.535 248.246 247.507 248.887Z" fill="#535353"/>
    <path d="M247.488 248.886C247.461 249.518 246.927 250.008 246.295 249.981C245.663 249.953 245.172 249.419 245.2 248.787C245.227 248.155 245.761 247.665 246.393 247.692C247.025 247.719 247.516 248.253 247.488 248.886Z" fill="#515151"/>
    <path d="M247.471 248.886C247.445 249.508 246.918 249.991 246.296 249.964C245.674 249.938 245.191 249.411 245.218 248.789C245.246 248.167 245.771 247.683 246.393 247.711C247.015 247.737 247.497 248.264 247.471 248.886Z" fill="#4F4F4F"/>
    <path d="M247.452 248.886C247.426 249.497 246.91 249.972 246.296 249.946C245.685 249.92 245.208 249.402 245.236 248.79C245.262 248.178 245.78 247.704 246.392 247.73C247.004 247.756 247.48 248.274 247.452 248.886Z" fill="#4E4E4E"/>
    <path d="M247.435 248.884C247.409 249.486 246.9 249.953 246.298 249.927C245.696 249.901 245.228 249.393 245.254 248.792C245.279 248.188 245.79 247.721 246.392 247.747C246.993 247.773 247.461 248.282 247.435 248.884Z" fill="#4C4C4C"/>
    <path d="M247.416 248.883C247.39 249.474 246.891 249.935 246.298 249.909C245.705 249.883 245.246 249.383 245.27 248.79C245.296 248.197 245.797 247.738 246.389 247.764C246.98 247.789 247.441 248.29 247.415 248.881" fill="#4A4A4A"/>
    <path d="M247.399 248.883C247.374 249.466 246.882 249.917 246.299 249.891C245.716 249.867 245.265 249.373 245.29 248.792C245.315 248.209 245.807 247.757 246.39 247.783C246.972 247.809 247.425 248.3 247.399 248.883Z" fill="#494949"/>
    <path d="M247.38 248.883C247.356 249.454 246.871 249.899 246.299 249.874C245.728 249.85 245.283 249.366 245.308 248.795C245.332 248.222 245.816 247.777 246.389 247.802C246.962 247.826 247.405 248.31 247.38 248.883Z" fill="#474747"/>
    <path d="M247.363 248.881C247.338 249.444 246.864 249.88 246.301 249.857C245.739 249.832 245.302 249.357 245.327 248.795C245.351 248.232 245.826 247.796 246.389 247.821C246.95 247.845 247.387 248.32 247.363 248.883" fill="#454545"/>
    <path d="M247.346 248.88C247.321 249.432 246.855 249.861 246.302 249.838C245.749 249.815 245.321 249.347 245.344 248.795C245.367 248.242 245.835 247.815 246.387 247.838C246.94 247.861 247.369 248.328 247.346 248.881" fill="#444444"/>
    <path d="M247.327 248.88C247.304 249.422 246.845 249.844 246.302 249.819C245.76 249.796 245.338 249.339 245.361 248.795C245.384 248.252 245.843 247.832 246.386 247.855C246.929 247.878 247.348 248.337 247.327 248.88Z" fill="#424242"/>
    <path d="M247.308 248.878C247.285 249.411 246.835 249.824 246.302 249.802C245.77 249.779 245.357 249.329 245.38 248.796C245.403 248.264 245.853 247.851 246.386 247.873C246.918 247.896 247.331 248.346 247.308 248.878Z" fill="#404040"/>
    <path d="M247.291 248.878C247.268 249.401 246.826 249.806 246.304 249.785C245.781 249.763 245.376 249.32 245.399 248.797C245.42 248.275 245.862 247.87 246.386 247.891C246.908 247.913 247.314 248.356 247.292 248.878" fill="#3F3F3F"/>
    <path d="M247.272 248.877C247.25 249.389 246.816 249.788 246.304 249.766C245.79 249.744 245.393 249.31 245.415 248.798C245.436 248.285 245.871 247.887 246.383 247.91C246.897 247.932 247.294 248.365 247.272 248.878" fill="#3D3D3D"/>
    <path d="M247.255 248.875C247.233 249.378 246.809 249.769 246.305 249.747C245.803 249.725 245.412 249.301 245.433 248.797C245.455 248.295 245.879 247.904 246.383 247.926C246.885 247.947 247.276 248.373 247.255 248.875Z" fill="#3C3C3C"/>
    <path d="M247.237 248.875C247.216 249.368 246.8 249.751 246.307 249.73C245.814 249.708 245.432 249.292 245.452 248.799C245.474 248.307 245.889 247.923 246.383 247.945C246.875 247.966 247.259 248.382 247.237 248.875Z" fill="#000072"/>
    <path d="M247.219 248.875C247.198 249.359 246.79 249.733 246.306 249.712C245.824 249.691 245.449 249.284 245.469 248.8C245.491 248.317 245.898 247.943 246.382 247.963C246.865 247.985 247.239 248.392 247.219 248.875Z" fill="#383838"/>
    <path d="M247.2 248.874C247.18 249.347 246.78 249.714 246.306 249.694C245.833 249.674 245.467 249.274 245.487 248.8C245.507 248.327 245.907 247.961 246.38 247.981C246.853 248.001 247.22 248.401 247.2 248.874Z" fill="#373737"/>
    <path d="M247.182 248.873C247.162 249.336 246.771 249.695 246.308 249.675C245.845 249.655 245.485 249.264 245.506 248.8C245.524 248.337 245.917 247.978 246.38 247.998C246.843 248.018 247.201 248.409 247.182 248.873Z" fill="#353535"/>
    <path d="M247.165 248.873C247.146 249.326 246.763 249.676 246.309 249.658C245.856 249.637 245.504 249.255 245.524 248.802C245.545 248.349 245.927 247.998 246.38 248.017C246.833 248.036 247.185 248.419 247.165 248.873Z" fill="#000072"/>
    <path d="M247.146 248.873C247.128 249.316 246.752 249.659 246.309 249.64C245.866 249.622 245.523 249.246 245.542 248.805C245.56 248.36 245.936 248.017 246.379 248.036C246.822 248.056 247.165 248.429 247.146 248.873Z" fill="#323232"/>
    <path d="M247.129 248.871C247.11 249.306 246.744 249.64 246.311 249.622C245.876 249.604 245.54 249.236 245.56 248.803C245.579 248.37 245.944 248.033 246.379 248.053C246.812 248.072 247.148 248.437 247.129 248.87" fill="#303030"/>
    <path d="M247.11 248.87C247.092 249.293 246.734 249.622 246.311 249.604C245.888 249.585 245.559 249.228 245.576 248.805C245.595 248.382 245.953 248.053 246.376 248.072C246.799 248.089 247.128 248.447 247.109 248.871" fill="#2E2E2E"/>
    <path d="M247.093 248.87C247.076 249.282 246.726 249.604 246.312 249.585C245.9 249.568 245.578 249.219 245.596 248.806C245.614 248.392 245.963 248.072 246.377 248.089C246.79 248.106 247.112 248.457 247.093 248.87Z" fill="#2D2D2D"/>
    <path d="M247.074 248.868C247.057 249.272 246.716 249.584 246.312 249.567C245.91 249.549 245.596 249.209 245.614 248.805C245.631 248.402 245.972 248.089 246.376 248.106C246.778 248.124 247.092 248.464 247.074 248.868Z" fill="#2B2B2B"/>
    <path d="M247.057 248.868C247.041 249.262 246.708 249.567 246.315 249.551C245.921 249.533 245.617 249.202 245.633 248.808C245.65 248.414 245.982 248.109 246.376 248.126C246.77 248.142 247.074 248.476 247.057 248.868Z" fill="#292929"/>
    <path d="M247.04 248.867C247.024 249.251 246.699 249.548 246.315 249.531C245.931 249.515 245.634 249.19 245.65 248.806C245.667 248.424 245.99 248.126 246.374 248.142C246.758 248.158 247.054 248.483 247.04 248.867Z" fill="#282828"/>
    <path d="M247.021 248.867C247.005 249.241 246.689 249.531 246.315 249.515C245.943 249.499 245.653 249.183 245.667 248.809C245.683 248.435 245.999 248.147 246.373 248.161C246.747 248.177 247.035 248.493 247.021 248.867Z" fill="#262626"/>
    <path d="M247.002 248.865C246.988 249.229 246.68 249.51 246.315 249.496C245.951 249.48 245.67 249.173 245.686 248.809C245.702 248.445 246.009 248.164 246.373 248.178C246.737 248.194 247.018 248.502 247.002 248.865Z" fill="#242424"/>
    <path d="M246.985 248.865C246.97 249.219 246.67 249.493 246.317 249.479C245.963 249.463 245.689 249.164 245.703 248.811C245.718 248.457 246.018 248.183 246.37 248.199C246.724 248.213 246.998 248.513 246.983 248.867" fill="#232323"/>
    <path d="M246.966 248.864C246.952 249.207 246.66 249.474 246.317 249.46C245.973 249.445 245.706 249.155 245.721 248.812C245.735 248.468 246.025 248.202 246.37 248.216C246.713 248.23 246.98 248.52 246.966 248.864Z" fill="#212121"/>
    <path d="M265.05 277.927C264.558 281.858 261.189 285.014 257.527 284.978C253.866 284.941 251.297 281.724 251.789 277.794C252.282 273.863 255.651 270.707 259.312 270.745C262.973 270.781 265.542 273.997 265.05 277.928" fill="white"/>
    <path d="M245.729 296.735C241.332 303.645 235.339 307.58 215.071 311.47C193.221 315.666 157.605 330.253 125.43 306.358C106.753 292.48 101.141 265.724 101.141 265.724L110.429 253.156L134.812 220.159C141.1 231.272 144.876 250.643 157.886 261.295C166.747 268.545 193.188 267.555 200.974 263.66C208.758 259.764 211.537 242.544 223.505 254.299C221.762 259.872 221.762 263.086 224.801 264.536C233.721 268.799 240.791 264.704 248.275 267.503C248.789 267.691 249.304 267.918 249.819 268.177C256.421 271.52 250.5 289.24 245.729 296.737" fill="white"/>
    <path d="M245.729 296.735C241.332 303.645 235.339 307.58 215.071 311.47C193.221 315.666 157.605 330.253 125.43 306.358C106.753 292.48 101.141 265.724 101.141 265.724L106.928 257.894C114.217 283.981 130.719 297.992 150.349 303.01C204.043 316.737 205.664 281.613 205.664 281.613C205.664 281.613 208.424 299.588 230.722 296.883C247.474 294.858 250.448 277.445 248.276 267.502C248.79 267.69 249.305 267.916 249.82 268.176C256.423 271.518 250.502 289.238 245.731 296.735" fill="#D8D8D8"/>
    <path d="M135.86 219.566C137.326 221.735 138.528 224.033 139.661 226.332C140.776 228.64 141.824 230.959 142.844 233.267C144.904 237.873 146.92 242.429 149.327 246.691C151.725 250.941 154.535 254.909 158.028 258.07C158.45 258.479 158.917 258.836 159.358 259.22C159.78 259.568 160.163 259.832 160.621 260.113C161.524 260.656 162.54 261.117 163.608 261.513C165.75 262.311 168.088 262.842 170.46 263.224C175.224 263.968 180.164 264.132 185.053 263.939C187.499 263.832 189.939 263.617 192.329 263.259C193.523 263.079 194.705 262.865 195.849 262.597C196.991 262.331 198.11 262.011 199.085 261.617C199.328 261.519 199.556 261.415 199.771 261.311C199.966 261.211 200.155 261.109 200.349 260.983C200.733 260.736 201.121 260.433 201.506 260.089C202.275 259.394 203.027 258.537 203.776 257.615C205.287 255.761 206.7 253.62 208.639 251.535C209.618 250.503 210.762 249.448 212.305 248.659C213.073 248.269 213.95 247.973 214.864 247.832C215.779 247.696 216.717 247.73 217.582 247.891C219.33 248.219 220.743 249.001 221.957 249.831C223.179 250.671 224.211 251.614 225.183 252.58C225.846 253.208 226.059 254.13 225.814 254.948L225.794 255.014C225.442 256.176 225.133 257.334 224.942 258.429C224.749 259.51 224.709 260.568 224.883 261.193C224.971 261.504 225.069 261.688 225.214 261.84C225.368 262.002 225.553 262.149 225.956 262.327C226.979 262.8 228.031 263.177 229.112 263.452C231.275 264.012 233.554 264.135 235.995 264.056C238.433 263.995 241.062 263.737 243.905 263.955C245.321 264.061 246.783 264.318 248.206 264.75C248.916 264.971 249.617 265.232 250.294 265.538C250.646 265.708 250.914 265.809 251.406 266.095C251.839 266.359 252.261 266.662 252.623 267.014C253.363 267.71 253.909 268.537 254.29 269.346C254.671 270.16 254.915 270.973 255.072 271.753C255.384 273.319 255.414 274.794 255.348 276.215C255.192 279.056 254.635 281.709 253.929 284.297C253.208 286.88 252.308 289.381 251.256 291.829C250.194 294.27 249.002 296.683 247.431 299.004C245.889 301.309 243.879 303.496 241.569 305.172C239.264 306.86 236.767 308.098 234.272 309.106C231.77 310.112 229.244 310.897 226.719 311.585C224.193 312.271 221.665 312.861 219.135 313.393C217.874 313.657 216.597 313.91 215.35 314.154C214.133 314.39 212.913 314.652 211.686 314.927C206.785 316.031 201.841 317.324 196.83 318.457C186.819 320.721 176.475 322.473 165.959 322.307C160.712 322.231 155.44 321.671 150.281 320.511C145.122 319.365 140.088 317.603 135.334 315.287C132.956 314.131 130.65 312.833 128.428 311.412C126.199 309.983 124.077 308.478 121.985 306.759C117.862 303.326 114.354 299.271 111.374 294.923C108.41 290.556 105.986 285.876 104.084 281.021C103.121 278.598 102.295 276.126 101.593 273.624C100.904 271.108 100.31 268.609 99.9562 265.972C99.8681 265.313 100.331 264.705 100.991 264.617C101.572 264.539 102.112 264.888 102.293 265.424L102.311 265.477C105.509 274.921 109.702 284.143 115.32 292.195C118.137 296.214 121.372 299.919 125.108 302.985C126.961 304.492 129.008 305.929 131.076 307.234C133.152 308.544 135.301 309.735 137.511 310.791C141.928 312.908 146.586 314.507 151.379 315.539C156.169 316.584 161.084 317.079 166.022 317.119C175.917 317.215 185.814 315.499 195.631 313.209C200.555 312.081 205.473 310.814 210.511 309.679C211.771 309.396 213.041 309.126 214.324 308.878L218.03 308.136C220.486 307.622 222.919 307.055 225.31 306.409C230.064 305.101 234.764 303.505 238.402 300.86C240.218 299.536 241.713 297.926 243.01 296.005C244.302 294.109 245.39 291.94 246.358 289.714C247.322 287.486 248.145 285.182 248.805 282.861C249.46 280.545 249.958 278.184 250.093 275.933C250.16 274.814 250.126 273.72 249.945 272.785C249.767 271.843 249.418 271.133 249.047 270.789C248.845 270.597 248.742 270.537 248.152 270.261C247.672 270.039 247.18 269.851 246.674 269.69C245.661 269.376 244.604 269.173 243.481 269.079C241.238 268.879 238.77 269.079 236.119 269.135C233.479 269.203 230.615 269.055 227.843 268.311C226.459 267.949 225.108 267.447 223.828 266.829C223.074 266.483 222.177 265.904 221.49 265.105C220.782 264.308 220.324 263.302 220.105 262.383C219.682 260.516 219.909 258.976 220.153 257.562C220.421 256.15 220.798 254.849 221.2 253.579L221.811 256.012C220.968 255.218 220.099 254.473 219.215 253.908C218.337 253.332 217.445 252.931 216.692 252.809C215.933 252.688 215.325 252.791 214.605 253.162C213.891 253.534 213.123 254.201 212.384 255.017C210.889 256.657 209.513 258.765 207.87 260.866C207.045 261.923 206.14 262.991 205.03 263.994C204.475 264.494 203.867 264.978 203.187 265.415C202.85 265.633 202.485 265.839 202.117 266.026C201.764 266.199 201.415 266.355 201.072 266.495C199.701 267.049 198.376 267.418 197.055 267.731C195.738 268.043 194.428 268.281 193.12 268.482C190.505 268.879 187.899 269.111 185.29 269.231C180.073 269.467 174.844 269.249 169.613 268.381C166.998 267.932 164.379 267.326 161.783 266.333C160.487 265.832 159.196 265.226 157.942 264.444C157.328 264.057 156.677 263.587 156.133 263.118C155.625 262.666 155.094 262.239 154.613 261.763C150.647 258.048 147.605 253.59 145.135 248.989C142.681 244.366 140.779 239.569 139.063 234.789C137.32 230.022 135.796 225.236 133.766 220.747L133.76 220.736C133.486 220.128 133.754 219.414 134.362 219.138C134.906 218.893 135.536 219.084 135.86 219.563" fill="#371A45"/>
    <path d="M138.452 316.382C137.59 316.382 136.757 315.919 136.326 315.106C122.306 288.763 156.661 261.711 158.13 260.571C159.179 259.757 160.69 259.949 161.506 260.998C162.319 262.047 162.129 263.559 161.08 264.373C160.752 264.627 128.458 290.078 140.574 312.843C141.199 314.017 140.753 315.474 139.582 316.098C139.221 316.29 138.834 316.381 138.453 316.381L138.452 316.382Z" fill="#371A45"/>
    <path d="M167.588 391.3C167.588 391.3 154.03 401.731 143.119 396.372C130.536 390.191 129.54 383.99 115.214 379.973C78.9904 369.809 69.1281 340.909 76.6857 297.489L95.7292 311.275C96.5042 309.624 97.4538 308.026 98.5491 306.517C98.5491 306.517 98.5491 306.511 98.5563 306.511C106.635 295.351 122.678 288.769 135.448 296.693C155.301 309.036 161.65 349.998 161.65 349.998L165.092 373.899L167.591 391.299L167.588 391.3Z" fill="white"/>
    <path d="M167.588 391.3C167.588 391.3 154.03 401.731 143.119 396.372C130.536 390.191 129.54 383.99 115.214 379.973C78.9904 369.809 69.1281 340.909 76.6857 297.489L95.7292 311.275C96.5042 309.624 97.4538 308.026 98.5491 306.517C90.5181 319.213 90.4777 360.061 106.04 361.832C120.541 363.476 132.794 330.432 132.794 330.432C132.794 330.432 133.663 371.541 146.894 377.214C152.373 379.566 159.095 377.327 165.089 373.899L167.588 391.299V391.3Z" fill="#D8D8D8"/>
    <path d="M94.6368 310.765C97.2416 304.763 101.763 299.678 107.29 296.108C110.057 294.315 113.103 292.918 116.333 292.009C119.567 291.136 122.997 290.746 126.42 291.103C129.849 291.39 133.23 292.54 136.166 294.332C139.124 296.076 141.677 298.313 143.908 300.759C148.36 305.683 151.598 311.367 154.281 317.181C156.95 323.017 159.031 329.053 160.746 335.17C161.602 338.231 162.363 341.312 163.027 344.42C163.357 345.978 163.666 347.532 163.939 349.124L164.04 349.75L164.123 350.33L164.291 351.49L164.626 353.812L169.972 390.956L170.176 392.37L169.057 393.205C168.258 393.804 167.559 394.263 166.795 394.747C166.043 395.22 165.278 395.667 164.501 396.093C162.946 396.943 161.334 397.704 159.657 398.346C157.984 398.995 156.237 399.51 154.43 399.864C152.624 400.219 150.744 400.382 148.838 400.269C146.936 400.158 145.003 399.772 143.189 399.037C142.752 398.842 142.27 398.64 141.876 398.444L140.707 397.849C139.934 397.441 139.166 397.018 138.408 396.574C136.896 395.685 135.424 394.715 134.012 393.692C132.604 392.667 131.253 391.591 129.95 390.544C127.345 388.434 124.865 386.555 122.075 385.154C120.691 384.44 119.239 383.837 117.746 383.303C116.233 382.757 114.768 382.356 113.061 381.854C106.463 379.871 100.008 377.041 94.2616 372.99C88.5049 368.977 83.5795 363.663 80.0525 357.567C78.2862 354.521 76.8474 351.303 75.7102 348.001C74.5874 344.693 73.736 341.309 73.153 337.899C71.9667 331.073 71.7257 324.171 72.0187 317.35C72.3145 310.524 73.1573 303.763 74.3132 297.082C74.5398 295.773 75.7852 294.894 77.0956 295.12C78.4045 295.347 79.2834 296.592 79.0568 297.901V297.906C77.9268 304.426 77.11 310.992 76.8286 317.557C76.5443 324.116 76.7853 330.686 77.8951 337.072C78.9962 343.449 81.0108 349.642 84.2145 355.146C87.4053 360.65 91.7996 365.398 97.0353 369.053C102.255 372.738 108.228 375.376 114.449 377.243C115.956 377.686 117.725 378.174 119.365 378.767C121.026 379.36 122.675 380.046 124.268 380.867C127.481 382.477 130.369 384.684 132.962 386.786C135.567 388.899 138.084 390.816 140.849 392.422C141.535 392.826 142.237 393.211 142.944 393.585L144.015 394.13C144.37 394.308 144.664 394.42 144.989 394.572C146.283 395.096 147.679 395.379 149.118 395.464C152.001 395.641 155.037 394.959 157.934 393.853C159.386 393.296 160.81 392.625 162.195 391.87C162.887 391.491 163.569 391.093 164.234 390.673C164.885 390.264 165.584 389.795 166.126 389.39L165.211 391.64L159.868 354.519L159.198 349.927C158.942 348.437 158.644 346.924 158.325 345.423C157.684 342.417 156.945 339.426 156.117 336.466C154.457 330.546 152.444 324.725 149.91 319.185C147.37 313.666 144.311 308.365 140.354 303.999C138.375 301.832 136.169 299.903 133.725 298.487C132.517 297.766 131.226 297.217 129.911 296.754C128.601 296.275 127.241 295.913 125.849 295.703C123.065 295.249 120.163 295.402 117.326 295.996C114.493 296.623 111.723 297.698 109.153 299.166C107.86 299.886 106.629 300.723 105.449 301.627C104.264 302.527 103.15 303.522 102.102 304.584C99.9908 306.694 98.2013 309.132 96.8188 311.784L96.8116 311.799C96.5042 312.389 95.7768 312.617 95.188 312.309C94.6252 312.017 94.3929 311.337 94.6397 310.762" fill="#371A45"/>
    <path d="M130.719 341.905C130.719 341.905 131.881 336.633 133.672 324.86C137.733 298.174 174.421 288.873 182.812 318.615C185.889 329.522 158.067 386.394 158.067 386.394C158.067 386.394 146.698 371.983 136.942 365.839C127.187 359.697 130.718 341.905 130.718 341.905" fill="white"/>
    <path d="M130.016 341.751C130.103 338.384 130.396 335.043 130.716 331.715C130.908 330.057 131.064 328.392 131.295 326.738C131.406 325.901 131.488 325.1 131.623 324.234C131.763 323.349 131.937 322.471 132.149 321.6C132.994 318.114 134.435 314.76 136.407 311.745C138.372 308.725 140.883 306.068 143.758 303.892C146.644 301.731 149.903 300.04 153.397 299.023C156.88 297.994 160.606 297.626 164.278 298.108C167.946 298.577 171.547 299.943 174.593 302.101C177.647 304.253 180.12 307.129 181.916 310.291C182.822 311.871 183.574 313.52 184.197 315.202L184.639 316.47L185.031 317.749C185.093 317.926 185.168 318.26 185.233 318.548C185.307 318.853 185.32 319.104 185.363 319.385C185.418 319.922 185.44 320.434 185.431 320.922C185.398 322.878 185.102 324.631 184.754 326.36C184.401 328.081 183.974 329.755 183.509 331.409C181.592 337.997 179.188 344.309 176.683 350.575C174.159 356.83 171.511 363.018 168.691 369.124C165.881 375.239 163.027 381.31 159.976 387.326C159.445 388.372 158.168 388.789 157.12 388.26C156.097 387.742 155.674 386.506 156.153 385.475L156.16 385.46C161.778 373.364 167.209 361.12 172.201 348.779C174.66 342.599 177.01 336.359 178.827 330.072C179.283 328.503 179.699 326.933 180.034 325.376C180.366 323.827 180.623 322.257 180.656 320.86C180.666 320.511 180.653 320.185 180.627 319.887C180.604 319.756 180.602 319.586 180.569 319.483C180.539 319.364 180.539 319.284 180.465 319.065L180.126 317.939L179.745 316.832C179.21 315.37 178.572 313.959 177.817 312.628C176.318 309.962 174.313 307.64 171.89 305.914C169.474 304.183 166.639 303.069 163.664 302.662C157.691 301.824 151.365 303.763 146.412 307.44C143.933 309.289 141.751 311.553 140.039 314.139C138.322 316.72 137.055 319.6 136.296 322.621C136.105 323.375 135.948 324.139 135.819 324.909L135.37 327.371C135.08 329.028 134.711 330.672 134.349 332.317C133.953 333.958 133.548 335.594 133.067 337.219C132.587 338.846 132.08 340.456 131.421 342.055C131.268 342.428 130.841 342.605 130.468 342.451C130.181 342.332 130.009 342.052 130.016 341.759V341.746V341.751Z" fill="#371A45"/>
    <path d="M150.652 398.419C150.652 398.419 142.452 398.056 138.004 386.118C133.558 374.181 138.932 359.19 139.473 345.207C140.388 321.543 148.637 307.909 168.894 307.946C188.554 307.982 185.186 336.866 182.624 351.388C178.827 372.912 172.73 398.324 150.652 398.418" fill="#AFAFB2"/>
    <path d="M180.953 360.122C176.924 379.224 169.796 398.34 150.65 398.419C150.65 398.419 142.453 398.056 138.006 386.12C134.337 376.278 137.348 364.363 138.817 352.645C138.786 357.061 139.291 361.285 140.759 365.217C145.699 378.468 154.802 378.877 154.802 378.877C167.681 378.82 175.664 371 180.953 360.123" fill="#959596"/>
    <path d="M136.537 382.38C135.284 382.38 134.228 381.411 134.138 380.141C134.046 378.816 135.046 377.666 136.371 377.573L175.919 374.814C177.23 374.717 178.394 375.72 178.487 377.047C178.579 378.371 177.579 379.522 176.254 379.614L136.705 382.373C136.649 382.378 136.591 382.379 136.535 382.379L136.537 382.38Z" fill="#371A45"/>
    <path d="M137.275 365.754C136.023 365.754 134.965 364.784 134.877 363.515C134.785 362.188 135.785 361.04 137.111 360.947L180.742 357.912C182.07 357.823 183.217 358.82 183.31 360.146C183.402 361.473 182.402 362.621 181.076 362.714L137.444 365.749C137.388 365.753 137.33 365.754 137.275 365.754Z" fill="#371A45"/>
    <path d="M139.423 348.624C138.17 348.624 137.114 347.654 137.024 346.385C136.932 345.058 137.932 343.91 139.257 343.817L183.695 340.719C185.023 340.626 186.17 341.627 186.262 342.951C186.355 344.278 185.355 345.426 184.03 345.519L139.592 348.617C139.535 348.621 139.478 348.623 139.421 348.623L139.423 348.624Z" fill="#371A45"/>
    <path d="M142.061 330.2C140.808 330.2 139.752 329.23 139.662 327.96C139.57 326.634 140.57 325.485 141.895 325.393L184.005 322.46C185.337 322.368 186.48 323.368 186.573 324.693C186.665 326.019 185.665 327.168 184.34 327.26L142.23 330.193C142.172 330.197 142.116 330.199 142.059 330.199L142.061 330.2Z" fill="#371A45"/>
    <g opacity="0.7">
    <path d="M182.652 351.244C184.326 336.281 183.613 317.056 167.571 317.021C151.581 316.995 143.068 325.491 139.745 340.715C141.511 319.824 149.959 307.912 168.893 307.947C188.492 307.977 185.206 336.678 182.652 351.244Z" fill="white"/>
    </g>
    <path d="M150.604 400.825L150.545 400.822C150.145 400.805 140.697 400.235 135.75 386.957C132.569 378.416 134.051 368.555 135.484 359.019C136.177 354.408 136.894 349.642 137.069 345.113C138.098 318.485 148.483 305.538 168.813 305.538H168.899C174.17 305.548 178.392 307.401 181.442 311.045C187.413 318.174 188.574 331.507 184.994 351.806C181.978 368.899 176.365 400.715 150.662 400.825H150.603H150.604ZM168.813 310.353C151.119 310.353 142.813 321.133 141.879 345.301C141.693 350.096 140.957 354.997 140.244 359.736C138.84 369.079 137.512 377.904 140.26 385.278C143.902 395.054 150.059 395.944 150.738 396.012C170.669 395.854 176.425 372.684 180.255 350.971C184.331 327.864 181.145 318.186 177.754 314.136C175.626 311.598 172.729 310.36 168.89 310.353H168.812H168.813Z" fill="#371A45"/>
    <path d="M150.604 400.825L150.545 400.822C150.145 400.805 140.697 400.235 135.75 386.957C132.569 378.416 134.051 368.555 135.484 359.019C136.177 354.408 136.894 349.642 137.069 345.113C138.098 318.485 148.483 305.538 168.813 305.538H168.899C174.17 305.548 178.392 307.401 181.442 311.045C187.413 318.174 188.574 331.507 184.994 351.806C181.978 368.899 176.365 400.715 150.662 400.825H150.603H150.604ZM168.813 310.353C151.119 310.353 142.813 321.133 141.879 345.301C141.693 350.096 140.957 354.997 140.244 359.736C138.84 369.079 137.512 377.904 140.26 385.278C143.902 395.054 150.059 395.944 150.738 396.012C170.669 395.854 176.425 372.684 180.255 350.971C184.331 327.864 181.145 318.186 177.754 314.136C175.626 311.598 172.729 310.36 168.89 310.353H168.812H168.813Z" fill="#371A45"/>
    <g opacity="0.7">
    <path d="M237.56 235.713C239.447 234.613 284.256 236.203 286.457 237.146C288.658 238.09 235.672 236.812 237.56 235.713Z" fill="white"/>
    </g>
    <path d="M305.446 134.466V163.155C305.446 174.149 296.449 183.144 285.451 183.144H272.649L267.992 206.166H260.022C258.67 206.166 257.318 205.442 256.672 203.993L247.393 183.144H234.591C223.597 183.144 214.597 174.147 214.597 163.155V134.466C214.597 123.474 223.599 114.477 234.591 114.477H285.448C296.446 114.477 305.443 123.474 305.443 134.466" fill="#E03845"/>
    <path d="M267.992 207.97H260.022C257.83 207.97 255.915 206.728 255.024 204.726L246.223 184.948H234.594C222.574 184.948 212.794 175.171 212.794 163.154V134.464C212.794 122.447 222.573 112.672 234.594 112.672H285.451C297.471 112.672 307.25 122.447 307.25 134.464V163.154C307.25 175.171 297.471 184.948 285.451 184.948H274.126L269.762 206.523C269.591 207.364 268.851 207.969 267.992 207.969V207.97ZM234.593 116.281C224.563 116.281 216.402 124.439 216.402 134.464V163.154C216.402 173.181 224.563 181.339 234.593 181.339H247.395C248.107 181.339 248.754 181.759 249.044 182.409L258.323 203.258C258.778 204.281 259.739 204.361 260.023 204.361H266.517L270.881 182.786C271.052 181.945 271.792 181.34 272.651 181.34H285.453C295.482 181.34 303.642 173.182 303.642 163.155V134.466C303.642 124.439 295.482 116.282 285.453 116.282H234.595L234.593 116.281Z" fill="#371A45"/>
    <path d="M313.412 134.466V163.152C313.412 174.15 304.418 183.145 293.419 183.145H280.615L271.34 203.994C270.05 206.893 265.934 206.893 264.646 203.994L255.364 183.145H242.562C231.569 183.145 222.568 174.152 222.568 163.152V134.466C222.568 123.474 231.569 114.48 242.562 114.48H293.419C304.417 114.48 313.412 123.475 313.412 134.466Z" fill="#FF4D67"/>
    <path d="M313.412 135.729V163.152C313.412 174.15 304.418 183.145 293.419 183.145H280.615L271.34 203.994C270.05 206.893 265.934 206.893 264.646 203.994L255.364 183.145H242.562C231.569 183.145 222.568 174.152 222.568 163.152V162.471C225.074 167.436 231.269 174.071 246.524 175.822C276.715 179.284 311.762 173.463 313.412 135.729Z" fill="#E52C50"/>
    <path d="M267.992 207.97C265.8 207.97 263.885 206.726 262.995 204.726L254.193 184.948H242.564C230.545 184.948 220.766 175.171 220.766 163.154V134.464C220.766 122.447 230.545 112.672 242.564 112.672H293.422C305.441 112.672 315.22 122.447 315.22 134.464V163.154C315.22 175.171 305.441 184.948 293.422 184.948H281.793L272.991 204.726C272.1 206.728 270.184 207.97 267.992 207.97ZM242.563 116.281C232.533 116.281 224.372 124.439 224.372 134.464V163.154C224.372 173.181 232.532 181.339 242.563 181.339H255.365C256.078 181.339 256.724 181.759 257.014 182.409L266.292 203.258C266.747 204.281 267.708 204.361 267.992 204.361C268.277 204.361 269.238 204.281 269.694 203.258L278.972 182.409C279.262 181.759 279.908 181.339 280.621 181.339H293.423C303.453 181.339 311.614 173.181 311.614 163.154V134.464C311.614 124.438 303.454 116.281 293.423 116.281H242.566H242.563Z" fill="#371A45"/>
    <path d="M286.639 144.82C286.639 145.598 286.555 146.359 286.398 147.09C286.238 147.838 285.998 148.558 285.692 149.238C285.682 149.264 285.671 149.29 285.656 149.316C285.119 150.433 284.362 151.467 283.453 152.453C279.253 157.018 271.837 160.545 267.982 166.401C264.132 160.553 256.73 157.029 252.529 152.475C251.593 151.46 250.813 150.394 250.269 149.238C250.265 149.23 250.262 149.225 250.261 149.217C249.959 148.543 249.722 147.832 249.564 147.09C249.405 146.359 249.323 145.598 249.323 144.82C249.323 138.892 254.128 134.083 260.057 134.083C263.194 134.083 266.018 135.43 267.982 137.579C269.945 135.43 272.768 134.083 275.905 134.083C281.832 134.083 286.64 138.892 286.64 144.82" fill="white"/>
    <g opacity="0.7">
    <path d="M229.055 137.556C228.524 129.623 229.13 123.961 235.482 121.165C241.908 118.335 250.167 118.89 250.418 121.636C250.696 124.677 237.603 119.867 234.36 133.606C232.509 141.452 229.272 140.803 229.054 137.556" fill="white"/>
    </g>
    <g opacity="0.5">
    <path d="M159.691 111.206C159.526 119.934 153.231 126.908 145.633 126.784C138.034 126.66 132.009 119.485 132.174 110.757C132.34 102.029 138.635 95.054 146.233 95.1767C153.831 95.3008 159.857 102.476 159.691 111.204" fill="white"/>
    </g>
    <g opacity="0.5">
    <path d="M148.672 143.099C148.295 146.685 145.459 149.339 142.336 149.027C139.215 148.715 136.99 145.555 137.368 141.969C137.744 138.382 140.58 135.729 143.702 136.04C146.823 136.352 149.048 139.512 148.672 143.099Z" fill="white"/>
    </g>
    </g>
    <defs>
    <clipPath id="clip0_0_1964">
    <rect width="329.386" height="400" fill="white" transform="translate(0.306824 0.825134)"/>
    </clipPath>
    </defs>
    </svg>
    