<svg width="304" height="401" viewBox="0 0 304 401" fill="none" xmlns="http://www.w3.org/2000/svg">
    <g clip-path="url(#clip0_0_2959)">
    <path d="M171.555 381.38L168.149 390.89C167.153 393.673 164.878 395.807 162.031 396.608C159.569 397.301 156.189 397.924 152 397.924C147.811 397.924 144.431 397.301 141.968 396.608C139.122 395.807 136.847 393.673 135.849 390.89L132.443 381.38L151.999 382.048L171.554 381.38H171.555Z" fill="white"/>
    <path d="M132.444 380.907L127.352 389.63C125.862 392.184 123.233 393.865 120.289 394.13C117.742 394.358 114.306 394.352 110.187 393.582C106.068 392.814 102.86 391.583 100.567 390.449C97.9153 389.14 96.0698 386.625 95.6003 383.705L93.9972 373.732L113.098 377.975L132.445 380.905L132.444 380.907Z" fill="white"/>
    <path d="M176.647 389.63C178.137 392.184 180.766 393.864 183.71 394.13C186.258 394.359 189.694 394.352 193.812 393.584" fill="#BFBFBF"/>
    <path d="M152 400.045C148.251 400.045 144.682 399.576 141.393 398.649C137.899 397.666 135.08 395.033 133.853 391.605L129.394 379.153L152.001 379.925L174.607 379.153L170.147 391.605C168.919 395.034 166.101 397.668 162.606 398.649C159.318 399.576 155.75 400.045 152 400.045ZM135.495 383.607L137.848 390.174C138.614 392.312 140.369 393.954 142.543 394.566C145.459 395.387 148.641 395.802 152.001 395.802C155.362 395.802 158.542 395.387 161.457 394.566C163.632 393.954 165.387 392.312 166.153 390.174L168.506 383.607L152.001 384.171L135.497 383.607H135.495Z" fill="#371A45"/>
    <path d="M117.291 396.383C114.857 396.383 112.347 396.145 109.796 395.669C106.112 394.981 102.691 393.865 99.6263 392.352C96.3711 390.745 94.0838 387.639 93.505 384.043L91.406 370.985L113.487 375.89L135.852 379.277L129.184 390.7C127.349 393.845 124.095 395.917 120.48 396.244C119.434 396.338 118.369 396.384 117.291 396.384V396.383ZM96.587 376.483L97.6943 383.37C98.0546 385.612 99.4795 387.548 101.504 388.548C104.221 389.889 107.272 390.882 110.575 391.498C113.873 392.115 117.078 392.289 120.099 392.018C122.348 391.815 124.375 390.524 125.52 388.563L129.036 382.537L112.638 380.049L96.587 376.485V376.483Z" fill="#371A45"/>
    <path d="M171.555 380.907L176.647 389.63C178.137 392.184 180.766 393.865 183.71 394.13C186.258 394.358 189.693 394.352 193.812 393.582C197.931 392.814 201.138 391.583 203.432 390.449C206.083 389.14 207.929 386.625 208.398 383.705L210.002 373.732L190.899 377.975L171.554 380.905L171.555 380.907Z" fill="white"/>
    <path d="M186.708 396.383C185.629 396.383 184.566 396.337 183.52 396.243C179.905 395.916 176.651 393.845 174.814 390.699L168.147 379.276L190.51 375.889L212.591 370.984L210.492 384.041C209.915 387.637 207.625 390.743 204.371 392.351C201.309 393.864 197.887 394.98 194.201 395.668C191.65 396.143 189.141 396.382 186.706 396.382L186.708 396.383ZM174.964 382.536L178.48 388.562C179.625 390.523 181.651 391.815 183.901 392.017C186.921 392.288 190.125 392.114 193.424 391.497C196.727 390.881 199.779 389.888 202.493 388.547C204.519 387.546 205.944 385.611 206.304 383.369L207.412 376.481L191.218 380.073L174.962 382.535L174.964 382.536Z" fill="#371A45"/>
    <path d="M235.492 329.429C235.492 347.692 221.237 374.461 202.873 380.184C191.978 383.579 172.139 386.916 151.999 386.916C131.858 386.916 112.02 383.579 101.125 380.184C82.7627 374.461 68.5065 347.692 68.5065 329.429C68.5065 312.197 98.1826 321.615 151.999 321.615C205.815 321.615 235.491 312.197 235.491 329.429" fill="#BFBFBF"/>
    <path d="M235.492 329.429C235.492 347.692 221.237 374.461 202.873 380.184C191.978 383.579 172.139 386.916 151.999 386.916C131.858 386.916 112.02 383.579 101.125 380.184C82.7627 374.461 68.5065 347.692 68.5065 329.429C68.5065 312.197 98.1826 321.615 151.999 321.615C205.815 321.615 235.491 312.197 235.491 329.429" fill="#BFBFBF"/>
    <g opacity="0.2">
    <path d="M222.178 365.245C216.821 372.314 210.171 377.914 202.875 380.184C191.982 383.578 172.136 386.914 152 386.914C131.864 386.914 112.018 383.578 101.125 380.184C93.8277 377.914 87.1779 372.314 81.8224 365.245C85.8522 368.692 102.222 380.322 152 380.322C201.777 380.322 218.148 368.691 222.178 365.245Z" fill="#371A45"/>
    </g>
    <path d="M151.999 389.038C131.55 389.038 111.397 385.608 100.494 382.209C81.2851 376.223 66.3849 348.922 66.3849 329.429C66.3849 325.992 67.4544 323.244 69.5622 321.263C75.4136 315.763 88.3278 316.562 109.727 317.889C121.265 318.603 135.625 319.493 151.999 319.493C168.373 319.493 182.732 318.603 194.27 317.889C215.67 316.563 228.585 315.763 234.435 321.263C236.543 323.244 237.613 325.992 237.613 329.429C237.613 348.922 222.712 376.223 203.504 382.209C192.601 385.608 172.446 389.038 151.999 389.038ZM88.2738 321.175C80.5381 321.175 75.0332 321.944 72.4672 324.355C71.2118 325.535 70.6281 327.148 70.6281 329.429C70.6281 347.108 84.5139 372.784 101.757 378.157C112.352 381.46 131.997 384.795 151.999 384.795C172.001 384.795 191.645 381.462 202.241 378.157C219.483 372.784 233.369 347.107 233.369 329.429C233.369 327.147 232.786 325.534 231.53 324.355C227.016 320.112 213.391 320.956 194.533 322.124C182.935 322.842 168.503 323.738 151.999 323.738C135.494 323.738 121.061 322.844 109.465 322.124C101.322 321.62 94.1541 321.177 88.2751 321.177L88.2738 321.175Z" fill="#371A45"/>
    <path d="M300.978 291.474C300.978 316.803 246.949 355.734 222.559 361.875C203.043 366.786 179.931 371.209 151.999 371.209C124.066 371.209 100.955 366.785 81.4383 361.875C57.0536 355.734 3.01904 316.803 3.01904 291.474C3.01904 267.573 77.3545 280.64 151.999 280.64C226.643 280.64 300.978 267.573 300.978 291.474Z" fill="#BFBFBF"/>
    <g opacity="0.2">
    <path d="M264.975 330.444C249.279 343.306 230.842 353.871 219.32 356.771C200.7 361.456 178.649 365.676 152 365.676C125.351 365.676 103.3 361.457 84.6784 356.771C73.1627 353.872 54.7148 343.301 39.0186 330.439C47.9645 335.291 68.5065 352.277 151.999 352.277C235.491 352.277 256.029 335.292 264.974 330.444" fill="#371A45"/>
    </g>
    <path d="M151.999 373.33C122.103 373.33 98.3094 368.308 80.921 363.931C68.2265 360.734 48.4604 349.311 31.7348 335.506C20.2191 326 0.898682 307.638 0.898682 291.474C0.898682 288.109 2.13901 285.225 4.58325 282.898C15.2001 272.793 48.5043 274.438 90.6691 276.525C109.572 277.459 130.995 278.518 151.999 278.518C173.003 278.518 194.427 277.459 213.33 276.525C255.494 274.441 288.799 272.793 299.415 282.898C301.86 285.225 303.1 288.109 303.1 291.474C303.1 307.638 283.781 326 272.265 335.506C255.541 349.311 235.773 360.735 223.076 363.931C205.688 368.308 181.895 373.33 151.999 373.33ZM45.814 279.201C27.0773 279.201 12.9868 280.758 7.50831 285.972C5.91522 287.488 5.1419 289.287 5.1419 291.474C5.1419 302.01 15.819 316.867 34.4364 332.234C50.4665 345.466 70.0067 356.808 81.958 359.817C99.1091 364.133 122.57 369.087 152 369.087C181.43 369.087 204.891 364.133 222.042 359.817C233.995 356.808 253.536 345.466 269.565 332.234C288.181 316.867 298.858 302.01 298.858 291.474C298.858 289.287 298.083 287.487 296.492 285.972C287.192 277.12 253.061 278.808 213.539 280.762C194.589 281.699 173.109 282.762 152 282.762C130.891 282.762 109.412 281.699 90.4607 280.762C74.2198 279.96 58.8864 279.201 45.8153 279.201H45.814Z" fill="#371A45"/>
    <path d="M107.313 369.514C107.004 369.514 106.693 369.448 106.397 369.304C86.3468 359.681 72.5287 342.487 64.4679 329.758C55.7617 316.013 51.8148 304.678 51.6516 304.202C51.27 303.095 51.8587 301.889 52.966 301.507C54.0707 301.124 55.2797 301.714 55.6626 302.82C55.817 303.268 71.5633 347.877 108.233 365.479C109.289 365.986 109.735 367.253 109.228 368.309C108.862 369.07 108.104 369.513 107.314 369.513L107.313 369.514Z" fill="#371A45"/>
    <path d="M137.702 372.94C137.114 372.94 136.527 372.697 136.108 372.218C116.273 349.633 109.13 305.704 108.836 303.845C108.653 302.688 109.442 301.601 110.598 301.418C111.758 301.235 112.843 302.024 113.026 303.181C113.097 303.625 120.276 347.762 139.295 369.419C140.069 370.3 139.982 371.64 139.102 372.413C138.699 372.767 138.199 372.94 137.702 372.94Z" fill="#371A45"/>
    <path d="M196.677 369.514C195.887 369.514 195.128 369.071 194.764 368.31C194.256 367.254 194.702 365.986 195.758 365.48C232.428 347.879 248.174 303.271 248.329 302.821C248.711 301.714 249.92 301.125 251.025 301.508C252.132 301.89 252.721 303.096 252.34 304.204C252.176 304.679 248.228 316.014 239.523 329.76C231.462 342.488 217.644 359.682 197.593 369.306C197.298 369.447 196.986 369.515 196.677 369.515V369.514Z" fill="#371A45"/>
    <path d="M166.289 372.94C165.792 372.94 165.293 372.766 164.889 372.413C164.009 371.64 163.922 370.299 164.696 369.419C183.715 347.763 190.894 303.625 190.965 303.181C191.148 302.024 192.234 301.235 193.393 301.418C194.549 301.601 195.339 302.688 195.155 303.845C194.862 305.704 187.72 349.633 167.883 372.218C167.464 372.695 166.878 372.94 166.289 372.94Z" fill="#371A45"/>
    <path d="M300.978 291.473C300.978 317.818 234.278 339.176 152 339.176C69.7217 339.176 3.02155 317.818 3.02155 291.473C3.02155 265.127 69.7217 233.162 152 233.162C234.278 233.162 300.978 265.126 300.978 291.473Z" fill="#2CA0FF"/>
    <g opacity="0.4">
    <path d="M239.52 291.97C231.936 303.966 195.661 316.646 152 316.646C108.339 316.646 72.0643 303.965 64.4792 291.97C57.395 280.759 80.4942 295.963 152 295.963C223.506 295.963 246.605 280.759 239.52 291.97Z" fill="white"/>
    </g>
    <g opacity="0.5">
    <path d="M300.98 291.471C300.98 292.59 300.858 293.699 300.618 294.802C295.284 269.187 230.786 239.882 152 239.882C73.2142 239.882 8.716 269.187 3.38185 294.802C3.14332 293.7 3.02029 292.59 3.02029 291.471C3.02029 265.125 69.7204 233.162 152 233.162C234.28 233.162 300.98 265.125 300.98 291.471Z" fill="white"/>
    </g>
    <path d="M152 341.298C111.993 341.298 74.3516 336.3 46.0099 327.225C16.9212 317.91 0.899933 305.213 0.899933 291.473C0.899933 277.732 17.6983 262.259 45.8366 250.482C75.7865 237.947 113.49 231.042 151.999 231.042C190.508 231.042 228.211 237.947 258.162 250.482C286.3 262.259 303.099 277.583 303.099 291.473C303.099 305.362 287.079 317.91 257.989 327.225C229.647 336.3 192.005 341.298 151.997 341.298H152ZM152 235.285C114.039 235.285 76.9188 242.072 47.4762 254.396C21.3653 265.325 5.14441 279.533 5.14441 291.474C5.14441 303.415 20.5116 314.606 47.3042 323.185C75.2391 332.13 112.421 337.056 152 337.056C191.579 337.056 228.762 332.13 256.697 323.185C283.491 314.606 298.858 303.047 298.858 291.474C298.858 279.901 282.637 265.325 256.526 254.396C227.082 242.073 189.962 235.285 152.001 235.285H152Z" fill="#371A45"/>
    <path d="M152 341.298C111.993 341.298 74.3516 336.3 46.0099 327.225C16.9212 317.91 0.899933 305.213 0.899933 291.473C0.899933 277.732 17.6983 262.259 45.8366 250.482C75.7865 237.947 113.49 231.042 151.999 231.042C190.508 231.042 228.211 237.947 258.162 250.482C286.3 262.259 303.099 277.583 303.099 291.473C303.099 305.362 287.079 317.91 257.989 327.225C229.647 336.3 192.005 341.298 151.997 341.298H152ZM152 235.285C114.039 235.285 76.9188 242.072 47.4762 254.396C21.3653 265.325 5.14441 279.533 5.14441 291.474C5.14441 303.415 20.5116 314.606 47.3042 323.185C75.2391 332.13 112.421 337.056 152 337.056C191.579 337.056 228.762 332.13 256.697 323.185C283.491 314.606 298.858 303.047 298.858 291.474C298.858 279.901 282.637 265.325 256.526 254.396C227.082 242.073 189.962 235.285 152.001 235.285H152Z" fill="#371A45"/>
    <path d="M300.98 291.471C300.98 317.818 234.28 339.174 152 339.174C69.7204 339.174 3.02029 317.818 3.02029 291.471C3.02029 285.871 6.03323 280.016 11.5695 274.268C10.2601 276.952 9.57594 279.613 9.57594 282.223C9.57594 307.414 73.3422 327.831 152 327.831C230.658 327.831 294.425 307.414 294.425 282.223C294.425 279.614 293.741 276.952 292.43 274.268C297.967 280.016 300.98 285.871 300.98 291.471Z" fill="#E5E5E5"/>
    <path d="M300.98 291.471C300.98 317.818 234.28 339.174 152 339.174C69.7204 339.174 3.02029 317.818 3.02029 291.471C3.02029 288.347 3.95933 285.144 5.75202 281.93C5.39047 283.32 5.21095 284.694 5.21095 286.057C5.21095 312.016 70.9294 333.06 152 333.06C233.071 333.06 298.789 312.016 298.789 286.057C298.789 284.694 298.608 283.32 298.249 281.93C300.041 285.144 300.981 288.347 300.981 291.471" fill="white"/>
    <path d="M151.999 341.295C111.991 341.295 74.3491 336.298 46.0074 327.224C16.9187 317.909 0.898682 305.213 0.898682 291.471C0.898682 285.378 3.97439 279.095 10.0404 272.796C10.7648 272.044 11.9285 271.931 12.7847 272.53C13.6409 273.129 13.9334 274.26 13.4752 275.198C12.2951 277.617 11.6975 279.981 11.6975 282.223C11.6975 293.245 26.3643 304.264 51.9378 312.454C78.635 321.003 114.17 325.711 152 325.711C189.83 325.711 225.365 321.003 252.062 312.454C277.636 304.265 292.304 293.247 292.304 282.223C292.304 279.981 291.705 277.617 290.525 275.199C290.067 274.26 290.36 273.129 291.215 272.53C292.071 271.933 293.235 272.044 293.96 272.796C300.027 279.095 303.103 285.378 303.103 291.471C303.103 305.212 287.082 317.909 257.993 327.224C229.651 336.299 192.008 341.295 152 341.295H151.999ZM7.47944 283.155C5.92526 286.009 5.1419 288.79 5.1419 291.471C5.1419 303.045 20.5079 314.603 47.3017 323.183C75.2354 332.127 112.419 337.052 151.999 337.052C191.579 337.052 228.762 332.127 256.697 323.183C283.491 314.603 298.857 303.045 298.857 291.471C298.857 288.789 298.073 286.008 296.519 283.155C295.814 295.976 280.548 307.787 253.355 316.494C226.251 325.174 190.255 329.953 151.999 329.953C113.742 329.953 77.7474 325.172 50.6435 316.494C23.4493 307.787 8.18497 295.977 7.47944 283.155Z" fill="#371A45"/>
    <path d="M197.12 273.965H107.702C94.5483 273.965 83.5762 267.155 82.3358 258.253C79.3832 237.07 79.3832 215.876 82.3358 194.693C83.5762 185.791 94.547 178.981 107.701 178.981H197.119C210.273 178.981 221.244 185.791 222.484 194.693C225.435 215.876 225.435 237.072 222.484 258.253C221.244 267.155 210.273 273.965 197.119 273.965" fill="white"/>
    <path d="M197.12 276.087H107.702C93.436 276.087 81.6278 268.546 80.2356 258.545C77.2691 237.264 77.2691 215.682 80.2356 194.401C81.6278 184.4 93.436 176.861 107.701 176.861H197.119C211.384 176.861 223.192 184.402 224.584 194.402C227.551 215.685 227.551 237.266 224.584 258.548C223.191 268.547 211.382 276.089 197.119 276.089L197.12 276.087ZM107.702 181.101C95.7409 181.101 85.5233 187.2 84.4386 194.986C81.5261 215.879 81.5261 237.067 84.4386 257.96C85.5233 265.746 95.7422 271.845 107.704 271.845H197.121C209.081 271.845 219.3 265.746 220.386 257.96C223.297 237.068 223.297 215.879 220.386 194.986C219.3 187.2 209.083 181.101 197.121 181.101H107.702Z" fill="#371A45"/>
    <path d="M175.716 178.171C219.211 187.672 232.253 207.231 238.941 217.362C247.344 230.094 246.928 248.213 238.524 254.473C224.726 264.748 187.969 250.355 187.969 250.355" fill="white"/>
    <g opacity="0.2">
    <path d="M205.865 188.207C199.284 196.182 190.618 202.653 180.6 206.939L175.716 178.174C188.02 180.858 197.889 184.352 205.865 188.208" fill="#371A45"/>
    </g>
    <path d="M128.326 178.173L123.441 206.954C113.413 202.674 104.737 196.204 98.15 188.222C106.125 184.355 116.007 180.862 128.326 178.173Z" fill="#D8D8D8"/>
    <path d="M195.837 197.954C184.059 207.171 168.748 212.733 152 212.733C135.252 212.733 120.365 207.325 108.656 198.335C114.745 189.579 127.689 177.105 152.021 177.105C176.353 177.105 189.34 189.224 195.837 197.952" fill="#D8D8D8"/>
    <path d="M223.887 260.269C207.722 260.269 188.316 252.769 187.196 252.331C186.105 251.904 185.568 250.674 185.995 249.583C186.422 248.491 187.653 247.955 188.743 248.38C189.008 248.484 208.7 256.094 223.995 256.096C229.263 256.096 234.006 255.193 237.259 252.771C244.875 247.098 244.832 230.138 237.172 218.532C230.496 208.42 218.07 189.595 175.264 180.245C174.119 179.995 173.394 178.864 173.644 177.72C173.895 176.577 175.023 175.851 176.17 176.101C220.661 185.82 234.204 206.336 240.713 216.196C249.652 229.738 249.205 249.166 239.794 256.176C235.767 259.176 230.064 260.27 223.89 260.271L223.887 260.269Z" fill="#371A45"/>
    <path d="M128.327 178.171C84.8316 187.672 71.7893 207.231 65.1019 217.362C56.6983 230.094 57.1151 248.213 65.5186 254.473C79.3166 264.748 116.073 250.355 116.073 250.355L128.327 178.171Z" fill="white"/>
    <g opacity="0.2">
    <path d="M125.669 237.644L83.8361 235.54C83.8361 235.54 86.7009 202.189 120.108 206.316" fill="#371A45"/>
    </g>
    <g opacity="0.2">
    <path d="M178.377 237.644L220.21 235.54C220.21 235.54 217.344 202.189 183.938 206.316" fill="#371A45"/>
    </g>
    <g opacity="0.2">
    <path d="M128.326 178.173L123.441 206.954C113.413 202.674 104.737 196.204 98.15 188.222C106.125 184.355 116.007 180.862 128.326 178.173Z" fill="#371A45"/>
    </g>
    <path d="M80.1552 260.269C73.98 260.269 68.2805 259.174 64.2507 256.175C54.8403 249.166 54.3934 229.735 63.3318 216.194C69.841 206.335 83.3841 185.818 127.875 176.1C129.023 175.852 130.15 176.576 130.401 177.719C130.651 178.864 129.926 179.994 128.782 180.244C85.9752 189.594 73.5494 208.419 66.8732 218.532C59.2116 230.138 59.1689 247.098 66.7866 252.771C77.3294 260.623 105.382 252.263 115.301 248.38C116.393 247.951 117.622 248.491 118.049 249.581C118.476 250.672 117.939 251.904 116.848 252.33C115.729 252.768 96.3209 260.266 80.1565 260.267L80.1552 260.269Z" fill="#371A45"/>
    <path d="M200.997 206.728C205.058 216.237 208.75 226.408 211.682 236.823C214.743 247.706 216.97 258.853 217.904 269.778C203.129 276.301 179.126 280.548 152.021 280.548C124.916 280.548 101.97 276.486 87.1252 270.201C88.0529 259.012 90.339 247.583 93.495 236.436C96.4063 226.159 100.061 216.119 104.069 206.728C104.069 206.728 114.53 177.108 152.021 177.108C189.512 177.108 200.998 206.728 200.998 206.728" fill="white"/>
    <g opacity="0.2">
    <path d="M195.837 197.954C184.059 207.171 168.748 212.733 152 212.733C135.252 212.733 120.365 207.325 108.656 198.335C114.745 189.579 127.689 177.105 152.021 177.105C176.353 177.105 189.34 189.224 195.837 197.952" fill="#371A45"/>
    </g>
    <path d="M201.971 206.311C204.641 211.134 206.873 216.177 208.85 221.316C210.818 226.462 212.477 231.722 213.975 237.031C216.954 247.651 219.177 258.525 220.17 269.584V269.589C220.259 270.582 219.688 271.483 218.821 271.86C208.29 276.423 197.209 278.87 186.105 280.537C174.984 282.161 163.769 282.9 152.56 282.949C141.352 282.934 130.136 282.263 119.007 280.693C107.894 279.09 96.8118 276.693 86.2364 272.293C85.3086 271.906 84.7763 270.971 84.8579 270.019V270.013C85.8321 258.88 88.0516 247.931 91.037 237.24C92.5372 231.894 94.2081 226.599 96.2054 221.427C98.2027 216.257 100.437 211.178 103.091 206.31C103.372 205.794 104.02 205.603 104.536 205.884C104.992 206.133 105.193 206.666 105.041 207.142C103.382 212.387 101.607 217.552 99.9364 222.748C98.2668 227.941 96.6071 233.131 95.181 238.384C92.3313 248.885 90.2473 259.598 89.3861 270.388L88.0077 268.109C92.9878 270.156 98.2153 271.732 103.522 273.006C108.831 274.288 114.23 275.266 119.665 276.021C130.54 277.524 141.55 278.153 152.55 278.134C163.551 278.11 174.557 277.421 185.421 275.864C190.849 275.08 196.242 274.069 201.538 272.747C206.83 271.43 212.042 269.811 216.98 267.693L215.631 269.97C214.749 259.253 212.662 248.612 209.818 238.183C208.396 232.965 206.741 227.809 205.062 222.659C203.388 217.503 201.636 212.368 200.017 207.144C199.843 206.582 200.157 205.984 200.719 205.81C201.21 205.657 201.729 205.879 201.968 206.312" fill="#371A45"/>
    <path d="M152.61 131.924V132.239L152.41 132.085L152.61 131.924Z" fill="#D8D8D8"/>
    <path d="M152.41 132.085L152.211 132.239V131.924L152.41 132.085Z" fill="#D8D8D8"/>
    <path d="M237.58 116.555C237.58 163.337 199.656 201.262 152.874 201.262C106.092 201.262 68.1675 163.337 68.1675 116.555C68.1675 69.7732 106.092 31.8491 152.874 31.8491C199.656 31.8491 237.58 69.7732 237.58 116.555Z" fill="white"/>
    <path d="M237.582 116.553C237.582 163.335 199.658 201.259 152.876 201.259C106.094 201.259 68.1663 163.335 68.1663 116.553C68.1663 111.613 68.5881 106.771 69.4053 102.066C76.2773 141.943 111.034 172.28 152.877 172.28C194.721 172.28 229.473 141.944 236.345 102.066C237.162 106.77 237.584 111.613 237.584 116.553" fill="#D8D8D8"/>
    <path d="M152.874 203.383C104.997 203.383 66.0459 164.432 66.0459 116.555C66.0459 68.6785 104.997 29.7275 152.874 29.7275C200.751 29.7275 239.702 68.6785 239.702 116.555C239.702 164.432 200.751 203.383 152.874 203.383ZM152.874 33.9708C107.337 33.9708 70.2891 71.0186 70.2891 116.555C70.2891 162.092 107.336 199.14 152.874 199.14C198.412 199.14 235.458 162.092 235.458 116.555C235.458 71.0186 198.41 33.9708 152.874 33.9708Z" fill="#371A45"/>
    <path d="M152.874 203.383C104.997 203.383 66.0459 164.432 66.0459 116.555C66.0459 68.6785 104.997 29.7275 152.874 29.7275C200.751 29.7275 239.702 68.6785 239.702 116.555C239.702 164.432 200.751 203.383 152.874 203.383ZM152.874 33.9708C107.337 33.9708 70.2891 71.0186 70.2891 116.555C70.2891 162.092 107.336 199.14 152.874 199.14C198.412 199.14 235.458 162.092 235.458 116.555C235.458 71.0186 198.41 33.9708 152.874 33.9708Z" fill="#371A45"/>
    <path d="M152.874 203.383C104.997 203.383 66.0459 164.432 66.0459 116.555C66.0459 68.6785 104.997 29.7275 152.874 29.7275C200.751 29.7275 239.702 68.6785 239.702 116.555C239.702 164.432 200.751 203.383 152.874 203.383ZM152.874 33.9708C107.337 33.9708 70.2891 71.0186 70.2891 116.555C70.2891 162.092 107.336 199.14 152.874 199.14C198.412 199.14 235.458 162.092 235.458 116.555C235.458 71.0186 198.41 33.9708 152.874 33.9708Z" fill="#371A45"/>
    <path d="M152.872 203.381C113.311 203.381 78.7793 176.699 68.8442 138.472C68.8278 138.423 68.8128 138.373 68.799 138.323C66.9711 131.269 66.0446 123.945 66.0446 116.554C66.0446 113.28 66.2292 110.008 66.5933 106.829C71.4817 62.8774 108.574 29.7275 152.871 29.7275C197.169 29.7275 234.277 62.8874 239.158 106.859C239.516 110.046 239.697 113.309 239.697 116.553C239.697 123.935 238.773 131.257 236.95 138.319C236.937 138.368 236.923 138.415 236.907 138.463C226.968 176.694 192.431 203.379 152.87 203.379L152.872 203.381ZM72.9217 137.292C82.3333 173.706 115.207 199.139 152.872 199.139C190.538 199.139 223.41 173.71 232.83 137.296C232.843 137.239 232.86 137.183 232.878 137.127C234.588 130.454 235.456 123.533 235.456 116.555C235.456 113.468 235.284 110.365 234.944 107.331C230.3 65.5087 195.018 33.9708 152.872 33.9708C110.726 33.9708 75.4601 65.4974 70.8101 107.306C70.4636 110.331 70.2891 113.441 70.2891 116.555C70.2891 123.538 71.1579 130.455 72.8715 137.119C72.8903 137.175 72.9079 137.233 72.9229 137.292H72.9217Z" fill="#371A45"/>
    <path d="M234.629 96.4617C233.804 96.4617 233.024 95.9771 232.68 95.1786C219.314 64.1466 187.987 44.0943 152.874 44.0943C117.76 44.0943 86.4623 64.1291 73.0811 95.1334C72.6405 96.1553 71.4843 96.6613 70.4335 96.2959C69.3827 95.9294 68.7952 94.8121 69.0865 93.7375C79.3116 56.0481 113.766 29.7251 152.874 29.7251C191.982 29.7251 226.466 56.067 236.676 93.7852C236.967 94.8598 236.379 95.9758 235.327 96.3424C235.096 96.4227 234.861 96.4617 234.629 96.4617ZM152.874 39.8523C178.83 39.8523 202.819 50.3223 219.632 67.9229C204.408 47.0846 179.803 33.9683 152.874 33.9683C125.944 33.9683 101.36 47.0771 86.1347 67.904C102.949 50.316 126.932 39.8523 152.874 39.8523Z" fill="#371A45"/>
    <path d="M237.575 116.557C237.575 123.888 236.646 131.011 234.896 137.793C234.896 137.793 234.888 137.793 234.888 137.8C220.194 166.19 188.986 190.617 152.869 190.617C116.751 190.617 85.5534 166.19 70.8591 137.8C70.8591 137.793 70.8515 137.793 70.8515 137.793C69.094 131.011 68.165 123.888 68.165 116.557C68.165 113.352 68.3433 110.184 68.6985 107.073C80.1264 75.4551 113.486 52.5781 152.869 52.5781C192.252 52.5781 225.629 75.4714 237.048 107.097C237.397 110.202 237.574 113.36 237.574 116.558" fill="#371A45"/>
    <g opacity="0.35">
    <path d="M237.579 116.559C237.579 123.891 236.65 131.014 234.9 137.795C234.9 137.795 234.892 137.795 234.892 137.803C220.198 166.192 188.99 190.618 152.874 190.618C116.757 190.618 85.5584 166.192 70.8641 137.803C70.8641 137.795 70.8566 137.795 70.8566 137.795C69.8108 133.754 69.0601 129.596 68.6194 125.338C87.611 146.675 115.226 162.198 145.969 162.198C185.135 162.198 219.247 137.004 236.898 106.687C236.952 106.826 237.006 106.958 237.053 107.097C237.402 110.202 237.579 113.36 237.579 116.558" fill="#111A28"/>
    </g>
    <g opacity="0.5">
    <path d="M201.554 115.104C200.361 122.541 203.763 129.27 209.152 130.134C214.54 130.997 219.875 125.67 221.068 118.234C222.26 110.797 218.858 104.068 213.47 103.203C208.081 102.339 202.745 107.667 201.554 115.104Z" fill="white"/>
    </g>
    <g opacity="0.5">
    <path d="M194.62 142.349C193.607 145.654 195.084 149.039 197.921 149.909C200.757 150.779 203.878 148.805 204.892 145.5C205.905 142.194 204.428 138.81 201.592 137.941C198.756 137.071 195.635 139.044 194.62 142.35" fill="white"/>
    </g>
    <g opacity="0.5">
    <path d="M89.3347 144.49C89.3347 144.49 75.6923 103.931 97.3616 87.2194C119.031 70.5076 150.682 69.9326 149.983 71.9764C149.983 71.9764 115.117 81.1684 101.968 109.146C91.8291 130.72 89.3347 144.489 89.3347 144.489" fill="white"/>
    </g>
    <path d="M186.522 268.922C186.522 268.922 207.304 270.506 216.051 264.208C225.347 257.516 215.981 249.772 215.981 249.772C215.981 249.772 199.244 253.426 185.189 252.905L186.522 268.922Z" fill="white"/>
    <path d="M192.289 271.227C188.961 271.227 186.641 271.059 186.36 271.037L184.557 270.899L182.876 250.695L185.267 250.784C198.889 251.28 215.363 247.735 215.528 247.698L216.536 247.479L217.332 248.137C217.541 248.31 222.459 252.44 222.279 257.813C222.176 260.889 220.498 263.619 217.289 265.929C210.986 270.467 199.36 271.227 192.288 271.227H192.289ZM188.482 266.901C193.589 267.103 208.223 267.23 214.811 262.486C216.891 260.988 217.977 259.372 218.04 257.684C218.12 255.483 216.482 253.274 215.331 252.072C211.586 252.829 199.106 255.142 187.497 255.074L188.482 266.9V266.901Z" fill="#371944"/>
    <path d="M118.699 268.922C118.699 268.922 97.9178 270.506 89.1715 264.208C79.8753 257.516 89.2418 249.772 89.2418 249.772C89.2418 249.772 105.979 253.426 120.034 252.905L118.701 268.922H118.699Z" fill="white"/>
    <path d="M112.932 271.227C105.861 271.227 94.2344 270.469 87.9311 265.929C84.7224 263.619 83.0439 260.889 82.941 257.813C82.7614 252.44 87.6788 248.31 87.8884 248.137L88.6831 247.479L89.6924 247.698C89.8569 247.735 106.338 251.28 119.954 250.784L122.345 250.695L120.663 270.899L118.86 271.037C118.579 271.059 116.259 271.227 112.932 271.227ZM89.8895 252.073C88.7409 253.272 87.1001 255.483 87.1817 257.685C87.2432 259.374 88.3303 260.988 90.4105 262.487C96.9988 267.231 111.629 267.104 116.74 266.902L117.724 255.076C106.122 255.138 93.6356 252.83 89.8908 252.075L89.8895 252.073Z" fill="#371944"/>
    <path d="M187.286 278.517C187.334 278.369 187.387 278.22 187.43 278.066C187.413 278.135 187.392 278.199 187.371 278.269C187.344 278.354 187.313 278.438 187.285 278.518" fill="white"/>
    <path d="M187.865 245.52V275.134C187.865 275.267 187.86 275.399 187.855 275.527C187.855 275.632 187.85 275.744 187.839 275.849C187.834 275.892 187.834 275.935 187.829 275.977C187.818 276.099 187.807 276.216 187.791 276.328C187.781 276.433 187.765 276.545 187.748 276.645C187.727 276.805 187.701 276.959 187.669 277.112C187.633 277.298 187.59 277.484 187.543 277.663C187.521 277.765 187.495 277.854 187.467 277.95C187.457 277.992 187.446 278.03 187.431 278.066C187.441 278.029 187.452 277.987 187.462 277.95C178.924 279.282 169.548 280.14 159.658 280.438C157.143 280.512 154.599 280.55 152.02 280.55C139.319 280.55 127.296 279.615 116.584 277.951H116.579C116.319 277.049 116.181 276.1 116.181 275.114V245.522C116.181 245.352 116.186 245.176 116.192 245.007C116.203 244.837 116.214 244.672 116.229 244.503C116.304 243.772 116.451 243.061 116.675 242.382C117.941 238.42 121.553 235.541 125.785 235.541H178.255C183.537 235.541 187.865 240.033 187.865 245.522" fill="white"/>
    <g opacity="0.2">
    <path d="M187.865 265.148V275.135C187.865 275.268 187.86 275.4 187.855 275.528C187.855 275.635 187.85 275.745 187.839 275.852C187.834 275.895 187.834 275.937 187.829 275.979C187.817 276.1 187.807 276.217 187.791 276.329C187.781 276.436 187.765 276.546 187.748 276.647C187.727 276.806 187.701 276.96 187.669 277.114C187.633 277.299 187.59 277.485 187.543 277.665C187.521 277.76 187.495 277.856 187.462 277.951C178.924 279.282 169.548 280.142 159.658 280.438C157.143 280.512 154.599 280.55 152.02 280.55C139.319 280.55 127.296 279.617 116.584 277.951C116.637 278.147 116.696 278.344 116.765 278.535C116.696 278.344 116.632 278.148 116.579 277.951C116.314 277.05 116.176 276.094 116.176 275.109V245.517C116.176 245.347 116.181 245.178 116.192 245.008C116.203 244.837 116.214 244.673 116.229 244.504C116.298 243.762 116.451 243.045 116.67 242.361C116.67 242.366 116.676 242.371 116.676 242.382C117.015 243.66 117.216 248.078 117.62 252.951C117.939 256.77 118.379 260.869 119.115 263.956C119.783 266.793 120.702 268.777 121.995 268.92C123.612 269.1 124 257.762 124 257.762C124 257.762 124.445 258.239 125.235 259.03C125.235 259.03 125.24 259.03 125.24 259.035C125.479 259.273 125.75 259.538 126.047 259.831C126.126 259.905 126.205 259.985 126.291 260.064C127.335 261.066 128.682 262.313 130.225 263.633C132.071 265.202 134.197 266.873 136.419 268.337C138.541 269.742 140.742 270.957 142.873 271.72C148.569 273.762 154.255 274.372 159.659 274.091C170.388 273.533 179.991 269.451 186.281 266.03C186.838 265.732 187.362 265.436 187.866 265.15" fill="#371A45"/>
    </g>
    <path d="M189.301 279.184L185.268 277.869L185.274 277.852L185.323 277.705C185.347 277.636 185.37 277.568 185.39 277.497L189.496 278.56C189.472 278.66 189.445 278.753 189.414 278.849L189.303 279.184H189.301Z" fill="#371944"/>
    <path d="M152.02 282.671C139.506 282.671 127.49 281.79 116.303 280.054C116.154 280.034 116.005 280.013 115.856 279.987L114.318 279.713L114.124 278.164C114.076 277.79 114.053 277.414 114.053 277.013V276.727L113.682 275.353L114.053 275.411V243.618C114.053 237.996 118.629 233.42 124.252 233.42H179.788C185.411 233.42 189.986 237.996 189.986 243.618V275.41L190.375 275.35L189.986 276.768V277.013C189.986 277.426 189.962 277.805 189.914 278.173L189.713 279.712L188.185 279.987C188.036 280.013 187.892 280.035 187.741 280.055C178.962 281.422 169.535 282.266 159.719 282.561C157.167 282.636 154.577 282.674 152.019 282.674L152.02 282.671ZM118.297 276.064C128.887 277.633 140.223 278.428 152.02 278.428C154.537 278.428 157.086 278.392 159.595 278.317C168.732 278.043 177.522 277.286 185.742 276.065V243.617C185.742 240.333 183.072 237.662 179.788 237.662H124.252C120.968 237.662 118.297 240.333 118.297 243.617V276.064Z" fill="#371944"/>
    <path d="M125.146 260.314C125.146 265.067 128.856 268.92 133.433 268.92C138.01 268.92 141.718 265.067 141.718 260.314C141.718 255.561 138.009 251.708 133.433 251.708C128.857 251.708 125.146 255.561 125.146 260.314Z" fill="#22A7F0"/>
    <path d="M125.143 260.316C125.143 260.903 125.197 261.473 125.307 262.025C126.072 258.084 129.421 255.119 133.433 255.119C137.445 255.119 140.794 258.084 141.554 262.025C141.663 261.473 141.717 260.903 141.717 260.316C141.717 255.564 138.01 251.708 133.433 251.708C128.856 251.708 125.143 255.565 125.143 260.316Z" fill="white"/>
    <path d="M125.146 260.311C125.146 265.067 128.858 268.917 133.431 268.917C138.005 268.917 141.717 265.068 141.717 260.311C141.717 259.514 141.61 258.736 141.416 258.007C140.442 261.635 137.232 264.301 133.43 264.301C129.629 264.301 126.419 261.635 125.445 258.007C125.25 258.736 125.143 259.514 125.143 260.311" fill="#1C7AEA"/>
    <path d="M133.431 270.51C127.986 270.51 123.554 265.936 123.554 260.314C123.554 254.692 127.984 250.118 133.431 250.118C138.879 250.118 143.308 254.692 143.308 260.314C143.308 265.936 138.877 270.51 133.431 270.51ZM133.431 253.299C129.739 253.299 126.736 256.446 126.736 260.314C126.736 264.182 129.741 267.329 133.431 267.329C137.122 267.329 140.126 264.182 140.126 260.314C140.126 256.446 137.122 253.299 133.431 253.299Z" fill="#371944"/>
    <path d="M159.657 282.559C158.485 282.559 157.535 281.609 157.535 280.438V269.943C157.535 265.565 159.552 261.376 162.933 258.736L164.264 257.696C166.622 255.85 168.03 252.908 168.03 249.828V235.54C168.03 234.369 168.98 233.418 170.152 233.418C171.323 233.418 172.273 234.369 172.273 235.54V249.828C172.273 254.201 170.256 258.392 166.878 261.038L165.544 262.08C163.187 263.922 161.778 266.862 161.778 269.943V280.438C161.778 281.609 160.828 282.559 159.657 282.559Z" fill="#371944"/>
    <path d="M86.8565 223.329C93.0795 223.516 106.947 226.547 106.947 226.547C106.947 226.547 111.801 256.538 103.386 262.115C97.6353 265.927 74.7734 267.334 64.2231 258.912C55.9476 252.305 53.2899 236.375 65.1019 217.362" fill="white"/>
    <path d="M103.385 262.118C103.061 262.33 102.691 262.537 102.266 262.733C95.1182 266.052 74.1859 266.865 64.2256 258.914C58.4182 254.279 55.3738 245.051 58.1583 233.39C59.3409 228.436 61.5742 223.038 65.1006 217.363L86.854 223.329C93.0795 223.515 106.948 226.549 106.948 226.549C106.948 226.549 111.8 256.539 103.384 262.118" fill="white"/>
    <g opacity="0.2">
    <path d="M102.265 262.733C95.117 266.052 74.1846 266.865 64.2256 258.914C58.4182 254.279 55.3738 245.051 58.1583 233.39C57.6812 245.449 64.3047 263.459 91.2767 250.582L102.265 262.732V262.733Z" fill="#371A45"/>
    </g>
    <path d="M86.8879 222.269C88.6693 222.117 90.4055 222.155 92.1342 222.245C93.8641 222.323 95.5802 222.47 97.2863 222.66C98.9924 222.854 100.696 223.058 102.381 223.355C104.07 223.643 105.735 223.998 107.398 224.476L107.411 224.479C108.282 224.667 108.909 225.378 109.039 226.21C109.442 228.834 109.735 231.386 109.972 233.987C110.204 236.578 110.369 239.181 110.43 241.797C110.492 244.414 110.458 247.046 110.241 249.701C110.015 252.354 109.639 255.036 108.747 257.742C108.294 259.09 107.691 260.457 106.748 261.754C106.275 262.398 105.704 263.022 105.012 263.557C104.296 264.108 103.596 264.447 102.909 264.767C101.542 265.359 100.209 265.74 98.8769 266.056C97.5449 266.371 96.2192 266.587 94.8923 266.767C89.5908 267.446 84.2754 267.404 78.9915 266.667C76.3527 266.288 73.7201 265.725 71.1415 264.857C69.8497 264.432 68.5743 263.923 67.3289 263.316C66.0773 262.727 64.8684 261.999 63.7109 261.175C61.3495 259.526 59.4275 257.233 58.0692 254.755C57.385 253.511 56.8238 252.212 56.3794 250.882C55.945 249.55 55.6224 248.194 55.3914 246.829C54.4976 241.346 55.1956 235.835 56.682 230.699C58.1796 225.543 60.5272 220.73 63.2979 216.245C63.9143 215.248 65.2211 214.939 66.2179 215.554C67.2147 216.169 67.5235 217.476 66.9084 218.474L66.9021 218.483C64.2934 222.705 62.1165 227.193 60.7557 231.887C59.3974 236.562 58.8111 241.478 59.5781 246.142C60.3163 250.774 62.5158 255.157 66.1928 257.735C67.1218 258.394 68.1135 258.998 69.1806 259.499C70.2364 260.015 71.3449 260.46 72.4873 260.835C74.7646 261.602 77.1611 262.12 79.5916 262.468C84.4524 263.15 89.4765 263.186 94.3361 262.561C95.5463 262.398 96.7528 262.201 97.914 261.925C99.0727 261.652 100.21 261.316 101.194 260.888C101.666 260.668 102.123 260.436 102.421 260.198C102.742 259.95 103.051 259.625 103.335 259.238C103.902 258.461 104.37 257.467 104.727 256.39C105.446 254.225 105.812 251.797 106.014 249.353C106.216 246.901 106.25 244.403 106.191 241.9C106.061 236.902 105.589 231.815 104.851 226.89L106.492 228.624C104.837 228.386 103.175 228.065 101.533 227.701C99.8875 227.345 98.253 226.934 96.6147 226.549L91.7073 225.393C90.0728 225.036 88.4358 224.661 86.8226 224.393L86.8025 224.39C86.2213 224.294 85.8271 223.743 85.9238 223.162C86.0054 222.67 86.4109 222.313 86.8866 222.273" fill="#371A45"/>
    <path d="M242.304 147.135L241.532 149.693C240.092 154.449 238.017 158.926 235.394 163.005C228.746 173.391 218.617 181.277 206.568 185.086L188.155 190.905L187.104 187.578L205.517 181.759C216.31 178.348 225.46 171.431 231.67 162.319C234.49 158.184 236.706 153.602 238.191 148.682L238.968 146.124L242.304 147.135Z" fill="#D8D8D8"/>
    <path d="M242.304 147.135L241.532 149.693C240.092 154.449 238.017 158.926 235.394 163.005C234.139 162.776 232.884 162.549 231.67 162.319C234.49 158.184 236.706 153.602 238.191 148.682L238.968 146.124L242.304 147.135Z" fill="#999999"/>
    <path d="M239.509 147.136L241.292 147.675L240.754 149.454C235.731 166.056 222.858 179.085 206.322 184.313L188.69 189.885L188.129 188.109L205.761 182.536C221.712 177.495 234.126 164.927 238.971 148.916L239.509 147.136ZM238.093 144.49L236.941 148.301C232.298 163.64 220.404 175.683 205.122 180.513L185.467 186.724L187.307 192.547L206.961 186.335C224.166 180.898 237.559 167.34 242.785 150.069L243.937 146.259L238.093 144.49Z" fill="#371A45"/>
    <path d="M189.932 193.614L182.245 196.043C180.151 196.705 177.916 195.543 177.255 193.449L176.721 191.762C176.06 189.668 177.221 187.434 179.313 186.772L187.002 184.343C189.096 183.681 191.33 184.842 191.992 186.936L192.525 188.624C193.187 190.719 192.026 192.952 189.932 193.614Z" fill="#686868"/>
    <g opacity="0.5">
    <path d="M192.087 187.241L192.429 188.322C192.476 188.475 192.514 188.632 192.544 188.784C191.673 186.807 189.432 185.761 187.324 186.428L180.245 188.665C178.136 189.332 176.903 191.475 177.327 193.594C177.265 193.452 177.204 193.302 177.157 193.149L176.815 192.068C176.101 189.806 177.356 187.392 179.617 186.676L186.696 184.439C188.957 183.725 191.373 184.979 192.087 187.241Z" fill="white"/>
    </g>
    <path d="M192.087 187.241L192.429 188.322C193.143 190.583 191.886 192.994 189.625 193.708L182.547 195.945C180.286 196.659 177.872 195.41 177.158 193.149L176.817 192.068C176.683 191.648 176.622 191.222 176.616 190.803C177.663 192.311 179.605 193.036 181.445 192.455L188.523 190.218C190.363 189.637 191.536 187.927 191.526 186.092C191.762 186.438 191.955 186.821 192.087 187.241Z" fill="#545354"/>
    <path d="M181.04 197.557C180.2 197.557 179.366 197.355 178.6 196.957C177.344 196.304 176.416 195.201 175.99 193.85L175.457 192.162C174.576 189.376 176.126 186.39 178.914 185.509L186.602 183.08C187.954 182.653 189.389 182.777 190.645 183.431C191.901 184.084 192.829 185.188 193.256 186.538L193.789 188.226C194.671 191.015 193.118 193.999 190.331 194.88L182.644 197.31C182.117 197.477 181.577 197.558 181.04 197.558V197.557ZM188.203 185.484C187.934 185.484 187.664 185.525 187.401 185.608L179.713 188.037C179.037 188.251 178.486 188.714 178.16 189.343C177.833 189.971 177.771 190.689 177.984 191.364L178.518 193.051C178.731 193.727 179.194 194.278 179.823 194.605C180.451 194.932 181.169 194.993 181.844 194.781L189.531 192.352C190.925 191.911 191.702 190.419 191.26 189.025L190.726 187.339C190.513 186.664 190.048 186.112 189.421 185.785C189.038 185.587 188.621 185.485 188.202 185.485L188.203 185.484Z" fill="#371A45"/>
    <path d="M240.687 115.684C241.183 111.884 241.434 108.015 241.434 104.16C241.434 55.3815 201.751 15.6986 152.973 15.6986C104.195 15.6986 64.5131 55.3815 64.5131 104.16C64.5131 108.014 64.7629 111.883 65.2588 115.684H56.7146C56.2627 111.884 56.0342 108.012 56.0342 104.16C56.0342 50.7077 99.5209 7.22095 152.973 7.22095C206.425 7.22095 249.905 50.7077 249.905 104.16C249.905 108.012 249.677 111.884 249.225 115.684H240.687Z" fill="#D8D8D8"/>
    <path d="M249.904 104.16C249.904 105.146 249.887 106.133 249.863 107.114C249.775 109.986 249.559 112.853 249.227 115.684H240.685C241.054 112.853 241.286 109.98 241.385 107.107C241.414 106.126 241.431 105.14 241.431 104.158C241.431 55.3827 201.754 15.6985 152.973 15.6985C104.192 15.6985 64.5131 55.3852 64.5131 104.16C64.5131 105.141 64.5307 106.127 64.5595 107.109C64.6587 109.981 64.8922 112.853 65.26 115.685H56.7184C56.3794 112.854 56.1635 109.987 56.0756 107.115C56.0518 106.133 56.0342 105.146 56.0342 104.161C56.0342 50.7089 99.5196 7.22339 152.972 7.22339C206.424 7.22339 249.903 50.7089 249.903 104.161" fill="#D8D8D8"/>
    <path d="M249.904 110.034C249.904 113.888 249.677 117.758 249.227 121.558H240.685C240.936 119.614 241.129 117.653 241.252 115.684C241.375 113.804 241.433 111.918 241.433 110.032C241.433 109.052 241.415 108.077 241.386 107.107C241.415 106.127 241.433 105.14 241.433 104.16C241.433 55.384 201.755 15.6999 152.974 15.6999C104.193 15.6999 64.5131 55.3853 64.5131 104.16C64.5131 105.14 64.5307 106.127 64.5595 107.107C64.5307 108.077 64.5131 109.052 64.5131 110.032C64.5131 111.918 64.5708 113.804 64.6939 115.684C64.8156 117.651 65.0077 119.614 65.26 121.558H56.7184C56.2627 117.757 56.0342 113.886 56.0342 110.034C56.0342 109.059 56.0455 108.084 56.0756 107.115C57.6273 55.0061 100.495 13.0962 152.972 13.0962C205.448 13.0962 248.309 55.0049 249.861 107.115C249.892 108.084 249.903 109.059 249.903 110.034" fill="#B5B5B5"/>
    <path d="M251.111 117.806H238.272L238.584 115.41C239.068 111.705 239.314 107.92 239.314 104.161C239.314 56.5528 200.582 17.8215 152.974 17.8215C105.366 17.8215 66.6347 56.5515 66.6347 104.16C66.6347 107.921 66.8795 111.706 67.3628 115.41L67.6754 117.806H54.8328L54.6106 115.935C54.1486 112.056 53.9138 108.094 53.9138 104.16C53.9138 49.5376 98.3521 5.10059 152.974 5.10059C207.596 5.10059 252.028 49.5389 252.028 104.16C252.028 108.093 251.793 112.054 251.333 115.935L251.111 117.806ZM243.071 113.564H247.323C247.631 110.45 247.785 107.296 247.785 104.161C247.785 51.8789 205.254 9.34381 152.974 9.34381C100.695 9.34381 58.1558 51.8777 58.1558 104.16C58.1558 107.297 58.3115 110.452 58.6178 113.563H62.8761C62.5547 110.449 62.3915 107.296 62.3915 104.16C62.3915 54.2127 103.026 13.5782 152.973 13.5782C202.92 13.5782 243.556 54.2127 243.556 104.16C243.556 107.294 243.392 110.448 243.071 113.563V113.564Z" fill="#371A45"/>
    <path d="M246.039 152.615C243.292 151.921 241.919 151.573 239.172 150.879C237.428 150.438 236.38 148.644 236.798 146.867C240.564 129.722 242.284 112.704 242.025 95.151C241.971 93.3256 243.356 91.7777 245.154 91.6949C247.985 91.5643 249.399 91.4978 252.23 91.3672C258.473 91.1965 262.926 96.6072 262.907 102.6C262.627 116.495 261.254 130.078 258.748 143.748C257.567 149.625 252.122 154.034 246.039 152.618" fill="#D8D8D8"/>
    <path d="M239.172 150.88C241.916 151.575 243.293 151.92 246.037 152.614C252.121 154.033 257.568 149.619 258.748 143.746C259.794 138.019 260.645 132.308 261.301 126.58C259.082 130.597 254.668 133.13 249.851 132.009C247.102 131.315 245.729 130.964 242.986 130.269C241.239 129.831 240.195 128.04 240.609 126.258C243.138 114.739 244.743 103.283 245.444 91.6824C245.351 91.6824 245.252 91.6886 245.151 91.6937C243.36 91.7753 241.969 93.3219 242.028 95.1498C242.284 112.7 240.561 129.719 236.797 146.862C236.381 148.642 237.427 150.435 239.173 150.879" fill="#AAAAAA"/>
    <path d="M252.515 91.3611C258.608 91.3611 262.925 96.6965 262.906 102.598C262.626 116.493 261.253 130.076 258.747 143.746C257.716 148.873 253.441 152.883 248.329 152.883C247.58 152.883 246.815 152.797 246.039 152.617C243.292 151.922 241.919 151.575 239.172 150.879C237.427 150.438 236.38 148.645 236.798 146.867C240.564 129.722 242.284 112.704 242.025 95.1511C241.971 93.3245 243.356 91.7779 245.154 91.695C247.983 91.5632 249.399 91.4979 252.23 91.3673C252.326 91.3648 252.421 91.3636 252.517 91.3636M252.517 88.2251C252.392 88.2251 252.268 88.2264 252.145 88.2301H252.115L252.085 88.2326L248.547 88.3971L245.009 88.5615C241.538 88.7222 238.798 91.7063 238.889 95.2201C239.144 112.566 237.459 129.234 233.738 146.178C232.948 149.602 235.035 153.075 238.405 153.926L245.262 155.661L245.291 155.668L245.328 155.677C246.321 155.908 247.331 156.026 248.33 156.026C254.793 156.026 260.468 151.124 261.825 144.37L261.83 144.344L261.835 144.317C264.384 130.419 265.76 116.794 266.046 102.667V102.641V102.614C266.058 98.6536 264.509 94.8234 261.799 92.1043C259.308 89.606 256.012 88.2301 252.517 88.2301V88.2251Z" fill="#371A45"/>
    <path d="M230.736 153.735C233.824 154.517 235.365 154.903 238.454 155.685C245.291 157.279 251.416 152.321 252.741 145.718C253.715 140.405 254.534 135.11 255.206 129.802C255.452 127.853 255.678 125.902 255.882 123.952C256.455 118.593 256.869 113.215 257.126 107.803C257.267 105.035 257.36 102.256 257.419 99.4645C257.436 92.7268 252.432 86.6432 245.415 86.8352C242.232 86.9871 240.646 87.0574 237.463 87.2031C235.443 87.296 233.884 89.0359 233.942 91.091C234.012 95.7272 233.959 100.328 233.777 104.91C233.561 110.434 233.171 115.923 232.587 121.392C232.395 123.237 232.178 125.076 231.945 126.915C230.993 134.359 229.702 141.774 228.068 149.218C227.601 151.22 228.775 153.235 230.736 153.731" fill="#FF2943"/>
    <g opacity="0.5">
    <path d="M232.586 121.395C238.308 123.159 247.731 125.364 255.881 123.952C256.453 118.592 256.868 113.215 257.124 107.803C251.443 105.642 243.012 103.529 233.776 104.913C233.56 110.437 233.17 115.925 232.586 121.395Z" fill="white"/>
    </g>
    <g opacity="0.5">
    <path d="M233.964 96.0623C234.169 94.2521 235.623 92.8046 237.462 92.7167C240.644 92.5711 242.231 92.5008 245.414 92.3489C251.83 92.1731 256.565 97.2474 257.312 103.272C257.359 102.005 257.394 100.739 257.418 99.4657C257.435 92.728 252.431 86.6444 245.414 86.8365C242.231 86.9884 240.644 87.0587 237.462 87.2043C235.442 87.2972 233.883 89.0372 233.941 91.0922C233.964 92.7506 233.976 94.409 233.964 96.0611" fill="white"/>
    </g>
    <g opacity="0.7">
    <path d="M228.604 152.222C229.987 145.619 231.097 139.039 231.943 132.43C233.41 120.992 234.074 109.496 233.952 97.7961C233.846 107.605 233.181 117.28 231.943 126.919C230.992 134.362 229.701 141.777 228.067 149.222C227.815 150.297 228.038 151.376 228.604 152.224" fill="white"/>
    </g>
    <g opacity="0.7">
    <path d="M233.941 96.6048C233.947 97.0015 233.952 97.3982 233.952 97.7962C233.958 97.2187 233.963 96.64 233.963 96.0625C233.939 96.237 233.934 96.4253 233.939 96.6061" fill="white"/>
    </g>
    <path d="M230.736 153.735C233.824 154.517 235.365 154.903 238.454 155.685C245.291 157.279 251.416 152.322 252.741 145.718C253.715 140.405 254.534 135.11 255.206 129.802C255.019 130.199 251.638 137.012 241.964 135.827C234.561 134.922 232.546 131.338 231.945 126.917C230.993 134.362 229.702 141.776 228.068 149.221C227.601 151.223 228.775 153.238 230.736 153.734" fill="#D81D4A"/>
    <path d="M241.015 158.104C240.003 158.104 238.985 157.987 237.974 157.752L237.935 157.742L230.217 155.79C227.16 155.017 225.271 151.853 226.004 148.737C230.207 129.601 232.113 110.745 231.823 91.1237C231.729 87.9551 234.213 85.2334 237.363 85.0878L245.316 84.72C248.983 84.6233 252.424 85.9691 255.037 88.5188C257.91 91.3221 259.55 95.3142 259.537 99.472C259.218 115.31 257.677 130.549 254.828 146.1C254.002 150.21 251.598 153.793 248.222 155.966C246.029 157.378 243.544 158.105 241.015 158.105V158.104ZM238.955 153.625C242.038 154.335 244.444 153.35 245.926 152.397C248.341 150.841 250.067 148.255 250.661 145.299C253.463 130.011 254.981 114.994 255.295 99.4231C255.304 96.4428 254.13 93.5617 252.075 91.5556C250.813 90.324 248.624 88.8803 245.473 88.9607L237.559 89.3272C236.707 89.3662 236.038 90.1307 236.065 91.0308C236.361 111.015 234.423 130.189 230.142 149.68C229.928 150.588 230.432 151.47 231.258 151.679L238.956 153.626L238.955 153.625Z" fill="#371A45"/>
    <path d="M59.7024 152.615C62.4492 151.921 63.8239 151.573 66.5694 150.879C68.3131 150.438 69.3614 148.644 68.9433 146.867C65.1772 129.722 63.4573 112.704 63.7159 95.151C63.7711 93.3256 62.3852 91.7777 60.5875 91.6949C57.7566 91.5643 56.3417 91.4978 53.5108 91.3672C47.2678 91.1965 42.8149 96.6072 42.8337 102.6C43.1137 116.495 44.4871 130.078 46.9928 143.748C48.1742 149.625 53.6188 154.034 59.7012 152.618" fill="#D8D8D8"/>
    <path d="M66.5682 150.88C63.8239 151.575 62.4467 151.92 59.7024 152.614C53.6188 154.033 48.1704 149.619 46.9916 143.746C45.9459 138.019 45.0947 132.308 44.4406 126.58C46.6589 130.597 51.0729 133.13 55.8898 132.009C58.6404 131.315 60.0125 130.964 62.7568 130.269C64.5018 129.831 65.5463 128.04 65.1332 126.258C62.6049 114.739 60.9992 103.283 60.2987 91.6824C60.3916 91.6824 60.4908 91.6886 60.59 91.6937C62.3814 91.7753 63.7724 93.3219 63.7134 95.1498C63.456 112.7 65.1784 129.719 68.9446 146.862C69.3589 148.642 68.3144 150.435 66.5682 150.879" fill="#AAAAAA"/>
    <path d="M53.2259 91.361C53.3213 91.361 53.4167 91.3622 53.5121 91.3647C56.343 91.4953 57.7578 91.5618 60.5875 91.6924C62.3852 91.7752 63.7711 93.3231 63.7159 95.1485C63.456 112.701 65.1772 129.719 68.9434 146.864C69.3614 148.642 68.3144 150.436 66.5694 150.876C63.8239 151.571 62.4492 151.918 59.7024 152.614C58.9253 152.795 58.1595 152.88 57.4113 152.88C52.2994 152.88 48.0235 148.87 46.9929 143.743C44.4871 130.075 43.1137 116.49 42.8337 102.595C42.8149 96.6939 47.1322 91.3584 53.2246 91.3584M53.2246 88.22C49.7283 88.22 46.4317 89.5959 43.941 92.0954C41.2294 94.8145 39.6827 98.646 39.6953 102.605V102.658C39.9815 116.785 41.3574 130.41 43.9058 144.308L43.9109 144.335L43.9159 144.361C45.2742 151.115 50.9498 156.017 57.4113 156.017C58.4106 156.017 59.4212 155.899 60.4142 155.668L60.4431 155.662L60.472 155.655L63.1786 154.97L67.339 153.918C70.7072 153.067 72.7961 149.596 72.004 146.171C68.2843 129.227 66.5983 112.559 66.8531 95.2138C66.9435 91.6999 64.203 88.7158 60.7318 88.5552L58.3127 88.4434L53.6565 88.2275H53.6263L53.5962 88.225C53.4719 88.2212 53.3476 88.22 53.2246 88.22Z" fill="#371A45"/>
    <path d="M75.0044 153.735C71.9161 154.517 70.3758 154.903 67.2862 155.685C60.4494 157.279 54.3256 152.321 52.9999 145.718C52.0245 140.405 51.2072 135.11 50.5356 129.802C50.2908 127.853 50.0635 125.902 49.8589 123.952C49.2877 118.593 48.8722 113.215 48.6148 107.803C48.4755 105.035 48.3813 102.256 48.3236 99.4645C48.306 92.7268 53.31 86.6432 60.3276 86.8352C63.51 86.9871 65.0968 87.0574 68.2792 87.2031C70.2992 87.296 71.8584 89.0359 71.8006 91.091C71.7303 95.7272 71.783 100.328 71.9651 104.91C72.181 110.434 72.5727 115.923 73.1564 121.392C73.3485 123.237 73.5644 125.076 73.7992 126.915C74.7508 134.359 76.0413 141.774 77.6758 149.218C78.1429 151.22 76.9691 153.235 75.0069 153.731" fill="#FF2943"/>
    <g opacity="0.5">
    <path d="M73.1539 121.395C67.4319 123.159 58.0089 125.364 49.8576 123.952C49.2864 118.592 48.8709 113.215 48.6148 107.803C54.2954 105.642 62.7267 103.529 71.9626 104.913C72.1785 110.437 72.5702 115.925 73.1539 121.395Z" fill="white"/>
    </g>
    <g opacity="0.5">
    <path d="M71.7768 96.0623C71.5721 94.2521 70.1184 92.8046 68.2792 92.7167C65.0968 92.5711 63.51 92.5008 60.3276 92.3489C53.9113 92.1731 49.176 97.2474 48.429 103.272C48.3826 102.005 48.3474 100.739 48.3236 99.4657C48.306 92.728 53.31 86.6444 60.3276 86.8365C63.51 86.9884 65.0968 87.0587 68.2792 87.2043C70.3004 87.2972 71.8584 89.0372 71.8006 91.0922C71.7768 92.7506 71.7667 94.409 71.7768 96.0611" fill="white"/>
    </g>
    <g opacity="0.7">
    <path d="M77.136 152.222C75.7526 145.619 74.6441 139.039 73.7967 132.43C72.3304 120.992 71.6663 109.496 71.7881 97.7961C71.8935 107.605 72.5589 117.28 73.7967 126.919C74.7483 134.362 76.0388 141.777 77.6733 149.222C77.9232 150.297 77.7022 151.376 77.136 152.224" fill="white"/>
    </g>
    <g opacity="0.7">
    <path d="M71.7994 96.6048C71.7931 97.0015 71.7881 97.3982 71.7881 97.7962C71.7818 97.2187 71.7755 96.64 71.7755 96.0625C71.7994 96.237 71.8056 96.4253 71.7994 96.6061" fill="white"/>
    </g>
    <path d="M75.0044 153.735C71.9161 154.517 70.3757 154.903 67.2862 155.685C60.4494 157.279 54.3256 152.322 52.9999 145.718C52.0244 140.405 51.2072 135.11 50.5356 129.802C50.7226 130.199 54.1034 137.012 63.7774 135.827C71.1804 134.922 73.1953 131.338 73.7967 126.917C74.7483 134.362 76.0388 141.776 77.6733 149.221C78.1403 151.223 76.9665 153.238 75.0044 153.734" fill="#D81D4A"/>
    <path d="M64.7252 158.104C62.1956 158.104 59.7125 157.377 57.5193 155.965C54.1448 153.793 51.7395 150.21 50.921 146.134C48.0637 130.552 46.5233 115.313 46.2057 99.5071C46.1919 95.3141 47.8314 91.322 50.705 88.5187C53.3175 85.969 56.7472 84.622 60.3866 84.7174L68.3809 85.0865C71.5307 85.2321 74.0151 87.9538 73.9197 91.1538C73.631 110.742 75.5367 129.598 79.7472 148.766C80.4741 151.852 78.5835 155.015 75.5266 155.789L67.7683 157.75C66.7577 157.984 65.7383 158.101 64.7277 158.101L64.7252 158.104ZM59.966 88.9543C56.977 88.9543 54.893 90.3579 53.6665 91.5555C51.6102 93.5616 50.4376 96.4427 50.4477 99.4582C50.7615 114.996 52.278 130.014 55.0876 145.334C55.6751 148.255 57.4013 150.843 59.8167 152.397C61.298 153.35 63.7071 154.334 66.7866 153.625L74.4859 151.677C75.3119 151.469 75.8153 150.585 75.6095 149.709C71.3211 130.186 69.3827 111.012 69.6777 91.0609C69.7054 90.1294 69.035 89.3648 68.1851 89.3259L60.2309 88.9581C60.1431 88.9556 60.0539 88.9543 59.9686 88.9543H59.966Z" fill="#371A45"/>
    <path d="M200.309 36.2218C169.714 17.652 136.245 17.6407 105.632 36.2218C102.122 38.3522 97.5499 37.1445 95.6078 33.5289C94.8157 32.0551 94.0235 30.5813 93.2314 29.1075C91.4739 25.8372 92.507 21.7433 95.6355 19.7473C132.371 -3.68961 173.561 -3.69463 210.304 19.7473C213.434 21.7433 214.464 25.8384 212.708 29.1075C211.916 30.5813 211.125 32.0551 210.332 33.5289C208.39 37.1457 203.817 38.3522 200.307 36.2218" fill="#858585"/>
    <g opacity="0.7">
    <path d="M213.238 27.8571C212.765 26.3155 211.76 24.932 210.307 24.0043C173.565 0.562412 132.368 0.56869 95.638 24.0043C94.1842 24.932 93.1799 26.3155 92.7016 27.8571C91.7676 24.8504 92.9 21.4986 95.638 19.7473C132.368 -3.68834 173.565 -3.69462 210.307 19.7473C213.045 21.4935 214.177 24.8504 213.238 27.8571Z" fill="white"/>
    </g>
    <path d="M212.707 29.1062C211.918 30.5838 211.124 32.0551 210.337 33.5264C208.392 37.147 203.82 38.3547 200.312 36.2243C169.712 17.652 136.246 17.6395 105.635 36.2243C102.126 38.3547 97.5537 37.147 95.6103 33.5264C94.8169 32.0551 94.0286 30.5838 93.2339 29.1062C91.9496 26.7235 92.1543 23.8989 93.5791 21.7735C94.2558 23.0351 94.9337 24.2956 95.6103 25.5622C97.5549 29.1765 102.126 30.3855 105.635 28.2538C136.246 9.67528 169.712 9.68156 200.312 28.2538C203.821 30.3842 208.392 29.1765 210.337 25.5622C211.013 24.2956 211.691 23.0339 212.368 21.7735C213.787 23.8989 213.991 26.7247 212.707 29.1062Z" fill="#5E5E5E"/>
    <path d="M101.871 39.3916C101.055 39.3916 100.236 39.2849 99.4393 39.0677C96.9737 38.3948 94.9488 36.7854 93.7386 34.5332L91.3621 30.1118C89.0848 25.8711 90.4595 20.5319 94.4943 17.9583C113.124 6.0723 132.796 0.045166 152.967 0.045166C173.139 0.045166 192.814 6.07104 211.445 17.9571C215.479 20.5306 216.856 25.8685 214.577 30.1105L212.201 34.5332C210.992 36.7842 208.968 38.3936 206.501 39.0665C204.047 39.7356 201.39 39.359 199.208 38.0345C169.391 19.9368 136.55 19.9368 106.733 38.0345C105.259 38.9284 103.57 39.3904 101.871 39.3904V39.3916ZM152.97 4.19549C133.932 4.19549 114.896 9.9753 96.7766 21.5349C94.6035 22.9221 93.8666 25.807 95.1006 28.1031L97.4758 32.5246C98.1299 33.7411 99.2234 34.6111 100.554 34.9739C101.909 35.343 103.322 35.1421 104.53 34.4077C135.767 15.4488 170.172 15.4488 201.408 34.4077C202.616 35.1409 204.028 35.343 205.385 34.9726C206.717 34.6098 207.81 33.7398 208.462 32.5246L210.839 28.1031C212.073 25.8058 211.336 22.9209 209.163 21.5349C191.044 9.9753 172.007 4.19549 152.969 4.19549H152.97Z" fill="#371A45"/>
    <path d="M199.97 236.564V252.507C199.97 259.187 194.554 264.602 187.874 264.602H116.164C109.484 264.602 104.068 259.187 104.068 252.507V236.564H199.971H199.97Z" fill="#BFBFBF"/>
    <g opacity="0.2">
    <path d="M199.967 245.45V252.509C199.967 259.185 194.553 264.606 187.875 264.606H116.165C109.482 264.606 104.068 259.187 104.068 252.509V245.45C104.068 252.133 109.482 257.547 116.165 257.547H187.875C194.553 257.547 199.967 252.133 199.967 245.45Z" fill="#371A45"/>
    </g>
    <path d="M187.874 266.193H116.164C108.616 266.193 102.477 260.054 102.477 252.508V236.564C102.477 235.686 103.189 234.974 104.068 234.974H199.971C200.85 234.974 201.562 235.686 201.562 236.564V252.508C201.562 260.054 195.421 266.193 187.875 266.193H187.874ZM105.657 238.155V252.508C105.657 258.3 110.37 263.012 116.162 263.012H187.874C193.666 263.012 198.379 258.3 198.379 252.508V238.155H105.658H105.657Z" fill="#371A45"/>
    <path d="M132.642 260.58H117.745C115.902 260.58 114.407 259.086 114.407 257.242V254.52C114.407 252.677 115.902 251.182 117.745 251.182H132.642C134.486 251.182 135.98 252.677 135.98 254.52V257.242C135.98 259.085 134.486 260.58 132.642 260.58Z" fill="#5E5E5E"/>
    <path d="M132.642 262.171H117.745C115.027 262.171 112.817 259.96 112.817 257.242V254.52C112.817 251.802 115.027 249.592 117.745 249.592H132.642C135.361 249.592 137.572 251.802 137.572 254.52V257.242C137.572 259.96 135.361 262.171 132.642 262.171ZM117.745 252.773C116.782 252.773 115.998 253.557 115.998 254.52V257.242C115.998 258.205 116.782 258.989 117.745 258.989H132.642C133.606 258.989 134.391 258.205 134.391 257.242V254.52C134.391 253.556 133.606 252.773 132.642 252.773H117.745Z" fill="#371A45"/>
    <path d="M186.183 260.58H171.285C169.442 260.58 167.947 259.086 167.947 257.242V254.52C167.947 252.677 169.442 251.182 171.285 251.182H186.183C188.026 251.182 189.521 252.677 189.521 254.52V257.242C189.521 259.085 188.027 260.58 186.183 260.58Z" fill="#5E5E5E"/>
    <path d="M186.183 262.171H171.285C168.567 262.171 166.357 259.96 166.357 257.242V254.52C166.357 251.802 168.567 249.592 171.285 249.592H186.183C188.901 249.592 191.112 251.802 191.112 254.52V257.242C191.112 259.96 188.901 262.171 186.183 262.171ZM171.285 252.773C170.321 252.773 169.538 253.557 169.538 254.52V257.242C169.538 258.205 170.322 258.989 171.285 258.989H186.183C187.146 258.989 187.931 258.205 187.931 257.242V254.52C187.931 253.556 187.146 252.773 186.183 252.773H171.285Z" fill="#371A45"/>
    <path d="M124.145 248.739H179.894V226.548C179.894 226.548 161.473 230.321 152.02 230.321C142.567 230.321 124.147 226.548 124.147 226.548V248.739H124.145Z" fill="#BFBFBF"/>
    <path d="M179.894 250.33H124.145C123.267 250.33 122.555 249.618 122.555 248.739V226.546C122.555 226.068 122.769 225.616 123.14 225.314C123.51 225.011 123.997 224.893 124.466 224.987C124.648 225.025 142.838 228.73 152.02 228.73C161.202 228.73 179.393 225.025 179.575 224.987C180.042 224.893 180.53 225.012 180.9 225.314C181.271 225.616 181.485 226.068 181.485 226.546V248.739C181.485 249.618 180.774 250.33 179.895 250.33H179.894ZM125.736 247.149H178.303V228.483C173.308 229.45 159.824 231.911 152.019 231.911C144.214 231.911 130.731 229.45 125.736 228.483V247.149Z" fill="#371A45"/>
    <path d="M144.223 236.564C144.223 243.288 135.234 248.739 124.145 248.739C113.056 248.739 104.068 243.288 104.068 236.564C104.068 229.841 113.056 224.39 124.145 224.39C135.234 224.39 144.223 229.839 144.223 236.564Z" fill="#BFBFBF"/>
    <path d="M124.145 250.33C111.994 250.33 102.477 244.284 102.477 236.564C102.477 228.845 111.996 222.799 124.145 222.799C136.295 222.799 145.813 228.845 145.813 236.564C145.813 244.284 136.295 250.33 124.145 250.33ZM124.145 225.98C114.125 225.98 105.658 230.827 105.658 236.564C105.658 242.302 114.125 247.149 124.145 247.149C134.166 247.149 142.632 242.302 142.632 236.564C142.632 230.827 134.166 225.98 124.145 225.98Z" fill="#371A45"/>
    <path d="M199.97 236.564C199.97 243.288 190.981 248.739 179.892 248.739C168.803 248.739 159.814 243.288 159.814 236.564C159.814 229.841 168.802 224.39 179.892 224.39C190.982 224.39 199.97 229.839 199.97 236.564Z" fill="#BFBFBF"/>
    <path d="M179.893 250.33C167.743 250.33 158.224 244.284 158.224 236.564C158.224 228.845 167.743 222.799 179.893 222.799C192.044 222.799 201.562 228.845 201.562 236.564C201.562 244.284 192.044 250.33 179.893 250.33ZM179.893 225.98C169.873 225.98 161.405 230.827 161.405 236.564C161.405 242.302 169.872 247.149 179.893 247.149C189.915 247.149 198.38 242.302 198.38 236.564C198.38 230.827 189.914 225.98 179.893 225.98Z" fill="#371A45"/>
    <path d="M127.783 230.934C127.783 232.291 126.165 233.391 124.169 233.391C122.173 233.391 120.554 232.291 120.554 230.934C120.554 229.577 122.172 228.477 124.169 228.477C126.167 228.477 127.783 229.577 127.783 230.934Z" fill="#371A45"/>
    <path d="M135.194 236.002C135.194 237.359 133.576 238.459 131.58 238.459C129.584 238.459 127.964 237.359 127.964 236.002C127.964 234.645 129.582 233.545 131.58 233.545C133.577 233.545 135.194 234.645 135.194 236.002Z" fill="#371A45"/>
    <path d="M127.761 241.07C127.761 242.427 126.143 243.527 124.145 243.527C122.148 243.527 120.53 242.427 120.53 241.07C120.53 239.713 122.148 238.613 124.145 238.613C126.143 238.613 127.761 239.713 127.761 241.07Z" fill="#371A45"/>
    <path d="M120.326 236.002C120.326 237.359 118.708 238.459 116.712 238.459C114.716 238.459 113.097 237.359 113.097 236.002C113.097 234.645 114.715 233.545 116.712 233.545C118.71 233.545 120.326 234.645 120.326 236.002Z" fill="#371A45"/>
    <path d="M190.945 236.001C190.945 237.358 189.325 238.458 187.328 238.458H183.509V241.069C183.509 242.426 181.89 243.524 179.892 243.524C177.895 243.524 176.275 242.425 176.275 241.069V238.458H172.457C170.458 238.458 168.839 237.358 168.839 236.001C168.839 234.644 170.458 233.544 172.457 233.544H176.275V230.933H176.299C176.299 229.576 177.919 228.476 179.916 228.476C181.913 228.476 183.533 229.576 183.533 230.933C183.533 231.026 183.524 231.115 183.509 231.209V233.544H187.328C189.325 233.544 190.945 234.644 190.945 236.001Z" fill="#371A45"/>
    <path d="M94.9676 230.934C96.8394 226.548 109.607 219.653 119.456 224.578C123.137 226.418 127.286 232.938 124.168 235.59C121.104 238.195 116.864 235.649 114.876 235.54C110.676 235.31 107.914 240.27 107.884 241.954C107.839 244.412 111.5 245.293 117.555 246.696C127.087 248.904 129.743 250.127 129.201 254.873C128.23 263.355 109.651 257.665 109.322 260.909C109.133 262.775 113.02 265.682 124.577 265.308C123.83 274.917 109.578 272.111 106.236 271.236C93.9746 268.022 89.8104 258.852 89.4476 250.346" fill="white"/>
    <path d="M129.201 254.873C128.23 263.353 109.647 257.663 109.319 260.909C109.133 262.776 113.02 265.682 124.576 265.31C123.828 274.914 109.579 272.108 106.232 271.235C93.9708 268.021 89.8079 258.851 89.4476 250.345L94.9688 230.934C96.8406 226.549 109.607 219.654 119.454 224.575C122.069 225.88 124.917 229.544 125.235 232.51C125.368 233.724 125.076 234.822 124.169 235.592C121.104 238.195 116.867 235.649 114.872 235.538C110.678 235.309 107.914 240.269 107.883 241.955C107.872 242.49 108.042 242.952 108.371 243.36C108.881 243.986 109.771 244.49 110.996 244.94C111.006 244.945 111.011 244.945 111.011 244.945C112.645 245.551 114.862 246.07 117.556 246.695C127.087 248.901 129.743 250.128 129.202 254.873" fill="white"/>
    <g opacity="0.2">
    <path d="M109.319 260.909C109.133 262.776 113.02 265.682 124.577 265.31C124.482 266.514 124.179 267.516 123.707 268.36C117.852 268.99 107.628 267.463 105.178 262.271C102.548 256.702 106.441 254.147 111.214 255.026C115.164 255.753 124.191 257.646 129.118 255.393C127.452 263.113 109.644 257.732 109.32 260.908" fill="#371A45"/>
    </g>
    <g opacity="0.2">
    <path d="M124.168 235.592C121.102 238.195 116.865 235.649 114.872 235.538C110.678 235.31 107.914 240.269 107.882 241.955C107.872 242.491 108.041 242.952 108.37 243.36C106.535 241.977 104.488 239.717 104.88 236.694C105.564 231.391 110.135 229.768 113.27 231.449C115.964 232.898 121.215 235.072 125.235 232.51C125.368 233.724 125.076 234.822 124.169 235.592" fill="#371A45"/>
    </g>
    <path d="M93.9922 230.517C94.1905 229.676 94.5646 228.956 94.9977 228.323C95.4233 227.68 95.9229 227.114 96.4364 226.582C97.4834 225.532 98.6622 224.671 99.9025 223.932C101.145 223.193 102.471 222.618 103.828 222.133C105.186 221.65 106.586 221.27 108.02 221.011C110.882 220.489 113.914 220.492 116.86 221.216C117.596 221.394 118.32 221.632 119.028 221.913C119.387 222.041 119.731 222.209 120.078 222.367C120.259 222.455 120.408 222.51 120.613 222.626C120.81 222.729 121.002 222.838 121.18 222.951C122.621 223.86 123.727 224.946 124.674 226.17C125.613 227.395 126.398 228.736 126.936 230.309C127.198 231.101 127.392 231.965 127.409 232.931C127.416 233.889 127.221 235.015 126.59 235.995C126.296 236.485 125.885 236.91 125.485 237.25C125.122 237.551 124.724 237.821 124.299 238.051C123.444 238.507 122.493 238.763 121.596 238.844C119.785 239 118.232 238.592 116.888 238.215C116.22 238.025 115.579 237.82 115.099 237.714C114.98 237.688 114.884 237.673 114.813 237.663C114.783 237.658 114.671 237.658 114.574 237.655C114.38 237.659 114.186 237.673 113.993 237.717C113.226 237.864 112.415 238.363 111.708 239.1C111.01 239.816 110.385 240.81 110.094 241.658C110.023 241.846 109.998 242.058 110.002 241.994C110.006 242.042 110.005 242.002 110 241.998C109.966 241.974 110.153 242.214 110.562 242.431C110.955 242.654 111.48 242.872 112.037 243.064C112.595 243.258 113.196 243.433 113.807 243.601C115.035 243.932 116.316 244.231 117.605 244.531C118.903 244.832 120.219 245.139 121.538 245.485C122.861 245.834 124.192 246.203 125.565 246.718C126.252 246.978 126.95 247.274 127.664 247.67C128.374 248.063 129.12 248.569 129.79 249.309C130.462 250.039 130.973 251.035 131.188 251.987C131.41 252.942 131.41 253.822 131.353 254.622C131.331 254.827 131.322 255.001 131.29 255.228C131.257 255.457 131.225 255.684 131.167 255.916C131.068 256.377 130.904 256.844 130.695 257.293C130.275 258.197 129.613 258.997 128.878 259.586C127.383 260.768 125.781 261.22 124.307 261.529C121.338 262.087 118.569 261.991 115.891 261.943C114.564 261.916 113.239 261.871 112.07 261.931C111.782 261.947 111.504 261.971 111.273 262.006C111.049 262.038 110.834 262.095 110.828 262.107C110.814 262.107 110.892 262.089 111.02 261.966C111.157 261.852 111.372 261.528 111.413 261.248C111.419 261.213 111.425 261.178 111.427 261.141L111.433 261.092C111.436 261.067 111.436 261.04 111.432 261.013C111.44 260.973 111.419 260.92 111.421 260.895C111.401 260.826 111.397 260.809 111.393 260.806C111.388 260.832 111.677 261.145 112.061 261.37C112.448 261.612 112.944 261.833 113.466 262.023C114.518 262.404 115.709 262.659 116.924 262.84C119.369 263.191 121.935 263.252 124.503 263.167C125.686 263.127 126.677 264.055 126.716 265.239C126.719 265.318 126.716 265.4 126.71 265.477C126.611 266.767 126.283 268.139 125.589 269.395C124.899 270.652 123.845 271.719 122.693 272.449C121.538 273.184 120.31 273.639 119.11 273.934C117.907 274.227 116.718 274.369 115.552 274.43C113.217 274.541 110.96 274.343 108.742 273.983C107.632 273.797 106.536 273.58 105.414 273.275C104.31 272.995 103.219 272.636 102.141 272.231C99.9942 271.388 97.9203 270.259 96.0573 268.808C95.1358 268.074 94.2608 267.271 93.4712 266.391C92.6866 265.506 91.9735 264.56 91.3458 263.565C90.7269 262.565 90.1959 261.517 89.7527 260.441C89.3334 259.355 88.9693 258.256 88.7383 257.132C88.2475 254.892 88.1194 252.61 88.3818 250.394C88.4509 249.805 88.9844 249.383 89.5744 249.452C90.0414 249.508 90.403 249.854 90.4984 250.288L90.5022 250.303C90.9441 252.331 91.4676 254.279 92.1794 256.117C92.5485 257.03 92.9251 257.929 93.3921 258.774C93.8352 259.63 94.3336 260.447 94.8898 261.217C95.9832 262.766 97.3014 264.134 98.8091 265.274C99.556 265.854 100.344 266.386 101.178 266.856C102.013 267.323 102.888 267.731 103.782 268.107C104.684 268.466 105.606 268.798 106.556 269.062C107.481 269.328 108.473 269.525 109.456 269.695C111.427 270.026 113.427 270.204 115.34 270.114C117.238 270.027 119.09 269.642 120.373 268.822C121.013 268.414 121.491 267.915 121.832 267.31C122.168 266.704 122.368 265.968 122.434 265.143L124.643 267.453C121.897 267.534 119.123 267.473 116.298 267.06C114.886 266.843 113.461 266.547 112.011 266.021C111.286 265.752 110.555 265.438 109.813 264.975C109.443 264.749 109.069 264.472 108.699 264.134C108.332 263.793 107.958 263.382 107.645 262.796C107.491 262.5 107.351 262.173 107.269 261.777C107.223 261.592 107.206 261.37 107.19 261.165C107.19 261.056 107.19 260.947 107.196 260.837C107.2 260.778 107.2 260.737 107.21 260.664L107.248 260.436C107.351 259.829 107.736 259.2 108.122 258.864C108.498 258.52 108.865 258.328 109.159 258.202C109.766 257.95 110.211 257.881 110.642 257.808C111.069 257.744 111.455 257.714 111.831 257.693C113.32 257.619 114.656 257.674 115.987 257.699C118.617 257.757 121.21 257.802 123.481 257.364C124.597 257.145 125.617 256.775 126.212 256.28C126.512 256.034 126.714 255.782 126.857 255.478C126.926 255.324 126.99 255.162 127.028 254.972C127.054 254.883 127.064 254.78 127.08 254.68C127.098 254.578 127.107 254.42 127.122 254.294C127.161 253.771 127.141 253.304 127.058 252.962C126.973 252.618 126.857 252.396 126.632 252.141C126.197 251.629 125.172 251.096 124.066 250.685C122.948 250.265 121.714 249.916 120.465 249.588C119.212 249.26 117.936 248.963 116.643 248.661C115.343 248.358 114.032 248.054 112.691 247.691C112.02 247.508 111.342 247.312 110.644 247.07C109.946 246.825 109.229 246.547 108.463 246.117C108.081 245.9 107.683 245.641 107.28 245.283C106.883 244.929 106.471 244.451 106.178 243.845C105.881 243.242 105.743 242.534 105.758 241.916C105.788 241.186 105.931 240.747 106.069 240.306C106.36 239.456 106.731 238.745 107.16 238.06C107.591 237.379 108.083 236.74 108.654 236.149C109.782 234.98 111.286 233.932 113.146 233.555C113.604 233.459 114.076 233.415 114.545 233.41C114.78 233.413 115.001 233.412 115.302 233.446C115.56 233.479 115.792 233.521 115.998 233.567C116.818 233.752 117.44 233.962 118.053 234.134C119.253 234.484 120.344 234.704 121.2 234.617C121.626 234.576 121.981 234.472 122.302 234.304C122.462 234.216 122.615 234.111 122.767 233.988C122.862 233.891 122.925 233.835 122.967 233.749C123.062 233.603 123.115 233.361 123.111 232.999C123.096 232.635 123.002 232.184 122.837 231.719C122.491 230.778 121.886 229.808 121.175 228.953C120.46 228.107 119.636 227.302 118.811 226.811C118.708 226.746 118.609 226.693 118.511 226.643C118.428 226.593 118.265 226.529 118.147 226.472C117.889 226.356 117.635 226.229 117.365 226.136C116.838 225.925 116.292 225.758 115.739 225.611C113.522 225.021 111.121 224.992 108.744 225.35C106.36 225.702 104.021 226.516 101.818 227.548C100.716 228.064 99.6339 228.629 98.6145 229.256C97.6077 229.878 96.6209 230.588 95.9405 231.35L95.8275 231.476C95.4346 231.917 94.7579 231.955 94.3173 231.561C94.016 231.291 93.903 230.886 93.9896 230.517" fill="#371A45"/>
    <path d="M217.187 223.329C210.964 223.516 197.097 226.547 197.097 226.547C197.097 226.547 192.243 256.538 200.658 262.115C206.409 265.927 229.27 267.334 239.821 258.912C248.095 252.305 250.754 236.375 238.942 217.362" fill="white"/>
    <g opacity="0.2">
    <path d="M201.777 262.733C208.926 266.052 229.858 266.865 239.817 258.914C245.624 254.279 248.669 245.051 245.884 233.39C246.361 245.449 239.738 263.459 212.766 250.582L201.777 262.732V262.733Z" fill="#371A45"/>
    </g>
    <path d="M217.219 224.39C215.606 224.657 213.967 225.032 212.334 225.389L207.427 226.545C205.788 226.931 204.154 227.341 202.508 227.698C200.867 228.062 199.204 228.382 197.549 228.62L199.19 226.887C198.452 231.813 197.98 236.9 197.851 241.896C197.792 244.399 197.827 246.898 198.028 249.349C198.23 251.794 198.595 254.222 199.314 256.386C199.671 257.463 200.139 258.457 200.707 259.234C200.99 259.621 201.298 259.946 201.621 260.195C201.918 260.432 202.375 260.663 202.847 260.884C203.831 261.312 204.969 261.65 206.127 261.921C207.289 262.197 208.495 262.394 209.705 262.557C214.565 263.182 219.589 263.146 224.449 262.464C226.879 262.115 229.276 261.598 231.553 260.831C232.695 260.456 233.802 260.011 234.859 259.495C235.927 258.996 236.918 258.391 237.847 257.732C241.524 255.153 243.724 250.77 244.463 246.138C245.23 241.474 244.644 236.558 243.286 231.883C241.925 227.189 239.748 222.701 237.139 218.479L237.134 218.47C236.519 217.474 236.827 216.167 237.825 215.55C238.82 214.935 240.128 215.243 240.743 216.24C243.515 220.725 245.862 225.54 247.359 230.694C248.847 235.83 249.544 241.342 248.65 246.823C248.419 248.188 248.098 249.545 247.662 250.877C247.218 252.207 246.656 253.506 245.972 254.75C244.614 257.228 242.692 259.521 240.33 261.17C239.173 261.994 237.964 262.721 236.712 263.309C235.467 263.918 234.192 264.427 232.9 264.852C230.32 265.72 227.689 266.283 225.049 266.662C219.765 267.399 214.449 267.44 209.148 266.762C207.821 266.582 206.495 266.366 205.163 266.051C203.83 265.735 202.497 265.354 201.131 264.762C200.445 264.442 199.744 264.103 199.028 263.552C198.335 263.017 197.764 262.393 197.291 261.749C196.348 260.453 195.747 259.085 195.293 257.737C194.401 255.031 194.025 252.348 193.799 249.696C193.582 247.041 193.547 244.409 193.609 241.792C193.67 239.176 193.835 236.573 194.067 233.982C194.305 231.381 194.598 228.83 195.001 226.205C195.136 225.324 195.802 224.655 196.624 224.475L196.642 224.471C198.305 223.993 199.97 223.639 201.658 223.35C203.344 223.053 205.046 222.849 206.754 222.655C208.46 222.465 210.176 222.318 211.906 222.24C213.635 222.149 215.371 222.112 217.152 222.264C217.74 222.315 218.175 222.83 218.125 223.419C218.082 223.915 217.707 224.304 217.236 224.382L217.215 224.386L217.219 224.39Z" fill="#371A45"/>
    <path d="M62.0977 258.457C61.4537 258.457 60.8473 258.064 60.6076 257.425C57.2958 248.599 58.3705 240.461 63.8013 233.24C73.3799 220.503 90.1908 221.997 93.4611 222.428C94.3324 222.542 94.9463 223.34 94.832 224.212C94.7178 225.083 93.9168 225.698 93.0481 225.582C91.2278 225.344 75.0408 223.588 66.3434 235.154C61.6094 241.449 60.6816 248.566 63.5866 256.308C63.8954 257.13 63.4786 258.048 62.6564 258.357C62.4718 258.426 62.2835 258.459 62.0977 258.459V258.457Z" fill="#371A45"/>
    <path d="M241.951 258.457C241.765 258.457 241.577 258.425 241.393 258.355C240.57 258.047 240.153 257.129 240.462 256.307C243.367 248.566 242.44 241.448 237.705 235.152C229.008 223.587 212.82 225.342 211.001 225.581C210.132 225.694 209.331 225.081 209.217 224.21C209.103 223.339 209.715 222.54 210.588 222.426C213.861 221.996 230.672 220.502 240.248 233.239C245.678 240.46 246.753 248.597 243.441 257.424C243.202 258.062 242.595 258.456 241.951 258.456V258.457Z" fill="#371A45"/>
    <path d="M174.843 254.873C175.813 263.353 194.396 257.663 194.725 260.909C194.91 262.776 191.024 265.682 179.468 265.31C180.216 274.914 194.466 272.108 197.812 271.235C210.073 268.021 214.236 258.851 214.596 250.345L209.075 230.934C207.203 226.549 194.437 219.654 184.59 224.575C181.975 225.88 179.128 229.544 178.809 232.51C178.676 233.724 178.968 234.822 179.875 235.592C182.94 238.195 187.177 235.649 189.172 235.538C193.368 235.309 196.129 240.269 196.161 241.955C196.172 242.49 196.001 242.952 195.672 243.36C195.163 243.986 194.273 244.49 193.047 244.94C193.037 244.945 193.031 244.945 193.031 244.945C191.398 245.551 189.181 246.07 186.487 246.695C176.956 248.901 174.299 250.128 174.841 254.873" fill="white"/>
    <g opacity="0.2">
    <path d="M194.725 260.909C194.91 262.776 191.024 265.682 179.467 265.31C179.562 266.514 179.865 267.516 180.337 268.36C186.192 268.99 196.416 267.463 198.866 262.271C201.496 256.702 197.605 254.147 192.832 255.026C188.88 255.753 179.853 257.646 174.927 255.393C176.593 263.113 194.401 257.732 194.725 260.908" fill="#371A45"/>
    </g>
    <g opacity="0.2">
    <path d="M179.876 235.592C182.942 238.195 187.179 235.649 189.172 235.538C193.366 235.31 196.129 240.269 196.162 241.955C196.172 242.491 196.003 242.952 195.674 243.36C197.509 241.977 199.555 239.717 199.164 236.694C198.48 231.391 193.909 229.768 190.774 231.449C188.08 232.898 182.829 235.072 178.809 232.51C178.676 233.724 178.968 234.822 179.875 235.592" fill="#371A45"/>
    </g>
    <path d="M208.101 231.35C207.419 230.588 206.434 229.88 205.427 229.256C204.407 228.628 203.327 228.063 202.223 227.548C200.019 226.516 197.68 225.702 195.296 225.35C192.919 224.994 190.518 225.021 188.301 225.611C187.747 225.758 187.202 225.925 186.675 226.136C186.405 226.229 186.152 226.356 185.893 226.472C185.774 226.529 185.612 226.593 185.529 226.643C185.431 226.693 185.332 226.746 185.23 226.811C184.405 227.304 183.582 228.107 182.866 228.953C182.156 229.809 181.551 230.78 181.204 231.719C181.038 232.185 180.944 232.635 180.929 232.999C180.925 233.361 180.977 233.604 181.074 233.749C181.114 233.835 181.177 233.892 181.273 233.989C181.424 234.112 181.577 234.214 181.738 234.302C182.059 234.471 182.413 234.575 182.84 234.616C183.695 234.702 184.786 234.483 185.987 234.133C186.599 233.962 187.222 233.751 188.042 233.565C188.248 233.52 188.48 233.478 188.738 233.445C189.039 233.411 189.261 233.412 189.495 233.409C189.964 233.412 190.436 233.457 190.894 233.554C192.754 233.931 194.258 234.979 195.386 236.148C195.959 236.739 196.45 237.378 196.881 238.057C197.31 238.744 197.681 239.454 197.972 240.304C198.11 240.745 198.252 241.184 198.284 241.915C198.299 242.533 198.161 243.241 197.863 243.842C197.571 244.45 197.159 244.927 196.761 245.281C196.359 245.64 195.961 245.897 195.58 246.114C194.814 246.545 194.097 246.822 193.399 247.067C192.701 247.309 192.023 247.505 191.351 247.689C190.011 248.051 188.7 248.355 187.399 248.659C186.106 248.959 184.831 249.257 183.578 249.585C182.329 249.913 181.095 250.262 179.976 250.683C178.87 251.093 177.846 251.625 177.41 252.139C177.186 252.394 177.07 252.616 176.985 252.96C176.902 253.301 176.882 253.767 176.921 254.292C176.935 254.419 176.945 254.576 176.961 254.677C176.978 254.778 176.989 254.881 177.014 254.971C177.051 255.161 177.114 255.324 177.184 255.477C177.327 255.781 177.53 256.034 177.83 256.279C178.425 256.773 179.444 257.144 180.559 257.363C182.83 257.801 185.423 257.756 188.054 257.698C189.385 257.673 190.72 257.617 192.21 257.692C192.585 257.713 192.972 257.743 193.398 257.807C193.83 257.879 194.274 257.948 194.882 258.201C195.175 258.327 195.542 258.519 195.919 258.863C196.304 259.199 196.691 259.828 196.794 260.435L196.831 260.663C196.84 260.736 196.84 260.777 196.845 260.836C196.85 260.946 196.851 261.055 196.851 261.164C196.836 261.369 196.82 261.591 196.772 261.775C196.692 262.172 196.551 262.497 196.398 262.795C196.084 263.38 195.71 263.791 195.344 264.133C194.974 264.471 194.599 264.748 194.23 264.974C193.488 265.437 192.757 265.752 192.032 266.02C190.582 266.546 189.157 266.842 187.745 267.059C184.921 267.471 182.147 267.533 179.401 267.452L181.61 265.142C181.677 265.966 181.876 266.703 182.212 267.309C182.552 267.913 183.031 268.411 183.671 268.819C184.954 269.64 186.806 270.026 188.704 270.112C190.616 270.201 192.616 270.023 194.588 269.694C195.571 269.524 196.563 269.326 197.487 269.06C198.437 268.795 199.36 268.465 200.262 268.106C201.156 267.728 202.03 267.322 202.866 266.853C203.699 266.384 204.489 265.852 205.235 265.272C206.743 264.132 208.061 262.763 209.154 261.214C209.709 260.445 210.21 259.627 210.652 258.771C211.118 257.925 211.494 257.027 211.865 256.115C212.576 254.277 213.1 252.328 213.542 250.301L213.544 250.288C213.671 249.708 214.243 249.342 214.822 249.467C215.282 249.568 215.607 249.95 215.66 250.391C215.921 252.607 215.794 254.891 215.303 257.129C215.072 258.254 214.708 259.352 214.289 260.438C213.847 261.513 213.314 262.561 212.697 263.562C212.068 264.556 211.356 265.503 210.571 266.388C209.782 267.269 208.907 268.071 207.985 268.806C206.124 270.257 204.05 271.385 201.903 272.229C200.823 272.632 199.732 272.992 198.63 273.272C197.509 273.576 196.412 273.794 195.302 273.98C193.084 274.341 190.827 274.539 188.492 274.427C187.324 274.367 186.137 274.225 184.934 273.931C183.734 273.635 182.506 273.182 181.351 272.445C180.199 271.716 179.145 270.65 178.455 269.392C177.759 268.135 177.433 266.763 177.334 265.474C177.241 264.294 178.123 263.262 179.303 263.169C179.383 263.163 179.464 263.161 179.542 263.164C182.111 263.248 184.677 263.189 187.121 262.837C188.336 262.657 189.527 262.402 190.579 262.02C191.102 261.832 191.597 261.611 191.984 261.367C192.368 261.141 192.657 260.83 192.652 260.804C192.65 260.806 192.644 260.824 192.626 260.893C192.626 260.918 192.606 260.972 192.614 261.011C192.611 261.037 192.611 261.063 192.613 261.09L192.619 261.139C192.622 261.174 192.626 261.21 192.633 261.246C192.675 261.525 192.891 261.851 193.026 261.964C193.154 262.087 193.232 262.105 193.218 262.104C193.213 262.094 192.997 262.035 192.774 262.005C192.543 261.97 192.264 261.946 191.977 261.93C190.808 261.869 189.482 261.913 188.155 261.942C185.479 261.989 182.708 262.085 179.739 261.528C178.265 261.219 176.665 260.767 175.168 259.585C174.434 258.997 173.771 258.196 173.352 257.292C173.142 256.843 172.98 256.376 172.881 255.915C172.823 255.683 172.79 255.456 172.758 255.227C172.725 254.999 172.716 254.824 172.695 254.621C172.639 253.821 172.637 252.941 172.861 251.986C173.074 251.034 173.585 250.037 174.259 249.308C174.928 248.569 175.675 248.061 176.385 247.67C177.099 247.273 177.798 246.978 178.484 246.718C179.856 246.203 181.188 245.833 182.51 245.484C183.83 245.139 185.146 244.833 186.443 244.531C187.732 244.23 189.014 243.932 190.24 243.601C190.852 243.433 191.453 243.26 192.011 243.064C192.568 242.872 193.091 242.654 193.486 242.431C193.895 242.213 194.082 241.974 194.048 241.997C194.042 242 194.042 242.041 194.044 241.993C194.048 242.057 194.023 241.846 193.953 241.656C193.663 240.809 193.036 239.814 192.338 239.098C191.631 238.362 190.82 237.861 190.053 237.716C189.861 237.673 189.667 237.658 189.472 237.654C189.375 237.657 189.262 237.657 189.234 237.661C189.161 237.671 189.067 237.686 188.947 237.712C188.469 237.817 187.826 238.022 187.158 238.212C185.815 238.588 184.261 238.998 182.451 238.841C181.553 238.759 180.603 238.504 179.747 238.047C179.321 237.817 178.923 237.546 178.56 237.246C178.16 236.905 177.748 236.482 177.456 235.991C176.825 235.012 176.629 233.886 176.636 232.928C176.653 231.961 176.848 231.097 177.109 230.305C177.648 228.732 178.433 227.393 179.371 226.166C180.318 224.942 181.423 223.856 182.865 222.947C183.043 222.834 183.235 222.726 183.432 222.622C183.637 222.507 183.788 222.451 183.967 222.364C184.315 222.205 184.658 222.037 185.017 221.909C185.725 221.629 186.449 221.391 187.185 221.212C190.13 220.487 193.163 220.484 196.025 221.008C197.459 221.266 198.859 221.647 200.217 222.129C201.574 222.613 202.899 223.188 204.141 223.927C205.382 224.665 206.562 225.527 207.607 226.577C208.123 227.109 208.622 227.675 209.047 228.318C209.481 228.951 209.855 229.671 210.053 230.512C210.189 231.087 209.832 231.664 209.257 231.799C208.863 231.892 208.467 231.754 208.215 231.471L208.102 231.345L208.101 231.35Z" fill="#371A45"/>
    <path d="M166.771 303.978C168.795 313.013 162.435 322.38 151.999 322.38C141.563 322.38 135.203 313.012 137.227 303.978C138.816 296.887 145.301 292.167 151.999 292.167C158.696 292.167 165.182 296.886 166.771 303.978Z" fill="#2788E0"/>
    <path d="M162.633 303.398C164.089 309.902 159.511 316.646 151.999 316.646C144.486 316.646 139.907 309.902 141.364 303.398C142.508 298.293 147.177 294.896 151.999 294.896C156.821 294.896 161.489 298.293 162.633 303.398Z" fill="#FFED48"/>
    <path d="M152 316.646C144.651 316.646 140.106 310.188 141.281 303.816C142.167 308.625 146.211 312.63 152 312.63C157.789 312.63 161.832 308.625 162.717 303.816C163.894 310.188 159.348 316.646 152 316.646Z" fill="#FFCB4A"/>
    <g opacity="0.35">
    <path d="M162.804 307.274C162.762 306.957 162.706 306.642 162.634 306.324C161.489 301.217 156.819 297.821 151.999 297.821C147.178 297.821 142.508 301.216 141.363 306.324C141.292 306.642 141.235 306.957 141.194 307.274C141.024 306.012 141.073 304.7 141.363 303.398C142.508 298.293 147.178 294.895 151.999 294.895C156.819 294.895 161.488 298.293 162.634 303.398C162.924 304.7 162.973 306.012 162.804 307.274Z" fill="white"/>
    </g>
    <path d="M151.999 318.768C147.902 318.768 144.289 317.073 141.825 313.996C139.338 310.89 138.415 306.858 139.294 302.935C140.614 297.048 145.956 292.775 151.999 292.775C158.041 292.775 163.384 297.047 164.703 302.933C165.582 306.858 164.659 310.889 162.172 313.996C159.708 317.073 156.095 318.768 151.999 318.768ZM151.999 297.018C147.99 297.018 144.309 299.961 143.434 303.862C142.847 306.482 143.483 309.279 145.135 311.343C146.779 313.394 149.215 314.524 151.997 314.524C154.779 314.524 157.217 313.394 158.859 311.343C160.511 309.279 161.148 306.482 160.56 303.862C159.687 299.961 156.005 297.018 151.996 297.018H151.999Z" fill="#371A45"/>
    <path d="M258.652 267.682C265.579 269.191 271.152 274.949 269.164 280.123C267.177 285.296 259.183 285.845 253.026 282.328C248.194 279.569 246.011 275.041 247.287 271.72C248.562 268.4 253.215 266.497 258.652 267.682Z" fill="#FFED48"/>
    <g opacity="0.35">
    <path d="M269.059 275.394C267.099 272.809 263.708 270.705 259.913 269.88C254.477 268.694 249.824 270.601 248.548 273.919C247.997 275.352 248.093 277.011 248.767 278.654C247.047 276.359 246.487 273.803 247.285 271.721C248.563 268.401 253.215 266.497 258.65 267.682C263.479 268.733 267.65 271.849 269.059 275.394Z" fill="white"/>
    </g>
    <path d="M269.166 280.122C267.178 285.298 259.183 285.845 253.026 282.327C250.238 280.734 248.33 278.549 247.462 276.35C248.316 277.199 249.345 277.984 250.533 278.663C256.69 282.18 264.684 281.633 266.671 276.457C267.256 274.937 267.187 273.366 266.62 271.869C269.065 274.261 270.255 277.279 269.164 280.122" fill="#FFCB4A"/>
    <path d="M261.164 286.693C258.131 286.693 254.877 285.828 251.974 284.17C246.395 280.984 243.591 275.429 245.306 270.961C247.023 266.493 252.824 264.239 259.102 265.609C264.101 266.698 268.471 269.717 270.506 273.489C271.834 275.951 272.055 278.508 271.144 280.883C270.231 283.259 268.356 285.011 265.721 285.95C264.321 286.45 262.772 286.693 261.162 286.693H261.164ZM255.416 269.442C252.163 269.442 249.902 270.829 249.266 272.481C248.464 274.571 249.878 278.088 254.078 280.485C257.425 282.397 261.436 282.974 264.297 281.953C265.752 281.435 266.724 280.563 267.185 279.362C267.645 278.16 267.507 276.862 266.774 275.504C265.332 272.831 261.966 270.574 258.2 269.753C257.21 269.538 256.279 269.441 255.416 269.441V269.442Z" fill="#371A45"/>
    <path d="M75.2793 294.85C71.1127 302.308 74.2938 310.86 83.5448 311.869C92.7958 312.877 100.896 305.556 101.472 297.706C101.925 291.546 97.4131 286.92 91.4751 286.273C85.5371 285.625 78.5483 288.996 75.278 294.851" fill="#2788E0"/>
    <path d="M228.767 294.85C232.932 302.308 229.753 310.86 220.502 311.869C211.251 312.877 203.151 305.556 202.573 297.706C202.12 291.546 206.632 286.92 212.57 286.273C218.507 285.625 225.497 288.996 228.767 294.851" fill="#2788E0"/>
    <path d="M75.725 293.383C72.3216 299.477 74.919 306.463 82.4777 307.287C90.0364 308.11 96.6523 302.13 97.1244 295.716C97.4935 290.683 93.8089 286.904 88.9568 286.376C84.106 285.846 78.3965 288.6 75.725 293.383Z" fill="#FFED48"/>
    <path d="M82.4777 307.287C89.872 308.094 96.3686 302.383 97.0842 296.126C94.7605 300.653 89.4991 304.061 83.6754 303.425C77.8504 302.79 74.9755 298.497 75.5166 293.775C72.4359 299.773 75.0847 306.481 82.4777 307.287Z" fill="#FFCB4A"/>
    <g opacity="0.35">
    <path d="M74.398 297.092C74.5348 296.791 74.6855 296.494 74.8525 296.197C77.5264 291.411 83.236 288.661 88.0868 289.189C92.9364 289.718 96.6222 293.494 96.2544 298.529C96.2318 298.843 96.1954 299.152 96.1414 299.462C96.6887 298.266 97.0302 296.999 97.1256 295.716C97.4934 290.683 93.8076 286.903 88.958 286.375C84.1085 285.846 78.3977 288.6 75.725 293.382C75.0458 294.601 74.6052 295.858 74.3993 297.091" fill="white"/>
    </g>
    <path d="M83.8988 309.486C83.3502 309.486 82.7991 309.456 82.2467 309.396C78.1454 308.949 74.968 306.92 73.2983 303.686C71.5671 300.331 71.7805 296.093 73.872 292.349C76.8485 287.021 83.2849 283.619 89.1865 284.267C95.353 284.938 99.6741 289.927 99.2384 295.87C98.9673 299.565 97.0063 303.187 93.8616 305.807C90.978 308.208 87.4917 309.485 83.8988 309.485V309.486ZM77.5754 294.419C76.1807 296.917 75.9911 299.654 77.0682 301.742C78.0638 303.67 80.0661 304.892 82.7062 305.179C85.7204 305.507 88.7145 304.573 91.1462 302.548C93.4122 300.661 94.8195 298.115 95.0078 295.562C95.2777 291.888 92.6363 288.912 88.727 288.486C84.5177 288.03 79.7234 290.578 77.5767 294.419H77.5754Z" fill="#371A45"/>
    <path d="M44.9528 267.682C38.0256 269.191 32.4529 274.949 34.4402 280.123C36.4262 285.296 44.4218 285.845 50.5782 282.328C55.4115 279.569 57.5934 275.041 56.3179 271.72C55.0424 268.4 50.3912 266.497 44.9541 267.682" fill="#FFED48"/>
    <g opacity="0.35">
    <path d="M34.5444 275.394C36.5041 272.809 39.8949 270.705 43.6899 269.88C49.1258 268.694 53.7795 270.601 55.055 273.919C55.6061 275.352 55.5107 277.011 54.8365 278.654C56.5564 276.359 57.1163 273.803 56.3179 271.721C55.0399 268.401 50.3887 266.497 44.9528 267.682C40.1234 268.733 35.953 271.849 34.5444 275.394Z" fill="white"/>
    </g>
    <path d="M34.439 280.122C36.4262 285.298 44.4218 285.845 50.5783 282.327C53.3665 280.734 55.2747 278.549 56.1421 276.35C55.2872 277.199 54.2591 277.984 53.0715 278.663C46.915 282.18 38.9194 281.633 36.9322 276.457C36.3484 274.937 36.4162 273.366 36.9836 271.869C34.5381 274.261 33.348 277.279 34.439 280.122Z" fill="#FFCB4A"/>
    <path d="M42.4395 286.693C40.8289 286.693 39.2797 286.45 37.88 285.95C35.2449 285.01 33.3706 283.257 32.4592 280.883C31.5465 278.51 31.7675 275.952 33.0957 273.49C35.1307 269.718 39.5019 266.699 44.5009 265.609C50.7791 264.242 56.5803 266.493 58.2964 270.96C60.0125 275.429 57.208 280.984 51.6277 284.17C48.7253 285.827 45.4726 286.693 42.4395 286.693ZM45.4035 269.754C41.6374 270.575 38.2704 272.833 36.8292 275.505C36.0961 276.865 35.958 278.162 36.4187 279.363C36.8807 280.565 37.8511 281.436 39.3048 281.954C42.1659 282.976 46.1768 282.399 49.5237 280.487C53.7242 278.088 55.1378 274.573 54.3356 272.481C53.5322 270.391 50.1301 268.728 45.4035 269.754Z" fill="#371A45"/>
    <path d="M227.88 293.383C231.283 299.477 228.685 306.463 221.127 307.287C213.568 308.11 206.952 302.13 206.48 295.716C206.11 290.683 209.796 286.904 214.646 286.376C219.497 285.846 225.207 288.6 227.878 293.383" fill="#FFED48"/>
    <path d="M221.127 307.287C213.733 308.094 207.236 302.383 206.52 296.126C208.844 300.653 214.107 304.061 219.93 303.425C225.755 302.79 228.63 298.497 228.088 293.775C231.169 299.773 228.52 306.481 221.127 307.287Z" fill="#FFCB4A"/>
    <g opacity="0.35">
    <path d="M229.205 297.092C229.068 296.791 228.918 296.494 228.752 296.197C226.078 291.411 220.368 288.661 215.518 289.189C210.668 289.718 206.981 293.494 207.35 298.529C207.373 298.843 207.409 299.152 207.463 299.462C206.916 298.266 206.574 296.999 206.479 295.716C206.111 290.683 209.797 286.903 214.646 286.375C219.496 285.846 225.207 288.6 227.88 293.382C228.559 294.601 228.999 295.858 229.205 297.091" fill="white"/>
    </g>
    <path d="M219.704 309.486C216.112 309.486 212.625 308.208 209.742 305.807C206.597 303.188 204.637 299.566 204.365 295.872C203.927 289.927 208.249 284.94 214.417 284.267C220.318 283.619 226.756 287.021 229.731 292.348C231.823 296.091 232.036 300.33 230.306 303.685C228.637 306.92 225.459 308.948 221.358 309.395C220.807 309.455 220.254 309.485 219.706 309.485L219.704 309.486ZM215.873 288.432C215.538 288.432 215.206 288.45 214.877 288.485C210.967 288.911 208.326 291.886 208.597 295.56C208.784 298.114 210.192 300.66 212.457 302.545C214.89 304.572 217.893 305.504 220.897 305.178C223.537 304.89 225.539 303.669 226.535 301.739C227.612 299.652 227.423 296.915 226.028 294.417C224.049 290.875 219.821 288.43 215.873 288.43V288.432Z" fill="#371A45"/>
    </g>
    <defs>
    <clipPath id="clip0_0_2959">
    <rect width="302.203" height="400" fill="white" transform="translate(0.898682 0.045166)"/>
    </clipPath>
    </defs>
    </svg>
    