<svg width="168" height="40" viewBox="0 0 168 40" fill="none" xmlns="http://www.w3.org/2000/svg">
<path d="M155.16 21.2373L149.667 15.0312H155.768L158.197 17.8306L160.627 15.0312H166.833L161.234 21.2373L167.995 28.5789H161.683L158.197 24.5648L154.711 28.5789H148.4L155.16 21.2373Z" fill="white"/>
<path d="M132.893 15.0312H137.699V22.2672C137.699 23.1475 137.849 23.8606 138.148 24.4063C138.465 24.9521 139.117 25.225 140.103 25.225C141.089 25.225 141.731 24.9521 142.03 24.4063C142.347 23.8606 142.506 23.1563 142.506 22.2937V15.0312H147.312V23.1915C147.312 25.4451 146.617 26.9856 145.226 27.8131C143.853 28.6229 142.145 29.0279 140.103 29.0279C138.078 29.0279 136.37 28.6229 134.979 27.8131C133.588 26.9856 132.893 25.4539 132.893 23.218V15.0312Z" fill="white"/>
<path d="M114.812 28.5794V6.66016H119.619V16.3522C120.094 15.824 120.666 15.4191 121.335 15.1374C122.022 14.8381 122.718 14.662 123.422 14.6092C123.492 14.6092 123.554 14.6092 123.607 14.6092C123.677 14.6092 123.747 14.6092 123.818 14.6092C125.825 14.6092 127.453 15.331 128.703 16.7747C129.971 18.2008 130.605 19.8821 130.605 21.8188C130.605 23.773 129.971 25.4632 128.703 26.8892C127.436 28.3153 125.79 29.0284 123.765 29.0284C123.712 29.0284 123.659 29.0284 123.607 29.0284C123.554 29.0284 123.501 29.0284 123.448 29.0284C122.709 28.9931 121.996 28.8259 121.309 28.5266C120.622 28.2097 120.077 27.7343 119.672 27.1005L119.619 27.0741V28.5794H114.812ZM122.55 18.7554C121.582 18.773 120.825 19.0899 120.279 19.7061C119.733 20.3047 119.46 21.0177 119.46 21.8452C119.46 22.7079 119.733 23.4297 120.279 24.0107C120.825 24.5917 121.582 24.8822 122.55 24.8822C123.536 24.8822 124.293 24.5917 124.821 24.0107C125.367 23.4297 125.64 22.7079 125.64 21.8452C125.64 21.0177 125.367 20.3047 124.821 19.7061C124.293 19.0899 123.536 18.7818 122.55 18.7818V18.7554Z" fill="white"/>
<path d="M102.261 26.7303L95.7112 15.0312H101.257L104.875 21.9767L108.414 15.0312H113.88L103.026 35.3396H97.639L102.261 26.7303Z" fill="white"/>
<path d="M94.5292 6.66016V28.5794H89.7228V6.66016H94.5292Z" fill="white"/>
<path d="M86.5601 15.032V28.5796H81.7538V15.032H86.5601ZM84.157 7.13574C84.8964 7.15335 85.5302 7.42624 86.0584 7.95441C86.5866 8.48259 86.8506 9.1164 86.8506 9.85584C86.8506 10.5953 86.5866 11.2291 86.0584 11.7573C85.5302 12.2854 84.8964 12.5495 84.157 12.5495C83.4175 12.5495 82.7837 12.2854 82.2555 11.7573C81.7273 11.2291 81.4633 10.5953 81.4633 9.85584C81.4633 9.1164 81.7273 8.48259 82.2555 7.95441C82.7837 7.42624 83.4175 7.16215 84.157 7.16215V7.13574Z" fill="white"/>
<path d="M78.5678 15.0319V28.5796H73.7614V27.0743H73.7086C73.3213 27.7081 72.7931 28.1835 72.1241 28.5004C71.4551 28.7997 70.7596 28.9669 70.0378 29.0021C69.9674 29.0197 69.8969 29.0285 69.8265 29.0285C69.7561 29.0285 69.6857 29.0285 69.6152 29.0285C67.6082 29.0285 65.962 28.3155 64.6768 26.8894C63.4092 25.4458 62.7754 23.7556 62.7754 21.819C62.7754 19.8823 63.4004 18.201 64.6504 16.7749C65.918 15.3312 67.5554 14.6094 69.5624 14.6094C69.6505 14.6094 69.7385 14.6094 69.8265 14.6094C69.9145 14.6094 70.0026 14.6182 70.0906 14.6358C70.7772 14.6886 71.4463 14.8647 72.0977 15.164C72.7667 15.4457 73.3213 15.8506 73.7614 16.3788V15.0319H78.5678ZM70.8301 18.7555C69.8617 18.7732 69.1047 19.0901 68.5589 19.7063C68.0131 20.3049 67.7402 21.0179 67.7402 21.8454C67.7402 22.7081 68.0131 23.4299 68.5589 24.0109C69.1047 24.5919 69.8617 24.8824 70.8301 24.8824C71.816 24.8824 72.573 24.5919 73.1012 24.0109C73.647 23.4299 73.9199 22.7081 73.9199 21.8454C73.9199 21.0179 73.647 20.3049 73.1012 19.7063C72.573 19.0901 71.816 18.782 70.8301 18.782V18.7555Z" fill="white"/>
<path d="M44 28.5792V8.66699H51.3416C54.1233 8.6846 56.5001 9.65292 58.472 11.572C60.4614 13.491 61.4562 15.8502 61.4562 18.6495C61.4562 21.4488 60.4614 23.808 58.472 25.727C56.4825 27.6285 54.1057 28.5792 51.3416 28.5792H44ZM49.1761 13.0508V24.1953H50.3381C51.8874 24.2129 53.2254 23.7816 54.3522 22.9013C55.4966 22.0034 56.0688 20.5861 56.0688 18.6495C56.0688 16.8713 55.5406 15.498 54.4843 14.5297C53.4279 13.5614 52.0635 13.0772 50.3909 13.0772L49.1761 13.0508Z" fill="white"/>
<path d="M21.1385 29.3097C21.2038 29.0018 21.2831 28.6961 21.3767 28.3932L21.3767 28.3864L21.436 28.2057C21.9392 26.6731 22.8003 25.2324 24.0164 24.0164C25.234 22.7987 26.7437 21.8959 28.3231 21.3979L28.3237 21.3977C28.6094 21.3078 28.898 21.2301 29.1894 21.1646C30.3919 20.7784 31.5234 20.1076 32.4805 19.1504C35.6949 15.936 35.6953 10.7245 32.4805 7.50972C29.2657 4.29494 24.0542 4.29531 20.8398 7.50972C19.8641 8.48547 19.1858 9.64269 18.8031 10.8713C18.7481 11.1069 18.6851 11.3436 18.6124 11.5798C18.1201 13.1874 17.2374 14.7006 15.969 15.969C14.6289 17.3091 13.0169 18.2174 11.3096 18.6913C11.2476 18.709 11.1851 18.7253 11.1385 18.7374C11.1335 18.7387 11.1287 18.74 11.124 18.7412C9.805 19.1081 8.55939 19.8097 7.5195 20.8496C4.30513 24.0639 4.30513 29.2759 7.5195 32.4903C10.7339 35.7047 15.9458 35.7047 19.1602 32.4903C20.0882 31.5623 20.7463 30.4709 21.1385 29.3097ZM21.4512 28.1624C21.4522 28.1599 21.4506 28.1641 21.4477 28.172L21.4501 28.1654L21.4512 28.1624Z" stroke="white" stroke-width="2.38912"/>
<circle cx="5.44142" cy="5.44142" r="5.44142" transform="matrix(2.18557e-08 -1 -1 -2.18557e-08 32.2092 18.6426)" fill="#FADC00"/>
<circle cx="5.44142" cy="5.44142" r="5.44142" transform="matrix(2.18557e-08 -1 -1 -2.18557e-08 18.8 32.2158)" fill="white"/>
</svg>
