<svg width="190" height="244" viewBox="0 0 190 244" fill="none" xmlns="http://www.w3.org/2000/svg">
    <g filter="url(#filter0_d_0_3499)">
    <g filter="url(#filter1_b_0_3499)">
    <path d="M4 21.3486C4 12.0288 11.5552 4.47363 20.875 4.47363H162.625C171.945 4.47363 179.5 12.0288 179.5 21.3486V98.9736H4V21.3486Z" fill="#D9D9D9" fill-opacity="0.1"/>
    </g>
    <g filter="url(#filter2_b_0_3499)">
    <path d="M179.5 178.286C179.5 187.606 171.945 195.161 162.625 195.161H20.875C11.5552 195.161 4 187.606 4 178.286V100.661H179.5V178.286Z" fill="#D9D9D9" fill-opacity="0.1"/>
    </g>
    </g>
    <path d="M30.3551 120.316V106.516L61.9551 61.3159H81.0551V105.516H89.2551V120.316H81.0551V133.316H63.9551V120.316H30.3551ZM65.1551 80.1159L48.3551 105.516H65.1551V80.1159ZM149.031 75.2159H117.831V89.0159C119.164 87.5492 121.031 86.3492 123.431 85.4159C125.831 84.4826 128.431 84.0159 131.231 84.0159C136.231 84.0159 140.364 85.1492 143.631 87.4159C146.964 89.6826 149.398 92.6159 150.931 96.2159C152.464 99.8159 153.231 103.716 153.231 107.916C153.231 115.716 151.031 121.916 146.631 126.516C142.231 131.049 136.031 133.316 128.031 133.316C122.698 133.316 118.064 132.416 114.131 130.616C110.198 128.749 107.164 126.183 105.031 122.916C102.898 119.649 101.731 115.883 101.531 111.616H118.231C118.631 113.683 119.598 115.416 121.131 116.816C122.664 118.149 124.764 118.816 127.431 118.816C130.564 118.816 132.898 117.816 134.431 115.816C135.964 113.816 136.731 111.149 136.731 107.816C136.731 104.549 135.931 102.049 134.331 100.316C132.731 98.5826 130.398 97.7159 127.331 97.7159C125.064 97.7159 123.198 98.2826 121.731 99.4159C120.264 100.483 119.298 101.916 118.831 103.716H102.331V60.2159H149.031V75.2159Z" fill="white"/>
    <path d="M63.7661 215.888V236.648H61.0361V221.168L54.1361 236.648H52.2161L45.2861 221.138V236.648H42.5561V215.888H45.4961L53.1761 233.048L60.8561 215.888H63.7661ZM69.8059 217.538C69.2859 217.538 68.8459 217.358 68.4859 216.998C68.1259 216.638 67.9459 216.198 67.9459 215.678C67.9459 215.158 68.1259 214.718 68.4859 214.358C68.8459 213.998 69.2859 213.818 69.8059 213.818C70.3059 213.818 70.7259 213.998 71.0659 214.358C71.4259 214.718 71.6059 215.158 71.6059 215.678C71.6059 216.198 71.4259 216.638 71.0659 216.998C70.7259 217.358 70.3059 217.538 69.8059 217.538ZM71.1259 220.208V236.648H68.3959V220.208H71.1259ZM83.7888 219.908C85.7888 219.908 87.4088 220.518 88.6488 221.738C89.8888 222.938 90.5088 224.678 90.5088 226.958V236.648H87.8088V227.348C87.8088 225.708 87.3988 224.458 86.5788 223.598C85.7588 222.718 84.6388 222.278 83.2188 222.278C81.7788 222.278 80.6288 222.728 79.7688 223.628C78.9288 224.528 78.5088 225.838 78.5088 227.558V236.648H75.7788V220.208H78.5088V222.548C79.0488 221.708 79.7788 221.058 80.6988 220.598C81.6388 220.138 82.6688 219.908 83.7888 219.908ZM109.548 220.208V236.648H106.818V234.218C106.298 235.058 105.568 235.718 104.628 236.198C103.708 236.658 102.688 236.888 101.568 236.888C100.288 236.888 99.1382 236.628 98.1182 236.108C97.0982 235.568 96.2882 234.768 95.6882 233.708C95.1082 232.648 94.8182 231.358 94.8182 229.838V220.208H97.5182V229.478C97.5182 231.098 97.9282 232.348 98.7482 233.228C99.5682 234.088 100.688 234.518 102.108 234.518C103.568 234.518 104.718 234.068 105.558 233.168C106.398 232.268 106.818 230.958 106.818 229.238V220.208H109.548ZM117.488 222.458V232.148C117.488 232.948 117.658 233.518 117.998 233.858C118.338 234.178 118.928 234.338 119.768 234.338H121.778V236.648H119.318C117.798 236.648 116.658 236.298 115.898 235.598C115.138 234.898 114.758 233.748 114.758 232.148V222.458H112.628V220.208H114.758V216.068H117.488V220.208H121.778V222.458H117.488ZM140.085 227.798C140.085 228.318 140.055 228.868 139.995 229.448H126.855C126.955 231.068 127.505 232.338 128.505 233.258C129.525 234.158 130.755 234.608 132.195 234.608C133.375 234.608 134.355 234.338 135.135 233.798C135.935 233.238 136.495 232.498 136.815 231.578H139.755C139.315 233.158 138.435 234.448 137.115 235.448C135.795 236.428 134.155 236.918 132.195 236.918C130.635 236.918 129.235 236.568 127.995 235.868C126.775 235.168 125.815 234.178 125.115 232.898C124.415 231.598 124.065 230.098 124.065 228.398C124.065 226.698 124.405 225.208 125.085 223.928C125.765 222.648 126.715 221.668 127.935 220.988C129.175 220.288 130.595 219.938 132.195 219.938C133.755 219.938 135.135 220.278 136.335 220.958C137.535 221.638 138.455 222.578 139.095 223.778C139.755 224.958 140.085 226.298 140.085 227.798ZM137.265 227.228C137.265 226.188 137.035 225.298 136.575 224.558C136.115 223.798 135.485 223.228 134.685 222.848C133.905 222.448 133.035 222.248 132.075 222.248C130.695 222.248 129.515 222.688 128.535 223.568C127.575 224.448 127.025 225.668 126.885 227.228H137.265Z" fill="white"/>
    <defs>
    <filter id="filter0_d_0_3499" x="0.250002" y="0.723635" width="189" height="204.187" filterUnits="userSpaceOnUse" color-interpolation-filters="sRGB">
    <feFlood flood-opacity="0" result="BackgroundImageFix"/>
    <feColorMatrix in="SourceAlpha" type="matrix" values="0 0 0 0 0 0 0 0 0 0 0 0 0 0 0 0 0 0 127 0" result="hardAlpha"/>
    <feOffset dx="3" dy="3"/>
    <feGaussianBlur stdDeviation="3.375"/>
    <feComposite in2="hardAlpha" operator="out"/>
    <feColorMatrix type="matrix" values="0 0 0 0 0 0 0 0 0 0 0 0 0 0 0 0 0 0 0.1 0"/>
    <feBlend mode="normal" in2="BackgroundImageFix" result="effect1_dropShadow_0_3499"/>
    <feBlend mode="normal" in="SourceGraphic" in2="effect1_dropShadow_0_3499" result="shape"/>
    </filter>
    <filter id="filter1_b_0_3499" x="-96" y="-95.5264" width="375.5" height="294.5" filterUnits="userSpaceOnUse" color-interpolation-filters="sRGB">
    <feFlood flood-opacity="0" result="BackgroundImageFix"/>
    <feGaussianBlur in="BackgroundImageFix" stdDeviation="50"/>
    <feComposite in2="SourceAlpha" operator="in" result="effect1_backgroundBlur_0_3499"/>
    <feBlend mode="normal" in="SourceGraphic" in2="effect1_backgroundBlur_0_3499" result="shape"/>
    </filter>
    <filter id="filter2_b_0_3499" x="-96" y="0.661133" width="375.5" height="294.5" filterUnits="userSpaceOnUse" color-interpolation-filters="sRGB">
    <feFlood flood-opacity="0" result="BackgroundImageFix"/>
    <feGaussianBlur in="BackgroundImageFix" stdDeviation="50"/>
    <feComposite in2="SourceAlpha" operator="in" result="effect1_backgroundBlur_0_3499"/>
    <feBlend mode="normal" in="SourceGraphic" in2="effect1_backgroundBlur_0_3499" result="shape"/>
    </filter>
    </defs>
    </svg>
    