<svg width="400" height="201" viewBox="0 0 400 201" fill="none" xmlns="http://www.w3.org/2000/svg">
    <rect x="5" y="5.76514" width="390" height="190" fill="#2A2A2A"/>
    <rect x="5" y="5.76514" width="390" height="190" stroke="white" stroke-width="10"/>
    <g clip-path="url(#clip0_0_3536)">
    <path d="M209.793 77.2583H200H199.797H190.207C186.056 77.2583 182.663 80.6518 182.663 84.8023C182.663 88.9528 186.056 92.3463 190.207 92.3463H190.667C196.324 92.3463 195.39 86.7182 200 86.548C204.61 86.7182 203.672 92.3463 209.333 92.3463H209.793C213.944 92.3463 217.337 88.9528 217.337 84.8023C217.337 80.6518 213.94 77.2583 209.793 77.2583Z" fill="white"/>
    <path d="M223.882 89.9815H250.393C254.905 89.9815 258.94 88.6813 258.94 85.2914H220.973C220.861 80.7787 219.325 76.6174 216.794 73.2456C218.054 65.821 216.964 60.7651 216.964 60.7651C213.035 60.7651 207.819 64.1225 205.675 65.6291C205.664 65.6291 205.654 65.6219 205.643 65.6219L203.093 70.6597L201.88 65.0098L199.841 70.6959L197.791 65.0424L196.588 70.7321L194.013 65.716C194.013 65.716 193.999 65.7196 193.988 65.7233C191.931 64.2673 186.574 60.7651 182.565 60.7651C182.565 60.7651 181.417 66.0637 182.822 73.7743C180.519 77.0484 179.128 81.0105 179.019 85.2914H141.06C141.06 88.6813 145.095 89.9815 149.607 89.9815H179.429C179.545 90.561 179.689 91.1332 179.852 91.6946H149.412C149.412 95.0845 153.457 96.3847 157.966 96.3847H176.118L181.866 96.3811C182.21 96.9714 182.583 97.5436 182.982 98.0978H159.096C159.096 101.488 163.142 102.781 167.651 102.781H186.502C186.853 102.781 187.255 102.777 187.664 102.799C188.534 103.433 189.457 104.001 190.424 104.497H167.111C167.111 107.887 171.157 109.187 175.669 109.187H188.827C193.361 109.187 197.784 111.665 200 114.812C201.579 111.944 206.639 109.187 211.177 109.187H224.331C228.843 109.187 232.889 107.887 232.889 104.497H209.579C210.543 104.001 211.466 103.433 212.339 102.799C212.748 102.777 213.147 102.781 213.502 102.781H232.353C236.865 102.781 240.911 101.488 240.911 98.0978H217.026C217.424 97.5436 217.797 96.9714 218.141 96.3811H223.889L242.041 96.3847C246.55 96.3847 250.595 95.0845 250.595 91.6946H220.151C220.314 91.1332 220.459 90.5646 220.575 89.9815H223.885H223.882ZM213.958 64.9555C213.958 64.9555 213.958 67.6428 213.77 70.0005C212.582 68.9683 211.282 68.0629 209.884 67.3168C210.865 66.6142 212.513 65.5204 213.958 64.9555ZM189.964 67.3965C188.526 68.1824 187.19 69.1313 185.984 70.2178C185.778 67.8094 185.778 64.9555 185.778 64.9555C187.281 65.5422 189.001 66.7011 189.968 67.3965H189.964ZM215.208 91.8793C212.799 97.9203 206.903 102.194 200 102.194C193.097 102.194 187.201 97.9203 184.792 91.8793C182.666 90.2495 181.29 87.6817 181.29 84.8025C181.29 79.8878 185.289 75.8858 190.207 75.8858H199.819H200H200.203H209.793C214.708 75.8858 218.71 79.8842 218.71 84.8025C218.71 87.6817 217.334 90.2495 215.208 91.8793Z" fill="white"/>
    <path d="M181.424 132.761V130.172H177.411C177.046 130.172 176.774 130.088 176.593 129.922C176.412 129.755 176.321 129.444 176.321 128.984V122.001H173.612V129.223C173.612 130.523 173.862 131.436 174.362 131.968C174.862 132.497 175.706 132.765 176.893 132.765H181.431L181.424 132.761Z" fill="white"/>
    <path d="M174.536 137.426H174.532V140.762H177.118V140.754C177.154 140.754 177.183 140.762 177.219 140.762H185.321V133.707H174.536V137.426ZM177.245 136.202H182.612V138.27H178.121C178.121 138.27 178.099 138.27 178.085 138.27H177.245V137.343V136.202Z" fill="white"/>
    <path d="M189.12 137.426H189.117V140.762H191.703V140.754C191.739 140.754 191.768 140.762 191.804 140.762H199.906V133.707H189.12V137.426ZM191.829 136.202H197.197V138.27H192.706C192.706 138.27 192.684 138.27 192.67 138.27H191.829V137.343V136.202Z" fill="white"/>
    <path d="M185.321 121.998H182.612V132.924H185.321V131.074H186.723V128.459H185.321V126.796H186.723V124.207H185.321V121.998Z" fill="white"/>
    <path d="M196.009 132.761V130.172H191.996C191.63 130.172 191.359 130.088 191.178 129.922C190.996 129.755 190.906 129.444 190.906 128.984V122.001H188.197V129.223C188.197 130.523 188.447 131.436 188.947 131.968C189.446 132.497 190.29 132.765 191.478 132.765H196.016L196.009 132.761Z" fill="white"/>
    <path d="M199.906 121.998H197.197V132.924H199.906V131.074H201.307V128.459H199.906V126.796H201.307V124.207H199.906V121.998Z" fill="white"/>
    <path d="M205.773 132.95H207.269C207.729 132.95 208.149 132.906 208.529 132.819C208.909 132.732 209.239 132.569 209.514 132.334C209.79 132.095 210.003 131.776 210.155 131.371C210.304 130.965 210.38 130.454 210.38 129.839V121.998H207.671V124.801H205.367V121.998H202.658V129.839C202.658 130.458 202.734 130.969 202.883 131.371C203.035 131.773 203.249 132.095 203.524 132.334C203.799 132.573 204.129 132.732 204.509 132.819C204.889 132.906 205.309 132.95 205.769 132.95H205.773ZM205.371 127.318H207.674V129.288C207.674 129.748 207.606 130.052 207.472 130.204C207.338 130.356 207.088 130.429 206.722 130.429H206.316C205.969 130.429 205.722 130.353 205.581 130.204C205.44 130.052 205.367 129.748 205.367 129.288V127.318H205.371Z" fill="white"/>
    <path d="M214.516 121.998H211.781V132.95H214.516V129.125H215.917V126.51H214.516V121.998Z" fill="white"/>
    <path d="M221.049 124.92C221.082 124.619 221.191 124.467 221.383 124.467H221.716C221.908 124.467 222.016 124.619 222.049 124.92L223.356 136.274H226.207L224.591 124.493C224.497 123.685 224.229 123.048 223.795 122.58C223.36 122.113 222.69 121.881 221.788 121.881H221.335C220.416 121.881 219.731 122.117 219.282 122.58C218.829 123.048 218.565 123.685 218.485 124.493L217.036 136.274H219.698L221.053 124.92H221.049Z" fill="white"/>
    <path d="M226.391 138.176H216.913V140.765H226.391V138.176Z" fill="white"/>
    <path d="M214.516 136.245V133.779H211.032H203.756V136.249H208.015H211.785V140.765H214.516V136.274C214.516 136.274 214.516 136.256 214.516 136.245Z" fill="white"/>
    </g>
    <defs>
    <clipPath id="clip0_0_3536">
    <rect width="117.88" height="80" fill="white" transform="translate(141.06 60.7651)"/>
    </clipPath>
    </defs>
    </svg>
    