<svg width="400" height="201" viewBox="0 0 400 201" fill="none" xmlns="http://www.w3.org/2000/svg">
    <rect x="5" y="5.76514" width="390" height="190" fill="#2A2A2A"/>
    <rect x="5" y="5.76514" width="390" height="190" stroke="white" stroke-width="10"/>
    <g clip-path="url(#clip0_0_3520)">
    <path d="M113.153 115.765H111.578C110.794 114.19 109.698 112.798 108.369 111.671C107.987 111.346 107.585 111.043 107.165 110.765C106.717 110.467 106.249 110.196 105.763 109.955C105.199 109.675 104.613 109.436 104.006 109.241H104.006C102.762 108.839 101.434 108.622 100.057 108.622C98.6789 108.622 97.3715 108.296 96.2166 107.716C95.6623 107.438 95.1423 107.101 94.6646 106.715C92.7252 105.143 91.4852 102.742 91.4852 100.051C91.4852 95.3172 95.3223 91.4795 100.057 91.4795C104.791 91.4795 108.628 95.3172 108.628 100.051C108.628 102.742 107.388 105.143 105.448 106.715C104.882 106.508 104.301 106.333 103.707 106.191C105.798 104.946 107.199 102.662 107.199 100.051C107.199 96.1058 104.001 92.9081 100.057 92.9081C96.112 92.9081 92.9137 96.1058 92.9137 100.051C92.9137 102.662 94.3149 104.946 96.4057 106.191C97.4743 106.828 98.7229 107.194 100.057 107.194C101.39 107.194 102.675 107.375 103.897 107.716C104.501 107.884 105.09 108.091 105.659 108.334C106.155 108.546 106.637 108.785 107.102 109.049C107.539 109.297 107.962 109.568 108.369 109.859C108.763 110.142 109.143 110.445 109.506 110.765C111.059 112.137 112.313 113.84 113.153 115.765Z" fill="white"/>
    <path d="M109.956 115.808H108.264C107.561 114.8 106.677 113.928 105.66 113.239H105.66C105.141 112.887 104.588 112.583 104.006 112.332C102.794 111.811 101.46 111.522 100.057 111.522C98.6538 111.522 97.3121 111.27 96.0715 110.808C95.4727 110.585 94.8972 110.314 94.3504 109.998C93.8818 109.727 93.4338 109.424 93.0104 109.092C92.6167 108.783 92.2435 108.449 91.8932 108.092C89.8732 106.031 88.6281 103.208 88.6281 100.094C88.6281 93.7816 93.7447 88.665 100.057 88.665C106.369 88.665 111.485 93.7816 111.485 100.094C111.485 103.208 110.24 106.031 108.22 108.092C107.796 107.834 107.358 107.595 106.909 107.376C108.846 105.553 110.057 102.964 110.057 100.094C110.057 94.5708 105.579 90.0936 100.057 90.0936C94.5344 90.0936 90.0567 94.5708 90.0567 100.094C90.0567 102.964 91.2664 105.553 93.2047 107.376C93.5932 107.742 94.0104 108.077 94.4538 108.377C94.9721 108.729 95.5252 109.033 96.1069 109.283H96.1075C97.3189 109.804 98.6538 110.094 100.057 110.094C101.46 110.094 102.801 110.346 104.041 110.808C104.641 111.031 105.216 111.302 105.763 111.618C106.232 111.888 106.679 112.191 107.102 112.524C108.25 113.423 109.222 114.539 109.956 115.808Z" fill="white"/>
    <path fill-rule="evenodd" clip-rule="evenodd" d="M114.342 100.051C114.342 103.802 112.896 107.217 110.531 109.766C110.175 109.447 109.806 109.145 109.422 108.86C111.587 106.559 112.914 103.46 112.914 100.051C112.914 92.9503 107.157 87.1937 100.057 87.1937C92.956 87.1937 87.1994 92.9503 87.1994 100.051C87.1994 103.459 88.5257 106.558 90.6914 108.859C91.0229 109.212 91.3743 109.546 91.744 109.859C92.1263 110.184 92.5286 110.487 92.948 110.765C93.3966 111.064 93.8646 111.334 94.3503 111.575C94.9137 111.855 95.5 112.094 96.1063 112.29H96.1069C97.3514 112.691 98.6783 112.908 100.057 112.908C101.435 112.908 102.742 113.234 103.897 113.814C104.866 114.301 105.73 114.965 106.445 115.765H104.343C103.149 114.868 101.665 114.337 100.057 114.337C98.7263 114.337 97.4383 114.155 96.2166 113.814C95.612 113.646 95.0234 113.439 94.4537 113.196H94.4532C93.9572 112.985 93.4754 112.745 93.0103 112.481C92.5732 112.233 92.1509 111.962 91.744 111.671C91.3497 111.388 90.9703 111.086 90.6069 110.765C90.2486 110.449 89.9069 110.115 89.5823 109.765C87.2166 107.216 85.7709 103.802 85.7709 100.051C85.7709 92.1611 92.1663 85.7651 100.057 85.7651C107.947 85.7651 114.342 92.1611 114.342 100.051Z" fill="white"/>
    <path d="M106.402 115.765H104.299C103.106 114.868 101.621 114.336 100.013 114.336C98.6829 114.336 97.3949 114.155 96.1732 113.814C95.5686 113.646 94.98 113.439 94.4103 113.195C93.9143 112.984 93.4326 112.745 92.9675 112.48C92.5303 112.232 92.1075 111.962 91.7006 111.67C91.3063 111.388 90.9269 111.086 90.564 110.765C90.9269 110.444 91.3063 110.142 91.7006 109.86C92.0829 110.184 92.4846 110.487 92.904 110.765C93.3526 111.063 93.8212 111.334 94.3069 111.575C94.8703 111.855 95.4566 112.094 96.0635 112.29H96.064C97.3086 112.691 98.6355 112.908 100.013 112.908C101.391 112.908 102.698 113.234 103.853 113.814C104.822 114.3 105.686 114.965 106.402 115.765Z" fill="white"/>
    <path d="M109.913 115.765H108.22C107.518 114.757 106.634 113.885 105.616 113.196C105.098 112.844 104.545 112.54 103.963 112.29H103.962C102.751 111.768 101.416 111.48 100.013 111.48C98.6104 111.48 97.2687 111.227 96.0281 110.765C95.4287 110.542 94.8532 110.27 94.3064 109.955C93.8378 109.684 93.391 109.382 92.9675 109.05C93.4327 108.785 93.9144 108.546 94.4104 108.335C94.9287 108.686 95.4818 108.99 96.0635 109.241C97.275 109.762 98.6104 110.051 100.013 110.051C101.416 110.051 102.758 110.304 103.998 110.765C104.597 110.988 105.173 111.26 105.72 111.576C106.188 111.846 106.636 112.149 107.059 112.481C108.207 113.381 109.178 114.496 109.913 115.765Z" fill="white"/>
    <path d="M113.11 115.765H111.534C110.751 114.19 109.654 112.797 108.325 111.67C107.943 111.346 107.541 111.044 107.122 110.765C106.674 110.467 106.206 110.196 105.72 109.955C105.157 109.676 104.57 109.436 103.963 109.241C102.718 108.839 101.391 108.622 100.013 108.622C98.6355 108.622 97.3281 108.296 96.1732 107.716C97.3949 107.376 98.6829 107.194 100.013 107.194C101.344 107.194 102.632 107.376 103.853 107.716C104.458 107.884 105.046 108.092 105.616 108.335C106.112 108.546 106.594 108.785 107.059 109.05C107.496 109.297 107.918 109.568 108.325 109.86C108.72 110.142 109.1 110.445 109.462 110.765C111.016 112.136 112.269 113.84 113.11 115.765Z" fill="white"/>
    </g>
    <path d="M129.006 90.6265H124.342V86.5711H138.131V90.6265H133.467V114.959H129.006V90.6265Z" fill="white"/>
    <path d="M140.291 86.5711H144.751V114.959H140.291V86.5711Z" fill="white"/>
    <path d="M154.378 115.365C152.242 115.365 150.607 114.756 149.471 113.54C148.363 112.323 147.809 110.606 147.809 108.389V93.1408C147.809 90.9239 148.363 89.2071 149.471 87.9905C150.607 86.7738 152.242 86.1655 154.378 86.1655C156.514 86.1655 158.136 86.7738 159.245 87.9905C160.38 89.2071 160.948 90.9239 160.948 93.1408V96.1418H156.73V92.857C156.73 91.0996 155.987 90.2209 154.5 90.2209C153.013 90.2209 152.27 91.0996 152.27 92.857V108.714C152.27 110.444 153.013 111.309 154.5 111.309C155.987 111.309 156.73 110.444 156.73 108.714V104.374H160.948V108.389C160.948 110.606 160.38 112.323 159.245 113.54C158.136 114.756 156.514 115.365 154.378 115.365Z" fill="white"/>
    <path d="M163.617 86.5711H168.078V98.5345L173.756 86.5711H178.217L172.904 96.9935L178.298 114.959H173.634L169.862 102.306L168.078 105.915V114.959H163.617V86.5711Z" fill="white"/>
    <path d="M180.409 86.5711H192.575V90.6265H184.87H180.409V86.5711Z" fill="white"/>
    <path d="M195.142 86.5711H201.752C204.05 86.5711 205.726 87.1118 206.781 88.1932C207.835 89.2476 208.362 90.8833 208.362 93.1003V94.8441C208.362 97.791 207.389 99.6565 205.442 100.441V100.522C206.524 100.846 207.281 101.509 207.713 102.509C208.173 103.509 208.403 104.847 208.403 106.524V111.512C208.403 112.323 208.43 112.985 208.484 113.499C208.538 113.986 208.673 114.472 208.889 114.959H204.347C204.185 114.499 204.077 114.067 204.023 113.661C203.969 113.256 203.942 112.526 203.942 111.471V106.28C203.942 104.983 203.726 104.077 203.293 103.563C202.887 103.05 202.171 102.793 201.144 102.793H199.603V114.959H195.142V86.5711ZM201.225 98.7373C202.117 98.7373 202.779 98.5075 203.212 98.0479C203.671 97.5883 203.901 96.8177 203.901 95.7363V93.5464C203.901 92.519 203.712 91.7755 203.334 91.3159C202.982 90.8563 202.414 90.6265 201.63 90.6265H199.603V98.7373H201.225Z" fill="white"/>
    <path d="M224.279 115.365C222.143 115.365 220.507 114.756 219.372 113.54C218.263 112.323 217.709 110.606 217.709 108.389V93.1408C217.709 90.9239 218.263 89.2071 219.372 87.9905C220.507 86.7738 222.143 86.1655 224.279 86.1655C226.415 86.1655 228.037 86.7738 229.145 87.9905C230.281 89.2071 230.849 90.9239 230.849 93.1408V96.1418H226.631V92.857C226.631 91.0996 225.887 90.2209 224.4 90.2209C222.913 90.2209 222.17 91.0996 222.17 92.857V108.714C222.17 110.444 222.913 111.309 224.4 111.309C225.887 111.309 226.631 110.444 226.631 108.714V104.374H230.849V108.389C230.849 110.606 230.281 112.323 229.145 113.54C228.037 114.756 226.415 115.365 224.279 115.365Z" fill="white"/>
    <path d="M236.965 86.5711H243.007L247.63 114.959H243.169L242.358 109.403H239.824H237.289L236.478 114.959H232.341L236.965 86.5711ZM242.358 109.403L239.844 91.5187H239.763L237.289 109.403H239.824H242.358Z" fill="white"/>
    <path d="M249.795 86.5711H256.364C258.581 86.5711 260.244 87.1659 261.353 88.3555C262.461 89.545 263.015 91.2889 263.015 93.5869V96.3852C263.015 98.6832 262.461 100.427 261.353 101.617C260.244 102.806 258.581 103.401 256.364 103.401H254.256V114.959H249.795V86.5711ZM256.364 99.3456C257.094 99.3456 257.635 99.1429 257.987 98.7373C258.365 98.3318 258.554 97.6424 258.554 96.6691V93.3031C258.554 92.3298 258.365 91.6403 257.987 91.2348C257.635 90.8293 257.094 90.6265 256.364 90.6265H254.256V99.3456H256.364Z" fill="white"/>
    <path d="M265.438 86.5711H269.899V114.959H265.438V86.5711Z" fill="white"/>
    <path d="M276.728 90.6265H272.064V86.5711H285.852V90.6265H281.189V114.959H276.728V90.6265Z" fill="white"/>
    <path d="M289.598 86.5711H295.64L300.264 114.959H295.803L294.992 109.403H289.922L289.111 114.959H284.975L289.598 86.5711ZM294.992 109.403L292.477 91.5187H292.396L289.922 109.403H294.992Z" fill="white"/>
    <path d="M302.428 86.5711H306.889V110.904H314.229V114.959H302.428V86.5711Z" fill="white"/>
    <path d="M180.409 98.7373H192.575V102.793H184.87H180.409V98.7373Z" fill="white"/>
    <path d="M180.409 110.904H192.575V114.959H184.87H180.409V110.904Z" fill="white"/>
    <defs>
    <clipPath id="clip0_0_3520">
    <rect width="28.5714" height="30" fill="white" transform="translate(85.7709 85.7651)"/>
    </clipPath>
    </defs>
    </svg>
    