<svg width="190" height="244" viewBox="0 0 190 244" fill="none" xmlns="http://www.w3.org/2000/svg">
    <g filter="url(#filter0_d_0_3505)">
    <g filter="url(#filter1_b_0_3505)">
    <path d="M4.5 21.3486C4.5 12.0288 12.0552 4.47363 21.375 4.47363H163.125C172.445 4.47363 180 12.0288 180 21.3486V98.9736H4.5V21.3486Z" fill="#D9D9D9" fill-opacity="0.1"/>
    </g>
    <g filter="url(#filter2_b_0_3505)">
    <path d="M180 178.286C180 187.606 172.445 195.161 163.125 195.161H21.375C12.0552 195.161 4.5 187.606 4.5 178.286V100.661H180V178.286Z" fill="#D9D9D9" fill-opacity="0.1"/>
    </g>
    </g>
    <path d="M56.9148 76.2159V60.3159H84.6148V133.316H66.8148V76.2159H56.9148ZM94.5125 76.2159V60.3159H122.213V133.316H104.413V76.2159H94.5125Z" fill="white"/>
    <path d="M37.2476 236.858C35.8676 236.858 34.6276 236.618 33.5276 236.138C32.4476 235.638 31.5976 234.958 30.9776 234.098C30.3576 233.218 30.0376 232.208 30.0176 231.068H32.9276C33.0276 232.048 33.4276 232.878 34.1276 233.558C34.8476 234.218 35.8876 234.548 37.2476 234.548C38.5476 234.548 39.5676 234.228 40.3076 233.588C41.0676 232.928 41.4476 232.088 41.4476 231.068C41.4476 230.268 41.2276 229.618 40.7876 229.118C40.3476 228.618 39.7976 228.238 39.1376 227.978C38.4776 227.718 37.5876 227.438 36.4676 227.138C35.0876 226.778 33.9776 226.418 33.1376 226.058C32.3176 225.698 31.6076 225.138 31.0076 224.378C30.4276 223.598 30.1376 222.558 30.1376 221.258C30.1376 220.118 30.4276 219.108 31.0076 218.228C31.5876 217.348 32.3976 216.668 33.4376 216.188C34.4976 215.708 35.7076 215.468 37.0676 215.468C39.0276 215.468 40.6276 215.958 41.8676 216.938C43.1276 217.918 43.8376 219.218 43.9976 220.838H40.9976C40.8976 220.038 40.4776 219.338 39.7376 218.738C38.9976 218.118 38.0176 217.808 36.7976 217.808C35.6576 217.808 34.7276 218.108 34.0076 218.708C33.2876 219.288 32.9276 220.108 32.9276 221.168C32.9276 221.928 33.1376 222.548 33.5576 223.028C33.9976 223.508 34.5276 223.878 35.1476 224.138C35.7876 224.378 36.6776 224.658 37.8176 224.978C39.1976 225.358 40.3076 225.738 41.1476 226.118C41.9876 226.478 42.7076 227.048 43.3076 227.828C43.9076 228.588 44.2076 229.628 44.2076 230.948C44.2076 231.968 43.9376 232.928 43.3976 233.828C42.8576 234.728 42.0576 235.458 40.9976 236.018C39.9376 236.578 38.6876 236.858 37.2476 236.858ZM63.225 227.798C63.225 228.318 63.195 228.868 63.135 229.448H49.995C50.095 231.068 50.645 232.338 51.645 233.258C52.665 234.158 53.895 234.608 55.335 234.608C56.515 234.608 57.495 234.338 58.275 233.798C59.075 233.238 59.635 232.498 59.955 231.578H62.895C62.455 233.158 61.575 234.448 60.255 235.448C58.935 236.428 57.295 236.918 55.335 236.918C53.775 236.918 52.375 236.568 51.135 235.868C49.915 235.168 48.955 234.178 48.255 232.898C47.555 231.598 47.205 230.098 47.205 228.398C47.205 226.698 47.545 225.208 48.225 223.928C48.905 222.648 49.855 221.668 51.075 220.988C52.315 220.288 53.735 219.938 55.335 219.938C56.895 219.938 58.275 220.278 59.475 220.958C60.675 221.638 61.595 222.578 62.235 223.778C62.895 224.958 63.225 226.298 63.225 227.798ZM60.405 227.228C60.405 226.188 60.175 225.298 59.715 224.558C59.255 223.798 58.625 223.228 57.825 222.848C57.045 222.448 56.175 222.248 55.215 222.248C53.835 222.248 52.655 222.688 51.675 223.568C50.715 224.448 50.165 225.668 50.025 227.228H60.405ZM65.8086 228.398C65.8086 226.698 66.1486 225.218 66.8286 223.958C67.5086 222.678 68.4486 221.688 69.6486 220.988C70.8686 220.288 72.2586 219.938 73.8186 219.938C75.8386 219.938 77.4986 220.428 78.7986 221.408C80.1186 222.388 80.9886 223.748 81.4086 225.488H78.4686C78.1886 224.488 77.6386 223.698 76.8186 223.118C76.0186 222.538 75.0186 222.248 73.8186 222.248C72.2586 222.248 70.9986 222.788 70.0386 223.868C69.0786 224.928 68.5986 226.438 68.5986 228.398C68.5986 230.378 69.0786 231.908 70.0386 232.988C70.9986 234.068 72.2586 234.608 73.8186 234.608C75.0186 234.608 76.0186 234.328 76.8186 233.768C77.6186 233.208 78.1686 232.408 78.4686 231.368H81.4086C80.9686 233.048 80.0886 234.398 78.7686 235.418C77.4486 236.418 75.7986 236.918 73.8186 236.918C72.2586 236.918 70.8686 236.568 69.6486 235.868C68.4486 235.168 67.5086 234.178 66.8286 232.898C66.1486 231.618 65.8086 230.118 65.8086 228.398ZM92.2212 236.918C90.6812 236.918 89.2812 236.568 88.0212 235.868C86.7812 235.168 85.8012 234.178 85.0812 232.898C84.3812 231.598 84.0312 230.098 84.0312 228.398C84.0312 226.718 84.3912 225.238 85.1112 223.958C85.8512 222.658 86.8512 221.668 88.1112 220.988C89.3712 220.288 90.7812 219.938 92.3412 219.938C93.9012 219.938 95.3112 220.288 96.5712 220.988C97.8312 221.668 98.8212 222.648 99.5412 223.928C100.281 225.208 100.651 226.698 100.651 228.398C100.651 230.098 100.271 231.598 99.5112 232.898C98.7712 234.178 97.7612 235.168 96.4812 235.868C95.2012 236.568 93.7812 236.918 92.2212 236.918ZM92.2212 234.518C93.2012 234.518 94.1212 234.288 94.9812 233.828C95.8412 233.368 96.5312 232.678 97.0512 231.758C97.5912 230.838 97.8612 229.718 97.8612 228.398C97.8612 227.078 97.6012 225.958 97.0812 225.038C96.5612 224.118 95.8812 223.438 95.0412 222.998C94.2012 222.538 93.2912 222.308 92.3112 222.308C91.3112 222.308 90.3912 222.538 89.5512 222.998C88.7312 223.438 88.0712 224.118 87.5712 225.038C87.0712 225.958 86.8212 227.078 86.8212 228.398C86.8212 229.738 87.0612 230.868 87.5412 231.788C88.0412 232.708 88.7012 233.398 89.5212 233.858C90.3412 234.298 91.2412 234.518 92.2212 234.518ZM112.251 219.908C114.251 219.908 115.871 220.518 117.111 221.738C118.351 222.938 118.971 224.678 118.971 226.958V236.648H116.271V227.348C116.271 225.708 115.861 224.458 115.041 223.598C114.221 222.718 113.101 222.278 111.681 222.278C110.241 222.278 109.091 222.728 108.231 223.628C107.391 224.528 106.971 225.838 106.971 227.558V236.648H104.241V220.208H106.971V222.548C107.511 221.708 108.241 221.058 109.161 220.598C110.101 220.138 111.131 219.908 112.251 219.908ZM122.41 228.368C122.41 226.688 122.75 225.218 123.43 223.958C124.11 222.678 125.04 221.688 126.22 220.988C127.42 220.288 128.76 219.938 130.24 219.938C131.52 219.938 132.71 220.238 133.81 220.838C134.91 221.418 135.75 222.188 136.33 223.148V214.448H139.09V236.648H136.33V233.558C135.79 234.538 134.99 235.348 133.93 235.988C132.87 236.608 131.63 236.918 130.21 236.918C128.75 236.918 127.42 236.558 126.22 235.838C125.04 235.118 124.11 234.108 123.43 232.808C122.75 231.508 122.41 230.028 122.41 228.368ZM136.33 228.398C136.33 227.158 136.08 226.078 135.58 225.158C135.08 224.238 134.4 223.538 133.54 223.058C132.7 222.558 131.77 222.308 130.75 222.308C129.73 222.308 128.8 222.548 127.96 223.028C127.12 223.508 126.45 224.208 125.95 225.128C125.45 226.048 125.2 227.128 125.2 228.368C125.2 229.628 125.45 230.728 125.95 231.668C126.45 232.588 127.12 233.298 127.96 233.798C128.8 234.278 129.73 234.518 130.75 234.518C131.77 234.518 132.7 234.278 133.54 233.798C134.4 233.298 135.08 232.588 135.58 231.668C136.08 230.728 136.33 229.638 136.33 228.398ZM149.524 236.918C148.264 236.918 147.134 236.708 146.134 236.288C145.134 235.848 144.344 235.248 143.764 234.488C143.184 233.708 142.864 232.818 142.804 231.818H145.624C145.704 232.638 146.084 233.308 146.764 233.828C147.464 234.348 148.374 234.608 149.494 234.608C150.534 234.608 151.354 234.378 151.954 233.918C152.554 233.458 152.854 232.878 152.854 232.178C152.854 231.458 152.534 230.928 151.894 230.588C151.254 230.228 150.264 229.878 148.924 229.538C147.704 229.218 146.704 228.898 145.924 228.578C145.164 228.238 144.504 227.748 143.944 227.108C143.404 226.448 143.134 225.588 143.134 224.528C143.134 223.688 143.384 222.918 143.884 222.218C144.384 221.518 145.094 220.968 146.014 220.568C146.934 220.148 147.984 219.938 149.164 219.938C150.984 219.938 152.454 220.398 153.574 221.318C154.694 222.238 155.294 223.498 155.374 225.098H152.644C152.584 224.238 152.234 223.548 151.594 223.028C150.974 222.508 150.134 222.248 149.074 222.248C148.094 222.248 147.314 222.458 146.734 222.878C146.154 223.298 145.864 223.848 145.864 224.528C145.864 225.068 146.034 225.518 146.374 225.878C146.734 226.218 147.174 226.498 147.694 226.718C148.234 226.918 148.974 227.148 149.914 227.408C151.094 227.728 152.054 228.048 152.794 228.368C153.534 228.668 154.164 229.128 154.684 229.748C155.224 230.368 155.504 231.178 155.524 232.178C155.524 233.078 155.274 233.888 154.774 234.608C154.274 235.328 153.564 235.898 152.644 236.318C151.744 236.718 150.704 236.918 149.524 236.918Z" fill="white"/>
    <defs>
    <filter id="filter0_d_0_3505" x="0.750002" y="0.723635" width="189" height="204.187" filterUnits="userSpaceOnUse" color-interpolation-filters="sRGB">
    <feFlood flood-opacity="0" result="BackgroundImageFix"/>
    <feColorMatrix in="SourceAlpha" type="matrix" values="0 0 0 0 0 0 0 0 0 0 0 0 0 0 0 0 0 0 127 0" result="hardAlpha"/>
    <feOffset dx="3" dy="3"/>
    <feGaussianBlur stdDeviation="3.375"/>
    <feComposite in2="hardAlpha" operator="out"/>
    <feColorMatrix type="matrix" values="0 0 0 0 0 0 0 0 0 0 0 0 0 0 0 0 0 0 0.1 0"/>
    <feBlend mode="normal" in2="BackgroundImageFix" result="effect1_dropShadow_0_3505"/>
    <feBlend mode="normal" in="SourceGraphic" in2="effect1_dropShadow_0_3505" result="shape"/>
    </filter>
    <filter id="filter1_b_0_3505" x="-95.5" y="-95.5264" width="375.5" height="294.5" filterUnits="userSpaceOnUse" color-interpolation-filters="sRGB">
    <feFlood flood-opacity="0" result="BackgroundImageFix"/>
    <feGaussianBlur in="BackgroundImageFix" stdDeviation="50"/>
    <feComposite in2="SourceAlpha" operator="in" result="effect1_backgroundBlur_0_3505"/>
    <feBlend mode="normal" in="SourceGraphic" in2="effect1_backgroundBlur_0_3505" result="shape"/>
    </filter>
    <filter id="filter2_b_0_3505" x="-95.5" y="0.661133" width="375.5" height="294.5" filterUnits="userSpaceOnUse" color-interpolation-filters="sRGB">
    <feFlood flood-opacity="0" result="BackgroundImageFix"/>
    <feGaussianBlur in="BackgroundImageFix" stdDeviation="50"/>
    <feComposite in2="SourceAlpha" operator="in" result="effect1_backgroundBlur_0_3505"/>
    <feBlend mode="normal" in="SourceGraphic" in2="effect1_backgroundBlur_0_3505" result="shape"/>
    </filter>
    </defs>
    </svg>
    