<svg width="23" height="29" viewBox="0 0 23 29" fill="none" xmlns="http://www.w3.org/2000/svg">
    <path d="M19.1362 14.9965C19.1501 13.9171 19.4368 12.8588 19.9696 11.92C20.5025 10.9812 21.2641 10.1924 22.1837 9.62702C21.5995 8.79269 20.8288 8.10606 19.9329 7.62169C19.0369 7.13731 18.0403 6.86852 17.0223 6.83667C14.8507 6.60873 12.7454 8.13613 11.6387 8.13613C10.5107 8.13613 8.80688 6.8593 6.97215 6.89705C5.7854 6.93539 4.62881 7.28049 3.61509 7.89872C2.60136 8.51696 1.76506 9.38724 1.18768 10.4248C-1.3134 14.755 0.552182 21.119 2.94801 24.6193C4.1467 26.3332 5.54762 28.2478 7.38069 28.1799C9.17447 28.1055 9.84441 27.0361 12.0096 27.0361C14.1548 27.0361 14.7833 28.1799 16.6536 28.1367C18.5784 28.1055 19.7911 26.4151 20.9477 24.6849C21.809 23.4637 22.4717 22.1139 22.9114 20.6856C21.7931 20.2127 20.8389 19.421 20.1675 18.4093C19.4962 17.3976 19.1375 16.2107 19.1362 14.9965Z" fill="white"/>
    <path d="M15.6037 4.53562C16.6531 3.27576 17.1702 1.65641 17.045 0.0214844C15.4416 0.189888 13.9605 0.956197 12.8969 2.16772C12.3768 2.75959 11.9785 3.44814 11.7247 4.19403C11.4709 4.93992 11.3666 5.72852 11.4178 6.51474C12.2198 6.523 13.0132 6.34917 13.7382 6.00636C14.4633 5.66354 15.1011 5.16067 15.6037 4.53562Z" fill="white"/>
    </svg>
    