<svg width="30" height="31" viewBox="0 0 30 31" fill="none" xmlns="http://www.w3.org/2000/svg">
    <g clip-path="url(#clip0_0_3618)">
    <path d="M30 6.01613C28.8962 6.50613 27.71 6.83613 26.465 6.98488C27.7363 6.22363 28.7125 5.01738 29.1712 3.57988C27.9825 4.28488 26.665 4.79738 25.2625 5.07363C24.1412 3.87738 22.54 3.12988 20.77 3.12988C16.7962 3.12988 13.8763 6.83738 14.7738 10.6861C9.66 10.4299 5.125 7.97988 2.08875 4.25613C0.47625 7.02238 1.2525 10.6411 3.9925 12.4736C2.985 12.4411 2.035 12.1649 1.20625 11.7036C1.13875 14.5549 3.1825 17.2224 6.1425 17.8161C5.27625 18.0511 4.3275 18.1061 3.3625 17.9211C4.145 20.3661 6.4175 22.1449 9.1125 22.1949C6.525 24.2236 3.265 25.1299 0 24.7449C2.72375 26.4911 5.96 27.5099 9.435 27.5099C20.8625 27.5099 27.3187 17.8586 26.9287 9.20238C28.1312 8.33363 29.175 7.24988 30 6.01613Z" fill="black"/>
    </g>
    <defs>
    <clipPath id="clip0_0_3618">
    <rect width="30" height="30" fill="white" transform="translate(0 0.320312)"/>
    </clipPath>
    </defs>
    </svg>
    