<svg width="30" height="31" viewBox="0 0 30 31" fill="none" xmlns="http://www.w3.org/2000/svg">
    <g clip-path="url(#clip0_0_3614)">
    <path d="M15 30.3203C23.2843 30.3203 30 23.6046 30 15.3203C30 7.03604 23.2843 0.320312 15 0.320312C6.71573 0.320312 0 7.03604 0 15.3203C0 23.6046 6.71573 30.3203 15 30.3203Z" fill="black"/>
    <path fill-rule="evenodd" clip-rule="evenodd" d="M6.78984 15.1622C11.1626 13.2571 14.0785 12.0011 15.5375 11.3943C19.7032 9.66161 20.5687 9.36063 21.1329 9.35069C21.257 9.34851 21.5345 9.37926 21.7142 9.52509C21.8659 9.64822 21.9077 9.81456 21.9277 9.93131C21.9476 10.0481 21.9725 10.314 21.9527 10.5218C21.727 12.8937 20.7502 18.6495 20.2533 21.306C20.043 22.4301 19.629 22.807 19.2282 22.8439C18.3571 22.9241 17.6957 22.2682 16.852 21.7152C15.5318 20.8498 14.786 20.3111 13.5045 19.4666C12.0235 18.4906 12.9836 17.9543 13.8276 17.0776C14.0484 16.8482 17.8864 13.3573 17.9607 13.0406C17.97 13.001 17.9786 12.8534 17.8909 12.7754C17.8032 12.6974 17.6738 12.7241 17.5804 12.7453C17.4479 12.7754 15.3389 14.1693 11.2533 16.9273C10.6546 17.3383 10.1124 17.5386 9.62658 17.5281C9.091 17.5166 8.06077 17.2253 7.29489 16.9764C6.35551 16.671 5.60892 16.5096 5.67393 15.991C5.70779 15.7209 6.07976 15.4446 6.78984 15.1622Z" fill="#FADC00"/>
    </g>
    <defs>
    <clipPath id="clip0_0_3614">
    <rect width="30" height="30" fill="white" transform="translate(0 0.320312)"/>
    </clipPath>
    </defs>
    </svg>
    