<svg width="30" height="33" viewBox="0 0 30 33" fill="none" xmlns="http://www.w3.org/2000/svg">
    <path d="M14.1265 15.7409L0.81897 29.8653C0.81947 29.8683 0.82047 29.8707 0.820969 29.8736C1.22908 31.4073 2.62989 32.5366 4.29245 32.5366C4.95704 32.5366 5.58101 32.3569 6.11612 32.0415L6.15861 32.0166L21.138 23.373L14.1265 15.7409Z" fill="#EB3131"/>
    <path d="M27.5899 13.3359L27.5771 13.3271L21.1102 9.57818L13.8243 16.0614L21.1355 23.3716L27.5684 19.6599C28.6962 19.051 29.4618 17.8621 29.4618 16.491C29.4618 15.1298 28.7065 13.9467 27.5899 13.3359Z" fill="#F6B60B"/>
    <path d="M0.818456 3.05774C0.73846 3.35273 0.696411 3.66172 0.696411 3.98258V28.941C0.696411 29.2613 0.737959 29.5713 0.818956 29.8652L14.5845 16.1022L0.818456 3.05774Z" fill="#5778C5"/>
    <path d="M14.2247 16.4614L21.1126 9.57547L6.15025 0.900598C5.6064 0.574862 4.97168 0.386871 4.29246 0.386871C2.6299 0.386871 1.22721 1.5182 0.818981 3.05376C0.818481 3.05526 0.818481 3.05626 0.818481 3.05763L14.2247 16.4614Z" fill="#3BAD49"/>
    </svg>
    