<svg width="27" height="28" viewBox="0 0 27 28" fill="none" xmlns="http://www.w3.org/2000/svg">
    <g clip-path="url(#clip0_0_3653)">
    <path d="M13.5 27.5C20.9558 27.5 27 21.4558 27 14C27 6.54416 20.9558 0.5 13.5 0.5C6.04416 0.5 0 6.54416 0 14C0 21.4558 6.04416 27.5 13.5 27.5Z" fill="white"/>
    <path fill-rule="evenodd" clip-rule="evenodd" d="M6.11089 13.8574C10.0464 12.1428 12.6707 11.0124 13.9838 10.4663C17.7329 8.90687 18.5119 8.63599 19.0197 8.62705C19.1314 8.62508 19.3811 8.65276 19.5428 8.784C19.6794 8.89483 19.717 9.04453 19.7349 9.1496C19.7529 9.25467 19.7753 9.49403 19.7575 9.68105C19.5543 11.8157 18.6753 16.996 18.228 19.3869C18.0388 20.3985 17.6662 20.7377 17.3054 20.7709C16.5215 20.8431 15.9261 20.2528 15.1668 19.7551C13.9787 18.9762 13.3074 18.4914 12.1541 17.7314C10.8212 16.853 11.6853 16.3703 12.4449 15.5813C12.6436 15.3748 16.0978 12.233 16.1647 11.948C16.1731 11.9123 16.1808 11.7794 16.1019 11.7093C16.0229 11.6391 15.9064 11.6631 15.8224 11.6822C15.7032 11.7092 13.8051 12.9638 10.128 15.446C9.58921 15.8159 9.1012 15.9962 8.66396 15.9867C8.18194 15.9763 7.25473 15.7142 6.56544 15.4901C5.72001 15.2153 5.04807 15.07 5.10658 14.6033C5.13706 14.3602 5.47183 14.1116 6.11089 13.8574Z" fill="black"/>
    </g>
    <defs>
    <clipPath id="clip0_0_3653">
    <rect width="27" height="27" fill="white" transform="translate(0 0.5)"/>
    </clipPath>
    </defs>
    </svg>
    