<svg width="27" height="28" viewBox="0 0 27 28" fill="none" xmlns="http://www.w3.org/2000/svg">
    <g clip-path="url(#clip0_0_3657)">
    <path d="M27 5.62692C26.0066 6.06792 24.939 6.36492 23.8185 6.4988C24.9626 5.81367 25.8412 4.72805 26.2541 3.4343C25.1842 4.0688 23.9985 4.53005 22.7362 4.77867C21.7271 3.70205 20.286 3.0293 18.693 3.0293C15.1166 3.0293 12.4886 6.36605 13.2964 9.82992C8.694 9.5993 4.6125 7.3943 1.87987 4.04292C0.428625 6.53255 1.12725 9.78942 3.59325 11.4387C2.6865 11.4094 1.8315 11.1608 1.08562 10.7457C1.02487 13.3118 2.86425 15.7125 5.52825 16.2469C4.74862 16.4584 3.89475 16.5079 3.02625 16.3414C3.7305 18.5419 5.77575 20.1428 8.20125 20.1878C5.8725 22.0137 2.9385 22.8293 0 22.4828C2.45138 24.0544 5.364 24.9713 8.4915 24.9713C18.7763 24.9713 24.5869 16.2852 24.2359 8.49455C25.3181 7.71267 26.2575 6.7373 27 5.62692Z" fill="white"/>
    </g>
    <defs>
    <clipPath id="clip0_0_3657">
    <rect width="27" height="27" fill="white" transform="translate(0 0.5)"/>
    </clipPath>
    </defs>
    </svg>
    